<?xml version="1.0" encoding="utf-8"?>
<!-- Generator: Adobe Illustrator 23.0.1, SVG Export Plug-In . SVG Version: 6.00 Build 0)  -->
<svg version="1.1" id="Layer_1" xmlns="http://www.w3.org/2000/svg" xmlns:xlink="http://www.w3.org/1999/xlink" x="0px" y="0px"
	 width="145px" height="66.5px" viewBox="0 0 145 66.5" style="enable-background:new 0 0 145 66.5;" xml:space="preserve">
<style type="text/css">
	.st0{fill:#C79B5D;}
	.st1{fill:#FFFFFF;}
</style>
<path id="Rounded_Rectangle_7" class="st0" d="M72.5,44.5L72.5,44.5c6.1,0,11,4.9,11,11l0,0c0,6.1-4.9,11-11,11l0,0
	c-6.1,0-11-4.9-11-11l0,0C61.5,49.5,66.4,44.5,72.5,44.5z"/>
<path class="st1" d="M123.8,2.5H21.2C9.5,2.5,0,12,0,23.6c0,11.7,9.5,21.2,21.2,21.2h41.9c0.1,0.1,0.2,0.2,0.2,0.3l5.4,5.4
	c1,1,2.4,1.5,3.8,1.5s2.7-0.5,3.8-1.5l5.4-5.4c0.1-0.1,0.1-0.2,0.2-0.3h41.9c11.7,0,21.2-9.5,21.2-21.2C145,12,135.5,2.5,123.8,2.5z
	"/>
<g>
	<path d="M25.2,31.1c-0.9-1-1.3-2.4-1.3-4.3h3c0,0.9,0.2,1.5,0.6,2c0.4,0.5,0.9,0.7,1.6,0.7h2.4c0.6,0,1.1-0.1,1.6-0.5
		c0.4-0.3,0.6-0.7,0.6-1.2v-0.8c0-0.8-0.5-1.3-1.6-1.5l-4-0.8c-1.3-0.2-2.3-0.7-3-1.4c-0.7-0.7-1-1.6-1-2.7v-1.4
		c0-0.9,0.2-1.7,0.6-2.3s1-1.2,1.8-1.5c0.8-0.4,1.6-0.5,2.7-0.5h2.5c1,0,1.8,0.2,2.5,0.7c0.8,0.4,1.3,1.1,1.7,1.9
		c0.4,0.8,0.6,1.7,0.6,2.8h-3c0-0.7-0.2-1.2-0.5-1.7c-0.3-0.4-0.8-0.6-1.3-0.6h-2.5c-0.6,0-1.1,0.1-1.5,0.4s-0.6,0.7-0.6,1.2v0.7
		c0,0.8,0.5,1.3,1.5,1.5l4,0.8c1.3,0.3,2.3,0.7,3.1,1.4c0.7,0.7,1.1,1.5,1.1,2.6v1.6c0,0.9-0.2,1.7-0.6,2.3
		c-0.4,0.7-1.1,1.2-1.8,1.6s-1.7,0.6-2.7,0.6h-2.5C27.4,32.6,26.1,32.1,25.2,31.1z"/>
	<path d="M44.2,15h8.1c0.9,0,1.7,0.2,2.3,0.6c0.7,0.4,1.2,1,1.6,1.7s0.6,1.5,0.6,2.5V22c0,1-0.2,1.8-0.6,2.5c-0.4,0.7-1,1.3-1.6,1.7
		c-0.7,0.4-1.5,0.6-2.4,0.6h-4.9v5.5h-3V15z M52.1,24c0.5,0,0.9-0.2,1.2-0.6c0.3-0.4,0.5-0.9,0.5-1.5v-2c0-0.6-0.1-1.1-0.4-1.4
		c-0.3-0.3-0.7-0.5-1.1-0.5h-5v5.9L52.1,24C52.1,23.9,52.1,24,52.1,24z"/>
	<path d="M64.5,31.8c-0.4-0.4-0.6-1-0.6-1.7V15h7.6c1.4,0,2.5,0.4,3.4,1.1c0.9,0.8,1.2,1.8,1.2,3v1.2c0,0.5-0.1,1.1-0.4,1.6
		s-0.6,0.9-1,1.2v0c0.7,0.3,1.2,0.7,1.7,1.4c0.4,0.6,0.6,1.3,0.6,2.1V28c0,1.3-0.4,2.4-1.3,3.3c-0.9,0.8-2.1,1.2-3.5,1.2h-6.2
		C65.5,32.4,64.9,32.2,64.5,31.8z M71.6,22.2c0.5,0,0.9-0.2,1.1-0.5c0.3-0.3,0.4-0.8,0.4-1.3v-0.9c0-0.5-0.1-0.8-0.5-1.1
		C72.4,18.1,72,18,71.4,18h-4.5v4.2L71.6,22.2L71.6,22.2z M72.1,29.5c0.6,0,1.1-0.1,1.5-0.4s0.5-0.7,0.5-1.2v-1.1
		c0-0.5-0.1-0.9-0.5-1.1c-0.3-0.3-0.7-0.4-1.2-0.4H67v4.4H72.1z"/>
	<path d="M84.5,15h2.7l5,10.3L97.1,15h2.7v17.4h-3v-11L93.7,28c-0.2,0.4-0.4,0.8-0.7,1s-0.5,0.3-0.8,0.3h-0.8l-3.9-7.9v11h-3
		L84.5,15L84.5,15z"/>
	<path d="M110.3,31.8c-0.9-0.5-1.5-1.3-2-2.3c-0.5-1-0.7-2.2-0.7-3.5v-4.6c0-1.3,0.2-2.5,0.7-3.5s1.1-1.8,2-2.3
		c0.9-0.5,1.9-0.8,3-0.8h2.3c1.1,0,2.1,0.3,2.9,0.8c0.8,0.5,1.5,1.3,1.9,2.3c0.5,1,0.7,2.1,0.7,3.3h-3c0-1-0.2-1.8-0.7-2.4
		c-0.5-0.6-1.1-0.9-1.8-0.9h-2.3c-0.8,0-1.5,0.3-2,1.1c-0.5,0.7-0.8,1.6-0.8,2.7v4.3c0,1.1,0.2,2,0.7,2.7s1.1,1.1,1.9,1.1h2.3
		c0.8,0,1.4-0.3,1.9-1c0.5-0.7,0.7-1.6,0.7-2.7h3c0,1.3-0.2,2.5-0.7,3.5c-0.5,1-1.1,1.8-2,2.3c-0.9,0.6-1.8,0.8-2.9,0.8h-2.3
		C112.1,32.6,111.1,32.3,110.3,31.8z"/>
</g>
</svg>
