<?xml version="1.0" encoding="utf-8"?>
<!-- Generator: Adobe Illustrator 23.0.1, SVG Export Plug-In . SVG Version: 6.00 Build 0)  -->
<svg version="1.1" id="_x2014_ÎÓÈ_x5F_1" xmlns="http://www.w3.org/2000/svg" xmlns:xlink="http://www.w3.org/1999/xlink"
	 x="0px" y="0px" width="1007.8px" height="449.3px" viewBox="0 0 1007.8 449.3" style="enable-background:new 0 0 1007.8 449.3;"
	 xml:space="preserve">
<style type="text/css">
	.st0{fill:url(#SVGID_1_);}
</style>
<linearGradient id="SVGID_1_" gradientUnits="userSpaceOnUse" x1="-2.391894e-05" y1="224.7654" x2="1007.833" y2="224.7654">
	<stop  offset="0" style="stop-color:#E4C18E"/>
	<stop  offset="1" style="stop-color:#C69A5C"/>
</linearGradient>
<path class="st0" d="M1006.3,446.3H906.1c0.1-0.2,0.1-0.4,0.1-0.6l-2.7-123.3c0-0.1,0-0.2,0-0.3l-10.7-52c-0.1-0.3-0.2-0.6-0.5-0.8
	l-2.7-2.3c-0.2-0.2-0.5-0.3-0.8-0.4v-38.2l-18.8,5.2l-3-61c0-0.8-0.7-1.4-1.5-1.4c-0.8,0-1.5,0.6-1.5,1.4l-2.2,64l-4.1,7.2h0v0.1
	l-11.8,20.7l-6.7,84.3l0,97.3h-9.5c0-0.1,0-0.2,0-0.3V316.3c0-0.2-0.1-0.5-0.2-0.7l-3.3-6.6c0-0.1,0-0.2,0-0.3v-4
	c0-0.8-0.7-1.5-1.5-1.5c-0.8,0-1.5,0.7-1.5,1.5v3.4h-6c0.3-0.3,0.5-0.7,0.5-1.1v-53.3c0-0.3-0.1-0.5-0.2-0.7l-2-3.5
	c-0.3-0.4-0.7-0.7-1.2-0.8c-0.4,0-0.7,0.1-1,0.3v-15.3c0-0.1,0-0.1,0-0.2c0.2-0.2,0.3-0.5,0.3-0.8v-1.5c0-0.3-0.1-0.6-0.3-0.8
	c0,0,0,0,0,0V212c0-0.3-0.1-0.6-0.2-0.8c-0.6-0.9-2-3.5-2.2-5.7c-0.1-0.8-0.8-1.4-1.6-1.4c-0.8,0-1.4,0.7-1.4,1.5
	c0,1.5-1.4,4.2-2.3,5.6c-0.1,0.1-0.1,0.2-0.1,0.2c-0.9-2.8-2-5.7-2.4-6.6c0-0.2,0-0.5,0-0.8h0.2c0.8,0,1.5-0.7,1.5-1.5
	s-0.7-1.5-1.5-1.5h-0.3c-0.1-1.1-0.3-2.3-0.7-3.6c-0.5-1.6-1.2-3.3-2-5c-0.9-2-1.8-4.1-2-5.5V184c0-0.8-0.7-1.5-1.5-1.5
	c-0.8,0-1.5,0.7-1.5,1.5v2.2c-0.2,0.2-0.3,0.5-0.3,0.8c-0.2,1.4-1.1,3.5-2,5.6c-0.7,1.7-1.5,3.4-2,5c-0.4,1.3-0.6,2.6-0.7,3.8
	c-0.4,0.3-0.6,0.7-0.6,1.2c0,0.5,0.2,0.9,0.5,1.1c0,0.5,0,0.9,0,1.2c-0.4,1.1-1.8,4.5-2.6,7.6v-0.1c0-0.3-0.1-0.6-0.2-0.8
	c-0.9-1.4-2.3-4.1-2.3-5.6c0-0.8-0.6-1.5-1.4-1.5c-0.8,0-1.5,0.6-1.6,1.4c-0.2,2.6-2.2,5.6-2.2,5.7c-0.2,0.2-0.2,0.5-0.2,0.8v18.3
	c-0.1,0.2-0.2,0.4-0.2,0.7v4.5c0,0.2,0.1,0.5,0.2,0.7v12.9c-0.3-0.2-0.6-0.3-1-0.3c-0.5,0-1,0.3-1.2,0.8l-2,3.5
	c-0.1,0.2-0.2,0.5-0.2,0.7v54.1h-5.5v-3.4c0-0.8-0.7-1.5-1.5-1.5c-0.8,0-1.5,0.7-1.5,1.5v4c0,0.1,0,0.2,0,0.3l-3.3,6.6c0,0,0,0,0,0
	c0,0.1-0.1,0.1-0.1,0.2c0,0,0,0.1,0,0.1c0,0.1,0,0.2,0,0.3v130h-10.5V269.9h-3.3v-16.3l-8.9,0v-11.5c0-0.8-0.7-1.5-1.5-1.5
	c-0.8,0-1.5,0.7-1.5,1.5v11.5l-3.5,0c0-14.8,0-28.6,0-28.6c0-1.6-0.3-3.1-0.9-4.5l2.1-2.6c0.5-0.6,0.4-1.6-0.2-2.1
	c-0.6-0.5-1.6-0.4-2.1,0.2l-1.4,1.7c-0.7-0.8-1.5-1.6-2.4-2.2l1.2-3.6c0.3-0.8-0.2-1.6-1-1.9c-0.8-0.3-1.6,0.2-1.9,1l-1,3.1
	c-0.7-0.3-1.4-0.4-2.2-0.6v-4.1c0-0.8-0.7-1.5-1.5-1.5c-0.8,0-1.5,0.7-1.5,1.5v4.1c-0.6,0.1-1.3,0.2-1.9,0.4l-0.9-2.9
	c-0.3-0.8-1.1-1.2-1.9-1c-0.8,0.3-1.2,1.1-1,1.9l1,3.2c-0.7,0.4-1.3,0.9-1.9,1.4l-1.7-2.2c-0.5-0.6-1.5-0.8-2.1-0.2
	c-0.6,0.5-0.8,1.5-0.2,2.1l2.1,2.7c-1.1,1.8-1.7,3.8-1.7,6v28.8c-1.9,0-3,0-3.5,0v-31.4c0-3.5,1.2-6.7,3.2-9.2h0v0
	c2.7-3.5,7-5.7,11.7-5.7c8.3,0,15,6.7,15,15v10c0,0.8,0.7,1.5,1.5,1.5c0.8,0,1.5-0.7,1.5-1.5v-9h2.8v28h3v-31h-5.9
	c-0.3-2.8-1.3-5.5-2.8-7.8v-3.1c0-1.5-0.3-3-0.8-4.4h0.3v-6.6c0-2.8-0.8-5.3-2.2-7.5v-4.9c0-2.9-1.1-5.6-3-7.7v-3.4
	c0-2.7-1.1-5.1-2.9-6.8v-8.9c0-1.8-0.8-3.4-2-4.6v-7.9c0-1.8-1.1-3.4-2.8-4v-21.8c0-0.8-0.7-1.5-1.5-1.5c-0.8,0-1.5,0.7-1.5,1.5
	v21.8c-1.6,0.6-2.8,2.1-2.8,4v7.8h0.2c-1.3,1.1-2.2,2.8-2.2,4.8v9.7c-1.3,1.6-2.1,3.7-2.1,6v2.4c-2.5,2.1-4,5.2-4,8.7v5.7
	c-1.1,2-1.7,4.2-1.7,6.7v5.9c-0.6,1.6-1,3.3-1,5.1v2.5c-1.7,2.4-2.8,5.2-3.1,8.3h-6.5v17.8h3v-14.8h3.4v30h-10.1v16.3h-2v159.7h3
	V272.9h11.7v-0.5c0.3-0.3,0.4-0.6,0.4-1v-14.5c0.5,0,2.1,0,5.1,0h1.5v-3h-0.1v-28.8c0-4.7,3.8-8.5,8.5-8.5c4.7,0,8.5,3.8,8.5,8.5
	c0,0,0,14.8,0,30.2v1.5h0.4v0.1h6.1v14.2c0,0.8,0.7,1.5,1.5,1.5c0,0,0.1,0,0.1,0v0.3h10.7v173.4h-14.3v-2.6h-3v2.6h-1v-2.6h-3v2.6
	h-12.8v-2.4h-3v2.4h-1v-2.4h-3v2.4h-13.4v-14.8h-10v-29h-13v-12v-16h-9.5v3h6.5v13h-27v41h-14V430h-3v1.5h-14v-41h-28v-13h8V388h3
	V217.5h2h13V379v4.5h34V379V217.5h13h3V389h3V214.5h-6v-23h-8v-14h-5v-6h-4.2c0.1-0.5-0.1-1.1-0.5-1.5c-6-4.7-6.7-29.7-6.5-39
	c0-0.4-0.1-0.8-0.4-1.1c-0.3-0.3-0.7-0.5-1.1-0.5h-1.3h-1V98h-3v31.5h-1H624c-0.4,0-0.8,0.2-1.1,0.4c-0.3,0.3-0.4,0.7-0.4,1.1
	c0.1,9.2-0.9,34.2-6.9,39c-0.5,0.4-0.6,0.9-0.5,1.5h-3.6v6h-5v14h-10v23h-5v160h-11v16v12h-6.3l-0.1-5.2c0-0.1,0.1-0.3,0.1-0.4
	c0-0.2,0-0.3-0.1-0.5l-7.3-315.3l0-1.2l-10.4-2.4V63.4h-22.2V46.2h1c0.8,0,1.5-0.7,1.5-1.5c0-0.8-0.7-1.5-1.5-1.5h-1V24.3h0.1
	c0.8,0,1.5-0.7,1.5-1.5s-0.7-1.5-1.5-1.5h-0.1V0.2h-3v21.1H531c-0.8,0-1.5,0.7-1.5,1.5s0.7,1.5,1.5,1.5h0.1v18.9h-1
	c-0.8,0-1.5,0.7-1.5,1.5c0,0.8,0.7,1.5,1.5,1.5h1v17.2h-19.6v14.7l-11.2,3.1l-6.7,305.5l-0.1,5l-1.2,54.6h-13.5V173.1
	c0-0.8-0.7-1.5-1.5-1.5c-0.8,0-1.5,0.7-1.5,1.5v8.5h-7.3v-8.8c0-0.8-0.7-1.5-1.5-1.5c-0.8,0-1.5,0.7-1.5,1.5v20.8h-5.8v-5.7h5.2v-3
	h-5.2v-3.7h5.2v-3h-5.2v-5c0-0.8-0.7-1.5-1.5-1.5c-0.8,0-1.5,0.7-1.5,1.5v5h-4.9v-5c0-0.8-0.7-1.5-1.5-1.5s-1.5,0.7-1.5,1.5v5h-5.8
	v-27c0-0.8-0.7-1.5-1.5-1.5c-0.8,0-1.5,0.7-1.5,1.5v27H436v-5c0-0.8-0.7-1.5-1.5-1.5s-1.5,0.7-1.5,1.5v5h-4.8v-5
	c0-0.8-0.7-1.5-1.5-1.5c-0.8,0-1.5,0.7-1.5,1.5v5h-5.3v3h5.3v3.7h-5.3v3h5.3v5.7h-5.7v-20.8c0-0.8-0.7-1.5-1.5-1.5
	c-0.8,0-1.5,0.7-1.5,1.5v8.8h-5.3v-8.5c0-0.8-0.7-1.5-1.5-1.5c-0.8,0-1.5,0.7-1.5,1.5v273.2h-11.7v-50.1c0.2-0.4,0.2-0.8,0-1.2
	c0,0,0,0,0-0.1V238.7c0-0.8-0.7-1.5-1.5-1.5c-0.8,0-1.5,0.7-1.5,1.5v207.5h-178v-51.5h23.2c-14.2,11.6-22.2,28.6-22.2,47l0,2.2l3,0
	l0-2.2c0-18.3,8.4-35.1,23-46.1l1.1-0.9h33.3l-0.3,17.5c0,0.8,0.6,1.5,1.5,1.5h-2.5c-1.2,0-4,0.5-4,5c0,2.2,1.5,4.1,3.5,4.7v15.8h-2
	c-0.8,0-1.5,0.7-1.5,1.5s0.7,1.5,1.5,1.5h2v2.5h3v-2.5h39v2.5h3v-2.5h1c0.8,0,1.5-0.7,1.5-1.5s-0.7-1.5-1.5-1.5h-1V423
	c1.5-0.9,2.5-2.5,2.5-4.3c0-0.3,0-0.6,0-0.9c0-1.2,0.1-2.4-0.8-3.3c-0.5-0.6-1.3-0.8-2.2-0.8h-2c0-2.8,0.1-5.7,0.2-8.5
	c0.1-1.6,0.1-3.1,0.2-4.8l1,1c2.1,2.2,4,4.5,5.8,6.9c-0.1,0.3,0,0.7,0.2,1c0.2,0.4,0.6,0.7,1,0.7c6.1,9.3,9.4,20.2,9.4,31.6
	c0,0.6,0,1.3,0,1.9l0,1.5l3,0.1l0-1.5c0-0.7,0-1.3,0-2c0-1.6-0.1-3.1-0.2-4.7c0.1-0.2,0.2-0.5,0.2-0.8c0-0.3-0.1-0.5-0.3-0.7
	c-0.2-1.5-0.4-3.1-0.6-4.6c0.2,0.1,0.4,0.1,0.6,0.1c0.1,0,0.3,0,0.4-0.1l5.3-1.5v5.1c-0.3-0.2-0.7-0.3-1-0.3
	c-0.8,0.1-1.4,0.8-1.4,1.6c0.1,0.8,0.7,1.4,1.5,1.4c0,0,0.1,0,0.1,0c0.3,0,0.5-0.1,0.8-0.3v7.7c0,0.8,0.7,1.5,1.5,1.5
	c0.8,0,1.5-0.7,1.5-1.5V333.2c0-0.8-0.7-1.5-1.5-1.5c-0.8,0-1.5,0.7-1.5,1.5V348c-3.4-1.2-8.1-2.8-13.6-4.9c0,0,0-0.1,0-0.1
	c-0.1-0.2-0.1-0.3-0.2-0.5c1.9-2.1,4.2-4.6,4.2-4.7c0.3-0.3,0.4-0.8,0.4-1.2c-0.1-0.4-0.3-0.8-0.6-1.1l-9.5-6.4
	c-0.6-0.4-1.4-0.3-1.9,0.2l-3.7,3.9l-1.7-1.8c0,0,0,0,0,0c8-21.5,17.5-47.3,26.7-72v47.9c0,0.8,0.7,1.5,1.5,1.5
	c0.8,0,1.5-0.7,1.5-1.5V8.2h47v219.5c0,0.8,0.7,1.5,1.5,1.5c0.8,0,1.5-0.7,1.5-1.5V6.7c0-0.8-0.7-1.5-1.5-1.5h-50
	c-0.8,0-1.5,0.7-1.5,1.5v244.1c-0.1,0.1-0.2,0.2-0.2,0.4c-9.7,26.1-20,53.9-28.6,77l-0.3-3c0-0.2-0.1-0.4-0.2-0.6l-1.9-3.5
	c-0.1-0.3-0.4-0.5-0.7-0.6l-4-2c-0.1-0.4-0.2-1.1-0.4-2c-1.3-7.2-1.6-8.6-1.8-9c0-0.1-0.1-0.1-0.1-0.2c0,0,0,0,0.1,0
	c0.5,0,1-0.3,1.3-0.8c0.7-1.2,1-2.5,1-3.9c0-0.4,0-0.8-0.1-1.2l1-0.5c0.1-0.1,0.2-0.1,0.3-0.2c0,0,0.1,0,0.1-0.1l7.6-5
	c0.6-0.4,0.8-1.1,0.6-1.8c-0.2-0.7-0.9-1.1-1.6-1l-7.7,0.9l3.7-7c0.3-0.6,0.2-1.4-0.3-1.8c-0.5-0.5-1.3-0.5-1.9-0.1l-7.4,5.2
	l-1.8-8.5c-0.1-0.6-0.7-1.1-1.3-1.2c-0.7,0-1.3,0.3-1.5,1l-3.4,8.9l0,0l-7.6-5.8c-0.5-0.4-1.3-0.4-1.8,0c-0.5,0.4-0.7,1.1-0.5,1.7
	l2.8,7.6l-5.6-0.7l-2.9-10.4c-0.1-0.3-0.2-0.5-0.4-0.6l0.2-3.3c0,0,0-0.1,0-0.1c0.6-0.5,0.7-1.2,0.8-1.6c0-0.1,0-0.2,0.1-0.3
	c0.3-1.3,0.3-5.1,0.2-6.1c0-0.2,0-0.3,0-0.5c0-0.5-0.1-1.1-0.4-1.7l0.1-2c2.1-1.3,2.9-3.3,2.9-4.6c0-0.4-0.1-0.8-0.4-1.1
	c-0.3-0.3-0.7-0.5-1.1-0.5h-0.6c0.9-0.3,1.6-0.3,1.8-0.2c0,0,0,0,0,0c0,0,0,0.1,0,0.1c0.1,0.8,0.7,1.3,1.5,1.3c0.1,0,0.1,0,0.2,0
	c0.8-0.1,1.4-0.8,1.3-1.7c0-0.2-0.1-0.4-0.1-0.6c-0.1-0.4-0.4-0.7-0.7-0.9c-0.1-0.4-0.4-0.7-0.7-0.9c-1.7-0.9-4-0.1-5.5,0.4
	l-0.4,0.1c-1.1,0.4-2.4,0.2-3.3-0.4c-0.6-0.4-0.9-0.9-1-1.6c-0.2-2.2,1.2-3.8,3.5-4c1.2-0.1,2.2,0,3.4,0.4c0.3,0.1,0.7,0.3,1.1,0.5
	c1.8,0.8,4.5,2,8.6,2.2c0.4,0,0.8-0.1,1.1-0.4c0.2,0.1,0.4,0.1,0.6,0.1c0.2,0,0.3,0,0.5-0.1c0.2-0.1,0.4-0.1,0.6-0.2
	c0.8-0.3,1.1-1.2,0.7-2c-0.3-0.8-1.2-1.1-2-0.7c-0.1,0-0.2,0.1-0.3,0.1c-0.2,0.1-0.4,0.2-0.5,0.3c-0.2-0.1-0.4-0.1-0.6-0.1
	c-3.6-0.2-5.9-1.2-7.6-1.9c-0.5-0.2-0.9-0.4-1.3-0.5c-1.6-0.6-3.1-0.8-4.8-0.6c-3.9,0.4-6.5,3.4-6.2,7.2c0.1,1.6,1,2.9,2.3,3.8
	c0.1,0.1,0.2,0.1,0.4,0.2h-4c-0.4,0-0.8,0.2-1.1,0.4c-0.3,0.3-0.4,0.7-0.4,1.1c0,1.4,0.8,3.6,3.1,4.8l0,0.5c-0.4,0.2-0.7,0.5-1,0.9
	c-0.8,1.1-1.1,2.9-0.9,5.6c0,0.2,0,0.5,0,0.8c0,1.3,0.1,2.9,0.9,3.9c0.4,0.5,1.1,0.9,2,1.1c0,0.1,0,0.1,0,0.2l0.3,3
	c0,0.3,0.1,0.5,0.3,0.7l-1.1,14.4c0,0.2,0,0.5,0.1,0.7l1.7,3.7l0.1,3.2c-0.4,0.3-0.7,0.7-0.7,1.3c0,0.8,0.1,1.5,0.4,2.1l-1.1,2
	c-0.1,0.1-0.1,0.2-0.1,0.4c-0.1,0.4-0.9,3.9,0.9,5.9c0.4,0.4,0.9,0.8,1.7,1.1c-0.3,1.2-0.7,2.3-0.7,2.3c-0.2,0.6,0,1.2,0.4,1.6
	l3.4,3l-1.3,2.5c-19.7,13.2-54.6,25-60,26.7v-67.6c0-0.8-0.7-1.5-1.5-1.5h-58.8v-18.7h50.3v17.2c0,0.8,0.7,1.5,1.5,1.5
	s1.5-0.7,1.5-1.5v-18.7c0-0.8-0.7-1.5-1.5-1.5h-2c0-0.1,0-0.2,0-0.3v-4c0-0.8-0.7-1.5-1.5-1.5h-3c0-0.2,0-0.5-0.2-0.7
	c-2.1-4.2-11.1-11.8-20.1-15.7c-0.4-0.2-0.8-0.2-1.2,0c-13.9,5.8-20.7,15.1-21,15.5c-0.2,0.3-0.3,0.6-0.3,0.9h-1.3
	c-0.8,0-1.5,0.7-1.5,1.5v4c0,0.1,0,0.2,0,0.3h-1.4c-0.8,0-1.5,0.7-1.5,1.5v20.2H146c-0.8,0-1.5,0.7-1.5,1.5v159c0,0.2,0,0.4,0.1,0.5
	h-2.1V339.7c0-0.8-0.7-1.5-1.5-1.5h-2v-19.2c0-0.8-0.7-1.5-1.5-1.5H133v-20.2c0-0.8-0.7-1.5-1.5-1.5h-2c0-0.1,0-0.2,0-0.3v-4
	c0-0.5-0.3-1-0.6-1.2c0-0.1-0.1-0.2-0.1-0.3c-3.5-7.5-11.2-12.3-19.4-12.3h-8c-8.1,0-15.4,4.4-19.1,11.6c-0.1,0.2-0.2,0.5-0.2,0.7
	H81c-0.8,0-1.5,0.7-1.5,1.5v4c0,0.1,0,0.2,0,0.3h-1.4c-0.8,0-1.5,0.7-1.5,1.5v20.2h-4.2c-0.8,0-1.5,0.7-1.5,1.5v19.2h-2
	c-0.8,0-1.5,0.7-1.5,1.5v41.8H37.3c-0.8,0-1.5,0.7-1.5,1.5v7c0,0.1,0,0.1,0,0.2H30c-0.8,0-1.5,0.7-1.5,1.5v54.5h-27
	c-0.8,0-1.5,0.7-1.5,1.5c0,0.8,0.7,1.5,1.5,1.5h1004.8c0.8,0,1.5-0.7,1.5-1.5C1007.8,447,1007.2,446.3,1006.3,446.3z M729.6,206
	l1-3.2c0.3-0.8-0.2-1.6-1-1.9c-0.8-0.3-1.6,0.2-1.9,1l-1,3.2c-0.8-0.2-1.6-0.3-2.4-0.4v-3.6c0-0.8-0.7-1.5-1.5-1.5
	c-0.8,0-1.5,0.7-1.5,1.5v3.6c-0.7,0.1-1.4,0.1-2.1,0.3l-1-3c-0.3-0.8-1.1-1.2-1.9-1c-0.8,0.3-1.2,1.1-1,1.9l1,2.9
	c-2,0.7-3.8,1.8-5.4,3.2c0.1-0.9,0.2-1.8,0.5-2.6h0.4v-1c1.8-3.9,6-6.7,10.9-6.7c6.4,0,11.6,4.8,11.9,10.7
	C733.2,207.9,731.5,206.8,729.6,206z M724.3,166.2c0.1-0.2,0.1-0.4,0.1-0.6v-3.5c0-0.8-0.7-1.5-1.5-1.5c-0.8,0-1.5,0.7-1.5,1.5v3.5
	c0,0.2,0.1,0.5,0.2,0.7c-0.7,0.1-1.3,0.4-1.9,0.7v-7.3c0-1.8,1.5-3.2,3.2-3.2s3.2,1.5,3.2,3.2v7
	C725.6,166.4,724.9,166.2,724.3,166.2z M721.7,147.1c0-0.7,0.6-1.2,1.2-1.2c0.7,0,1.2,0.6,1.2,1.2v6.4c-0.4-0.1-0.8-0.1-1.2-0.1
	s-0.8,0-1.2,0.1V147.1z M717.5,175.3c0-1.8,0.7-3.4,1.8-4.5h0.4v-0.3c1-0.9,2.3-1.4,3.6-1.4c3.2,0,5.8,2.8,5.8,6.2v1
	c-0.6-0.3-1.1-0.6-1.7-0.8l0.2-0.5c0.3-0.8-0.1-1.6-0.9-1.9c-0.8-0.3-1.6,0.1-1.9,0.9l-0.3,0.8c0,0-0.1,0-0.1,0v-3.2
	c0-0.8-0.7-1.5-1.5-1.5c-0.8,0-1.5,0.7-1.5,1.5v2.3c-0.3-0.7-1.1-1.1-1.9-0.8c-0.8,0.3-1.2,1.1-0.9,1.9l0.1,0.4
	c-0.4,0.1-0.7,0.3-1.1,0.4V175.3z M717.4,179.3h0.2v-0.1c1.5-1,3.3-1.6,5.2-1.6c2.4,0,4.6,0.9,6.2,2.3v0.9h0.9
	c1.3,1.5,2.1,3.5,2.1,5.6v1.4c-1.1-0.9-2.3-1.6-3.6-2.2l1.1-2.9c0.3-0.8-0.1-1.6-0.9-1.9c-0.8-0.3-1.6,0.1-1.9,0.9l-1.1,3.1
	c-0.4-0.1-0.8-0.1-1.3-0.2v-3.6c0-0.8-0.7-1.5-1.5-1.5c-0.8,0-1.5,0.7-1.5,1.5v3.6c-0.3,0-0.6,0.1-0.8,0.1l-1.1-3.1
	c-0.3-0.8-1.1-1.2-1.9-0.9c-0.8,0.3-1.2,1.1-0.9,1.9l1.1,3c-1.5,0.6-2.8,1.5-4,2.6v-1.9C713.5,183.5,715.1,180.9,717.4,179.3z
	 M711.9,198.8c0-6.2,5-11.2,11.2-11.2c6.2,0,11.2,5,11.2,11.2v1.9c-1.4-1.6-3.2-2.9-5.2-3.7l1.1-3.4c0.3-0.8-0.2-1.6-1-1.9
	c-0.8-0.3-1.6,0.2-1.9,1l-1.1,3.3c-0.6-0.1-1.3-0.3-1.9-0.3v-4.6c0-0.8-0.7-1.5-1.5-1.5c-0.8,0-1.5,0.7-1.5,1.5v4.6
	c-0.5,0-1,0.1-1.5,0.2l-1-3.3c-0.3-0.8-1.1-1.2-1.9-1c-0.8,0.3-1.2,1.1-1,1.9l1,3.2c-1.9,0.8-3.6,2-5,3.4V198.8z M697.5,256.6h7.1
	v13.3h-7.1V256.6z M746.5,256.6v13.3h-5.9v-13.3L746.5,256.6z M640.4,379v1.5h-28V379V217.5v-3v-20h28v20v3V379z M653.4,194.5v20
	h-10v-20h5H653.4z M625.5,132.5h3.7c-0.1,7,0.1,31.7,6.7,39h-17.5C625,164.2,625.5,139.5,625.5,132.5z M614.4,174.5h26v3h-26V174.5z
	 M609.4,180.5h2h32h2v11h-2h-3h-2V184h-3v7.5h-7V184h-3v7.5h-5V184h-3v7.5h-5h-3V180.5z M599.4,194.5h7h3v20h-10V194.5z
	 M179.6,244.4c8,3.7,15.4,10,17.6,13.4h-36C163.2,255.4,169.3,248.8,179.6,244.4z M158,263.2v-2.5h44v2.5c0,0.1,0,0.2,0,0.3H158
	C158,263.5,158,263.4,158,263.2z M867,233.8c0,0.2,0.1,0.4,0.2,0.6l-2.3,0.6l0.6-18h0.1v-3.4l0.2-4.7L867,233.8z M842.2,349.1
	l0.7-9.2h2.7V336h-2.4l0.2-2.3h2.2v-3.9h-1.9l0.2-2.6h1.3v-3.9h-1l0.2-2.3h0.8V317h-0.5l0.1-1.8h0.3v-3.9h0l2.1-26.5h2.7v-3.9h-2.4
	l0.2-2.3h2.2v-3.9h-1.9l0.1-1.8h1.7v-3.9h-1.4l0.2-2.3h1.2v-3l2.5-4.3v0.6h2.8v-3.9h-0.9l3.4-5.9v3.6h2.8v-3.9h-2.6l1.1-1.8h1.5
	v-2.7l1.7-3l0.8,13.7h-0.1v3.9h0.3l1.7,27.4h-2.6v3.9h2.8v-0.5l0.1,2.1h-2.3v3.9h2.6l0.1,1.8h-2.7v3.9h2.8v-2.4l2.1,35.1l1.3,31.1h0
	v3.9h0.2l3,69.7h-2.7v3.9h2.8v-2.5l0.1,3.1c0,0.8,0.7,1.4,1.5,1.4c0,0,0,0,0.1,0c0.8,0,1.5-0.7,1.4-1.6l-0.5-12.5h2.6v-3.9h-2.8v1
	l-0.2-3.6h2.5v-3.9h-2.6l-0.1-2.3h2.7v-3.9h-2.8v2.9l-2.6-59.9h0.1v-3.9h-0.3l-0.8-19.3l-1.2-19.8h1.8v-3.9h-2l-3.7-60.3v-1.4h-0.1
	l-0.7-11.5l20.9-5.8v99.5h3v-61.7l1.1,1l10.5,51.4l2.7,123.2c0,0.2,0,0.4,0.1,0.5h-61.1V349.1z M817.7,446V317.8h9V446
	c0,0.1,0,0.2,0,0.3h-9.1C817.7,446.2,817.7,446.1,817.7,446z M800.1,205.7c0,0.1,1.9,4.6,2.8,8.1h-12.5c1-3.5,2.8-8.1,2.8-8.1
	c0.1-0.2,0.1-0.5,0.1-0.7c0,0,0-0.4,0-0.9h6.8c0,0.6,0,0.9,0,0.9C800,205.2,800,205.4,800.1,205.7z M795.8,193.7
	c0.3-0.7,0.6-1.4,0.9-2.1c0.3,0.7,0.6,1.4,0.9,2.1c0.7,1.6,1.4,3.2,1.8,4.6c0.3,0.9,0.4,1.8,0.5,2.7h-6.5c0.1-0.9,0.3-1.8,0.5-2.7
	C794.3,196.9,795.1,195.3,795.8,193.7z M783.6,210.9c0.4,0.8,0.8,1.4,1,1.8v14.4c0,0.8,0.7,1.5,1.5,1.5c0.8,0,1.5-0.7,1.5-1.5v-10.6
	c0.2,0.2,0.5,0.3,0.8,0.3h15.3c0.2,0,0.3,0,0.5-0.1c0.2,0.1,0.3,0.1,0.5,0.1c0.1,0,0.2,0,0.3,0c0.1,0,0.1,0,0.1,0v10.2
	c0,0.8,0.7,1.5,1.5,1.5c0.8,0,1.5-0.7,1.5-1.5v-14.4c0.2-0.4,0.6-1,1-1.8c0.4,0.8,0.7,1.4,1,1.8v17.3h-7.8v-10
	c0-0.8-0.7-1.5-1.5-1.5c-0.8,0-1.5,0.7-1.5,1.5v10H798v-10c0-0.8-0.7-1.5-1.5-1.5c-0.8,0-1.5,0.7-1.5,1.5v10h-2v-10
	c0-0.8-0.7-1.5-1.5-1.5c-0.8,0-1.5,0.7-1.5,1.5v10h-7.3v-17.1C782.9,212.3,783.3,211.7,783.6,210.9z M782.7,237.3h2v15.3h-2V237.3z
	 M778.2,308.3v-53.9l0.6-1.1l0.8,1.1v1.2c0,0.8,0.7,1.5,1.5,1.5c0.8,0,1.5-0.7,1.5-1.5v-0.1h2V267c0,0.8,0.7,1.5,1.5,1.5
	c0.8,0,1.5-0.7,1.5-1.5v-11.5h17.6v11.3c0,0.8,0.7,1.5,1.5,1.5c0.8,0,1.5-0.7,1.5-1.5v-11.3c0.8,0,1.5-0.7,1.5-1.5
	c0-0.8-0.7-1.5-1.5-1.5v-11.1c0-0.8-0.7-1.5-1.5-1.5c-0.8,0-1.5,0.7-1.5,1.5v11.1h-1.6v-12.4h-3v12.4H798v-12.4h-3v12.4h-2.3v-12.4
	h-3v12.4h-2v-15.3h0.2c0.8,0,1.5-0.7,1.5-1.5s-0.7-1.5-1.5-1.5h-5.4v-1.5h28c0,0.1,0,0.1,0,0.2c-0.2,0.2-0.3,0.5-0.3,0.8v19.5
	c-0.1,0.3-0.1,0.6,0,1v1.1c0,0.8,0.7,1.5,1.5,1.5c0.8,0,1.5-0.7,1.5-1.5v-1.2l0.8-1.1l0.6,1.1V307c0,0.7,0.5,1.3,1.2,1.5
	c-0.3,0.3-0.5,0.7-0.5,1.1c0,0.8,0.7,1.5,1.5,1.5h7.1l1.8,3.7h-8.1v-1.2c0-0.8-0.7-1.5-1.5-1.5c-0.8,0-1.5,0.7-1.5,1.5V446
	c0,0.1,0,0.2,0,0.3H787v-1.7h-3v1.7h-1v-1.5h-3v1.5h-1.7V313.6c0-0.8-0.7-1.5-1.5-1.5c-0.8,0-1.5,0.7-1.5,1.5v1.2h-8.1l1.8-3.7h7.1
	c0.8,0,1.5-0.7,1.5-1.5c0,0,0-0.1,0-0.1C778,309.2,778.2,308.8,778.2,308.3z M766.3,317.8h9v128.5h-9V317.8z M682.4,405.5v26h-10
	v-26H682.4z M645.4,393.5h24v9v29h-24V393.5z M642.4,434.5h27h3h13h7v11.8h-131v-11.8h8h11h3h28H642.4z M583.4,393.5h25v38h-25v-29
	V393.5z M580.4,431.5h-8v-26h8V431.5z M563.8,84.4l6.4,279.1l-0.3-2.4l-3.6-30.1l0.4,0.1c0.2,0.1,0.4,0.1,0.6,0.1
	c0.6,0,1.2-0.4,1.4-0.9c0.3-0.8-0.1-1.6-0.8-2l-1.9-0.8l-1-8.3l1.2,0.5c0.2,0.1,0.4,0.1,0.6,0.1c0.6,0,1.2-0.4,1.4-0.9
	c0.3-0.8-0.1-1.6-0.8-2l-2.8-1.1l-1-8.3l2.1,0.8c0.2,0.1,0.4,0.1,0.6,0.1c0.6,0,1.2-0.4,1.4-0.9c0.3-0.8-0.1-1.6-0.8-1.9l-3.6-1.4
	l-1-8.2l3,1.2c0.2,0.1,0.4,0.1,0.6,0.1c0.6,0,1.2-0.4,1.4-0.9c0.3-0.8-0.1-1.6-0.8-1.9l-4.5-1.8l-1-8.2l3.9,1.5
	c0.2,0.1,0.4,0.1,0.5,0.1c0.6,0,1.2-0.4,1.4-1c0.3-0.8-0.1-1.6-0.8-1.9l-5.4-2.1l-1-8.2l4.8,1.8c0.2,0.1,0.4,0.1,0.5,0.1
	c0.6,0,1.2-0.4,1.4-1c0.3-0.8-0.1-1.6-0.9-1.9l-6.3-2.4l-1-8.2l5.6,2.2c0.2,0.1,0.4,0.1,0.5,0.1c0.6,0,1.2-0.4,1.4-1
	c0.3-0.8-0.1-1.6-0.9-1.9l-7.1-2.7l-1-8.2l6.5,2.5c0.2,0.1,0.4,0.1,0.5,0.1c0.6,0,1.2-0.4,1.4-1c0.3-0.8-0.1-1.6-0.9-1.9l-8-3.1
	l-1-8.2l7.4,2.8c0.2,0.1,0.4,0.1,0.5,0.1c0.6,0,1.2-0.4,1.4-1c0.3-0.8-0.1-1.6-0.9-1.9l-8.9-3.4l-1-8.2l8.3,3.1
	c0.2,0.1,0.4,0.1,0.5,0.1c0.6,0,1.2-0.4,1.4-1c0.3-0.8-0.1-1.6-0.9-1.9l-9.7-3.7l-1-8.2l9.2,3.4c0.2,0.1,0.3,0.1,0.5,0.1
	c0.6,0,1.2-0.4,1.4-1c0.3-0.8-0.1-1.6-0.9-1.9l-10.6-3.9l-1-8.2l10,3.7c0.2,0.1,0.3,0.1,0.5,0.1c0.6,0,1.2-0.4,1.4-1
	c0.3-0.8-0.1-1.6-0.9-1.9l-11.5-4.2l-1-8.2l10.9,4c0.2,0.1,0.3,0.1,0.5,0.1c0.6,0,1.2-0.4,1.4-1c0.3-0.8-0.1-1.6-0.9-1.9l-12.3-4.5
	l-1-8.2l11.8,4.3c0.2,0.1,0.3,0.1,0.5,0.1c0.6,0,1.2-0.4,1.4-1c0.3-0.8-0.1-1.6-0.9-1.9l-13.2-4.8l-1-8.2l12.7,4.5
	c0.2,0.1,0.3,0.1,0.5,0.1c0.6,0,1.2-0.4,1.4-1c0.3-0.8-0.1-1.6-0.9-1.9l-14.1-5l-1-8.2l13.5,4.8c0.2,0.1,0.3,0.1,0.5,0.1
	c0.6,0,1.2-0.4,1.4-1c0.3-0.8-0.1-1.6-0.9-1.9l-14.9-5.3l-1-8.2l14.4,5.1c0.2,0.1,0.3,0.1,0.5,0.1c0.6,0,1.2-0.4,1.4-1
	c0.3-0.8-0.1-1.6-0.9-1.9l-15.8-5.6l-1-8.2l15.3,5.3c0.2,0.1,0.3,0.1,0.5,0.1c0.6,0,1.2-0.4,1.4-1c0.3-0.8-0.1-1.6-0.9-1.9
	l-16.7-5.8l-1-8.2l16.2,5.6c0.2,0.1,0.3,0.1,0.5,0.1c0.6,0,1.2-0.4,1.4-1c0.3-0.8-0.1-1.6-0.9-1.9l-17.5-6l-1-8.2l17,5.8
	c0.2,0.1,0.3,0.1,0.5,0.1c0.6,0,1.2-0.4,1.4-1c0.3-0.8-0.2-1.6-0.9-1.9l-18.4-6.3l-1-8.2l17.9,6c0.2,0.1,0.3,0.1,0.5,0.1
	c0.6,0,1.2-0.4,1.4-1c0.3-0.8-0.2-1.6-0.9-1.9l-19.3-6.5l-1-8.2l18.8,6.3c0.2,0.1,0.3,0.1,0.5,0.1c0.6,0,1.2-0.4,1.4-1
	c0.3-0.8-0.2-1.6-0.9-1.9L537,84.4l-1-8.5l12.3,2.8L563.8,84.4z M553.3,66.4v10.4l-19.2-4.4v-5.9H553.3z M532.4,91
	c0.2-0.3,0.5-0.6,0.7-0.8l2.3,18.6l-1,0l-0.1,3l1.5,0l1.1,8.4l-3.1,0l0,3l3.5,0.1l5.3,42.7l-0.7,0l0,3l1,0c0-0.2,0-0.3,0.1-0.5
	l27.7,221.2c0,0.3,0.2,0.6,0.4,0.8l0.1,4.9h-55.6h-4.2h-14.7c0,0,0,0-0.1,0l0.2-8.4l18.8-155.9l6.1-50.7l4.7,0l0-3l-4.2,0
	c0.4-2.2,0.7-4.4,1.1-6.6c0.1-0.6,0.2-1.2,0.3-1.8l3,0l0-3l-2.7,0c0.3-2.8,0.6-5.6,0.8-8.4l2,0l0-3l-1.7,0c0.3-2.9,0.6-5.8,1.1-8.4
	l0.8,0l0-3l-0.3,0c0-0.1,0-0.2,0.1-0.3c1.1-6.8,1.5-14.1,2-21L532.4,91z M497.6,354.2c-0.1,0.2-0.1,0.5-0.1,0.8l-0.1,1l0.6-26
	c0,0.1,0,0.3,0.1,0.4c0.2,0.6,0.8,0.9,1.4,0.9c0.2,0,0.4,0,0.6-0.1l0.4-0.1L497.6,354.2z M514.6,66.4h16.6v6.3l-16.6,4.5V66.4z
	 M511.5,81.3l19.4-7.1l-0.2,1.9l-1,8.4l-20.1,6.7c-0.8,0.3-1.2,1.1-0.9,1.9c0.2,0.6,0.8,1,1.4,1c0.2,0,0.3,0,0.5-0.1l18.8-6.3
	l-1,8.2l-19.3,6.5c-0.8,0.3-1.2,1.1-0.9,1.9c0.2,0.6,0.8,1,1.4,1c0.2,0,0.3,0,0.5-0.1l17.9-6l-1,8.2l-18.4,6.3
	c-0.8,0.3-1.2,1.1-0.9,1.9c0.2,0.6,0.8,1,1.4,1c0.2,0,0.3,0,0.5-0.1l17-5.8l-1,8.2l-17.5,6c-0.8,0.3-1.2,1.1-0.9,1.9
	c0.2,0.6,0.8,1,1.4,1c0.2,0,0.3,0,0.5-0.1l16.2-5.6l-1,8.2l-16.7,5.8c-0.8,0.3-1.2,1.1-0.9,1.9c0.2,0.6,0.8,1,1.4,1
	c0.2,0,0.3,0,0.5-0.1l15.3-5.3l-1,8.2l-15.8,5.6c-0.8,0.3-1.2,1.1-0.9,1.9c0.2,0.6,0.8,1,1.4,1c0.2,0,0.3,0,0.5-0.1l14.4-5.1l-1,8.2
	l-14.9,5.3c-0.8,0.3-1.2,1.1-0.9,1.9c0.2,0.6,0.8,1,1.4,1c0.2,0,0.3,0,0.5-0.1l13.5-4.8l-1,8.2l-14.1,5c-0.8,0.3-1.2,1.1-0.9,1.9
	c0.2,0.6,0.8,1,1.4,1c0.2,0,0.3,0,0.5-0.1l12.7-4.5l-1,8.2l-13.2,4.8c-0.8,0.3-1.2,1.1-0.9,1.9c0.2,0.6,0.8,1,1.4,1
	c0.2,0,0.3,0,0.5-0.1l11.8-4.3l-1,8.2l-12.3,4.5c-0.8,0.3-1.2,1.1-0.9,1.9c0.2,0.6,0.8,1,1.4,1c0.2,0,0.3,0,0.5-0.1l10.9-4l-1,8.2
	l-11.5,4.2c-0.8,0.3-1.2,1.1-0.9,1.9c0.2,0.6,0.8,1,1.4,1c0.2,0,0.3,0,0.5-0.1l10-3.7l-1,8.2l-10.6,3.9c-0.8,0.3-1.2,1.2-0.9,1.9
	c0.2,0.6,0.8,1,1.4,1c0.2,0,0.4,0,0.5-0.1l9.2-3.4l-1,8.2l-9.7,3.7c-0.8,0.3-1.2,1.2-0.9,1.9c0.2,0.6,0.8,1,1.4,1
	c0.2,0,0.4,0,0.5-0.1l8.3-3.1l-1,8.2l-8.9,3.4c-0.8,0.3-1.2,1.2-0.9,1.9c0.2,0.6,0.8,1,1.4,1c0.2,0,0.4,0,0.5-0.1l7.4-2.8l-1,8.2
	l-8,3.1c-0.8,0.3-1.2,1.2-0.9,1.9c0.2,0.6,0.8,1,1.4,1c0.2,0,0.4,0,0.5-0.1l6.5-2.5l-1,8.2l-7.1,2.7c-0.8,0.3-1.2,1.2-0.9,1.9
	c0.2,0.6,0.8,1,1.4,1c0.2,0,0.4,0,0.5-0.1l5.6-2.2l-1,8.2l-6.3,2.4c-0.8,0.3-1.2,1.2-0.9,1.9c0.2,0.6,0.8,1,1.4,1
	c0.2,0,0.4,0,0.5-0.1l4.8-1.8l-1,8.2l-5.4,2.1c-0.8,0.3-1.2,1.2-0.8,1.9c0.2,0.6,0.8,1,1.4,1c0.2,0,0.4,0,0.5-0.1l3.9-1.5l-1,8.2
	l-4.5,1.8c-0.8,0.3-1.1,1.2-0.8,1.9c0.2,0.6,0.8,0.9,1.4,0.9c0.2,0,0.4,0,0.6-0.1l3-1.2l-1,8.2l-3.6,1.4c-0.8,0.3-1.1,1.2-0.8,1.9
	c0.2,0.6,0.8,0.9,1.4,0.9c0.2,0,0.4,0,0.6-0.1l2.1-0.8l-1,8.3l-2.8,1.1c-0.8,0.3-1.1,1.2-0.8,2c0.2,0.6,0.8,0.9,1.4,0.9
	c0.2,0,0.4,0,0.6-0.1l1.2-0.5l-1,8.3l-1.9,0.8c-0.5,0.2-0.8,0.6-0.9,1.1l5.4-245.3L511.5,81.3z M496.4,398.4c0,0,0.1,0,0.1,0h14.6
	h3.9h56l0.1,3.7l0,0.4h-1.7v29h-11v14.8h-63.1L496.4,398.4z M456.7,193.6h-4.9v-5.7h4.9V193.6z M436,193.6v-5.7h3.9v5.7H436z
	 M442.9,187.9h5.8v5.7h-5.8V187.9z M456.7,181.2v3.7h-4.9v-3.7H456.7z M448.8,181.2v3.7h-5.8v-3.7H448.8z M439.9,181.2v3.7H436v-3.7
	H439.9z M428.2,181.2h4.8v3.7h-4.8V181.2z M428.2,187.9h4.8v5.7h-4.8V187.9z M416.5,184.6v68.2c0,0.8,0.7,1.5,1.5,1.5
	c0.8,0,1.5-0.7,1.5-1.5v-56.2h46v123.2c0,0.8,0.7,1.5,1.5,1.5c0.8,0,1.5-0.7,1.5-1.5V184.6h7.3v177.6c-0.6,0.4-0.9,1.1-0.6,1.8
	c0.1,0.3,0.4,0.6,0.6,0.7v81.5h-7.3V334.7c0-0.8-0.7-1.5-1.5-1.5c-0.8,0-1.5,0.7-1.5,1.5v111.5h-46V266.7c0-0.8-0.7-1.5-1.5-1.5
	c-0.8,0-1.5,0.7-1.5,1.5v99h-5.3V184.6H416.5z M411.2,443.7v-4.1h4.9v-3h-4.9v-4.1h4.9v-3h-4.9v-4.1h5v-3h-5v-4.1h5v-3h-5v-4.1h5.1
	v-3h-5.1v-4.1h5.1v-3h-5.1v-4.1h5.2v-3h-5.2V390h5.2v-3h-5.2v-4.1h5.2v-3h-5.2v-4.1h5.3v-3h-5.3v-4.1h5.3v77.5H416v-2.5H411.2z
	 M215.5,391.7v-7.7H274c0,2.3,0,4,0,4.2c0,0.6,0.3,1.1,0.8,1.3c0.2,0.1,0.5,0.2,0.7,0.2c0.3,0,0.6-0.1,0.8-0.2c0,0,0.2-0.1,0.4-0.3
	c0.2,0,0,0,0.3,0l0,2.5H215.5z M311.2,439.2c0.2-0.2,0.3-0.5,0.3-0.8v-11.7c0-0.8-0.7-1.5-1.5-1.5c-0.8,0-1.5,0.7-1.5,1.5v11.7
	c0,0.3,0.1,0.6,0.3,0.8h-5.8c0.2-0.2,0.3-0.5,0.3-0.8v-11.7c0-0.8-0.7-1.5-1.5-1.5c-0.8,0-1.5,0.7-1.5,1.5v11.7
	c0,0.3,0.1,0.6,0.3,0.8h-5.7c0-0.1,0.1-0.3,0.1-0.4v-11.7c0-0.8-0.7-1.5-1.5-1.5c-0.8,0-1.5,0.7-1.5,1.5v11.7c0,0.2,0,0.3,0.1,0.4
	h-5.5c0-0.1,0.1-0.3,0.1-0.4v-11.7c0-0.8-0.7-1.5-1.5-1.5c-0.8,0-1.5,0.7-1.5,1.5v11.7c0,0.2,0,0.3,0.1,0.4H278v-15.5h39v15.5H311.2
	z M319.5,416.7c0,0.3,0,0.7,0,1c0,0.3,0,0.6,0,1c0,1.1-0.9,2-2,2h-41c-1.1,0-2-0.9-2-2c0-2,0.6-2,1-2H319.5
	C319.5,416.7,319.5,416.7,319.5,416.7z M279,413.7h-1c0.2,0,0.3,0,0.5-0.1C278.7,413.7,278.8,413.7,279,413.7c0.3,0,0.7-0.1,1-0.4
	l13.5-11.5c0.6-0.5,0.7-1.4,0.2-2c-0.4-0.5-0.8-1-1.1-1.5c-0.7-0.9-1.4-1.9-2.1-2.8c2.1-2,4.4-3.9,6.8-5.7c0.3-0.2,0.6-0.4,0.8-0.7
	c1.4,1.7,5,2.2,7.1,1c2.2-1.3,4-3.9,5.7-6.3c1-1.5,2-2.8,2.9-3.8c0.1-0.1,0.2-0.2,0.3-0.3c0.1,1.9,0.2,3.9,0.4,5.7
	c0.3,3.4,0.5,6.6,0.5,9.8c0,3.3-0.1,6.7-0.3,9.9c-0.1,2.8-0.2,5.7-0.2,8.6H279z M343.5,391.7h-24.7c-0.3,0-0.6,0.1-0.8,0.2
	c0-0.9-0.1-1.8-0.1-2.7h1.4v-3h-1.6c0-0.3-0.1-0.7-0.1-1c0-0.4-0.1-0.8-0.1-1.1h26.1V391.7z M318,394.5c0.2,0.1,0.5,0.2,0.8,0.2h8.7
	c0.1,0,0.2,0,0.3,0c0.1,0,0.2,0,0.2,0h15.4v2.6c-8.1,4.5-13.9,7.7-16.6,9.2c-1.6-2.3-3.4-4.4-5.4-6.5c0.1-0.4,0-0.9-0.3-1.3
	c-0.5-0.6-1.5-0.7-2.1-0.2c-0.3,0.3-0.5,0.7-0.5,1.1l-0.7,0.7c0-1.7,0.1-3.4,0.1-5.1C318,395,318,394.8,318,394.5z M343,426.6
	l-5.6,1.5c-0.3,0.1-0.5,0.2-0.7,0.4c-1.5-6.9-4.3-13.5-8.1-19.5c2.6-1.4,7.8-4.3,14.9-8.2v25.8C343.3,426.6,343.2,426.6,343,426.6z
	 M343.5,381.1h-26.3c-0.1-1.9-0.2-3.9-0.2-5.8c0-0.1,0-0.2,0-0.2c0.2-0.4,0.3-0.9,0.5-1.3c0.8-2.8,0.7-4.9,0.5-7.4l-0.5-8.1
	l-0.3-3.7l0,0c0.2,0.2,0.5,0.2,0.8,0.2c0.3,0,0.6-0.1,0.8-0.3V377c0,0.8,0.7,1.5,1.5,1.5c0.8,0,1.5-0.7,1.5-1.5v-24.5
	c0-0.4-0.2-0.8-0.4-1.1l1.4-1.8c0.6,0.4,1.3,0.8,2.1,0.8c0.5,0,1.1-0.2,1.6-0.5c0.8-0.5,1.3-1.2,1.8-1.8v28.3c0,0.8,0.7,1.5,1.5,1.5
	c0.8,0,1.5-0.7,1.5-1.5v-29.7c2.2,0.8,4.2,1.5,6,2.2v28c0,0.8,0.7,1.5,1.5,1.5c0.8,0,1.5-0.7,1.5-1.5v-26.9c1.2,0.4,2.3,0.8,3.2,1.1
	V381.1z M326,342.9c0.1,0.2,0.3,0.4,0.6,0.6c0.1,0,0.1,0.1,0.2,0.1c0,0,0,0,0,0c-0.1,0.4-0.1,0.8,0.1,1.1c-0.2,0.4-0.5,0.8-0.7,1.1
	l-0.1,0.2c-0.4,0.5-0.8,1.1-1.2,1.4c-0.2,0-0.5-0.3-0.7-0.5l-0.1-0.1c-1.1-0.7-1.1-1.1-1.1-1.1c0,0,0-0.2,0.3-0.4
	c0.4-0.4,0.7-0.8,1-1.2c0.4-0.5,0.7-0.9,1.1-1.2c0.2-0.2,0.3-0.2,0.4-0.2C325.6,342.7,325.8,342.8,326,342.9z M323.4,332.3l7.1,4.8
	c-0.8,0.9-1.9,2.1-2.8,3.1c-0.1,0-0.3,0-0.4,0c-0.5-0.3-1.1-0.5-1.7-0.5c-0.8,0-1.6,0.3-2.3,1c-0.6,0.5-1.1,1.1-1.5,1.6
	c-0.3,0.3-0.5,0.7-0.8,0.9c-1,1.1-1.2,2.1-1.1,2.8c0.1,0.6,0.3,1.1,0.6,1.6l-2.9,3.6l-0.9-0.5l-1-10.5L323.4,332.3z M315.4,336.3
	l-0.2-2.2l1.1,1.2L315.4,336.3z M295.4,293.5l0.1,0.8c-0.3,0.1-0.7,0.2-1,0.3l-0.3-0.8C294.5,293.7,294.9,293.6,295.4,293.5z
	 M291.3,300.9c0.8-2,3-3.5,5.6-3.8C295.3,298.5,293.5,299.6,291.3,300.9z M304.4,301.2C304.4,301.3,304.4,301.3,304.4,301.2
	c-1.9-1-3.5-2.1-5.1-4C301.7,297.7,303.7,299.2,304.4,301.2z M303.2,295.5c-0.3-0.2-0.5-0.3-0.8-0.4l0.1-0.3
	c0.3,0.2,0.6,0.4,0.8,0.6L303.2,295.5z M299.7,293.7l-0.2,0.5c-0.4-0.1-0.7-0.1-1.1-0.1l0-0.6C298.8,293.5,299.3,293.6,299.7,293.7z
	 M291.4,295.1l0.4,0.8c-0.2,0.1-0.4,0.3-0.6,0.4l-0.6-0.5C290.8,295.6,291.1,295.4,291.4,295.1z M288.4,299c0.1-0.3,0.2-0.5,0.3-0.7
	l0.4,0.3c-0.1,0.2-0.3,0.4-0.4,0.7L288.4,299z M289.1,309c0.2-0.1,0.3-0.3,0.4-0.4C289.4,308.7,289.3,308.9,289.1,309
	c0,0.1,0,0.2-0.1,0.3l-0.2-0.2C288.9,309.1,289,309.1,289.1,309z M291.6,310.9c0.3-0.4,0.5-0.8,0.8-1.2c0.1,0.1,0.1,0.2,0.2,0.3
	c0,0,0,0.1,0,0.1c0,0.6,0,1.4-0.1,2.2l-1.3-1.1C291.3,311.1,291.4,311,291.6,310.9z M295.1,308.4c-1.3-1.4-1.3-4.2-1.2-5.5
	c1.4-0.8,2.8-1.7,4.1-2.7c1.4,1.4,2.7,2.4,4.1,3.2c0,1.2-0.3,3.4-1.6,4.8c-0.7,0.8-1.7,1.2-3,1.2c0,0,0,0,0,0
	C296.5,309.4,295.7,309,295.1,308.4z M302.7,310.3c0.1-0.1,0.2-0.2,0.2-0.3c0.4,1.8,1,5,1.3,7l-1.1-0.5l-0.5-3.9
	c-0.1-0.6-0.5-1.1-1.1-1.2C302,310.9,302.4,310.6,302.7,310.3z M308.6,297.6c-0.1-0.2-0.2-0.4-0.3-0.6l1.4-0.2L308.6,297.6z
	 M305.2,293c-0.3-0.2-0.6-0.4-0.9-0.6l1.9-1.4L305.2,293z M298.4,287.2l0.7,3.3c-0.6-0.1-1.3-0.1-1.9-0.1L298.4,287.2z M291,291.8
	c-0.5,0.2-0.9,0.5-1.3,0.8l-1-2.6L291,291.8z M286.2,296.7c-0.1,0.1-0.1,0.2-0.2,0.4l-0.6-0.4L286.2,296.7z M287.9,302.4
	c0,0.1,0,0.2,0,0.3c0,0.5,0.1,1,0.2,1.5c-0.1,0.2-0.2,0.5-0.1,0.8c0.1,0.7-0.6,1.5-0.9,1.7c-0.1,0.1-0.3,0.3-0.3,0.5l-0.3-0.2
	l-0.3-0.6c0-0.3-0.1-0.6-0.1-0.9c-0.1-0.6-0.5-1-1.1-1.2l-0.9-1.6l-1.2-4.4L287.9,302.4z M280.7,302.2c-0.3,2.3-1.7,5-2.9,5.6
	c-0.9,0.4-1.6,0.6-2.1,0.5l-0.2-6.5c0-0.2,0-0.4-0.1-0.6l-1.6-3.7l1-13.6l0.9,0L280.7,302.2z M274.4,281l-0.1-1.4
	c0.3,0,0.6,0,0.9-0.1l-0.1,1.4L274.4,281z M278.2,263.4c-0.6,0.7-1.7,1.3-3.7,1.3l-0.1,0c-2,0-3.1-0.6-3.7-1.3H278.2z M271.6,269.9
	c0,0,0.3-0.3,1.9-0.4l0.2,0l0.2,0c0.8,0,1.6,0,2.2,0.2c0,0,0.1,0,0.1,0c0,0.1,0.1,0.5,0.1,0.7c0,0.2,0,0.4,0.1,0.6
	c0.1,0.8,0.1,4.2-0.1,5c0,0.1,0,0.2-0.1,0.3c-0.6,0.1-1.7,0.2-2.7,0.2c-1.2,0-1.6-0.2-1.8-0.2c-0.2-0.4-0.2-1.5-0.2-2
	c0-0.4,0-0.7,0-1C271,270.7,271.5,270,271.6,269.9z M276.2,320.5c0.2-0.8,0.6-2.1,0.9-3.3c0.1-0.5,0-1-0.3-1.3
	c-0.3-0.4-0.8-0.5-1.3-0.5c-0.9,0.1-1.1-0.2-1.2-0.3c-0.5-0.6-0.5-2.1-0.3-3.1l0.6-1c0.4,0.2,0.9,0.3,1.5,0.3c0.8,0,1.9-0.2,3.1-0.8
	c1.5-0.7,2.6-2.4,3.4-4.1l0.6,1c0,1.3-0.4,2.2-1.4,3.8c-0.4,0.7-0.2,1.6,0.6,2c0.2,0.1,0.5,0.2,0.7,0.2c0.5,0,1-0.3,1.3-0.8
	c0.5-0.8,0.9-1.6,1.2-2.4l7,6.2c0.3,0.3,0.6,0.4,1,0.4c0.4,0,0.8-0.2,1.1-0.5c0,0,0,0,0-0.1c0.3-0.3,0.6-0.7,0.6-1.2
	c0-0.7,0-1.6,0.1-2.5c0-0.2,0-0.4,0-0.6c0.6,0.2,1.3,0.3,2.1,0.3c0,0,0,0,0,0c0.8,0,1.6-0.1,2.3-0.3c-0.1,0.2-0.2,0.5-0.1,0.8
	l0.4,3.2c-0.8-0.2-1.6,0.3-1.8,1.1c-0.2,0.9-2.3,2.2-3.8,3.2c-0.7,0.5-1.5,1-2.2,1.5c-0.7,0.5-0.8,1.4-0.3,2.1
	c0.3,0.4,0.7,0.6,1.2,0.6c0.3,0,0.6-0.1,0.9-0.3c0.6-0.4,1.3-0.9,2-1.4c2-1.3,4-2.6,4.8-4.2c0.1,0.1,0.2,0.1,0.2,0.2l8.8,4.3
	l1.5,2.9l0.3,3.6c-0.1,0.3,0,0.6,0.1,0.9l2.5,28l0.5,8.1c0.2,2.3,0.3,4.1-0.4,6.3c-0.7,2.2-1.5,3.7-2.9,5.1
	c-1.1,1.1-2.1,2.6-3.2,4.2c-1.5,2.2-3.1,4.5-4.7,5.4c-0.9,0.5-2.7,0.2-3.2-0.2c0.1-0.1,0.2-0.2,0.4-0.4c0,0,0,0,0,0
	c0.6-0.5,0.7-1.5,0.2-2.1c-0.5-0.6-1.5-0.7-2.1-0.2c0,0,0,0,0,0c-1.1,0.9-2.4,1.9-3.6,2.8c-2.7,2.1-5.6,4.3-7.9,6.8
	c-0.5,0.5-0.5,1.2-0.2,1.8c0.9,1.4,1.9,2.8,2.8,4c0.1,0.1,0.2,0.3,0.3,0.4l-10.9,9.3l0.5-22.5c0-0.2,0-0.3-0.1-0.4
	c2.4-2,5.6-4.8,7.6-8c0.5-0.7,0.3-1.6-0.4-2.1c-0.7-0.5-1.6-0.3-2.1,0.4c-2.1,3.2-5.7,6.3-8,8.1c0-5.2,0.2-15.7,1-19.3
	c0.1-0.4,0-0.8-0.2-1.1c2.7-2.2,5.5-5.4,6.1-6.4c0.4-0.7,0.2-1.6-0.5-2c-0.7-0.4-1.6-0.2-2.1,0.5c-0.7,1.3-4,4.5-6.1,6.2
	c0.1-1.2,0.4-2.6,0.8-4c1-3.5,4.8-8,6.6-10.1c3.8-4.4,7.1-8.3,10.3-11.9c0.6-0.6,0.5-1.6-0.1-2.1c-0.6-0.6-1.6-0.5-2.1,0.1
	c-3.2,3.5-6.6,7.4-10.3,11.8c0.2-1.5,0.3-2.8,0-3.8c-0.4-1.5-1.5-1.9-2.2-2.2c-0.6-0.2-0.8-0.3-1.1-1.4c-0.2-0.9,0-1.6,0.5-2.4
	c2.5-3.4,6.3-5.6,10.6-8c0.8-0.4,1.5-0.9,2.3-1.3c0.7-0.4,1-1.3,0.5-2.1c-0.4-0.7-1.3-1-2.1-0.5c-0.8,0.4-1.5,0.9-2.3,1.3
	c-2.4,1.4-4.7,2.7-6.8,4.2c-0.2-0.3-0.4-0.5-0.7-0.8l-0.9-1.5l1.6-3c0.3-0.6,0.2-1.4-0.3-1.8L276.2,320.5z M215.7,357.4
	c0.1,0,2.2-0.7,5.5-1.9V376c0,0.8,0.7,1.5,1.5,1.5c0.8,0,1.5-0.7,1.5-1.5v-21.5c2.1-0.7,4.4-1.6,7-2.6v23.6c0,0.8,0.7,1.5,1.5,1.5
	c0.8,0,1.5-0.7,1.5-1.5v-24.7c2.5-1,5.2-2,8-3.2v27.9c0,0.8,0.7,1.5,1.5,1.5c0.8,0,1.5-0.7,1.5-1.5v-29.1c2.3-1,4.6-2,7-3V376
	c0,0.8,0.7,1.5,1.5,1.5c0.8,0,1.5-0.7,1.5-1.5v-34c2.5-1.2,5-2.4,7.5-3.6v38.1c0,0.8,0.7,1.5,1.5,1.5c0.8,0,1.5-0.7,1.5-1.5v-39.7
	c3.7-2,7.3-4,10.4-6.1l1.1,1.8c-0.2,0.3-0.6,0.8-0.9,1.2c-0.4,0.5-0.9,1.1-1.3,1.8c-0.1,0.2-0.3,0.4-0.4,0.6
	c-0.2,0.3-0.2,0.5-0.2,0.8c-0.4,1-0.5,2-0.3,3.3c0.5,2.5,1.7,3.1,2.9,3.6c0.1,0.1,0.3,0.1,0.4,0.3c0.3,0.9-0.2,3.4-0.6,5
	c-0.2,0.9-0.4,1.7-0.4,2.3c0,0.1,0,0.3,0,0.4c-1.5,2.1-2.9,4.4-3.5,6.5c-0.4,1.4-1.3,4.9-1,7.5c0.1,0.8,0.7,1.3,1.5,1.3
	c0,0,0,0,0.1,0c0.3,0,0.7-0.1,1.1-0.3c-0.4,3.5-0.6,9.5-0.7,14.2h-58.6v-23.6C215.6,357.4,215.6,357.4,215.7,357.4z M147.5,445.7
	V288.2h65v158h-65.1C147.5,446.1,147.5,445.9,147.5,445.7z M101.3,280.7h8c6.6,0,12.8,3.6,16.1,9.3H85.3
	C88.6,284.3,94.6,280.7,101.3,280.7z M82.5,295.6v-2.5h44v2.5c0,0.1,0,0.2,0,0.3H82.5C82.5,295.8,82.5,295.7,82.5,295.6z
	 M70.5,341.2h33c0.8,0,1.5-0.7,1.5-1.5c0-0.8-0.7-1.5-1.5-1.5H74v-17.7h21.5c0.8,0,1.5-0.7,1.5-1.5c0-0.8-0.7-1.5-1.5-1.5H79.7
	v-18.7H130v19.2c0,0.2,0,0.3,0.1,0.5c-0.1,0.2-0.1,0.3-0.1,0.5c0,0.8,0.7,1.5,1.5,1.5h4.5v17.7h-7.5c-0.8,0-1.5,0.7-1.5,1.5
	c0,0.8,0.7,1.5,1.5,1.5h11v105h-16v-54.5c0-0.8-0.7-1.5-1.5-1.5h-5.2v-7.2c0-0.8-0.7-1.5-1.5-1.5h-2.9v-4.2h-3.8v4.2H70.5V341.2z
	 M38.8,390.1v-5.5h75v5.7h-75C38.8,390.2,38.8,390.1,38.8,390.1z M31.5,393.2h89v53h-89V393.2z M187.9,291.6h3.8v5.4h-3.8V291.6z
	 M173.4,291.6h3.8v5.4h-3.8V291.6z M166.2,291.6h3.8v5.4h-3.8V291.6z M158.9,291.6h3.8v5.4h-3.8V291.6z M151.7,297v-5.4h3.8v5.4
	H151.7z M180.6,300.2h3.8v5.4h-3.8V300.2z M177.2,305.6h-3.8v-5.4h3.8V305.6z M162.8,305.6h-3.8v-5.4h3.8V305.6z M155.5,305.6h-3.8
	v-5.4h3.8V305.6z M191.7,313.6h-3.8v-5.4h3.8V313.6z M177.2,313.6h-3.8v-5.4h3.8V313.6z M170,313.6h-3.8v-5.4h3.8V313.6z
	 M162.8,313.6h-3.8v-5.4h3.8V313.6z M151.7,308.2h3.8v5.4h-3.8V308.2z M126.6,313.6h-3.8v-5.4h3.8V313.6z M177.2,322.2h-3.8v-5.4
	h3.8V322.2z M170,322.2h-3.8v-5.4h3.8V322.2z M162.8,322.2h-3.8v-5.4h3.8V322.2z M155.5,322.2h-3.8v-5.4h3.8V322.2z M126.6,322.2
	h-3.8v-5.4h3.8V322.2z M191.8,325.4v5.4H188v-5.4H191.8z M184.3,322.4h-3.8V317h3.8V322.4z M177.3,330.8h-3.8v-5.4h3.8V330.8z
	 M170.1,330.8h-3.8v-5.4h3.8V330.8z M162.8,330.8H159v-5.4h3.8V330.8z M151.8,325.4h3.8v5.4h-3.8V325.4z M133.9,330.8h-3.8v-5.4h3.8
	V330.8z M122.9,325.4h3.8v5.4h-3.8V325.4z M184.5,339.4h-3.8V334h3.8V339.4z M170.1,339.4h-3.8V334h3.8V339.4z M162.8,339.4H159V334
	h3.8V339.4z M151.8,334h3.8v5.4h-3.8V334z M188,342h3.8v5.4H188V342z M177.3,347.4h-3.8V342h3.8V347.4z M170.1,347.4h-3.8V342h3.8
	V347.4z M159,342h3.8v5.4H159V342z M151.8,342h3.8v5.4h-3.8V342z M133.9,347.4h-3.8V342h3.8V347.4z M126.7,347.4h-3.8V342h3.8V347.4
	z M188,350.6h3.8v5.4H188V350.6z M184.5,356h-3.8v-5.4h3.8V356z M159.7,350.8h3.8v5.4h-3.8V350.8z M177.3,356h-3.8v-5.4h3.8V356z
	 M170.1,356h-3.8v-5.4h3.8V356z M151.8,350.6h3.8v5.4h-3.8V350.6z M133.9,356h-3.8v-5.4h3.8V356z M122.9,350.6h3.8v5.4h-3.8V350.6z
	 M184.5,365.2h-3.8v-5.4h3.8V365.2z M177.3,365.2h-3.8v-5.4h3.8V365.2z M162.8,365.2H159v-5.4h3.8V365.2z M151.8,359.8h3.8v5.4h-3.8
	V359.8z M133.9,365.2h-3.8v-5.4h3.8V365.2z M122.9,359.8h3.8v5.4h-3.8V359.8z M188,368.4h3.8v5.4H188V368.4z M177.3,373.8h-3.8v-5.4
	h3.8V373.8z M170.1,373.8h-3.8v-5.4h3.8V373.8z M162.8,373.8H159v-5.4h3.8V373.8z M151.8,368.4h3.8v5.4h-3.8V368.4z M122.9,368.4
	h3.8v5.4h-3.8V368.4z M184.5,381.8h-3.8v-5.4h3.8V381.8z M177.3,381.8h-3.8v-5.4h3.8V381.8z M162.8,381.8H159v-5.4h3.8V381.8z
	 M151.8,376.4h3.8v5.4h-3.8V376.4z M133.9,381.8h-3.8v-5.4h3.8V381.8z M126.7,381.8h-3.8v-5.4h3.8V381.8z M119.6,356.4h-3.8v-5.4
	h3.8V356.4z M112.4,364.9h-3.8v-5.4h3.8V364.9z M119.6,374.2h-3.8v-5.4h3.8V374.2z M99.8,369.3h3.8v5.4h-3.8V369.3z M112.4,374.2
	h-3.8v-5.4h3.8V374.2z M124.8,401.3h3.8v5.4h-3.8V401.3z M130.3,434.3h3.8v5.4h-3.8V434.3z M188,384.9h3.8v5.4H188V384.9z
	 M177.3,390.4h-3.8v-5.4h3.8V390.4z M170.1,390.4h-3.8v-5.4h3.8V390.4z M162.8,390.4H159v-5.4h3.8V390.4z M151.8,384.9h3.8v5.4h-3.8
	V384.9z M133.9,390.4h-3.8v-5.4h3.8V390.4z M184.5,398.3h-3.8v-5.4h3.8V398.3z M170.1,398.3h-3.8v-5.4h3.8V398.3z M162.8,398.3H159
	v-5.4h3.8V398.3z M151.8,392.9h3.8v5.4h-3.8V392.9z M133.9,398.3h-3.8v-5.4h3.8V398.3z M184.5,406.9h-3.8v-5.4h3.8V406.9z
	 M173.5,401.5h3.8v5.4h-3.8V401.5z M170.1,406.9h-3.8v-5.4h3.8V406.9z M162.8,406.9H159v-5.4h3.8V406.9z M180.7,409.5h3.8v5.4h-3.8
	V409.5z M166.3,409.5h3.8v5.4h-3.8V409.5z M159,409.5h3.8v5.4H159V409.5z M151.8,409.5h3.8v5.4h-3.8V409.5z M133.9,414.9h-3.8v-5.4
	h3.8V414.9z M188,418h3.8v5.4H188V418z M184.5,423.5h-3.8V418h3.8V423.5z M177.3,423.5h-3.8V418h3.8V423.5z M170.1,423.5h-3.8V418
	h3.8V423.5z M162.8,423.5H159V418h3.8V423.5z M151.8,418h3.8v5.4h-3.8V418z M133.9,423.5h-3.8V418h3.8V423.5z M181.4,427h3.8v5.4
	h-3.8V427z M174.1,427h3.8v5.4h-3.8V427z M166.9,427h3.8v5.4h-3.8V427z M159.7,427h3.8v5.4h-3.8V427z M934.3,394.6
	c0,0.9-0.7,1.6-1.6,1.6c-0.9,0-1.6-0.7-1.6-1.6c0-0.9,0.7-1.6,1.6-1.6C933.6,393.1,934.3,393.8,934.3,394.6z M934.3,389.6
	c0,0.9-0.7,1.6-1.6,1.6c-0.9,0-1.6-0.7-1.6-1.6c0-0.9,0.7-1.6,1.6-1.6C933.6,388.1,934.3,388.8,934.3,389.6z M934.3,399.7
	c0,0.9-0.7,1.6-1.6,1.6c-0.9,0-1.6-0.7-1.6-1.6c0-0.9,0.7-1.6,1.6-1.6C933.6,398.1,934.3,398.8,934.3,399.7z M934.3,384.6
	c0,0.9-0.7,1.6-1.6,1.6c-0.9,0-1.6-0.7-1.6-1.6c0-0.9,0.7-1.6,1.6-1.6C933.6,383.1,934.3,383.8,934.3,384.6z M934.3,359.6
	c0,0.9-0.7,1.6-1.6,1.6c-0.9,0-1.6-0.7-1.6-1.6c0-0.9,0.7-1.6,1.6-1.6C933.6,358,934.3,358.7,934.3,359.6z M934.3,369.6
	c0,0.9-0.7,1.6-1.6,1.6c-0.9,0-1.6-0.7-1.6-1.6c0-0.9,0.7-1.6,1.6-1.6C933.6,368.1,934.3,368.7,934.3,369.6z M934.3,364.6
	c0,0.9-0.7,1.6-1.6,1.6c-0.9,0-1.6-0.7-1.6-1.6c0-0.9,0.7-1.6,1.6-1.6C933.6,363.1,934.3,363.7,934.3,364.6z M934.3,354.6
	c0,0.9-0.7,1.6-1.6,1.6c-0.9,0-1.6-0.7-1.6-1.6c0-0.9,0.7-1.6,1.6-1.6C933.6,353,934.3,353.7,934.3,354.6z M934.3,379.6
	c0,0.9-0.7,1.6-1.6,1.6c-0.9,0-1.6-0.7-1.6-1.6c0-0.9,0.7-1.6,1.6-1.6C933.6,378.1,934.3,378.8,934.3,379.6z M934.3,374.6
	c0,0.9-0.7,1.6-1.6,1.6c-0.9,0-1.6-0.7-1.6-1.6c0-0.9,0.7-1.6,1.6-1.6C933.6,373.1,934.3,373.7,934.3,374.6z M939.5,404
	c0,0.9-0.7,1.6-1.6,1.6c-0.9,0-1.6-0.7-1.6-1.6c0-0.9,0.7-1.6,1.6-1.6C938.8,402.5,939.5,403.2,939.5,404z M939.5,394
	c0,0.9-0.7,1.6-1.6,1.6c-0.9,0-1.6-0.7-1.6-1.6c0-0.9,0.7-1.6,1.6-1.6C938.8,392.5,939.5,393.1,939.5,394z M939.5,389
	c0,0.9-0.7,1.6-1.6,1.6c-0.9,0-1.6-0.7-1.6-1.6c0-0.9,0.7-1.6,1.6-1.6C938.8,387.5,939.5,388.1,939.5,389z M939.5,384
	c0,0.9-0.7,1.6-1.6,1.6c-0.9,0-1.6-0.7-1.6-1.6c0-0.9,0.7-1.6,1.6-1.6C938.8,382.4,939.5,383.1,939.5,384z M939.5,409
	c0,0.9-0.7,1.6-1.6,1.6c-0.9,0-1.6-0.7-1.6-1.6c0-0.9,0.7-1.6,1.6-1.6C938.8,407.5,939.5,408.2,939.5,409z M939.5,399
	c0,0.9-0.7,1.6-1.6,1.6c-0.9,0-1.6-0.7-1.6-1.6c0-0.9,0.7-1.6,1.6-1.6C938.8,397.5,939.5,398.1,939.5,399z M939.5,364
	c0,0.9-0.7,1.6-1.6,1.6c-0.9,0-1.6-0.7-1.6-1.6c0-0.9,0.7-1.6,1.6-1.6C938.8,362.4,939.5,363.1,939.5,364z M939.5,369
	c0,0.9-0.7,1.6-1.6,1.6c-0.9,0-1.6-0.7-1.6-1.6c0-0.9,0.7-1.6,1.6-1.6C938.8,367.4,939.5,368.1,939.5,369z M939.5,374
	c0,0.9-0.7,1.6-1.6,1.6c-0.9,0-1.6-0.7-1.6-1.6c0-0.9,0.7-1.6,1.6-1.6C938.8,372.4,939.5,373.1,939.5,374z M939.5,379
	c0,0.9-0.7,1.6-1.6,1.6c-0.9,0-1.6-0.7-1.6-1.6c0-0.9,0.7-1.6,1.6-1.6C938.8,377.4,939.5,378.1,939.5,379z M945.8,397.1
	c0,0.9-0.7,1.6-1.6,1.6c-0.9,0-1.6-0.7-1.6-1.6c0-0.9,0.7-1.6,1.6-1.6C945.1,395.6,945.8,396.3,945.8,397.1z M945.8,422.2
	c0,0.9-0.7,1.6-1.6,1.6c-0.9,0-1.6-0.7-1.6-1.6c0-0.9,0.7-1.6,1.6-1.6C945.1,420.6,945.8,421.3,945.8,422.2z M945.8,427.2
	c0,0.9-0.7,1.6-1.6,1.6c-0.9,0-1.6-0.7-1.6-1.6c0-0.9,0.7-1.6,1.6-1.6C945.1,425.6,945.8,426.3,945.8,427.2z M945.8,437.2
	c0,0.9-0.7,1.6-1.6,1.6c-0.9,0-1.6-0.7-1.6-1.6c0-0.9,0.7-1.6,1.6-1.6C945.1,435.6,945.8,436.3,945.8,437.2z M945.8,417.2
	c0,0.9-0.7,1.6-1.6,1.6c-0.9,0-1.6-0.7-1.6-1.6c0-0.9,0.7-1.6,1.6-1.6C945.1,415.6,945.8,416.3,945.8,417.2z M945.8,392.1
	c0,0.9-0.7,1.6-1.6,1.6c-0.9,0-1.6-0.7-1.6-1.6c0-0.9,0.7-1.6,1.6-1.6C945.1,390.6,945.8,391.3,945.8,392.1z M945.8,432.2
	c0,0.9-0.7,1.6-1.6,1.6c-0.9,0-1.6-0.7-1.6-1.6c0-0.9,0.7-1.6,1.6-1.6C945.1,430.6,945.8,431.3,945.8,432.2z M945.8,412.2
	c0,0.9-0.7,1.6-1.6,1.6c-0.9,0-1.6-0.7-1.6-1.6c0-0.9,0.7-1.6,1.6-1.6C945.1,410.6,945.8,411.3,945.8,412.2z M945.8,402.2
	c0,0.9-0.7,1.6-1.6,1.6c-0.9,0-1.6-0.7-1.6-1.6c0-0.9,0.7-1.6,1.6-1.6C945.1,400.6,945.8,401.3,945.8,402.2z M945.8,407.2
	c0,0.9-0.7,1.6-1.6,1.6c-0.9,0-1.6-0.7-1.6-1.6c0-0.9,0.7-1.6,1.6-1.6C945.1,405.6,945.8,406.3,945.8,407.2z M967.7,441.6
	C967.7,441.6,967.7,441.6,967.7,441.6c0,0.9-0.7,1.6-1.6,1.6c-0.8,0-1.6-0.7-1.6-1.6c0-0.9,0.7-1.6,1.6-1.6
	C967,440.1,967.7,440.8,967.7,441.6z M967.7,431.6c0,0.9-0.7,1.6-1.6,1.6c-0.8,0-1.6-0.7-1.6-1.6c0-0.9,0.7-1.6,1.6-1.6
	C967,430.1,967.7,430.8,967.7,431.6C967.7,431.6,967.7,431.6,967.7,431.6z M967.7,411.6c0,0.9-0.7,1.6-1.6,1.6
	c-0.8,0-1.6-0.7-1.6-1.6c0-0.9,0.7-1.6,1.6-1.6C967,410,967.7,410.7,967.7,411.6C967.7,411.6,967.7,411.6,967.7,411.6z M967.7,426.6
	c0,0.9-0.7,1.6-1.6,1.6c-0.8,0-1.6-0.7-1.6-1.6c0-0.9,0.7-1.6,1.6-1.6C967,425,967.7,425.7,967.7,426.6
	C967.7,426.6,967.7,426.6,967.7,426.6z M967.7,416.6c0,0.9-0.7,1.6-1.6,1.6c-0.8,0-1.6-0.7-1.6-1.6c0-0.9,0.7-1.6,1.6-1.6
	C967,415,967.7,415.7,967.7,416.6C967.7,416.6,967.7,416.6,967.7,416.6z M967.7,421.6c0,0.9-0.7,1.6-1.6,1.6c-0.8,0-1.6-0.7-1.6-1.6
	c0-0.9,0.7-1.6,1.6-1.6C967,420,967.7,420.7,967.7,421.6C967.7,421.6,967.7,421.6,967.7,421.6z M967.7,436.6c0,0.9-0.7,1.6-1.6,1.6
	c-0.8,0-1.6-0.7-1.6-1.6c0-0.9,0.7-1.6,1.6-1.6C967,435.1,967.7,435.8,967.7,436.6C967.7,436.6,967.7,436.6,967.7,436.6z
	 M967.7,406.6c0,0.9-0.7,1.6-1.6,1.6c-0.8,0-1.6-0.7-1.6-1.6c0-0.9,0.7-1.6,1.6-1.6C967,405,967.7,405.7,967.7,406.6
	C967.7,406.6,967.7,406.6,967.7,406.6z M967.7,401.5c0,0.9-0.7,1.6-1.6,1.6c-0.8,0-1.6-0.7-1.6-1.6c0-0.9,0.7-1.6,1.6-1.6
	C967,400,967.7,400.7,967.7,401.5C967.7,401.5,967.7,401.5,967.7,401.5z M973.9,443.9c0,0.9-0.7,1.6-1.6,1.6c-0.9,0-1.6-0.7-1.6-1.6
	c0-0.9,0.7-1.6,1.6-1.6C973.2,442.4,973.9,443,973.9,443.9z M974,433.9c0,0.9-0.7,1.6-1.6,1.6c-0.9,0-1.6-0.7-1.6-1.6
	c0-0.9,0.7-1.6,1.6-1.6C973.2,432.3,973.9,433,974,433.9C973.9,433.9,973.9,433.9,974,433.9z M974,428.9c0,0.9-0.7,1.6-1.6,1.6
	c-0.9,0-1.6-0.7-1.6-1.6c0-0.9,0.7-1.6,1.6-1.6C973.2,427.3,973.9,428,974,428.9C973.9,428.9,973.9,428.9,974,428.9z M974,418.9
	c0,0.9-0.7,1.6-1.6,1.6c-0.9,0-1.6-0.7-1.6-1.6c0-0.9,0.7-1.6,1.6-1.6C973.2,417.3,973.9,418,974,418.9
	C973.9,418.9,973.9,418.9,974,418.9z M974,423.9c0,0.9-0.7,1.6-1.6,1.6c-0.9,0-1.6-0.7-1.6-1.6h0c0-0.9,0.7-1.5,1.5-1.5
	C973.2,422.3,973.9,423,974,423.9C973.9,423.9,973.9,423.9,974,423.9z M970.8,413.9c0-0.9,0.7-1.6,1.6-1.6c0.9,0,1.6,0.7,1.6,1.6
	c0,0.9-0.7,1.6-1.6,1.6C971.5,415.4,970.8,414.7,970.8,413.9z M974,408.8c0,0.9-0.7,1.6-1.6,1.6c-0.9,0-1.6-0.7-1.6-1.6
	c0-0.9,0.7-1.6,1.6-1.6C973.2,407.3,973.9,408,974,408.8C973.9,408.8,973.9,408.8,974,408.8z M974,438.9c0,0.9-0.7,1.6-1.6,1.6
	c-0.9,0-1.6-0.7-1.6-1.6c0-0.9,0.7-1.6,1.6-1.6C973.2,437.3,973.9,438,974,438.9C973.9,438.9,973.9,438.9,974,438.9z M980.4,439.4
	c0,0.9-0.7,1.6-1.6,1.6c-0.9,0-1.6-0.7-1.6-1.6c0-0.9,0.7-1.6,1.6-1.6C979.7,437.8,980.4,438.5,980.4,439.4z M980.4,429.3
	c0,0.9-0.7,1.6-1.6,1.6c-0.9,0-1.6-0.7-1.6-1.6c0-0.9,0.7-1.6,1.6-1.6C979.7,427.8,980.4,428.5,980.4,429.3z M980.4,419.3
	c0,0.9-0.7,1.6-1.6,1.6c-0.9,0-1.6-0.7-1.6-1.6c0-0.9,0.7-1.6,1.6-1.6C979.7,417.8,980.4,418.4,980.4,419.3z M980.4,434.4
	c0,0.9-0.7,1.6-1.6,1.6c-0.9,0-1.6-0.7-1.6-1.6c0-0.9,0.7-1.6,1.6-1.6C979.7,432.8,980.4,433.5,980.4,434.4z M980.4,414.3
	c0,0.9-0.7,1.6-1.6,1.6c-0.9,0-1.6-0.7-1.6-1.6c0-0.9,0.7-1.6,1.6-1.6C979.7,412.7,980.4,413.4,980.4,414.3z M980.4,424.3
	c0,0.9-0.7,1.6-1.6,1.6c-0.9,0-1.6-0.7-1.6-1.6c0-0.9,0.7-1.6,1.6-1.6C979.7,422.8,980.4,423.4,980.4,424.3z M980.4,444.4
	c0,0.9-0.7,1.6-1.6,1.6c-0.9,0-1.6-0.7-1.6-1.6c0-0.9,0.7-1.6,1.6-1.6C979.7,442.8,980.4,443.5,980.4,444.4z M537.4,134.7l-4.3-0.1
	l0-3l4.3,0.1L537.4,134.7z M537.2,146.1l-4.7,0l0-3l4.7,0L537.2,146.1z M537.1,157.6l-5.1,0l0-3l5.1,0L537.1,157.6z M536.9,169
	l-5.5,0l0-3l5.5,0L536.9,169z M536.7,180.4l-5.9,0l0-3l5.9,0L536.7,180.4z M536.6,191.8l-6.3,0l0-3l6.3,0L536.6,191.8z M526.2,191.8
	l-5.1,0l0-3l5.1,0L526.2,191.8z M529.7,203.2l0-3l6.7,0l0,3L529.7,203.2z M520.7,203.3l0-3l5.3,0l0,3L520.7,203.3z M529.1,214.7l0-3
	l7.2,0l0,3L529.1,214.7z M520.2,214.7l0-3l5.6,0l0,3L520.2,214.7z M536,223.1l0,2.2c0,0.3-0.1,0.5-0.1,0.8l-7.5,0l0-3L536,223.1z
	 M519.8,226.2l0-3l5.9,0l0,3L519.8,226.2z M527.9,234.6l7.1-0.1c-0.1,1-0.2,2-0.4,3l-6.7,0.1L527.9,234.6z M519.4,237.6l0-3l6.1,0
	l0,3L519.4,237.6z M531.1,246l0,3l-9.8,0.1l0-3L531.1,246z M530.7,257.4l0,3l-10.3,0.1l0-3L530.7,257.4z M530.4,268.8l0,2.6
	c0,0.1,0,0.3,0,0.4l-10.7,0.2l0-3L530.4,268.8z M518.8,280.4l10.6-0.2c-0.1,1-0.2,2-0.4,3l-10.2,0.2L518.8,280.4z M517.9,291.9
	l10.1-0.2c-0.1,1-0.2,2-0.4,3l-9.6,0.2L517.9,291.9z M517.1,303.4l9.5-0.2c-0.1,1-0.2,2-0.4,3l-9.1,0.2L517.1,303.4z M516.4,314.8
	l8.8-0.2c-0.1,1-0.2,2-0.4,3l-8.4,0.2L516.4,314.8z M515.9,326.3l7.9-0.2c-0.1,1-0.2,2-0.4,3l-7.4,0.2L515.9,326.3z M515.5,337.7
	l6.9-0.2c-0.1,1-0.2,2-0.4,3l-6.4,0.2L515.5,337.7z M515.1,349.2l5.9-0.2c-0.1,1-0.2,2-0.4,3l-5.5,0.2L515.1,349.2z M514.6,360.6
	l5-0.2c-0.1,1-0.2,2-0.4,3l-4.5,0.1L514.6,360.6z M514.2,372.1l4-0.1c-0.1,1-0.2,2-0.4,3l-3.5,0.1L514.2,372.1z M513.8,383.6
	l3.1-0.1c-0.1,1-0.2,2-0.4,3l-2.6,0.1L513.8,383.6z M628.4,404h-3v-3.5V400v-11.5c0-0.8,0.7-1.5,1.5-1.5c0.8,0,1.5,0.7,1.5,1.5V400
	v0.5V404z M628.4,410h-3v-4h3V410z M625.4,424h3v4h-3V424z M628.4,416h-3v-4h3V416z M628.4,422h-3v-4h3V422z M637.4,425h-3v-4h3V425
	z M634.4,427h3v4h-3V427z M637.4,419h-3v-4h3V419z M637.4,396.5c0,0.2,0,0.3-0.1,0.5h0.1v12v2v2h-3v-2v-2v-12h0.1
	c-0.1-0.2-0.1-0.3-0.1-0.5v-8c0-0.8,0.7-1.5,1.5-1.5c0.8,0,1.5,0.7,1.5,1.5V396.5z M620.4,419h-3v-4h3V419z M620.4,425h-3v-4h3V425z
	 M617.4,427h3v4h-3V427z M620.4,396.5c0,0.2,0,0.3-0.1,0.5h0.1v12v2v2h-3v-2v-2v-12h0.1c-0.1-0.2-0.1-0.3-0.1-0.5v-8
	c0-0.8,0.7-1.5,1.5-1.5c0.8,0,1.5,0.7,1.5,1.5V396.5z M617.4,199h3v4h-3V199z M617.4,254h3v5h-3V254z M617.4,246h3v5h-3V246z
	 M617.4,214h3v5h-3V214z M617.4,358h3v5h-3V358z M617.4,230h3v5h-3V230z M617.4,222h3v5h-3V222z M617.4,262h3v5h-3V262z M617.4,206
	h3v5h-3V206z M617.4,366h3v5h-3V366z M617.4,286h3v5h-3V286z M617.4,294h3v5h-3V294z M617.4,350h3v5h-3V350z M617.4,270h3v5h-3V270z
	 M617.4,302h3v5h-3V302z M617.4,238h3v5h-3V238z M617.4,278h3v5h-3V278z M617.4,342h3v5h-3V342z M617.4,334h3v5h-3V334z M617.4,310
	h3v5h-3V310z M617.4,326h3v5h-3V326z M617.4,318h3v5h-3V318z M617.4,372h3v4h-3V372z M625.4,199h3v4h-3V199z M625.4,366h3v5h-3V366z
	 M625.4,358h3v5h-3V358z M625.4,222h3v5h-3V222z M625.4,278h3v5h-3V278z M625.4,262h3v5h-3V262z M625.4,286h3v5h-3V286z M625.4,294
	h3v5h-3V294z M625.4,254h3v5h-3V254z M625.4,302h3v5h-3V302z M625.4,206h3v5h-3V206z M625.4,310h3v5h-3V310z M625.4,246h3v5h-3V246z
	 M625.4,214h3v5h-3V214z M625.4,230h3v5h-3V230z M625.4,238h3v5h-3V238z M625.4,270h3v5h-3V270z M625.4,350h3v5h-3V350z M625.4,342
	h3v5h-3V342z M625.4,318h3v5h-3V318z M625.4,334h3v5h-3V334z M625.4,326h3v5h-3V326z M625.4,372h3v4h-3V372z M632.4,199h3v4h-3V199z
	 M632.4,358h3v5h-3V358z M632.4,366h3v5h-3V366z M632.4,270h3v5h-3V270z M632.4,262h3v5h-3V262z M632.4,254h3v5h-3V254z M632.4,350
	h3v5h-3V350z M632.4,278h3v5h-3V278z M632.4,318h3v5h-3V318z M632.4,334h3v5h-3V334z M632.4,326h3v5h-3V326z M632.4,342h3v5h-3V342z
	 M632.4,246h3v5h-3V246z M632.4,222h3v5h-3V222z M632.4,286h3v5h-3V286z M632.4,310h3v5h-3V310z M632.4,206h3v5h-3V206z M632.4,230
	h3v5h-3V230z M632.4,214h3v5h-3V214z M632.4,294h3v5h-3V294z M632.4,302h3v5h-3V302z M632.4,238h3v5h-3V238z M632.4,372h3v4h-3V372z
	 M653.4,291h3v91h-3V291z M656.4,238h-3v-5h3V238z M656.4,254h-3v-5h3V254z M656.4,246h-3v-5h3V246z M656.4,230h-3v-5h3V230z
	 M656.4,286h-3v-5h3V286z M656.4,278h-3v-5h3V278z M656.4,270h-3v-5h3V270z M656.4,262h-3v-5h3V262z M650.4,254h-3v-5h3V254z
	 M650.4,246h-3v-5h3V246z M650.4,238h-3v-5h3V238z M650.4,230h-3v-5h3V230z M650.4,262h-3v-5h3V262z M650.4,270h-3v-5h3V270z
	 M647.4,273h3v3v1v111h-3V277v-1V273z M650.1,211.2h-3v-12.6h3V211.2z M596.4,291h3v91h-3V291z M599.4,270h-3v-5h3V270z M599.4,278
	h-3v-5h3V278z M599.4,262h-3v-5h3V262z M599.4,254h-3v-5h3V254z M599.4,238h-3v-5h3V238z M599.4,246h-3v-5h3V246z M599.4,230h-3v-5
	h3V230z M599.4,286h-3v-5h3V286z M606.4,262h-3v-5h3V262z M606.4,270h-3v-5h3V270z M606.4,254h-3v-5h3V254z M603.4,273h3v3v1v111h-3
	V277v-1V273z M606.4,230h-3v-5h3V230z M606.4,246h-3v-5h3V246z M606.4,238h-3v-5h3V238z M603.2,198.6h3v12.6h-3V198.6z M661.9,411.3
	h3.2v4.3h-3.2V411.3z M661.9,424.1h3.2v4.3h-3.2V424.1z M661.9,417.7h3.2v4.3h-3.2V417.7z M655.5,417.7h3.2v4.3h-3.2V417.7z
	 M655.5,411.3h3.2v4.3h-3.2V411.3z M655.5,424.1h3.2v4.3h-3.2V424.1z M655.5,404.9h3.2v4.3h-3.2V404.9z M649.1,404.9h3.2v4.3h-3.2
	V404.9z M649.1,398.5h3.2v4.3h-3.2V398.5z M649.1,417.7h3.2v4.3h-3.2V417.7z M649.1,411.3h3.2v4.3h-3.2V411.3z M649.1,424.1h3.2v4.3
	h-3.2V424.1z M591.2,414.8H588v-4.3h3.2V414.8z M591.2,427.6H588v-4.3h3.2V427.6z M591.2,421.2H588V417h3.2V421.2z M597.6,408.4
	h-3.2v-4.3h3.2V408.4z M597.6,421.2h-3.2V417h3.2V421.2z M597.6,427.6h-3.2v-4.3h3.2V427.6z M597.6,414.8h-3.2v-4.3h3.2V414.8z
	 M604,414.8h-3.2v-4.3h3.2V414.8z M604,421.2h-3.2V417h3.2V421.2z M604,427.6h-3.2v-4.3h3.2V427.6z M604,408.4h-3.2v-4.3h3.2V408.4z
	 M604,402h-3.2v-4.3h3.2V402z M740.6,237v0.2c0,0.8-0.7,1.5-1.5,1.5c-0.8,0-1.5-0.7-1.5-1.5V237c0-0.8,0.7-1.5,1.5-1.5
	C739.9,235.5,740.6,236.2,740.6,237z M701.2,252.6h-3v-6.7h3V252.6z M701.2,243.8h-3v-3.5h3V243.8z M702.4,262.6v1.7
	c0,0.8-0.7,1.5-1.5,1.5c-0.8,0-1.5-0.7-1.5-1.5v-1.7c0-0.8,0.7-1.5,1.5-1.5C701.7,261.1,702.4,261.8,702.4,262.6z M741.7,263.9v-1.7
	c0-0.8,0.7-1.5,1.5-1.5c0.8,0,1.5,0.7,1.5,1.5v1.7c0,0.8-0.7,1.5-1.5,1.5C742.4,265.4,741.7,264.8,741.7,263.9z M697,278.1
	c0-0.8,0.7-1.5,1.5-1.5h5.8c0.8,0,1.5,0.7,1.5,1.5c0,0.8-0.7,1.5-1.5,1.5h-5.8C697.7,279.6,697,278.9,697,278.1z M697,284
	c0-0.8,0.7-1.5,1.5-1.5h5.8c0.8,0,1.5,0.7,1.5,1.5c0,0.8-0.7,1.5-1.5,1.5h-5.8C697.7,285.5,697,284.8,697,284z M697,289.8
	c0-0.8,0.7-1.5,1.5-1.5h5.8c0.8,0,1.5,0.7,1.5,1.5c0,0.8-0.7,1.5-1.5,1.5h-5.8C697.7,291.3,697,290.7,697,289.8z M697,295.7
	c0-0.8,0.7-1.5,1.5-1.5h5.8c0.8,0,1.5,0.7,1.5,1.5c0,0.8-0.7,1.5-1.5,1.5h-5.8C697.7,297.2,697,296.6,697,295.7z M697,301.6
	c0-0.8,0.7-1.5,1.5-1.5h5.8c0.8,0,1.5,0.7,1.5,1.5c0,0.8-0.7,1.5-1.5,1.5h-5.8C697.7,303.1,697,302.4,697,301.6z M697,307.5
	c0-0.8,0.7-1.5,1.5-1.5h5.8c0.8,0,1.5,0.7,1.5,1.5c0,0.8-0.7,1.5-1.5,1.5h-5.8C697.7,309,697,308.3,697,307.5z M697,313.3
	c0-0.8,0.7-1.5,1.5-1.5h5.8c0.8,0,1.5,0.7,1.5,1.5c0,0.8-0.7,1.5-1.5,1.5h-5.8C697.7,314.8,697,314.2,697,313.3z M697,319.2
	c0-0.8,0.7-1.5,1.5-1.5h5.8c0.8,0,1.5,0.7,1.5,1.5c0,0.8-0.7,1.5-1.5,1.5h-5.8C697.7,320.7,697,320.1,697,319.2z M697,325.1
	c0-0.8,0.7-1.5,1.5-1.5h5.8c0.8,0,1.5,0.7,1.5,1.5c0,0.8-0.7,1.5-1.5,1.5h-5.8C697.7,326.6,697,325.9,697,325.1z M697,331
	c0-0.8,0.7-1.5,1.5-1.5h5.8c0.8,0,1.5,0.7,1.5,1.5c0,0.8-0.7,1.5-1.5,1.5h-5.8C697.7,332.5,697,331.8,697,331z M697,336.8
	c0-0.8,0.7-1.5,1.5-1.5h5.8c0.8,0,1.5,0.7,1.5,1.5c0,0.8-0.7,1.5-1.5,1.5h-5.8C697.7,338.3,697,337.7,697,336.8z M697,342.7
	c0-0.8,0.7-1.5,1.5-1.5h5.8c0.8,0,1.5,0.7,1.5,1.5c0,0.8-0.7,1.5-1.5,1.5h-5.8C697.7,344.2,697,343.6,697,342.7z M697,348.6
	c0-0.8,0.7-1.5,1.5-1.5h5.8c0.8,0,1.5,0.7,1.5,1.5c0,0.8-0.7,1.5-1.5,1.5h-5.8C697.7,350.1,697,349.4,697,348.6z M697,354.5
	c0-0.8,0.7-1.5,1.5-1.5h5.8c0.8,0,1.5,0.7,1.5,1.5c0,0.8-0.7,1.5-1.5,1.5h-5.8C697.7,356,697,355.3,697,354.5z M697,360.3
	c0-0.8,0.7-1.5,1.5-1.5h5.8c0.8,0,1.5,0.7,1.5,1.5c0,0.8-0.7,1.5-1.5,1.5h-5.8C697.7,361.8,697,361.2,697,360.3z M697,366.2
	c0-0.8,0.7-1.5,1.5-1.5h5.8c0.8,0,1.5,0.7,1.5,1.5c0,0.8-0.7,1.5-1.5,1.5h-5.8C697.7,367.7,697,367.1,697,366.2z M697,372.1
	c0-0.8,0.7-1.5,1.5-1.5h5.8c0.8,0,1.5,0.7,1.5,1.5c0,0.8-0.7,1.5-1.5,1.5h-5.8C697.7,373.6,697,372.9,697,372.1z M697,378
	c0-0.8,0.7-1.5,1.5-1.5h5.8c0.8,0,1.5,0.7,1.5,1.5c0,0.8-0.7,1.5-1.5,1.5h-5.8C697.7,379.5,697,378.8,697,378z M697,383.8
	c0-0.8,0.7-1.5,1.5-1.5h5.8c0.8,0,1.5,0.7,1.5,1.5c0,0.8-0.7,1.5-1.5,1.5h-5.8C697.7,385.3,697,384.7,697,383.8z M697,389.7
	c0-0.8,0.7-1.5,1.5-1.5h5.8c0.8,0,1.5,0.7,1.5,1.5c0,0.8-0.7,1.5-1.5,1.5h-5.8C697.7,391.2,697,390.6,697,389.7z M697,395.6
	c0-0.8,0.7-1.5,1.5-1.5h5.8c0.8,0,1.5,0.7,1.5,1.5c0,0.8-0.7,1.5-1.5,1.5h-5.8C697.7,397.1,697,396.4,697,395.6z M697,401.5
	c0-0.8,0.7-1.5,1.5-1.5h5.8c0.8,0,1.5,0.7,1.5,1.5c0,0.8-0.7,1.5-1.5,1.5h-5.8C697.7,403,697,402.3,697,401.5z M697,407.3
	c0-0.8,0.7-1.5,1.5-1.5h5.8c0.8,0,1.5,0.7,1.5,1.5c0,0.8-0.7,1.5-1.5,1.5h-5.8C697.7,408.8,697,408.2,697,407.3z M697,413.2
	c0-0.8,0.7-1.5,1.5-1.5h5.8c0.8,0,1.5,0.7,1.5,1.5c0,0.8-0.7,1.5-1.5,1.5h-5.8C697.7,414.7,697,414.1,697,413.2z M697,419.1
	c0-0.8,0.7-1.5,1.5-1.5h5.8c0.8,0,1.5,0.7,1.5,1.5c0,0.8-0.7,1.5-1.5,1.5h-5.8C697.7,420.6,697,419.9,697,419.1z M697,425
	c0-0.8,0.7-1.5,1.5-1.5h5.8c0.8,0,1.5,0.7,1.5,1.5c0,0.8-0.7,1.5-1.5,1.5h-5.8C697.7,426.5,697,425.8,697,425z M697,430.8
	c0-0.8,0.7-1.5,1.5-1.5h5.8c0.8,0,1.5,0.7,1.5,1.5c0,0.8-0.7,1.5-1.5,1.5h-5.8C697.7,432.3,697,431.7,697,430.8z M697,436.7
	c0-0.8,0.7-1.5,1.5-1.5h5.8c0.8,0,1.5,0.7,1.5,1.5c0,0.8-0.7,1.5-1.5,1.5h-5.8C697.7,438.2,697,437.6,697,436.7z M697,442.6
	c0-0.8,0.7-1.5,1.5-1.5h5.8c0.8,0,1.5,0.7,1.5,1.5c0,0.8-0.7,1.5-1.5,1.5h-5.8C697.7,444.1,697,443.4,697,442.6z M738,278.1
	c0-0.8,0.7-1.5,1.5-1.5h5.8c0.8,0,1.5,0.7,1.5,1.5c0,0.8-0.7,1.5-1.5,1.5h-5.8C738.7,279.6,738,278.9,738,278.1z M738,284
	c0-0.8,0.7-1.5,1.5-1.5h5.8c0.8,0,1.5,0.7,1.5,1.5c0,0.8-0.7,1.5-1.5,1.5h-5.8C738.7,285.5,738,284.8,738,284z M738,289.8
	c0-0.8,0.7-1.5,1.5-1.5h5.8c0.8,0,1.5,0.7,1.5,1.5c0,0.8-0.7,1.5-1.5,1.5h-5.8C738.7,291.3,738,290.7,738,289.8z M738,295.7
	c0-0.8,0.7-1.5,1.5-1.5h5.8c0.8,0,1.5,0.7,1.5,1.5c0,0.8-0.7,1.5-1.5,1.5h-5.8C738.7,297.2,738,296.6,738,295.7z M738,301.6
	c0-0.8,0.7-1.5,1.5-1.5h5.8c0.8,0,1.5,0.7,1.5,1.5c0,0.8-0.7,1.5-1.5,1.5h-5.8C738.7,303.1,738,302.4,738,301.6z M738,307.5
	c0-0.8,0.7-1.5,1.5-1.5h5.8c0.8,0,1.5,0.7,1.5,1.5c0,0.8-0.7,1.5-1.5,1.5h-5.8C738.7,309,738,308.3,738,307.5z M738,313.3
	c0-0.8,0.7-1.5,1.5-1.5h5.8c0.8,0,1.5,0.7,1.5,1.5c0,0.8-0.7,1.5-1.5,1.5h-5.8C738.7,314.8,738,314.2,738,313.3z M738,319.2
	c0-0.8,0.7-1.5,1.5-1.5h5.8c0.8,0,1.5,0.7,1.5,1.5c0,0.8-0.7,1.5-1.5,1.5h-5.8C738.7,320.7,738,320.1,738,319.2z M738,325.1
	c0-0.8,0.7-1.5,1.5-1.5h5.8c0.8,0,1.5,0.7,1.5,1.5c0,0.8-0.7,1.5-1.5,1.5h-5.8C738.7,326.6,738,325.9,738,325.1z M738,331
	c0-0.8,0.7-1.5,1.5-1.5h5.8c0.8,0,1.5,0.7,1.5,1.5c0,0.8-0.7,1.5-1.5,1.5h-5.8C738.7,332.5,738,331.8,738,331z M738,336.8
	c0-0.8,0.7-1.5,1.5-1.5h5.8c0.8,0,1.5,0.7,1.5,1.5c0,0.8-0.7,1.5-1.5,1.5h-5.8C738.7,338.3,738,337.7,738,336.8z M738,342.7
	c0-0.8,0.7-1.5,1.5-1.5h5.8c0.8,0,1.5,0.7,1.5,1.5c0,0.8-0.7,1.5-1.5,1.5h-5.8C738.7,344.2,738,343.6,738,342.7z M738,348.6
	c0-0.8,0.7-1.5,1.5-1.5h5.8c0.8,0,1.5,0.7,1.5,1.5c0,0.8-0.7,1.5-1.5,1.5h-5.8C738.7,350.1,738,349.4,738,348.6z M738,354.5
	c0-0.8,0.7-1.5,1.5-1.5h5.8c0.8,0,1.5,0.7,1.5,1.5c0,0.8-0.7,1.5-1.5,1.5h-5.8C738.7,356,738,355.3,738,354.5z M738,360.3
	c0-0.8,0.7-1.5,1.5-1.5h5.8c0.8,0,1.5,0.7,1.5,1.5c0,0.8-0.7,1.5-1.5,1.5h-5.8C738.7,361.8,738,361.2,738,360.3z M738,366.2
	c0-0.8,0.7-1.5,1.5-1.5h5.8c0.8,0,1.5,0.7,1.5,1.5c0,0.8-0.7,1.5-1.5,1.5h-5.8C738.7,367.7,738,367.1,738,366.2z M738,372.1
	c0-0.8,0.7-1.5,1.5-1.5h5.8c0.8,0,1.5,0.7,1.5,1.5c0,0.8-0.7,1.5-1.5,1.5h-5.8C738.7,373.6,738,372.9,738,372.1z M738,378
	c0-0.8,0.7-1.5,1.5-1.5h5.8c0.8,0,1.5,0.7,1.5,1.5c0,0.8-0.7,1.5-1.5,1.5h-5.8C738.7,379.5,738,378.8,738,378z M738,383.8
	c0-0.8,0.7-1.5,1.5-1.5h5.8c0.8,0,1.5,0.7,1.5,1.5c0,0.8-0.7,1.5-1.5,1.5h-5.8C738.7,385.3,738,384.7,738,383.8z M738,389.7
	c0-0.8,0.7-1.5,1.5-1.5h5.8c0.8,0,1.5,0.7,1.5,1.5c0,0.8-0.7,1.5-1.5,1.5h-5.8C738.7,391.2,738,390.6,738,389.7z M738,395.6
	c0-0.8,0.7-1.5,1.5-1.5h5.8c0.8,0,1.5,0.7,1.5,1.5c0,0.8-0.7,1.5-1.5,1.5h-5.8C738.7,397.1,738,396.4,738,395.6z M738,401.5
	c0-0.8,0.7-1.5,1.5-1.5h5.8c0.8,0,1.5,0.7,1.5,1.5c0,0.8-0.7,1.5-1.5,1.5h-5.8C738.7,403,738,402.3,738,401.5z M738,407.3
	c0-0.8,0.7-1.5,1.5-1.5h5.8c0.8,0,1.5,0.7,1.5,1.5c0,0.8-0.7,1.5-1.5,1.5h-5.8C738.7,408.8,738,408.2,738,407.3z M738,413.2
	c0-0.8,0.7-1.5,1.5-1.5h5.8c0.8,0,1.5,0.7,1.5,1.5c0,0.8-0.7,1.5-1.5,1.5h-5.8C738.7,414.7,738,414.1,738,413.2z M738,419.1
	c0-0.8,0.7-1.5,1.5-1.5h5.8c0.8,0,1.5,0.7,1.5,1.5c0,0.8-0.7,1.5-1.5,1.5h-5.8C738.7,420.6,738,419.9,738,419.1z M738,425
	c0-0.8,0.7-1.5,1.5-1.5h5.8c0.8,0,1.5,0.7,1.5,1.5c0,0.8-0.7,1.5-1.5,1.5h-5.8C738.7,426.5,738,425.8,738,425z M738,430.8
	c0-0.8,0.7-1.5,1.5-1.5h5.8c0.8,0,1.5,0.7,1.5,1.5c0,0.8-0.7,1.5-1.5,1.5h-5.8C738.7,432.3,738,431.7,738,430.8z M738,436.7
	c0-0.8,0.7-1.5,1.5-1.5h5.8c0.8,0,1.5,0.7,1.5,1.5c0,0.8-0.7,1.5-1.5,1.5h-5.8C738.7,438.2,738,437.6,738,436.7z M738,442.6
	c0-0.8,0.7-1.5,1.5-1.5h5.8c0.8,0,1.5,0.7,1.5,1.5c0,0.8-0.7,1.5-1.5,1.5h-5.8C738.7,444.1,738,443.4,738,442.6z M722.2,439.4h-3v-4
	h3V439.4z M722.2,241.4h-3v-4h3V241.4z M719.2,441.4h3v4h-3V441.4z M722.2,235.4h-3v-4h3V235.4z M722.2,403.4h-3v-4h3V403.4z
	 M722.2,247.4h-3v-4h3V247.4z M722.2,409.4h-3v-4h3V409.4z M722.2,415.4h-3v-4h3V415.4z M722.2,427.4h-3v-4h3V427.4z M722.2,421.4
	h-3v-4h3V421.4z M722.2,433.4h-3v-4h3V433.4z M722.2,361.4h-3v-4h3V361.4z M722.2,349.4h-3v-4h3V349.4z M722.2,325.4h-3v-4h3V325.4z
	 M722.2,343.4h-3v-4h3V343.4z M722.2,337.4h-3v-4h3V337.4z M722.2,331.4h-3v-4h3V331.4z M722.2,355.4h-3v-4h3V355.4z M722.2,367.4
	h-3v-4h3V367.4z M722.2,391.4h-3v-4h3V391.4z M722.2,253.4h-3v-4h3V253.4z M722.2,373.4h-3v-4h3V373.4z M722.2,379.4h-3v-4h3V379.4z
	 M722.2,385.4h-3v-4h3V385.4z M722.2,283.4h-3v-4h3V283.4z M722.2,277.4h-3v-4h3V277.4z M722.2,271.4h-3v-4h3V271.4z M722.2,319.4
	h-3v-4h3V319.4z M722.2,259.4h-3v-4h3V259.4z M722.2,265.4h-3v-4h3V265.4z M722.2,313.4h-3v-4h3V313.4z M722.2,307.4h-3v-4h3V307.4z
	 M722.2,289.4h-3v-4h3V289.4z M722.2,301.4h-3v-4h3V301.4z M722.2,295.4h-3v-4h3V295.4z M722.2,397.4h-3v-4h3V397.4z M726.1,313.6
	h-3v-4h3V313.6z M726.1,301.6h-3v-4h3V301.6z M726.1,307.6h-3v-4h3V307.6z M726.1,295.6h-3v-4h3V295.6z M726.1,325.6h-3v-4h3V325.6z
	 M726.1,319.6h-3v-4h3V319.6z M726.1,331.6h-3v-4h3V331.6z M726.1,439.6h-3v-4h3V439.6z M726.1,289.6h-3v-4h3V289.6z M726.1,247.6
	h-3v-4h3V247.6z M726.1,253.6h-3v-4h3V253.6z M726.1,283.6h-3v-4h3V283.6z M726.1,241.6h-3v-4h3V241.6z M726.1,259.6h-3v-4h3V259.6z
	 M726.1,277.6h-3v-4h3V277.6z M726.1,271.6h-3v-4h3V271.6z M726.1,235.6h-3v-4h3V235.6z M726.1,265.6h-3v-4h3V265.6z M726.1,361.6
	h-3v-4h3V361.6z M726.1,367.6h-3v-4h3V367.6z M726.1,373.6h-3v-4h3V373.6z M726.1,355.6h-3v-4h3V355.6z M726.1,349.6h-3v-4h3V349.6z
	 M726.1,337.6h-3v-4h3V337.6z M723.1,441.6h3v4h-3V441.6z M726.1,343.6h-3v-4h3V343.6z M726.1,379.6h-3v-4h3V379.6z M726.1,385.6h-3
	v-4h3V385.6z M726.1,421.6h-3v-4h3V421.6z M726.1,427.6h-3v-4h3V427.6z M726.1,433.6h-3v-4h3V433.6z M726.1,415.6h-3v-4h3V415.6z
	 M726.1,391.6h-3v-4h3V391.6z M726.1,409.6h-3v-4h3V409.6z M726.1,397.6h-3v-4h3V397.6z M726.1,403.6h-3v-4h3V403.6z M722.2,229.7
	h-3v-3.1v-0.1v-0.2c0-0.8,0.7-1.5,1.5-1.5c0.8,0,1.5,0.7,1.5,1.5v0.2v0.1V229.7z M723,226.3c0-0.8,0.7-1.5,1.5-1.5
	c0.8,0,1.5,0.7,1.5,1.5v0.2v0.1v3.1h-3v-3.1v-0.1V226.3z M721.1,220.8c0.4,0.7,0.1,1.6-0.6,2c-0.2,0.1-0.4,0.2-0.7,0.2
	c-0.5,0-1.1-0.3-1.3-0.8c-0.4-0.7-0.1-1.6,0.6-2C719.8,219.8,720.7,220,721.1,220.8z M718.3,225.6c-0.2,0.7-0.8,1.2-1.5,1.2
	c-0.1,0-0.2,0-0.3,0c-0.8-0.2-1.3-1-1.1-1.8c0.2-0.8,1-1.3,1.8-1.1C718,224,718.5,224.8,718.3,225.6z M723.3,220.7
	c0.3-0.8,1.2-1.1,2-0.8c0.8,0.3,1.1,1.2,0.8,2c-0.2,0.6-0.8,0.9-1.4,0.9c-0.2,0-0.4-0.1-0.6-0.1
	C723.3,222.4,722.9,221.5,723.3,220.7z M726.5,245c0-0.8,0.7-1.5,1.5-1.5s1.5,0.7,1.5,1.5c0,0.8-0.7,1.5-1.5,1.5
	S726.5,245.8,726.5,245z M726.5,255c0-0.8,0.7-1.5,1.5-1.5s1.5,0.7,1.5,1.5c0,0.8-0.7,1.5-1.5,1.5S726.5,255.8,726.5,255z
	 M726.5,240c0-0.8,0.7-1.5,1.5-1.5s1.5,0.7,1.5,1.5c0,0.8-0.7,1.5-1.5,1.5S726.5,240.8,726.5,240z M726.5,235c0-0.8,0.7-1.5,1.5-1.5
	s1.5,0.7,1.5,1.5c0,0.8-0.7,1.5-1.5,1.5S726.5,235.8,726.5,235z M726.5,250c0-0.8,0.7-1.5,1.5-1.5s1.5,0.7,1.5,1.5
	c0,0.8-0.7,1.5-1.5,1.5S726.5,250.8,726.5,250z M729.3,224.6c0.2,0.8-0.2,1.6-1,1.8c-0.1,0.1-0.3,0.1-0.4,0.1
	c-0.6,0-1.2-0.4-1.4-1.1c-0.2-0.8,0.2-1.6,1-1.9C728.2,223.3,729,223.8,729.3,224.6z M715.2,235.3c0-0.8,0.7-1.5,1.5-1.5
	c0.8,0,1.5,0.7,1.5,1.5h0c0,0.8-0.7,1.5-1.5,1.5C715.9,236.8,715.2,236.2,715.2,235.3z M715.2,230.3c0-0.8,0.7-1.5,1.5-1.5
	c0.8,0,1.5,0.7,1.5,1.5c0,0.8-0.7,1.5-1.5,1.5C715.9,231.8,715.2,231.1,715.2,230.3z M729.5,230c0,0.8-0.7,1.5-1.5,1.5
	s-1.5-0.7-1.5-1.5c0-0.8,0.7-1.5,1.5-1.5S729.5,229.1,729.5,230z M715.2,240.3c0-0.8,0.7-1.5,1.5-1.5c0.8,0,1.5,0.7,1.5,1.5h0
	c0,0.8-0.7,1.5-1.5,1.5C715.9,241.8,715.2,241.2,715.2,240.3z M715.2,245.3c0-0.8,0.7-1.5,1.5-1.5c0.8,0,1.5,0.7,1.5,1.5h0
	c0,0.8-0.7,1.5-1.5,1.5C715.9,246.8,715.2,246.2,715.2,245.3z M715.2,255.3c0-0.8,0.7-1.5,1.5-1.5c0.8,0,1.5,0.7,1.5,1.5h0
	c0,0.8-0.7,1.5-1.5,1.5C715.9,256.8,715.2,256.2,715.2,255.3z M715.2,250.3c0-0.8,0.7-1.5,1.5-1.5c0.8,0,1.5,0.7,1.5,1.5h0
	c0,0.8-0.7,1.5-1.5,1.5C715.9,251.8,715.2,251.2,715.2,250.3z M708.9,433.9h3v3c-3,0,0,0-3,0V433.9z M708.9,423.9h3v3c-3,0,0,0-3,0
	V423.9z M708.9,418.9h3v3c-3,0,0,0-3,0V418.9z M708.9,388.9h3v3c-3,0,0,0-3,0V388.9z M708.9,428.9h3v3c-3,0,0,0-3,0V428.9z
	 M708.9,338.9h3v3c-3,0,0,0-3,0V338.9z M708.9,438.9h3v3c-3,0,0,0-3,0V438.9z M708.9,393.9h3v3c-3,0,0,0-3,0V393.9z M708.9,413.9h3
	v3c-3,0,0,0-3,0V413.9z M708.9,408.9h3v3c-3,0,0,0-3,0V408.9z M708.9,403.9h3v3c-3,0,0,0-3,0V403.9z M708.9,378.9h3v3c-3,0,0,0-3,0
	V378.9z M708.9,283.9h3v3c-3,0,0,0-3,0V283.9z M708.9,308.9h3v3c-3,0,0,0-3,0V308.9z M708.9,298.9h3v3c-3,0,0,0-3,0V298.9z
	 M708.9,288.9h3v3c-3,0,0,0-3,0V288.9z M708.9,293.9h3v3c-3,0,0,0-3,0V293.9z M708.9,313.9h3v3c-3,0,0,0-3,0V313.9z M708.9,383.9h3
	v3c-3,0,0,0-3,0V383.9z M708.9,333.9h3v3c-3,0,0,0-3,0V333.9z M708.9,398.9h3v3c-3,0,0,0-3,0V398.9z M708.9,323.9h3v3c-3,0,0,0-3,0
	V323.9z M708.9,328.9h3v3c-3,0,0,0-3,0V328.9z M708.9,318.9h3v3c-3,0,0,0-3,0V318.9z M708.9,303.9h3v3c-3,0,0,0-3,0V303.9z
	 M708.9,358.9h3v3c-3,0,0,0-3,0V358.9z M708.9,348.9h3v3c-3,0,0,0-3,0V348.9z M708.9,363.9h3v3c-3,0,0,0-3,0V363.9z M708.9,353.9h3
	v3c-3,0,0,0-3,0V353.9z M708.9,373.9h3v3c-3,0,0,0-3,0V373.9z M708.9,368.9h3v3c-3,0,0,0-3,0V368.9z M708.9,278.9h3v3c-3,0,0,0-3,0
	V278.9z M708.9,268.9h3v3c-3,0,0,0-3,0V268.9z M708.9,273.9h3v3c-3,0,0,0-3,0V273.9z M708.9,343.9h3v3c-3,0,0,0-3,0V343.9z
	 M711.9,261.9c-3,0,0,0-3,0v-3h3V261.9z M708.9,263.9h3v3c-3,0,0,0-3,0V263.9z M712.9,273.9h3v3c-3,0,0,0-3,0V273.9z M712.9,358.9h3
	v3c-3,0,0,0-3,0V358.9z M712.9,388.9h3v3c-3,0,0,0-3,0V388.9z M712.9,393.9h3v3c-3,0,0,0-3,0V393.9z M712.9,378.9h3v3c-3,0,0,0-3,0
	V378.9z M712.9,383.9h3v3c-3,0,0,0-3,0V383.9z M712.9,363.9h3v3c-3,0,0,0-3,0V363.9z M712.9,368.9h3v3c-3,0,0,0-3,0V368.9z
	 M712.9,373.9h3v3c-3,0,0,0-3,0V373.9z M712.9,258.9h3v3c-3,0,0,0-3,0V258.9z M712.9,428.9h3v3c-3,0,0,0-3,0V428.9z M712.9,423.9h3
	v3c-3,0,0,0-3,0V423.9z M712.9,433.9h3v3c-3,0,0,0-3,0V433.9z M712.9,438.9h3v3c-3,0,0,0-3,0V438.9z M712.9,413.9h3v3c-3,0,0,0-3,0
	V413.9z M712.9,408.9h3v3c-3,0,0,0-3,0V408.9z M712.9,418.9h3v3c-3,0,0,0-3,0V418.9z M712.9,403.9h3v3c-3,0,0,0-3,0V403.9z
	 M712.9,398.9h3v3c-3,0,0,0-3,0V398.9z M712.9,353.9h3v3c-3,0,0,0-3,0V353.9z M712.9,283.9h3v3c-3,0,0,0-3,0V283.9z M712.9,293.9h3
	v3c-3,0,0,0-3,0V293.9z M712.9,303.9h3v3c-3,0,0,0-3,0V303.9z M712.9,298.9h3v3c-3,0,0,0-3,0V298.9z M712.9,278.9h3v3c-3,0,0,0-3,0
	V278.9z M712.9,263.9h3v3c-3,0,0,0-3,0V263.9z M712.9,268.9h3v3c-3,0,0,0-3,0V268.9z M712.9,288.9h3v3c-3,0,0,0-3,0V288.9z
	 M712.9,328.9h3v3c-3,0,0,0-3,0V328.9z M712.9,338.9h3v3c-3,0,0,0-3,0V338.9z M712.9,343.9h3v3c-3,0,0,0-3,0V343.9z M712.9,348.9h3
	v3c-3,0,0,0-3,0V348.9z M712.9,318.9h3v3c-3,0,0,0-3,0V318.9z M712.9,313.9h3v3c-3,0,0,0-3,0V313.9z M712.9,323.9h3v3c-3,0,0,0-3,0
	V323.9z M712.9,308.9h3v3c-3,0,0,0-3,0V308.9z M712.9,333.9h3v3c-3,0,0,0-3,0V333.9z M731.6,351.7c-3,0,0,0-3,0v-3h3V351.7z
	 M731.6,356.7c-3,0,0,0-3,0v-3h3V356.7z M731.6,366.7c-3,0,0,0-3,0v-3h3V366.7z M731.6,361.7c-3,0,0,0-3,0v-3h3V361.7z M731.6,346.7
	c-3,0,0,0-3,0v-3h3V346.7z M731.6,336.7c-3,0,0,0-3,0v-3h3V336.7z M731.6,341.7c-3,0,0,0-3,0v-3h3V341.7z M731.6,371.7c-3,0,0,0-3,0
	v-3h3V371.7z M731.6,396.7c-3,0,0,0-3,0v-3h3V396.7z M731.6,401.7c-3,0,0,0-3,0v-3h3V401.7z M731.6,391.7c-3,0,0,0-3,0v-3h3V391.7z
	 M731.6,381.7c-3,0,0,0-3,0v-3h3V381.7z M731.6,376.7c-3,0,0,0-3,0v-3h3V376.7z M731.6,331.7c-3,0,0,0-3,0v-3h3V331.7z M731.6,386.7
	c-3,0,0,0-3,0v-3h3V386.7z M731.6,261.7c-3,0,0,0-3,0v-3h3V261.7z M731.6,406.7c-3,0,0,0-3,0v-3h3V406.7z M731.6,266.7c-3,0,0,0-3,0
	v-3h3V266.7z M731.6,286.7c-3,0,0,0-3,0v-3h3V286.7z M731.6,276.7c-3,0,0,0-3,0v-3h3V276.7z M731.6,271.7c-3,0,0,0-3,0v-3h3V271.7z
	 M731.6,281.7c-3,0,0,0-3,0v-3h3V281.7z M731.6,291.7c-3,0,0,0-3,0v-3h3V291.7z M731.6,301.7c-3,0,0,0-3,0v-3h3V301.7z M731.6,316.7
	c-3,0,0,0-3,0v-3h3V316.7z M731.6,311.7c-3,0,0,0-3,0v-3h3V311.7z M731.6,321.7c-3,0,0,0-3,0v-3h3V321.7z M731.6,326.7c-3,0,0,0-3,0
	v-3h3V326.7z M731.6,296.7c-3,0,0,0-3,0v-3h3V296.7z M731.6,306.7c-3,0,0,0-3,0v-3h3V306.7z M731.6,426.7c-3,0,0,0-3,0v-3h3V426.7z
	 M731.6,436.7c-3,0,0,0-3,0v-3h3V436.7z M731.6,431.7c-3,0,0,0-3,0v-3h3V431.7z M731.6,441.7c-3,0,0,0-3,0v-3h3V441.7z M731.6,411.7
	c-3,0,0,0-3,0v-3h3V411.7z M731.6,421.7c-3,0,0,0-3,0v-3h3V421.7z M731.6,416.7c-3,0,0,0-3,0v-3h3V416.7z M732.6,413.7h3v3
	c-3,0,0,0-3,0V413.7z M735.6,261.7c-3,0,0,0-3,0v-3h3V261.7z M732.6,283.7h3v3c-3,0,0,0-3,0V283.7z M732.6,408.7h3v3c-3,0,0,0-3,0
	V408.7z M732.6,288.7h3v3c-3,0,0,0-3,0V288.7z M732.6,268.7h3v3c-3,0,0,0-3,0V268.7z M732.6,383.7h3v3c-3,0,0,0-3,0V383.7z
	 M732.6,263.7h3v3c-3,0,0,0-3,0V263.7z M732.6,293.7h3v3c-3,0,0,0-3,0V293.7z M732.6,363.7h3v3c-3,0,0,0-3,0V363.7z M732.6,433.7h3
	v3c-3,0,0,0-3,0V433.7z M732.6,428.7h3v3c-3,0,0,0-3,0V428.7z M732.6,438.7h3v3c-3,0,0,0-3,0V438.7z M732.6,423.7h3v3c-3,0,0,0-3,0
	V423.7z M732.6,373.7h3v3c-3,0,0,0-3,0V373.7z M732.6,368.7h3v3c-3,0,0,0-3,0V368.7z M732.6,378.7h3v3c-3,0,0,0-3,0V378.7z
	 M732.6,418.7h3v3c-3,0,0,0-3,0V418.7z M732.6,273.7h3v3c-3,0,0,0-3,0V273.7z M732.6,333.7h3v3c-3,0,0,0-3,0V333.7z M732.6,338.7h3
	v3c-3,0,0,0-3,0V338.7z M732.6,323.7h3v3c-3,0,0,0-3,0V323.7z M732.6,328.7h3v3c-3,0,0,0-3,0V328.7z M732.6,343.7h3v3c-3,0,0,0-3,0
	V343.7z M732.6,358.7h3v3c-3,0,0,0-3,0V358.7z M732.6,348.7h3v3c-3,0,0,0-3,0V348.7z M732.6,278.7h3v3c-3,0,0,0-3,0V278.7z
	 M732.6,353.7h3v3c-3,0,0,0-3,0V353.7z M732.6,308.7h3v3c-3,0,0,0-3,0V308.7z M732.6,303.7h3v3c-3,0,0,0-3,0V303.7z M732.6,298.7h3
	v3c-3,0,0,0-3,0V298.7z M732.6,318.7h3v3c-3,0,0,0-3,0V318.7z M732.6,403.7h3v3c-3,0,0,0-3,0V403.7z M732.6,313.7h3v3c-3,0,0,0-3,0
	V313.7z M732.6,393.7h3v3c-3,0,0,0-3,0V393.7z M732.6,398.7h3v3c-3,0,0,0-3,0V398.7z M732.6,388.7h3v3c-3,0,0,0-3,0V388.7z
	 M780,278.3V261c0-0.8,0.7-1.5,1.5-1.5c0.8,0,1.5,0.7,1.5,1.5v17.3c0,0.8-0.7,1.5-1.5,1.5C780.7,279.8,780,279.1,780,278.3z
	 M808.2,235.5L808.2,235.5C808.2,235.6,808.2,235.6,808.2,235.5L808.2,235.5c0,0.1,0,0.2,0,0.2c0,0.8-0.7,1.5-1.5,1.5
	c-0.8,0-1.5-0.7-1.5-1.5c0,0,0-0.1,0-0.1h0c0-0.1,0-0.1,0-0.2l0,0c0-0.8,0.7-1.5,1.5-1.5C807.6,234,808.2,234.7,808.2,235.5z
	 M809.9,276v-15.3c0-0.8,0.7-1.5,1.5-1.5c0.8,0,1.5,0.7,1.5,1.5V276c0,0.8-0.7,1.5-1.5,1.5C810.6,277.5,809.9,276.9,809.9,276z
	 M793.3,234.6c0.4,0.3,0.7,0.9,0.6,1.4c-0.1,0.7-0.7,1.3-1.4,1.3c0,0,0,0,0,0c-0.1,0-0.2,0-0.4,0c0,0,0,0,0,0c0,0,0,0,0,0
	c-0.7-0.2-1.1-0.8-1.1-1.5c0-0.1,0-0.3,0-0.4c0.2-0.8,1-1.3,1.8-1.1c0,0,0,0,0,0c0,0,0,0,0,0c0,0,0,0,0,0c0,0,0,0,0,0l0,0h0
	c0,0,0,0,0,0c0,0,0,0,0,0C793,234.4,793.2,234.5,793.3,234.6z M798.2,234.9c0.2,0.3,0.3,0.6,0.3,0.9c0,0.5-0.2,0.9-0.6,1.2
	c-0.3,0.2-0.6,0.3-0.9,0.3c-0.5,0-0.9-0.2-1.2-0.6l0,0c-0.2-0.3-0.3-0.6-0.3-0.9c0-0.5,0.2-0.9,0.6-1.2
	C796.8,234,797.7,234.2,798.2,234.9z M803.6,235.8c0,0.8-0.7,1.5-1.5,1.5H802c-0.8,0-1.5-0.7-1.5-1.5s0.7-1.5,1.5-1.5h0.1
	C803,234.3,803.6,235,803.6,235.8z M794,262.3h-3v-3.5h3V262.3z M794,324.6h-3v-4h3V324.6z M794,331.5h-3v-4h3V331.5z M794,310.7h-3
	v-4h3V310.7z M794,317.6h-3v-4h3V317.6z M794,290h-3v-4h3V290z M794,276.1h-3v-4h3V276.1z M794,303.8h-3v-4h3V303.8z M794,283h-3v-4
	h3V283z M794,269.2h-3v-4h3V269.2z M794,296.9h-3v-4h3V296.9z M794,338.4h-3v-4h3V338.4z M794,366.1h-3v-4h3V366.1z M794,414.5h-3
	v-4h3V414.5z M794,407.6h-3v-4h3V407.6z M794,393.8h-3v-4h3V393.8z M794,400.7h-3v-4h3V400.7z M794,345.3h-3v-4h3V345.3z M794,421.4
	h-3v-4h3V421.4z M794,428.4h-3v-4h3V428.4z M794,373h-3v-4h3V373z M794,359.2h-3v-4h3V359.2z M794,352.2h-3v-4h3V352.2z M794,386.8
	h-3v-4h3V386.8z M794,379.9h-3v-4h3V379.9z M794,434.8h-3v-3.5h3V434.8z M798,262.3h-3v-3.5h3V262.3z M798,317.6h-3v-4h3V317.6z
	 M798,310.7h-3v-4h3V310.7z M798,338.4h-3v-4h3V338.4z M798,345.3h-3v-4h3V345.3z M798,331.5h-3v-4h3V331.5z M798,324.6h-3v-4h3
	V324.6z M798,276.1h-3v-4h3V276.1z M798,283h-3v-4h3V283z M798,269.2h-3v-4h3V269.2z M798,303.8h-3v-4h3V303.8z M798,296.9h-3v-4h3
	V296.9z M798,290h-3v-4h3V290z M798,386.8h-3v-4h3V386.8z M798,352.2h-3v-4h3V352.2z M798,407.6h-3v-4h3V407.6z M798,414.5h-3v-4h3
	V414.5z M798,428.4h-3v-4h3V428.4z M798,421.4h-3v-4h3V421.4z M798,400.7h-3v-4h3V400.7z M798,366.1h-3v-4h3V366.1z M798,393.8h-3
	v-4h3V393.8z M798,359.2h-3v-4h3V359.2z M798,373h-3v-4h3V373z M798,379.9h-3v-4h3V379.9z M798,434.8h-3v-3.5h3V434.8z M802,262.3
	h-3v-3.5h3V262.3z M802,359.2h-3v-4h3V359.2z M802,352.2h-3v-4h3V352.2z M802,366.1h-3v-4h3V366.1z M802,345.3h-3v-4h3V345.3z
	 M802,331.5h-3v-4h3V331.5z M802,338.4h-3v-4h3V338.4z M802,373h-3v-4h3V373z M802,317.6h-3v-4h3V317.6z M802,324.6h-3v-4h3V324.6z
	 M802,414.5h-3v-4h3V414.5z M802,421.4h-3v-4h3V421.4z M802,428.4h-3v-4h3V428.4z M802,407.6h-3v-4h3V407.6z M802,310.7h-3v-4h3
	V310.7z M802,386.8h-3v-4h3V386.8z M802,379.9h-3v-4h3V379.9z M802,393.8h-3v-4h3V393.8z M802,400.7h-3v-4h3V400.7z M802,290h-3v-4
	h3V290z M802,283h-3v-4h3V283z M802,296.9h-3v-4h3V296.9z M802,276.1h-3v-4h3V276.1z M802,269.2h-3v-4h3V269.2z M802,303.8h-3v-4h3
	V303.8z M802,434.8h-3v-3.5h3V434.8z M791.2,437h3v3.5h-3V437z M795.2,437h3v3.5h-3V437z M799.2,437h3v3.5h-3V437z M809,275.6h-3
	v-3.5h3V275.6z M809,400.2h-3v-4h3V400.2z M809,386.3h-3v-4h3V386.3z M809,282.5h-3v-4h3V282.5z M809,407.1h-3v-4h3V407.1z
	 M809,289.5h-3v-4h3V289.5z M809,427.9h-3v-4h3V427.9z M809,420.9h-3v-4h3V420.9z M809,434.8h-3v-4h3V434.8z M809,441.7h-3v-4h3
	V441.7z M809,414h-3v-4h3V414z M809,393.3h-3v-4h3V393.3z M809,331h-3v-4h3V331z M809,317.1h-3v-4h3V317.1z M809,324.1h-3v-4h3
	V324.1z M809,310.2h-3v-4h3V310.2z M809,296.4h-3v-4h3V296.4z M809,379.4h-3v-4h3V379.4z M809,303.3h-3v-4h3V303.3z M809,358.7h-3
	v-4h3V358.7z M809,365.6h-3v-4h3V365.6z M809,337.9h-3v-4h3V337.9z M809,372.5h-3v-4h3V372.5z M809,351.7h-3v-4h3V351.7z M809,344.8
	h-3v-4h3V344.8z M787,275.6h-3v-3.5h3V275.6z M787,282.5h-3v-4h3V282.5z M787,324.1h-3v-4h3V324.1z M787,344.8h-3v-4h3V344.8z
	 M787,372.5h-3v-4h3V372.5z M787,358.7h-3v-4h3V358.7z M787,337.9h-3v-4h3V337.9z M787,365.6h-3v-4h3V365.6z M787,351.7h-3v-4h3
	V351.7z M787,303.3h-3v-4h3V303.3z M787,296.4h-3v-4h3V296.4z M787,331h-3v-4h3V331z M787,317.1h-3v-4h3V317.1z M787,310.2h-3v-4h3
	V310.2z M787,400.2h-3v-4h3V400.2z M787,427.9h-3v-4h3V427.9z M787,434.8h-3v-4h3V434.8z M787,379.4h-3v-4h3V379.4z M787,289.5h-3
	v-4h3V289.5z M787,420.9h-3v-4h3V420.9z M787,414h-3v-4h3V414z M787,386.3h-3v-4h3V386.3z M787,441.7h-3v-4h3V441.7z M787,393.3h-3
	v-4h3V393.3z M787,407.1h-3v-4h3V407.1z M783,289.6h-3v-3.5h3V289.6z M783,393.4h-3v-4h3V393.4z M783,400.3h-3v-4h3V400.3z
	 M783,386.5h-3v-4h3V386.5z M783,407.3h-3v-4h3V407.3z M783,379.6h-3v-4h3V379.6z M783,441.9h-3v-4h3V441.9z M783,434.9h-3v-4h3
	V434.9z M783,428h-3v-4h3V428z M783,414.2h-3v-4h3V414.2z M783,421.1h-3v-4h3V421.1z M783,372.7h-3v-4h3V372.7z M783,317.3h-3v-4h3
	V317.3z M783,310.4h-3v-4h3V310.4z M783,296.5h-3v-4h3V296.5z M783,303.5h-3v-4h3V303.5z M783,324.2h-3v-4h3V324.2z M783,345h-3v-4
	h3V345z M783,358.8h-3v-4h3V358.8z M783,351.9h-3v-4h3V351.9z M783,331.1h-3v-4h3V331.1z M783,338.1h-3v-4h3V338.1z M783,365.7h-3
	v-4h3V365.7z M773,321.1v3.5h-3v-3.5H773z M770,369.1h3v4h-3V369.1z M770,382.9h3v4h-3V382.9z M770,355.2h3v4h-3V355.2z M770,376h3
	v4h-3V376z M770,362.1h3v4h-3V362.1z M770,348.3h3v4h-3V348.3z M770,327.6h3v4h-3V327.6z M770,334.5h3v4h-3V334.5z M770,341.4h3v4
	h-3V341.4z M770,396.7h3v4h-3V396.7z M770,438.3h3v4h-3V438.3z M770,431.3h3v4h-3V431.3z M770,403.7h3v4h-3V403.7z M770,410.6h3v4
	h-3V410.6z M770,389.8h3v4h-3V389.8z M770,417.5h3v4h-3V417.5z M770,424.4h3v4h-3V424.4z M820,320.1h3v3.5h-3V320.1z M820,369.5h3v4
	h-3V369.5z M820,376.6h3v4h-3V376.6z M820,362.4h3v4h-3V362.4z M820,383.7h3v4h-3V383.7z M820,390.9h3v4h-3V390.9z M820,355.2h3v4
	h-3V355.2z M820,326.7h3v4h-3V326.7z M820,333.9h3v4h-3V333.9z M820,341h3v4h-3V341z M820,348.1h3v4h-3V348.1z M820,433.6h3v4h-3
	V433.6z M820,440.7h3v4h-3V440.7z M820,426.5h3v4h-3V426.5z M820,398h3v4h-3V398z M820,412.2h3v4h-3V412.2z M820,405.1h3v4h-3V405.1
	z M820,419.4h3v4h-3V419.4z M810,313.2h3v4h-3V313.2z M810,327.1h3v4h-3V327.1z M810,340.9h3v4h-3V340.9z M810,285.6h3v4h-3V285.6z
	 M810,354.7h3v4h-3V354.7z M810,299.4h3v4h-3V299.4z M810,437.8h3v4h-3V437.8z M810,410.1h3v4h-3V410.1z M810,423.9h3v4h-3V423.9z
	 M810,382.4h3v4h-3V382.4z M810,396.3h3v4h-3V396.3z M810,368.6h3v4h-3V368.6z M465.5,327.7v-1c0-0.8,0.7-1.5,1.5-1.5
	c0.8,0,1.5,0.7,1.5,1.5v1c0,0.8-0.7,1.5-1.5,1.5C466.2,329.2,465.5,328.6,465.5,327.7z M416.5,260.1v-0.8c0-0.8,0.7-1.5,1.5-1.5
	c0.8,0,1.5,0.7,1.5,1.5v0.8c0,0.8-0.7,1.5-1.5,1.5C417.2,261.6,416.5,261,416.5,260.1z M460.8,205.7h-36.3v-3h36.3V205.7z
	 M460.8,213.2h-36.3v-3h36.3V213.2z M460.8,220.7h-36.3v-3h36.3V220.7z M460.8,228.1h-36.3v-3h36.3V228.1z M460.8,235.6h-36.3v-3
	h36.3V235.6z M460.8,243.1h-36.3v-3h36.3V243.1z M460.8,250.6h-36.3v-3h36.3V250.6z M460.8,258h-36.3v-3h36.3V258z M460.8,265.5
	h-36.3v-3h36.3V265.5z M460.8,273h-36.3v-3h36.3V273z M460.8,280.4h-36.3v-3h36.3V280.4z M460.8,287.9h-36.3v-3h36.3V287.9z
	 M460.8,295.4h-36.3v-3h36.3V295.4z M460.8,302.8h-36.3v-3h36.3V302.8z M460.8,310.3h-36.3v-3h36.3V310.3z M460.8,317.8h-36.3v-3
	h36.3V317.8z M460.8,325.2h-36.3v-3h36.3V325.2z M460.8,332.7h-36.3v-3h36.3V332.7z M460.8,340.2h-36.3v-3h36.3V340.2z M460.8,347.6
	h-36.3v-3h36.3V347.6z M460.8,355.1h-36.3v-3h36.3V355.1z M460.8,362.6h-36.3v-3h36.3V362.6z M460.8,370.1h-36.3v-3h36.3V370.1z
	 M460.8,377.5h-36.3v-3h36.3V377.5z M460.8,385h-36.3v-3h36.3V385z M460.8,392.5h-36.3v-3h36.3V392.5z M460.8,399.9h-36.3v-3h36.3
	V399.9z M460.8,407.4h-36.3v-3h36.3V407.4z M460.8,414.9h-36.3v-3h36.3V414.9z M460.8,422.3h-36.3v-3h36.3V422.3z M460.8,429.8
	h-36.3v-3h36.3V429.8z M460.8,437.3h-36.3v-3h36.3V437.3z M460.8,444.7h-36.3v-3h36.3V444.7z M890,333.7v-3.9h2.8v3.9H890z
	 M879.6,329.8h2.8v3.9h-2.8V329.8z M874.3,333.7v-3.9h2.8v3.9H874.3z M863.8,329.8h2.8v3.9h-2.8V329.8z M858.6,329.8h2.8v3.9h-2.8
	V329.8z M853.3,329.8h2.8v3.9h-2.8V329.8z M848.1,333.7v-3.9h2.8v3.9H848.1z M884.8,336h2.8v3.9h-2.8V336z M882.3,339.9h-2.8V336
	h2.8V339.9z M866.6,339.9h-2.8V336h2.8V339.9z M856.1,339.9h-2.8V336h2.8V339.9z M850.9,339.9h-2.8V336h2.8V339.9z M892.8,345.7H890
	v-3.9h2.8V345.7z M882.3,345.7h-2.8v-3.9h2.8V345.7z M874.3,341.8h2.8v3.9h-2.8V341.8z M866.6,345.7h-2.8v-3.9h2.8V345.7z
	 M861.3,345.7h-2.8v-3.9h2.8V345.7z M856.1,345.7h-2.8v-3.9h2.8V345.7z M848.1,341.8h2.8v3.9h-2.8V341.8z M845.6,345.7h-2.8v-3.9
	h2.8V345.7z M882.3,351.9h-2.8V348h2.8V351.9z M877.1,351.9h-2.8V348h2.8V351.9z M866.6,351.9h-2.8V348h2.8V351.9z M861.3,351.9
	h-2.8V348h2.8V351.9z M856.1,351.9h-2.8V348h2.8V351.9z M850.9,351.9h-2.8V348h2.8V351.9z M845.6,351.9h-2.8V348h2.8V351.9z
	 M892.9,358.2h-2.8v-3.9h2.8V358.2z M887.5,352.1h-2.8v-3.9h2.8V352.1z M882.4,358.2h-2.8v-3.9h2.8V358.2z M874.4,354.3h2.8v3.9
	h-2.8V354.3z M866.7,358.2h-2.8v-3.9h2.8V358.2z M856.2,358.2h-2.8v-3.9h2.8V358.2z M850.9,358.2h-2.8v-3.9h2.8V358.2z M842.9,354.3
	h2.8v3.9h-2.8V354.3z M887.6,364.4h-2.8v-3.9h2.8V364.4z M874.4,360.5h2.8v3.9h-2.8V360.5z M866.7,364.4h-2.8v-3.9h2.8V364.4z
	 M861.4,364.4h-2.8v-3.9h2.8V364.4z M856.2,364.4h-2.8v-3.9h2.8V364.4z M850.9,364.4h-2.8v-3.9h2.8V364.4z M845.7,364.4h-2.8v-3.9
	h2.8V364.4z M892.9,370.2h-2.8v-3.9h2.8V370.2z M882.4,370.2h-2.8v-3.9h2.8V370.2z M874.4,366.3h2.8v3.9h-2.8V366.3z M866.7,370.2
	h-2.8v-3.9h2.8V370.2z M861.4,370.2h-2.8v-3.9h2.8V370.2z M856.2,370.2h-2.8v-3.9h2.8V370.2z M850.9,370.2h-2.8v-3.9h2.8V370.2z
	 M845.7,370.2h-2.8v-3.9h2.8V370.2z M892.9,376.4h-2.8v-3.9h2.8V376.4z M887.6,376.4h-2.8v-3.9h2.8V376.4z M882.4,376.4h-2.8v-3.9
	h2.8V376.4z M874.4,372.5h2.8v3.9h-2.8V372.5z M866.7,376.4h-2.8v-3.9h2.8V376.4z M861.4,376.4h-2.8v-3.9h2.8V376.4z M856.2,376.4
	h-2.8v-3.9h2.8V376.4z M850.9,376.4h-2.8v-3.9h2.8V376.4z M845.7,376.4h-2.8v-3.9h2.8V376.4z M887.6,383.1h-2.8v-3.9h2.8V383.1z
	 M882.4,383.1h-2.8v-3.9h2.8V383.1z M866.7,383.1h-2.8v-3.9h2.8V383.1z M861.4,383.1h-2.8v-3.9h2.8V383.1z M856.2,383.1h-2.8v-3.9
	h2.8V383.1z M850.9,383.1h-2.8v-3.9h2.8V383.1z M845.7,383.1h-2.8v-3.9h2.8V383.1z M892.9,389.4h-2.8v-3.9h2.8V389.4z M882.4,389.4
	h-2.8v-3.9h2.8V389.4z M874.4,385.4h2.8v3.9h-2.8V385.4z M866.7,389.4h-2.8v-3.9h2.8V389.4z M861.4,389.4h-2.8v-3.9h2.8V389.4z
	 M856.2,389.4h-2.8v-3.9h2.8V389.4z M845.7,389.4h-2.8v-3.9h2.8V389.4z M887.6,395.1h-2.8v-3.9h2.8V395.1z M882.4,395.1h-2.8v-3.9
	h2.8V395.1z M866.7,395.1h-2.8v-3.9h2.8V395.1z M861.4,395.1h-2.8v-3.9h2.8V395.1z M856.2,395.1h-2.8v-3.9h2.8V395.1z M850.9,395.1
	h-2.8v-3.9h2.8V395.1z M845.7,395.1h-2.8v-3.9h2.8V395.1z M890.1,397.4h2.8v3.9h-2.8V397.4z M882.4,401.4h-2.8v-3.9h2.8V401.4z
	 M874.4,397.4h2.8v3.9h-2.8V397.4z M861.4,401.4h-2.8v-3.9h2.8V401.4z M856.2,401.4h-2.8v-3.9h2.8V401.4z M850.9,401.4h-2.8v-3.9
	h2.8V401.4z M845.7,401.4h-2.8v-3.9h2.8V401.4z M887.6,407.1h-2.8v-3.9h2.8V407.1z M874.4,403.2h2.8v3.9h-2.8V403.2z M866.7,407.1
	h-2.8v-3.9h2.8V407.1z M861.4,407.1h-2.8v-3.9h2.8V407.1z M856.2,407.1h-2.8v-3.9h2.8V407.1z M850.9,407.1h-2.8v-3.9h2.8V407.1z
	 M845.7,407.1h-2.8v-3.9h2.8V407.1z M887.6,413.4h-2.8v-3.9h2.8V413.4z M879.6,409.4h2.8v3.9h-2.8V409.4z M874.4,409.4h2.8v3.9h-2.8
	V409.4z M869.9,413.4h-2.8v-3.9h2.8V413.4z M861.4,413.4h-2.8v-3.9h2.8V413.4z M856.2,413.4h-2.8v-3.9h2.8V413.4z M845.7,413.4h-2.8
	v-3.9h2.8V413.4z M884.9,415.2h2.8v3.9h-2.8V415.2z M863.9,415.2h2.8v3.9h-2.8V415.2z M858.6,415.2h2.8v3.9h-2.8V415.2z
	 M853.4,415.2h2.8v3.9h-2.8V415.2z M848.2,415.2h2.8v3.9h-2.8V415.2z M842.9,415.2h2.8v3.9h-2.8V415.2z M892.9,425.4h-2.8v-3.9h2.8
	V425.4z M887.6,425.4h-2.8v-3.9h2.8V425.4z M882.4,425.4h-2.8v-3.9h2.8V425.4z M866.7,425.4h-2.8v-3.9h2.8V425.4z M861.4,425.4h-2.8
	v-3.9h2.8V425.4z M856.2,425.4h-2.8v-3.9h2.8V425.4z M850.9,425.4h-2.8v-3.9h2.8V425.4z M845.7,425.4h-2.8v-3.9h2.8V425.4z
	 M885.3,427.9h2.8v3.9h-2.8V427.9z M880.1,427.9h2.8v3.9h-2.8V427.9z M859.1,427.9h2.8v3.9h-2.8V427.9z M853.9,427.9h2.8v3.9h-2.8
	V427.9z M843.4,427.9h2.8v3.9h-2.8V427.9z M885.3,433.7h2.8v3.9h-2.8V433.7z M864.4,433.7h2.8v3.9h-2.8V433.7z M859.1,433.7h2.8v3.9
	h-2.8V433.7z M853.9,433.7h2.8v3.9h-2.8V433.7z M848.6,433.7h2.8v3.9h-2.8V433.7z M843.4,433.7h2.8v3.9h-2.8V433.7z M890.6,439.9
	h2.8v3.9h-2.8V439.9z M880.1,439.9h2.8v3.9h-2.8V439.9z M859.1,439.9h2.8v3.9h-2.8V439.9z M853.9,439.9h2.8v3.9h-2.8V439.9z
	 M848.6,439.9h2.8v3.9h-2.8V439.9z M843.4,439.9h2.8v3.9h-2.8V439.9z M881.4,241.6h-2.8v-3.9h2.8V241.6z M870.9,241.6h-2.8v-3.9h2.8
	V241.6z M876.2,247.8h-2.8v-3.9h2.8V247.8z M881.4,253.6h-2.8v-3.9h2.8V253.6z M870.9,253.6h-2.8v-3.9h2.8V253.6z M881.4,259.8h-2.8
	v-3.9h2.8V259.8z M876.2,259.8h-2.8v-3.9h2.8V259.8z M860.9,260h-2.8V256h2.8V260z M870.9,259.8h-2.8v-3.9h2.8V259.8z M876.2,266.5
	h-2.8v-3.9h2.8V266.5z M870.9,266.5h-2.8v-3.9h2.8V266.5z M860.4,266.5h-2.8v-3.9h2.8V266.5z M855.2,266.5h-2.8v-3.9h2.8V266.5z
	 M881.4,272.7h-2.8v-3.9h2.8V272.7z M870.9,272.7h-2.8v-3.9h2.8V272.7z M860.4,272.7h-2.8v-3.9h2.8V272.7z M855.2,272.7h-2.8v-3.9
	h2.8V272.7z M876.2,278.5h-2.8v-3.9h2.8V278.5z M870.9,278.5h-2.8v-3.9h2.8V278.5z M860.4,278.5h-2.8v-3.9h2.8V278.5z M855.2,278.5
	h-2.8v-3.9h2.8V278.5z M881.4,284.7h-2.8v-3.9h2.8V284.7z M870.9,284.7h-2.8v-3.9h2.8V284.7z M860.4,284.7h-2.8v-3.9h2.8V284.7z
	 M855.2,284.7h-2.8v-3.9h2.8V284.7z M876.2,290.5h-2.8v-3.9h2.8V290.5z M855.2,290.5h-2.8v-3.9h2.8V290.5z M850,290.5h-2.8v-3.9h2.8
	V290.5z M880.5,296.9h-2.8V293h2.8V296.9z M871.6,296.7h-2.8v-3.9h2.8V296.7z M876.2,302.5h-2.8v-3.9h2.8V302.5z M860.4,302.5h-2.8
	v-3.9h2.8V302.5z M860.4,296.8h-2.8v-3.9h2.8V296.8z M847.3,298.3h2.8v3.9h-2.8V298.3z M855.1,296.5h-2.8v-3.9h2.8V296.5z
	 M881.4,308.7h-2.8v-3.9h2.8V308.7z M876.2,308.7h-2.8v-3.9h2.8V308.7z M860.4,308.7h-2.8v-3.9h2.8V308.7z M855.2,308.7h-2.8v-3.9
	h2.8V308.7z M850,308.7h-2.8v-3.9h2.8V308.7z M876.6,315.2h-2.8v-3.9h2.8V315.2z M866.2,315.2h-2.8v-3.9h2.8V315.2z M860.9,315.2
	h-2.8v-3.9h2.8V315.2z M850.4,315.2h-2.8v-3.9h2.8V315.2z M876.6,321h-2.8V317h2.8V321z M866.2,321h-2.8V317h2.8V321z M858.1,317
	h2.8v3.9h-2.8V317z M852.9,317h2.8v3.9h-2.8V317z M850.4,321h-2.8V317h2.8V321z M879.1,323.3h2.8v3.9h-2.8V323.3z M873.9,323.3h2.8
	v3.9h-2.8V323.3z M858.1,323.3h2.8v3.9h-2.8V323.3z M855.7,327.2h-2.8v-3.9h2.8V327.2z M847.6,323.3h2.8v3.9h-2.8V323.3z
	 M383.4,10.7h3.7V16h-3.7V10.7z M369.4,10.7h3.7V16h-3.7V10.7z M362.3,10.7h3.7V16h-3.7V10.7z M355.3,10.7h3.7V16h-3.7V10.7z
	 M348.3,10.7h3.7V16h-3.7V10.7z M376.4,19.1h3.7v5.3h-3.7V19.1z M369.4,19.1h3.7v5.3h-3.7V19.1z M355.3,19.1h3.7v5.3h-3.7V19.1z
	 M348.3,19.1h3.7v5.3h-3.7V19.1z M383.4,26.8h3.7v5.3h-3.7V26.8z M369.4,26.8h3.7v5.3h-3.7V26.8z M362.3,26.8h3.7v5.3h-3.7V26.8z
	 M355.3,26.8h3.7v5.3h-3.7V26.8z M348.3,26.8h3.7v5.3h-3.7V26.8z M369.4,35.1h3.7v5.3h-3.7V35.1z M362.3,35.1h3.7v5.3h-3.7V35.1z
	 M355.3,35.1h3.7v5.3h-3.7V35.1z M348.3,35.1h3.7v5.3h-3.7V35.1z M383.5,43.6h3.7v5.3h-3.7V43.6z M376.3,35.3h3.7v5.3h-3.7V35.3z
	 M369.4,43.6h3.7v5.3h-3.7V43.6z M362.4,43.6h3.7v5.3h-3.7V43.6z M355.4,43.6h3.7v5.3h-3.7V43.6z M348.4,43.6h3.7v5.3h-3.7V43.6z
	 M376.5,51.9h3.7v5.3h-3.7V51.9z M366.1,57.2h-3.7v-5.3h3.7V57.2z M359.1,57.2h-3.7v-5.3h3.7V57.2z M352.1,57.2h-3.7v-5.3h3.7V57.2z
	 M387.2,64.9h-3.7v-5.3h3.7V64.9z M373.1,64.9h-3.7v-5.3h3.7V64.9z M362.4,59.6h3.7v5.3h-3.7V59.6z M355.4,59.6h3.7v5.3h-3.7V59.6z
	 M348.4,59.6h3.7v5.3h-3.7V59.6z M383.5,68h3.7v5.3h-3.7V68z M380.2,73.2h-3.7V68h3.7V73.2z M356.1,68.2h3.7v5.3h-3.7V68.2z
	 M369.4,68h3.7v5.3h-3.7V68z M362.4,68h3.7v5.3h-3.7V68z M348.4,68h3.7v5.3h-3.7V68z M376.5,76.9h3.7v5.3h-3.7V76.9z M369.4,76.9
	h3.7v5.3h-3.7V76.9z M355.4,76.9h3.7v5.3h-3.7V76.9z M348.4,76.9h3.7v5.3h-3.7V76.9z M383.5,85.3h3.7v5.3h-3.7V85.3z M369.4,85.3
	h3.7v5.3h-3.7V85.3z M362.4,85.3h3.7v5.3h-3.7V85.3z M355.4,85.3h3.7v5.3h-3.7V85.3z M348.4,85.3h3.7v5.3h-3.7V85.3z M376.5,93h3.7
	v5.3h-3.7V93z M369.4,93h3.7v5.3h-3.7V93z M355.4,93h3.7v5.3h-3.7V93z M348.4,93h3.7v5.3h-3.7V93z M383.5,101.3h3.7v5.3h-3.7V101.3z
	 M369.4,101.3h3.7v5.3h-3.7V101.3z M362.4,101.3h3.7v5.3h-3.7V101.3z M355.4,101.3h3.7v5.3h-3.7V101.3z M348.4,101.3h3.7v5.3h-3.7
	V101.3z M376.5,109.1h3.7v5.3h-3.7V109.1z M362.4,109.1h3.7v5.3h-3.7V109.1z M355.4,109.1h3.7v5.3h-3.7V109.1z M348.4,109.1h3.7v5.3
	h-3.7V109.1z M376.5,117.4h3.7v5.3h-3.7V117.4z M369.4,117.4h3.7v5.3h-3.7V117.4z M362.4,117.4h3.7v5.3h-3.7V117.4z M355.4,117.4
	h3.7v5.3h-3.7V117.4z M376.5,125.1h3.7v5.3h-3.7V125.1z M362.4,125.1h3.7v5.3h-3.7V125.1z M355.4,125.1h3.7v5.3h-3.7V125.1z
	 M348.4,125.1h3.7v5.3h-3.7V125.1z M383.5,133.5h3.7v5.3h-3.7V133.5z M376.5,133.5h3.7v5.3h-3.7V133.5z M369.4,133.5h3.7v5.3h-3.7
	V133.5z M362.4,133.5h3.7v5.3h-3.7V133.5z M355.4,133.5h3.7v5.3h-3.7V133.5z M348.4,133.5h3.7v5.3h-3.7V133.5z M377.1,142.1h3.7v5.3
	h-3.7V142.1z M370.1,142.1h3.7v5.3h-3.7V142.1z M363,142.1h3.7v5.3H363V142.1z M359.7,147.4H356v-5.3h3.7V147.4z M380.8,155.1h-3.7
	v-5.3h3.7V155.1z M366.7,155.1H363v-5.3h3.7V155.1z M359.7,155.1H356v-5.3h3.7V155.1z M349,149.9h3.7v5.3H349V149.9z M387.8,163.5
	h-3.7v-5.3h3.7V163.5z M377.1,158.2h3.7v5.3h-3.7V158.2z M373.8,163.5h-3.7v-5.3h3.7V163.5z M363,158.2h3.7v5.3H363V158.2z
	 M356,158.2h3.7v5.3H356V158.2z M352.7,163.5H349v-5.3h3.7V163.5z M369.4,167.6h3.7v5.3h-3.7V167.6z M362.4,167.6h3.7v5.3h-3.7
	V167.6z M355.3,167.6h3.7v5.3h-3.7V167.6z M348.3,167.6h3.7v5.3h-3.7V167.6z M376.4,176h3.7v5.3h-3.7V176z M369.4,176h3.7v5.3h-3.7
	V176z M355.3,176h3.7v5.3h-3.7V176z M348.3,176h3.7v5.3h-3.7V176z M387.1,189h-3.7v-5.3h3.7V189z M369.4,183.7h3.7v5.3h-3.7V183.7z
	 M362.4,183.7h3.7v5.3h-3.7V183.7z M355.3,183.7h3.7v5.3h-3.7V183.7z M348.3,183.7h3.7v5.3h-3.7V183.7z M373.1,197.3h-3.7V192h3.7
	V197.3z M366.1,197.3h-3.7V192h3.7V197.3z M359.1,197.3h-3.7V192h3.7V197.3z M352,197.3h-3.7V192h3.7V197.3z M387.2,205.7h-3.7v-5.3
	h3.7V205.7z M380,197.5h-3.7v-5.3h3.7V197.5z M369.5,200.5h3.7v5.3h-3.7V200.5z M362.5,200.5h3.7v5.3h-3.7V200.5z M355.4,200.5h3.7
	v5.3h-3.7V200.5z M348.4,200.5h3.7v5.3h-3.7V200.5z M376.5,208.8h3.7v5.3h-3.7V208.8z M362.5,208.8h3.7v5.3h-3.7V208.8z
	 M355.4,208.8h3.7v5.3h-3.7V208.8z M348.4,208.8h3.7v5.3h-3.7V208.8z M387.2,221.8h-3.7v-5.3h3.7V221.8z M369.5,216.5h3.7v5.3h-3.7
	V216.5z M362.5,216.5h3.7v5.3h-3.7V216.5z M355.4,216.5h3.7v5.3h-3.7V216.5z M348.4,216.5h3.7v5.3h-3.7V216.5z M387.2,230.1h-3.7
	v-5.3h3.7V230.1z M376.5,224.9h3.7v5.3h-3.7V224.9z M356.1,225.1h3.7v5.3h-3.7V225.1z M369.5,224.9h3.7v5.3h-3.7V224.9z
	 M362.5,224.9h3.7v5.3h-3.7V224.9z M348.4,224.9h3.7v5.3h-3.7V224.9z M376.5,233.8h3.7v5.3h-3.7V233.8z M369.5,233.8h3.7v5.3h-3.7
	V233.8z M359.1,239.1h-3.7v-5.3h3.7V239.1z M348.4,233.8h3.7v5.3h-3.7V233.8z M387.2,247.4h-3.7v-5.3h3.7V247.4z M369.5,242.2h3.7
	v5.3h-3.7V242.2z M362.5,242.2h3.7v5.3h-3.7V242.2z M355.4,242.2h3.7v5.3h-3.7V242.2z M348.4,242.2h3.7v5.3h-3.7V242.2z
	 M376.5,249.9h3.7v5.3h-3.7V249.9z M369.5,249.9h3.7v5.3h-3.7V249.9z M355.4,249.9h3.7v5.3h-3.7V249.9z M348.4,249.9h3.7v5.3h-3.7
	V249.9z M383.5,258.3h3.7v5.3h-3.7V258.3z M369.5,258.3h3.7v5.3h-3.7V258.3z M362.5,258.3h3.7v5.3h-3.7V258.3z M355.4,258.3h3.7v5.3
	h-3.7V258.3z M348.4,258.3h3.7v5.3h-3.7V258.3z M376.5,266h3.7v5.3h-3.7V266z M362.5,266h3.7v5.3h-3.7V266z M355.4,266h3.7v5.3h-3.7
	V266z M348.4,266h3.7v5.3h-3.7V266z M376.5,274.3h3.7v5.3h-3.7V274.3z M369.5,274.3h3.7v5.3h-3.7V274.3z M362.5,274.3h3.7v5.3h-3.7
	V274.3z M355.4,274.3h3.7v5.3h-3.7V274.3z M376.5,282h3.7v5.3h-3.7V282z M362.5,282h3.7v5.3h-3.7V282z M355.4,282h3.7v5.3h-3.7V282z
	 M348.4,282h3.7v5.3h-3.7V282z M387.2,295.6h-3.7v-5.3h3.7V295.6z M380.2,295.6h-3.7v-5.3h3.7V295.6z M373.2,295.6h-3.7v-5.3h3.7
	V295.6z M366.2,295.6h-3.7v-5.3h3.7V295.6z M359.1,295.6h-3.7v-5.3h3.7V295.6z M352.1,295.6h-3.7v-5.3h3.7V295.6z M377.1,299h3.7
	v5.3h-3.7V299z M370.1,299h3.7v5.3h-3.7V299z M363.1,299h3.7v5.3h-3.7V299z M356.1,299h3.7v5.3h-3.7V299z M377.1,306.8h3.7v5.3h-3.7
	V306.8z M363.1,306.8h3.7v5.3h-3.7V306.8z M356.1,306.8h3.7v5.3h-3.7V306.8z M349,306.8h3.7v5.3H349V306.8z M387.9,320.4h-3.7v-5.3
	h3.7V320.4z M380.8,320.4h-3.7v-5.3h3.7V320.4z M373.8,320.4h-3.7v-5.3h3.7V320.4z M366.8,320.4h-3.7v-5.3h3.7V320.4z M359.8,320.4
	h-3.7v-5.3h3.7V320.4z M352.7,320.4H349v-5.3h3.7V320.4z M374.3,329.3h-3.7V324h3.7V329.3z M367.2,329.3h-3.7V324h3.7V329.3z
	 M356.5,324h3.7v5.3h-3.7V324z M353.2,329.3h-3.7V324h3.7V329.3z M377.6,332.4h3.7v5.3h-3.7V332.4z M374.3,337.6h-3.7v-5.3h3.7
	V337.6z M360.2,337.6h-3.7v-5.3h3.7V337.6z M353.2,337.6h-3.7v-5.3h3.7V337.6z M388.3,345.3h-3.7v-5.3h3.7V345.3z M370.6,340.1h3.7
	v5.3h-3.7V340.1z M363.5,340.1h3.7v5.3h-3.7V340.1z M356.5,340.1h3.7v5.3h-3.7V340.1z M349.5,340.1h3.7v5.3h-3.7V340.1z
	 M374.3,353.7h-3.7v-5.3h3.7V353.7z M367.2,353.7h-3.7v-5.3h3.7V353.7z M360.2,353.7h-3.7v-5.3h3.7V353.7z M353.2,353.7h-3.7v-5.3
	h3.7V353.7z M388.4,362.1h-3.7v-5.3h3.7V362.1z M381.2,353.8h-3.7v-5.3h3.7V353.8z M374.4,362.1h-3.7v-5.3h3.7V362.1z M367.3,362.1
	h-3.7v-5.3h3.7V362.1z M360.3,362.1h-3.7v-5.3h3.7V362.1z M353.3,362.1h-3.7v-5.3h3.7V362.1z M381.4,370.4h-3.7v-5.3h3.7V370.4z
	 M367.3,370.4h-3.7v-5.3h3.7V370.4z M360.3,370.4h-3.7v-5.3h3.7V370.4z M353.3,370.4h-3.7v-5.3h3.7V370.4z M388.4,378.2h-3.7v-5.3
	h3.7V378.2z M374.4,378.2h-3.7v-5.3h3.7V378.2z M367.3,378.2h-3.7v-5.3h3.7V378.2z M356.6,372.9h3.7v5.3h-3.7V372.9z M353.3,378.2
	h-3.7v-5.3h3.7V378.2z M388.4,386.5h-3.7v-5.3h3.7V386.5z M381.4,386.5h-3.7v-5.3h3.7V386.5z M361,386.7h-3.7v-5.3h3.7V386.7z
	 M374.4,386.5h-3.7v-5.3h3.7V386.5z M367.3,386.5h-3.7v-5.3h3.7V386.5z M353.3,386.5h-3.7v-5.3h3.7V386.5z M381.4,395.5h-3.7v-5.3
	h3.7V395.5z M374.4,395.5h-3.7v-5.3h3.7V395.5z M360.3,395.5h-3.7v-5.3h3.7V395.5z M353.3,395.5h-3.7v-5.3h3.7V395.5z M388.4,403.8
	h-3.7v-5.3h3.7V403.8z M374.4,403.8h-3.7v-5.3h3.7V403.8z M367.3,403.8h-3.7v-5.3h3.7V403.8z M360.3,403.8h-3.7v-5.3h3.7V403.8z
	 M353.3,403.8h-3.7v-5.3h3.7V403.8z M381.4,411.5h-3.7v-5.3h3.7V411.5z M374.4,411.5h-3.7v-5.3h3.7V411.5z M360.3,411.5h-3.7v-5.3
	h3.7V411.5z M353.3,411.5h-3.7v-5.3h3.7V411.5z M388.4,419.9h-3.7v-5.3h3.7V419.9z M374.4,419.9h-3.7v-5.3h3.7V419.9z M367.3,419.9
	h-3.7v-5.3h3.7V419.9z M360.3,419.9h-3.7v-5.3h3.7V419.9z M353.3,419.9h-3.7v-5.3h3.7V419.9z M381.4,427.6h-3.7v-5.3h3.7V427.6z
	 M367.3,427.6h-3.7v-5.3h3.7V427.6z M360.3,427.6h-3.7v-5.3h3.7V427.6z M353.3,427.6h-3.7v-5.3h3.7V427.6z M381.4,435.9h-3.7v-5.3
	h3.7V435.9z M374.4,435.9h-3.7v-5.3h3.7V435.9z M367.3,435.9h-3.7v-5.3h3.7V435.9z M360.3,435.9h-3.7v-5.3h3.7V435.9z M381.4,443.7
	h-3.7v-5.3h3.7V443.7z M367.3,443.7h-3.7v-5.3h3.7V443.7z M360.3,443.7h-3.7v-5.3h3.7V443.7z M353.3,443.7h-3.7v-5.3h3.7V443.7z
	 M396.5,233.5v0.4c0,0.8-0.7,1.5-1.5,1.5c-0.8,0-1.5-0.7-1.5-1.5v-0.4c0-0.8,0.7-1.5,1.5-1.5C395.8,232,396.5,232.7,396.5,233.5z
	 M346.5,314.2c0,0.8-0.7,1.5-1.5,1.5c-0.8,0-1.5-0.7-1.5-1.5l1.5-0.2L346.5,314.2z M346.5,313.7l-1.5,0.2l-1.5-0.2
	c0-0.8,0.7-1.5,1.5-1.5C345.8,312.2,346.5,312.9,346.5,313.7z M346.5,314.1l-0.6-0.1l0.6-0.1V314.1z M346.5,319.2v9
	c0,0.8-0.7,1.5-1.5,1.5c-0.8,0-1.5-0.7-1.5-1.5v-9c0-0.8,0.7-1.5,1.5-1.5C345.8,317.7,346.5,318.4,346.5,319.2z M287.8,370.7
	c5.8-11,8.7-28.9,10.7-40.7c0.4-2.3,0.7-4.4,1-6.2c0,0,0,0,0,0c-0.1-0.3-0.1-0.7-0.2-1c-0.2-0.8,0.4-1.6,1.2-1.8
	c0.8-0.2,1.6,0.4,1.8,1.2c3.3,16.4-5.2,47.9-5.5,49.2c-0.2,0.7-0.8,1.1-1.4,1.1c-0.1,0-0.3,0-0.4-0.1c-0.8-0.2-1.3-1-1.1-1.8
	c0.1-0.2,3.6-13.3,5.3-26.8c-1.9,9.9-4.6,20.7-8.7,28.4c-0.3,0.5-0.8,0.8-1.3,0.8c-0.2,0-0.5-0.1-0.7-0.2
	C287.6,372.4,287.4,371.4,287.8,370.7z M101.4,317.5l-0.3,1.5l0.3,1.5h-0.6h0c-0.8,0-1.5-0.7-1.5-1.5c0-0.8,0.7-1.5,1.5-1.5h0H101.4
	z M119.7,339.6c0-0.8,0.7-1.5,1.5-1.5h0h0.6l-0.3,1.5l0.3,1.5h-0.6h0C120.4,341.1,119.7,340.4,119.7,339.6z M37.2,399.9h36.5v3H37.2
	V399.9z M37.2,406h36.5v3H37.2V406z M37.2,412.2h36.5v3H37.2V412.2z M37.2,418.3h36.5v3H37.2V418.3z M37.2,424.5h36.5v3H37.2V424.5z
	 M37.2,430.6h36.5v3H37.2V430.6z M37.2,436.7h36.5v3H37.2V436.7z M113.5,399.9v3H80v-3H113.5z M80,406h33.5v3H80V406z M80,412.2
	h33.5v3H80V412.2z M80,418.3h33.5v3H80V418.3z M80,424.5h33.5v3H80V424.5z M80,430.6h33.5v3H80V430.6z M80,436.7h33.5v3H80V436.7z
	 M341.7,389.2c-1.5,0,0,0-1.5,0v-3h3v3H341.7z M329.7,389.2c-1.5,0,0,0-1.5,0v-3h3v3H329.7z M323.7,389.2c-1.5,0,0,0-1.5,0v-3h3v3
	H323.7z M335.7,389.2c-1.5,0,0,0-1.5,0v-3h3v3H335.7z M270.1,386.2h3v3h-1.5c-1.5,0,0,0-1.5,0V386.2z M258.1,386.2h3v3
	c-1.5,0,0,0-1.5,0h-1.5V386.2z M252.1,386.2h3v3h-1.5c-1.5,0,0,0-1.5,0V386.2z M246,386.2h3v3h-1.5c-1.5,0,0,0-1.5,0V386.2z
	 M264.1,386.2h3v3h-1.5c-1.5,0,0,0-1.5,0V386.2z M240,386.2h3v3h-1.5c-1.5,0,0,0-1.5,0V386.2z M217.5,386.2h1.5v3c-1.5,0,0,0-1.5,0
	H216v-3H217.5z M222,386.2h3v3h-1.5c-1.5,0,0,0-1.5,0V386.2z M228,386.2h3v3h-1.5c-1.5,0,0,0-1.5,0V386.2z M234,386.2h3v3h-1.5
	c-1.5,0,0,0-1.5,0V386.2z M342.5,417.8c-0.2,0.1-0.4,0.1-0.5,0.1c-0.6,0-1.2-0.4-1.4-1c-0.3-0.8,0.1-1.6,0.9-2
	c0.8-0.3,1.6,0.1,1.9,0.8C343.6,416.7,343.3,417.5,342.5,417.8z M336.8,418.5c0.3,0.8-0.1,1.6-0.9,1.9c-0.2,0.1-0.4,0.1-0.5,0.1
	c-0.6,0-1.2-0.4-1.4-1c-0.3-0.8,0.1-1.6,0.9-1.9C335.6,417.3,336.5,417.7,336.8,418.5z M322.8,397.4c-0.5-0.6-0.4-1.6,0.2-2.1
	c0.6-0.5,1.6-0.4,2.1,0.2c0.5,0.6,0.4,1.6-0.2,2.1c0,0,0,0,0,0c-0.3,0.2-0.6,0.3-1,0.3C323.6,398,323.1,397.8,322.8,397.4z
	 M926.5,388.6h-18v-3h18v-40.5h5.3v-13.7h14.7v14h5.3v66.3h7.2v-17.3h4.7v-5.7h19v4.7h4v46.7h-3v-43.7h-4v-4.7h-13v5.7H962v17.3
	h-13.7v-3h0.5v-63.3h-5.3v-14h-8.7v13.7h-5.3v63h-3V388.6z"/>
</svg>
