<?xml version="1.0" encoding="utf-8"?>
<!-- Generator: Adobe Illustrator 23.0.1, SVG Export Plug-In . SVG Version: 6.00 Build 0)  -->
<svg version="1.1" id="_x2014_ÎÓÈ_x5F_1" xmlns="http://www.w3.org/2000/svg" xmlns:xlink="http://www.w3.org/1999/xlink"
	 x="0px" y="0px" width="811.2px" height="449.3px" viewBox="0 0 811.2 449.3" style="enable-background:new 0 0 811.2 449.3;"
	 xml:space="preserve">
<style type="text/css">
	.st0{fill:url(#SVGID_1_);}
</style>
<linearGradient id="SVGID_1_" gradientUnits="userSpaceOnUse" x1="8" y1="227.3" x2="802.8" y2="227.3" gradientTransform="matrix(1 0 0 -1 0 452)">
	<stop  offset="0" style="stop-color:#E4C18E"/>
	<stop  offset="1" style="stop-color:#C69A5C"/>
</linearGradient>
<path class="st0" d="M24.5,446.2h-15c-0.8,0-1.5,0.7-1.5,1.5s0.7,1.5,1.5,1.5h791.8c0.8,0,1.5-0.7,1.5-1.5c0-0.7-0.6-1.4-1.5-1.4
	h-10.2c0.1-0.2,0.1-0.4,0.1-0.6l-2.7-123.3c0-0.1,0-0.2,0-0.3l-10.7-52c-0.1-0.3-0.2-0.6-0.5-0.8l-2.7-2.3c-0.2-0.2-0.5-0.3-0.8-0.4
	v-38.2l-18.8,5.2l-3-61c0-0.8-0.7-1.4-1.5-1.4s-1.5,0.6-1.5,1.4l-2.2,64l-4.1,7.2l0,0v0.1l-11.8,20.7l-6.7,84.3v97.3h-9.5
	c0-0.1,0-0.2,0-0.3V316.3c0-0.2-0.1-0.5-0.2-0.7l-3.3-6.6c0-0.1,0-0.2,0-0.3v-4c0-0.8-0.7-1.5-1.5-1.5s-1.5,0.7-1.5,1.5v3.4h-6
	c0.3-0.3,0.5-0.7,0.5-1.1v-53.3c0-0.3-0.1-0.5-0.2-0.7l-2-3.5c-0.3-0.4-0.7-0.7-1.2-0.8c-0.4,0-0.7,0.1-1,0.3v-15.3
	c0-0.1,0-0.1,0-0.2c0.2-0.2,0.3-0.5,0.3-0.8v-1.5c0-0.3-0.1-0.6-0.3-0.8l0,0V212c0-0.3-0.1-0.6-0.2-0.8c-0.6-0.9-2-3.5-2.2-5.7
	c-0.1-0.8-0.8-1.4-1.6-1.4s-1.4,0.7-1.4,1.5c0,1.5-1.4,4.2-2.3,5.6c-0.1,0.1-0.1,0.2-0.1,0.2c-0.9-2.8-2-5.7-2.4-6.6
	c0-0.2,0-0.5,0-0.8h0.2c0.8,0,1.5-0.7,1.5-1.5s-0.7-1.5-1.5-1.5H688c-0.1-1.1-0.3-2.3-0.7-3.6c-0.5-1.6-1.2-3.3-2-5
	c-0.9-2-1.8-4.1-2-5.5V184c0-0.8-0.7-1.5-1.5-1.5s-1.5,0.7-1.5,1.5v2.2c-0.2,0.2-0.3,0.5-0.3,0.8c-0.2,1.4-1.1,3.5-2,5.6
	c-0.7,1.7-1.5,3.4-2,5c-0.4,1.3-0.6,2.6-0.7,3.8c-0.4,0.3-0.6,0.7-0.6,1.2s0.2,0.9,0.5,1.1c0,0.5,0,0.9,0,1.2
	c-0.4,1.1-1.8,4.5-2.6,7.6v-0.1c0-0.3-0.1-0.6-0.2-0.8c-0.9-1.4-2.3-4.1-2.3-5.6c0-0.8-0.6-1.5-1.4-1.5c-0.8,0-1.5,0.6-1.6,1.4
	c-0.2,2.6-2.2,5.6-2.2,5.7c-0.2,0.2-0.2,0.5-0.2,0.8v18.3c-0.1,0.2-0.2,0.4-0.2,0.7v4.5c0,0.2,0.1,0.5,0.2,0.7v12.9
	c-0.3-0.2-0.6-0.3-1-0.3c-0.5,0-1,0.3-1.2,0.8l-2,3.5c-0.1,0.2-0.2,0.5-0.2,0.7v54.1h-5.5v-3.4c0-0.8-0.7-1.5-1.5-1.5
	s-1.5,0.7-1.5,1.5v4c0,0.1,0,0.2,0,0.3l-3.3,6.6l0,0c0,0.1-0.1,0.1-0.1,0.2v0.1c0,0.1,0,0.2,0,0.3v130h-10.5V269.9h-3.3v-16.3h-8.9
	v-11.5c0-0.8-0.7-1.5-1.5-1.5s-1.5,0.7-1.5,1.5v11.5h-3.5c0-14.8,0-28.6,0-28.6c0-1.6-0.3-3.1-0.9-4.5l2.1-2.6
	c0.5-0.6,0.4-1.6-0.2-2.1c-0.6-0.5-1.6-0.4-2.1,0.2l-1.4,1.7c-0.7-0.8-1.5-1.6-2.4-2.2l1.2-3.6c0.3-0.8-0.2-1.6-1-1.9
	c-0.8-0.3-1.6,0.2-1.9,1l-1,3.1c-0.7-0.3-1.4-0.4-2.2-0.6v-4.1c0-0.8-0.7-1.5-1.5-1.5s-1.5,0.7-1.5,1.5v4.1
	c-0.6,0.1-1.3,0.2-1.9,0.4l-0.9-2.9c-0.3-0.8-1.1-1.2-1.9-1c-0.8,0.3-1.2,1.1-1,1.9l1,3.2c-0.7,0.4-1.3,0.9-1.9,1.4l-1.7-2.2
	c-0.5-0.6-1.5-0.8-2.1-0.2c-0.6,0.5-0.8,1.5-0.2,2.1l2.1,2.7c-1.1,1.8-1.7,3.8-1.7,6v28.8c-1.9,0-3,0-3.5,0v-31.4
	c0-3.5,1.2-6.7,3.2-9.2l0,0l0,0c2.7-3.5,7-5.7,11.7-5.7c8.3,0,15,6.7,15,15v10c0,0.8,0.7,1.5,1.5,1.5s1.5-0.7,1.5-1.5v-9h2.8v28h3
	v-31h-5.9c-0.3-2.8-1.3-5.5-2.8-7.8v-3.1c0-1.5-0.3-3-0.8-4.4h0.3v-6.6c0-2.8-0.8-5.3-2.2-7.5v-4.9c0-2.9-1.1-5.6-3-7.7V175
	c0-2.7-1.1-5.1-2.9-6.8v-8.9c0-1.8-0.8-3.4-2-4.6v-7.9c0-1.8-1.1-3.4-2.8-4V121c0-0.8-0.7-1.5-1.5-1.5s-1.5,0.7-1.5,1.5v21.8
	c-1.6,0.6-2.8,2.1-2.8,4v7.8h0.2c-1.3,1.1-2.2,2.8-2.2,4.8v9.7c-1.3,1.6-2.1,3.7-2.1,6v2.4c-2.5,2.1-4,5.2-4,8.7v5.7
	c-1.1,2-1.7,4.2-1.7,6.7v5.9c-0.6,1.6-1,3.3-1,5.1v2.5c-1.7,2.4-2.8,5.2-3.1,8.3h-6.5v17.8h3v-14.8h3.4v30h-10.1v16.3h-2v159.7h3
	V272.9h11.7v-0.5c0.3-0.3,0.4-0.6,0.4-1v-14.5c0.5,0,2.1,0,5.1,0h1.5v-3H599v-28.8c0-4.7,3.8-8.5,8.5-8.5s8.5,3.8,8.5,8.5
	c0,0,0,14.8,0,30.2v1.5h0.4v0.1h6.1v14.2c0,0.8,0.7,1.5,1.5,1.5h0.1v0.3h10.7v173.4h-14.3v-2.6h-3v2.6h-1v-2.6h-3v2.6h-12.8v-2.4h-3
	v2.4h-1v-2.4h-3v2.4h-13.4v-14.8h-10v-29h-13v-12v-16h-9.5v3h6.5v13h-27v41h-14V430h-3v1.5h-14v-41h-28v-13h8V388h3V217.5h2h13V379
	v4.5h34V379V217.5h13h3V389h3V214.5h-6v-23h-8v-14h-5v-6h-4.2c0.1-0.5-0.1-1.1-0.5-1.5c-6-4.7-6.7-29.7-6.5-39
	c0-0.4-0.1-0.8-0.4-1.1c-0.3-0.3-0.7-0.5-1.1-0.5h-1.3h-1V98h-3v31.5h-1H509c-0.4,0-0.8,0.2-1.1,0.4c-0.3,0.3-0.4,0.7-0.4,1.1
	c0.1,9.2-0.9,34.2-6.9,39c-0.5,0.4-0.6,0.9-0.5,1.5h-3.6v6h-5v14h-10v23h-5v160h-11v16v12h-6.3l-0.1-5.2c0-0.1,0.1-0.3,0.1-0.4
	c0-0.2,0-0.3-0.1-0.5l-7.3-315.3v-1.2l-10.4-2.4V63.4h-22.2V46.2h1c0.8,0,1.5-0.7,1.5-1.5s-0.7-1.5-1.5-1.5h-1V24.3h0.1
	c0.8,0,1.5-0.7,1.5-1.5s-0.7-1.5-1.5-1.5h-0.1V0.2h-3v21.1H416c-0.8,0-1.5,0.7-1.5,1.5s0.7,1.5,1.5,1.5h0.1v18.9h-1
	c-0.8,0-1.5,0.7-1.5,1.5s0.7,1.5,1.5,1.5h1v17.2h-19.6v14.7l-11.2,3.1l-6.7,305.5l-0.1,5l-1.2,54.6h-13.5V173.1
	c0-0.8-0.7-1.5-1.5-1.5s-1.5,0.7-1.5,1.5v8.5h-7.3v-8.8c0-0.8-0.7-1.5-1.5-1.5s-1.5,0.7-1.5,1.5v20.8h-5.8v-5.7h5.2v-3h-5.2v-3.7
	h5.2v-3h-5.2v-5c0-0.8-0.7-1.5-1.5-1.5s-1.5,0.7-1.5,1.5v5h-4.9v-5c0-0.8-0.7-1.5-1.5-1.5s-1.5,0.7-1.5,1.5v5H328v-27
	c0-0.8-0.7-1.5-1.5-1.5s-1.5,0.7-1.5,1.5v27h-4v-5c0-0.8-0.7-1.5-1.5-1.5s-1.5,0.7-1.5,1.5v5h-4.8v-5c0-0.8-0.7-1.5-1.5-1.5
	s-1.5,0.7-1.5,1.5v5h-5.3v3h5.3v3.7h-5.3v3h5.3v5.7h-5.7v-20.8c0-0.8-0.7-1.5-1.5-1.5s-1.5,0.7-1.5,1.5v8.8h-5.3v-8.5
	c0-0.8-0.7-1.5-1.5-1.5s-1.5,0.7-1.5,1.5v273.2h-11.7v-50.1c0.2-0.4,0.2-0.8,0-1.2c0,0,0,0,0-0.1V238.7c0-0.8-0.7-1.5-1.5-1.5
	s-1.5,0.7-1.5,1.5v207.5h-178v-51.5h23.2c-14.2,11.6-22.2,28.6-22.2,47v2.2h3v-2.2c0-18.3,8.4-35.1,23-46.1l1.1-0.9h33.3l-0.3,17.5
	c0,0.8,0.6,1.5,1.5,1.5h-2.5c-1.2,0-4,0.5-4,5c0,2.2,1.5,4.1,3.5,4.7v15.8h-2c-0.8,0-1.5,0.7-1.5,1.5s0.7,1.5,1.5,1.5h2v2.5h3v-2.5
	h39v2.5h3v-2.5h1c0.8,0,1.5-0.7,1.5-1.5s-0.7-1.5-1.5-1.5h-1V423c1.5-0.9,2.5-2.5,2.5-4.3c0-0.3,0-0.6,0-0.9c0-1.2,0.1-2.4-0.8-3.3
	c-0.5-0.6-1.3-0.8-2.2-0.8h-2c0-2.8,0.1-5.7,0.2-8.5c0.1-1.6,0.1-3.1,0.2-4.8l1,1c2.1,2.2,4,4.5,5.8,6.9c-0.1,0.3,0,0.7,0.2,1
	c0.2,0.4,0.6,0.7,1,0.7c6.1,9.3,9.4,20.2,9.4,31.6c0,0.6,0,1.3,0,1.9v1.5l3,0.1v-1.5c0-0.7,0-1.3,0-2c0-1.6-0.1-3.1-0.2-4.7
	c0.1-0.2,0.2-0.5,0.2-0.8s-0.1-0.5-0.3-0.7c-0.2-1.5-0.4-3.1-0.6-4.6c0.2,0.1,0.4,0.1,0.6,0.1c0.1,0,0.3,0,0.4-0.1l5.3-1.5v5.1
	c-0.3-0.2-0.7-0.3-1-0.3c-0.8,0.1-1.4,0.8-1.4,1.6c0.1,0.8,0.7,1.4,1.5,1.4h0.1c0.3,0,0.5-0.1,0.8-0.3v7.7c0,0.8,0.7,1.5,1.5,1.5
	s1.5-0.7,1.5-1.5V333.2c0-0.8-0.7-1.5-1.5-1.5s-1.5,0.7-1.5,1.5V348c-3.4-1.2-8.1-2.8-13.6-4.9V343c-0.1-0.2-0.1-0.3-0.2-0.5
	c1.9-2.1,4.2-4.6,4.2-4.7c0.3-0.3,0.4-0.8,0.4-1.2c-0.1-0.4-0.3-0.8-0.6-1.1l-9.5-6.4c-0.6-0.4-1.4-0.3-1.9,0.2l-3.7,3.9l-1.7-1.8
	l0,0c8-21.5,17.5-47.3,26.7-72v47.9c0,0.8,0.7,1.5,1.5,1.5s1.5-0.7,1.5-1.5V8.2h47v219.5c0,0.8,0.7,1.5,1.5,1.5s1.5-0.7,1.5-1.5V6.7
	c0-0.8-0.7-1.5-1.5-1.5h-50c-0.8,0-1.5,0.7-1.5,1.5v244.1c-0.1,0.1-0.2,0.2-0.2,0.4c-9.7,26.1-20,53.9-28.6,77l-0.3-3
	c0-0.2-0.1-0.4-0.2-0.6l-1.9-3.5c-0.1-0.3-0.4-0.5-0.7-0.6l-4-2c-0.1-0.4-0.2-1.1-0.4-2c-1.3-7.2-1.6-8.6-1.8-9
	c0-0.1-0.1-0.1-0.1-0.2c0,0,0,0,0.1,0c0.5,0,1-0.3,1.3-0.8c0.7-1.2,1-2.5,1-3.9c0-0.4,0-0.8-0.1-1.2l1-0.5c0.1-0.1,0.2-0.1,0.3-0.2
	c0,0,0.1,0,0.1-0.1l7.6-5c0.6-0.4,0.8-1.1,0.6-1.8c-0.2-0.7-0.9-1.1-1.6-1l-7.7,0.9l3.7-7c0.3-0.6,0.2-1.4-0.3-1.8
	c-0.5-0.5-1.3-0.5-1.9-0.1l-7.4,5.2l-1.8-8.5c-0.1-0.6-0.7-1.1-1.3-1.2c-0.7,0-1.3,0.3-1.5,1l-3.4,8.9l0,0l-7.6-5.8
	c-0.5-0.4-1.3-0.4-1.8,0s-0.7,1.1-0.5,1.7l2.8,7.6l-5.6-0.7l-2.9-10.4c-0.1-0.3-0.2-0.5-0.4-0.6l0.2-3.3v-0.1
	c0.6-0.5,0.7-1.2,0.8-1.6c0-0.1,0-0.2,0.1-0.3c0.3-1.3,0.3-5.1,0.2-6.1c0-0.2,0-0.3,0-0.5c0-0.5-0.1-1.1-0.4-1.7l0.1-2
	c2.1-1.3,2.9-3.3,2.9-4.6c0-0.4-0.1-0.8-0.4-1.1c-0.3-0.3-0.7-0.5-1.1-0.5h-0.6c0.9-0.3,1.6-0.3,1.8-0.2l0,0v0.1
	c0.1,0.8,0.7,1.3,1.5,1.3c0.1,0,0.1,0,0.2,0c0.8-0.1,1.4-0.8,1.3-1.7c0-0.2-0.1-0.4-0.1-0.6c-0.1-0.4-0.4-0.7-0.7-0.9
	c-0.1-0.4-0.4-0.7-0.7-0.9c-1.7-0.9-4-0.1-5.5,0.4l-0.4,0.1c-1.1,0.4-2.4,0.2-3.3-0.4c-0.6-0.4-0.9-0.9-1-1.6
	c-0.2-2.2,1.2-3.8,3.5-4c1.2-0.1,2.2,0,3.4,0.4c0.3,0.1,0.7,0.3,1.1,0.5c1.8,0.8,4.5,2,8.6,2.2c0.4,0,0.8-0.1,1.1-0.4
	c0.2,0.1,0.4,0.1,0.6,0.1s0.3,0,0.5-0.1s0.4-0.1,0.6-0.2c0.8-0.3,1.1-1.2,0.7-2c-0.3-0.8-1.2-1.1-2-0.7c-0.1,0-0.2,0.1-0.3,0.1
	c-0.2,0.1-0.4,0.2-0.5,0.3c-0.2-0.1-0.4-0.1-0.6-0.1c-3.6-0.2-5.9-1.2-7.6-1.9c-0.5-0.2-0.9-0.4-1.3-0.5c-1.6-0.6-3.1-0.8-4.8-0.6
	c-3.9,0.4-6.5,3.4-6.2,7.2c0.1,1.6,1,2.9,2.3,3.8c0.1,0.1,0.2,0.1,0.4,0.2h-4c-0.4,0-0.8,0.2-1.1,0.4c-0.3,0.3-0.4,0.7-0.4,1.1
	c0,1.4,0.8,3.6,3.1,4.8v0.5c-0.4,0.2-0.7,0.5-1,0.9c-0.8,1.1-1.1,2.9-0.9,5.6c0,0.2,0,0.5,0,0.8c0,1.3,0.1,2.9,0.9,3.9
	c0.4,0.5,1.1,0.9,2,1.1c0,0.1,0,0.1,0,0.2l0.3,3c0,0.3,0.1,0.5,0.3,0.7l-1.1,14.4c0,0.2,0,0.5,0.1,0.7l1.7,3.7l0.1,3.2
	c-0.4,0.3-0.7,0.7-0.7,1.3c0,0.8,0.1,1.5,0.4,2.1l-1.1,2c-0.1,0.1-0.1,0.2-0.1,0.4c-0.1,0.4-0.9,3.9,0.9,5.9
	c0.4,0.4,0.9,0.8,1.7,1.1c-0.3,1.2-0.7,2.3-0.7,2.3c-0.2,0.6,0,1.2,0.4,1.6l3.4,3l-1.3,2.5c-19.7,13.2-54.6,25-60,26.7v-67.6
	c0-0.8-0.7-1.5-1.5-1.5H40.4v-18.7h50.3v17.2c0,0.8,0.7,1.5,1.5,1.5s1.5-0.7,1.5-1.5v-18.7c0-0.8-0.7-1.5-1.5-1.5h-2
	c0-0.1,0-0.2,0-0.3v-4c0-0.8-0.7-1.5-1.5-1.5h-3c0-0.2,0-0.5-0.2-0.7c-2.1-4.2-11.1-11.8-20.1-15.7c-0.4-0.2-0.8-0.2-1.2,0
	c-13.9,5.8-20.7,15.1-21,15.5c-0.2,0.3-0.3,0.6-0.3,0.9h-1.3c-0.8,0-1.5,0.7-1.5,1.5v4c0,0.1,0,0.2,0,0.3h-1.4
	c-0.8,0-1.5,0.7-1.5,1.5v20.2H31c-0.8,0-1.5,0.7-1.5,1.5v159c0,0.2,0,0.4,0.1,0.5h-2.1 M614.6,206l1-3.2c0.3-0.8-0.2-1.6-1-1.9
	c-0.8-0.3-1.6,0.2-1.9,1l-1,3.2c-0.8-0.2-1.6-0.3-2.4-0.4v-3.6c0-0.8-0.7-1.5-1.5-1.5s-1.5,0.7-1.5,1.5v3.6
	c-0.7,0.1-1.4,0.1-2.1,0.3l-1-3c-0.3-0.8-1.1-1.2-1.9-1c-0.8,0.3-1.2,1.1-1,1.9l1,2.9c-2,0.7-3.8,1.8-5.4,3.2
	c0.1-0.9,0.2-1.8,0.5-2.6h0.4v-1c1.8-3.9,6-6.7,10.9-6.7c6.4,0,11.6,4.8,11.9,10.7C618.2,207.9,616.5,206.8,614.6,206z M609.3,166.2
	c0.1-0.2,0.1-0.4,0.1-0.6v-3.5c0-0.8-0.7-1.5-1.5-1.5s-1.5,0.7-1.5,1.5v3.5c0,0.2,0.1,0.5,0.2,0.7c-0.7,0.1-1.3,0.4-1.9,0.7v-7.3
	c0-1.8,1.5-3.2,3.2-3.2s3.2,1.5,3.2,3.2v7C610.6,166.4,609.9,166.2,609.3,166.2z M606.7,147.1c0-0.7,0.6-1.2,1.2-1.2
	c0.7,0,1.2,0.6,1.2,1.2v6.4c-0.4-0.1-0.8-0.1-1.2-0.1s-0.8,0-1.2,0.1V147.1z M602.5,175.3c0-1.8,0.7-3.4,1.8-4.5h0.4v-0.3
	c1-0.9,2.3-1.4,3.6-1.4c3.2,0,5.8,2.8,5.8,6.2v1c-0.6-0.3-1.1-0.6-1.7-0.8l0.2-0.5c0.3-0.8-0.1-1.6-0.9-1.9
	c-0.8-0.3-1.6,0.1-1.9,0.9l-0.3,0.8h-0.1v-3.2c0-0.8-0.7-1.5-1.5-1.5s-1.5,0.7-1.5,1.5v2.3c-0.3-0.7-1.1-1.1-1.9-0.8
	c-0.8,0.3-1.2,1.1-0.9,1.9l0.1,0.4c-0.4,0.1-0.7,0.3-1.1,0.4L602.5,175.3L602.5,175.3z M602.4,179.3h0.2v-0.1c1.5-1,3.3-1.6,5.2-1.6
	c2.4,0,4.6,0.9,6.2,2.3v0.9h0.9c1.3,1.5,2.1,3.5,2.1,5.6v1.4c-1.1-0.9-2.3-1.6-3.6-2.2l1.1-2.9c0.3-0.8-0.1-1.6-0.9-1.9
	c-0.8-0.3-1.6,0.1-1.9,0.9l-1.1,3.1c-0.4-0.1-0.8-0.1-1.3-0.2V181c0-0.8-0.7-1.5-1.5-1.5s-1.5,0.7-1.5,1.5v3.6
	c-0.3,0-0.6,0.1-0.8,0.1l-1.1-3.1c-0.3-0.8-1.1-1.2-1.9-0.9c-0.8,0.3-1.2,1.1-0.9,1.9l1.1,3c-1.5,0.6-2.8,1.5-4,2.6v-1.9
	C598.5,183.5,600.1,180.9,602.4,179.3z M596.9,198.8c0-6.2,5-11.2,11.2-11.2s11.2,5,11.2,11.2v1.9c-1.4-1.6-3.2-2.9-5.2-3.7l1.1-3.4
	c0.3-0.8-0.2-1.6-1-1.9c-0.8-0.3-1.6,0.2-1.9,1l-1.1,3.3c-0.6-0.1-1.3-0.3-1.9-0.3v-4.6c0-0.8-0.7-1.5-1.5-1.5s-1.5,0.7-1.5,1.5v4.6
	c-0.5,0-1,0.1-1.5,0.2l-1-3.3c-0.3-0.8-1.1-1.2-1.9-1c-0.8,0.3-1.2,1.1-1,1.9l1,3.2c-1.9,0.8-3.6,2-5,3.4L596.9,198.8L596.9,198.8z
	 M582.5,256.6h7.1v13.3h-7.1V256.6z M631.5,256.6v13.3h-5.9v-13.3H631.5z M525.4,379v1.5h-28V379V217.5v-3v-20h28v20v3V379z
	 M538.4,194.5v20h-10v-20h5H538.4z M510.5,132.5h3.7c-0.1,7,0.1,31.7,6.7,39h-17.5C510,164.2,510.5,139.5,510.5,132.5z M499.4,174.5
	h26v3h-26V174.5z M494.4,180.5h2h32h2v11h-2h-3h-2V184h-3v7.5h-7V184h-3v7.5h-5V184h-3v7.5h-5h-3V180.5z M484.4,194.5h7h3v20h-10
	V194.5z M64.6,244.4c8,3.7,15.4,10,17.6,13.4h-36C48.2,255.4,54.3,248.8,64.6,244.4z M43,263.2v-2.5h44v2.5c0,0.1,0,0.2,0,0.3H43
	C43,263.5,43,263.4,43,263.2z M752,233.8c0,0.2,0.1,0.4,0.2,0.6l-2.3,0.6l0.6-18h0.1v-3.4l0.2-4.7L752,233.8z M727.2,349.1l0.7-9.2
	h2.7V336h-2.4l0.2-2.3h2.2v-3.9h-1.9l0.2-2.6h1.3v-3.9h-1l0.2-2.3h0.8v-4h-0.5l0.1-1.8h0.3v-3.9l0,0l2.1-26.5h2.7v-3.9h-2.4l0.2-2.3
	h2.2v-3.9H733l0.1-1.8h1.7V269h-1.4l0.2-2.3h1.2v-3l2.5-4.3v0.6h2.8v-3.9h-0.9l3.4-5.9v3.6h2.8v-3.9h-2.6l1.1-1.8h1.5v-2.7l1.7-3
	l0.8,13.7h-0.1v3.9h0.3l1.7,27.4h-2.6v3.9h2.8v-0.5l0.1,2.1h-2.3v3.9h2.6l0.1,1.8h-2.7v3.9h2.8v-2.4l2.1,35.1l1.3,31.1l0,0v3.9h0.2
	l3,69.7h-2.7v3.9h2.8v-2.5l0.1,3.1c0,0.8,0.7,1.4,1.5,1.4c0,0,0,0,0.1,0c0.8,0,1.5-0.7,1.4-1.6l-0.5-12.5h2.6v-3.9h-2.8v1l-0.2-3.6
	h2.5v-3.9h-2.6l-0.1-2.3h2.7v-3.9h-2.8v2.9l-2.6-59.9h0.1v-3.9h-0.3l-0.8-19.3l-1.2-19.8h1.8v-3.9h-2l-3.7-60.3v-1.4h-0.1l-0.7-11.5
	l20.9-5.8v99.5h3V270l1.1,1l10.5,51.4l2.7,123.2c0,0.2,0,0.4,0.1,0.5h-61.1v-97H727.2z M702.7,446V317.8h9V446c0,0.1,0,0.2,0,0.3
	h-9.1C702.7,446.2,702.7,446.1,702.7,446z M685.1,205.7c0,0.1,1.9,4.6,2.8,8.1h-12.5c1-3.5,2.8-8.1,2.8-8.1c0.1-0.2,0.1-0.5,0.1-0.7
	c0,0,0-0.4,0-0.9h6.8c0,0.6,0,0.9,0,0.9C685,205.2,685,205.4,685.1,205.7z M680.8,193.7c0.3-0.7,0.6-1.4,0.9-2.1
	c0.3,0.7,0.6,1.4,0.9,2.1c0.7,1.6,1.4,3.2,1.8,4.6c0.3,0.9,0.4,1.8,0.5,2.7h-6.5c0.1-0.9,0.3-1.8,0.5-2.7
	C679.3,196.9,680.1,195.3,680.8,193.7z M668.6,210.9c0.4,0.8,0.8,1.4,1,1.8v14.4c0,0.8,0.7,1.5,1.5,1.5s1.5-0.7,1.5-1.5v-10.6
	c0.2,0.2,0.5,0.3,0.8,0.3h15.3c0.2,0,0.3,0,0.5-0.1c0.2,0.1,0.3,0.1,0.5,0.1c0.1,0,0.2,0,0.3,0s0.1,0,0.1,0V227
	c0,0.8,0.7,1.5,1.5,1.5s1.5-0.7,1.5-1.5v-14.4c0.2-0.4,0.6-1,1-1.8c0.4,0.8,0.7,1.4,1,1.8v17.3h-7.8v-10c0-0.8-0.7-1.5-1.5-1.5
	s-1.5,0.7-1.5,1.5v10H683v-10c0-0.8-0.7-1.5-1.5-1.5s-1.5,0.7-1.5,1.5v10h-2v-10c0-0.8-0.7-1.5-1.5-1.5s-1.5,0.7-1.5,1.5v10h-7.3
	v-17.1C667.9,212.3,668.3,211.7,668.6,210.9z M667.7,237.3h2v15.3h-2V237.3z M663.2,308.3v-53.9l0.6-1.1l0.8,1.1v1.2
	c0,0.8,0.7,1.5,1.5,1.5s1.5-0.7,1.5-1.5v-0.1h2V267c0,0.8,0.7,1.5,1.5,1.5s1.5-0.7,1.5-1.5v-11.5h17.6v11.3c0,0.8,0.7,1.5,1.5,1.5
	s1.5-0.7,1.5-1.5v-11.3c0.8,0,1.5-0.7,1.5-1.5s-0.7-1.5-1.5-1.5v-11.1c0-0.8-0.7-1.5-1.5-1.5s-1.5,0.7-1.5,1.5v11.1h-1.6v-12.4h-3
	v12.4H683v-12.4h-3v12.4h-2.3v-12.4h-3v12.4h-2v-15.3h0.2c0.8,0,1.5-0.7,1.5-1.5s-0.7-1.5-1.5-1.5h-5.4v-1.5h28c0,0.1,0,0.1,0,0.2
	c-0.2,0.2-0.3,0.5-0.3,0.8v19.5c-0.1,0.3-0.1,0.6,0,1v1.1c0,0.8,0.7,1.5,1.5,1.5s1.5-0.7,1.5-1.5v-1.2l0.8-1.1l0.6,1.1V307
	c0,0.7,0.5,1.3,1.2,1.5c-0.3,0.3-0.5,0.7-0.5,1.1c0,0.8,0.7,1.5,1.5,1.5h7.1l1.8,3.7h-8.1v-1.2c0-0.8-0.7-1.5-1.5-1.5
	s-1.5,0.7-1.5,1.5V446c0,0.1,0,0.2,0,0.3H672v-1.7h-3v1.7h-1v-1.5h-3v1.5h-1.7V313.6c0-0.8-0.7-1.5-1.5-1.5s-1.5,0.7-1.5,1.5v1.2
	h-8.1l1.8-3.7h7.1c0.8,0,1.5-0.7,1.5-1.5v-0.1C663,309.2,663.2,308.8,663.2,308.3z M651.3,317.8h9v128.5h-9V317.8z M567.4,405.5v26
	h-10v-26H567.4z M530.4,393.5h24v9v29h-24V393.5z M527.4,434.5h27h3h13h7v11.8h-131v-11.8h8h11h3h28H527.4z M468.4,393.5h25v38h-25
	v-29V393.5z M465.4,431.5h-8v-26h8V431.5z M448.8,84.4l6.4,279.1l-0.3-2.4l-3.6-30.1l0.4,0.1c0.2,0.1,0.4,0.1,0.6,0.1
	c0.6,0,1.2-0.4,1.4-0.9c0.3-0.8-0.1-1.6-0.8-2l-1.9-0.8l-1-8.3l1.2,0.5c0.2,0.1,0.4,0.1,0.6,0.1c0.6,0,1.2-0.4,1.4-0.9
	c0.3-0.8-0.1-1.6-0.8-2l-2.8-1.1l-1-8.3l2.1,0.8c0.2,0.1,0.4,0.1,0.6,0.1c0.6,0,1.2-0.4,1.4-0.9c0.3-0.8-0.1-1.6-0.8-1.9l-3.6-1.4
	l-1-8.2l3,1.2c0.2,0.1,0.4,0.1,0.6,0.1c0.6,0,1.2-0.4,1.4-0.9c0.3-0.8-0.1-1.6-0.8-1.9l-4.5-1.8l-1-8.2l3.9,1.5
	c0.2,0.1,0.4,0.1,0.5,0.1c0.6,0,1.2-0.4,1.4-1c0.3-0.8-0.1-1.6-0.8-1.9l-5.4-2.1l-1-8.2l4.8,1.8c0.2,0.1,0.4,0.1,0.5,0.1
	c0.6,0,1.2-0.4,1.4-1c0.3-0.8-0.1-1.6-0.9-1.9l-6.3-2.4l-1-8.2l5.6,2.2c0.2,0.1,0.4,0.1,0.5,0.1c0.6,0,1.2-0.4,1.4-1
	c0.3-0.8-0.1-1.6-0.9-1.9l-7.1-2.7l-1-8.2l6.5,2.5c0.2,0.1,0.4,0.1,0.5,0.1c0.6,0,1.2-0.4,1.4-1c0.3-0.8-0.1-1.6-0.9-1.9l-8-3.1
	l-1-8.2l7.4,2.8c0.2,0.1,0.4,0.1,0.5,0.1c0.6,0,1.2-0.4,1.4-1c0.3-0.8-0.1-1.6-0.9-1.9l-8.9-3.4l-1-8.2l8.3,3.1
	c0.2,0.1,0.4,0.1,0.5,0.1c0.6,0,1.2-0.4,1.4-1c0.3-0.8-0.1-1.6-0.9-1.9l-9.7-3.7l-1-8.2l9.2,3.4c0.2,0.1,0.3,0.1,0.5,0.1
	c0.6,0,1.2-0.4,1.4-1c0.3-0.8-0.1-1.6-0.9-1.9l-10.6-3.9l-1-8.2l10,3.7c0.2,0.1,0.3,0.1,0.5,0.1c0.6,0,1.2-0.4,1.4-1
	c0.3-0.8-0.1-1.6-0.9-1.9l-11.5-4.2l-1-8.2l10.9,4c0.2,0.1,0.3,0.1,0.5,0.1c0.6,0,1.2-0.4,1.4-1c0.3-0.8-0.1-1.6-0.9-1.9l-12.3-4.5
	l-1-8.2l11.8,4.3c0.2,0.1,0.3,0.1,0.5,0.1c0.6,0,1.2-0.4,1.4-1c0.3-0.8-0.1-1.6-0.9-1.9l-13.2-4.8l-1-8.2l12.7,4.5
	c0.2,0.1,0.3,0.1,0.5,0.1c0.6,0,1.2-0.4,1.4-1c0.3-0.8-0.1-1.6-0.9-1.9l-14.1-5l-1-8.2l13.5,4.8c0.2,0.1,0.3,0.1,0.5,0.1
	c0.6,0,1.2-0.4,1.4-1c0.3-0.8-0.1-1.6-0.9-1.9l-14.9-5.3l-1-8.2l14.4,5.1c0.2,0.1,0.3,0.1,0.5,0.1c0.6,0,1.2-0.4,1.4-1
	c0.3-0.8-0.1-1.6-0.9-1.9l-15.8-5.6l-1-8.2l15.3,5.3c0.2,0.1,0.3,0.1,0.5,0.1c0.6,0,1.2-0.4,1.4-1c0.3-0.8-0.1-1.6-0.9-1.9
	l-16.7-5.8l-1-8.2l16.2,5.6c0.2,0.1,0.3,0.1,0.5,0.1c0.6,0,1.2-0.4,1.4-1c0.3-0.8-0.1-1.6-0.9-1.9l-17.5-6l-1-8.2l17,5.8
	c0.2,0.1,0.3,0.1,0.5,0.1c0.6,0,1.2-0.4,1.4-1c0.3-0.8-0.2-1.6-0.9-1.9l-18.4-6.3l-1-8.2l17.9,6c0.2,0.1,0.3,0.1,0.5,0.1
	c0.6,0,1.2-0.4,1.4-1c0.3-0.8-0.2-1.6-0.9-1.9l-19.3-6.5l-1-8.2l18.8,6.3c0.2,0.1,0.3,0.1,0.5,0.1c0.6,0,1.2-0.4,1.4-1
	c0.3-0.8-0.2-1.6-0.9-1.9L422,84.4l-1-8.5l12.3,2.8L448.8,84.4z M438.3,66.4v10.4l-19.2-4.4v-5.9L438.3,66.4L438.3,66.4z M417.4,91
	c0.2-0.3,0.5-0.6,0.7-0.8l2.3,18.6h-1l-0.1,3h1.5l1.1,8.4h-3.1v3l3.5,0.1l5.3,42.7h-0.7v3h1c0-0.2,0-0.3,0.1-0.5l27.7,221.2
	c0,0.3,0.2,0.6,0.4,0.8l0.1,4.9h-55.6h-4.2h-14.7c0,0,0,0-0.1,0l0.2-8.4l18.8-155.9l6.1-50.7h4.7v-3h-4.2c0.4-2.2,0.7-4.4,1.1-6.6
	c0.1-0.6,0.2-1.2,0.3-1.8h3v-3h-2.7c0.3-2.8,0.6-5.6,0.8-8.4h2v-3H410c0.3-2.9,0.6-5.8,1.1-8.4h0.8v-3h-0.3c0-0.1,0-0.2,0.1-0.3
	c1.1-6.8,1.5-14.1,2-21L417.4,91z M382.6,354.2c-0.1,0.2-0.1,0.5-0.1,0.8l-0.1,1l0.6-26c0,0.1,0,0.3,0.1,0.4
	c0.2,0.6,0.8,0.9,1.4,0.9c0.2,0,0.4,0,0.6-0.1l0.4-0.1L382.6,354.2z M399.6,66.4h16.6v6.3l-16.6,4.5V66.4z M396.5,81.3l19.4-7.1
	l-0.2,1.9l-1,8.4l-20.1,6.7c-0.8,0.3-1.2,1.1-0.9,1.9c0.2,0.6,0.8,1,1.4,1c0.2,0,0.3,0,0.5-0.1l18.8-6.3l-1,8.2l-19.3,6.5
	c-0.8,0.3-1.2,1.1-0.9,1.9c0.2,0.6,0.8,1,1.4,1c0.2,0,0.3,0,0.5-0.1l17.9-6l-1,8.2l-18.4,6.3c-0.8,0.3-1.2,1.1-0.9,1.9
	c0.2,0.6,0.8,1,1.4,1c0.2,0,0.3,0,0.5-0.1l17-5.8l-1,8.2l-17.5,6c-0.8,0.3-1.2,1.1-0.9,1.9c0.2,0.6,0.8,1,1.4,1c0.2,0,0.3,0,0.5-0.1
	l16.2-5.6l-1,8.2l-16.7,5.8c-0.8,0.3-1.2,1.1-0.9,1.9c0.2,0.6,0.8,1,1.4,1c0.2,0,0.3,0,0.5-0.1l15.3-5.3l-1,8.2l-15.8,5.6
	c-0.8,0.3-1.2,1.1-0.9,1.9c0.2,0.6,0.8,1,1.4,1c0.2,0,0.3,0,0.5-0.1l14.4-5.1l-1,8.2l-14.9,5.3c-0.8,0.3-1.2,1.1-0.9,1.9
	c0.2,0.6,0.8,1,1.4,1c0.2,0,0.3,0,0.5-0.1l13.5-4.8l-1,8.2l-14.1,5c-0.8,0.3-1.2,1.1-0.9,1.9c0.2,0.6,0.8,1,1.4,1
	c0.2,0,0.3,0,0.5-0.1l12.7-4.5l-1,8.2l-13.2,4.8c-0.8,0.3-1.2,1.1-0.9,1.9c0.2,0.6,0.8,1,1.4,1c0.2,0,0.3,0,0.5-0.1l11.8-4.3l-1,8.2
	l-12.3,4.5c-0.8,0.3-1.2,1.1-0.9,1.9c0.2,0.6,0.8,1,1.4,1c0.2,0,0.3,0,0.5-0.1l10.9-4l-1,8.2l-11.5,4.2c-0.8,0.3-1.2,1.1-0.9,1.9
	c0.2,0.6,0.8,1,1.4,1c0.2,0,0.3,0,0.5-0.1l10-3.7l-1,8.2l-10.6,3.9c-0.8,0.3-1.2,1.2-0.9,1.9c0.2,0.6,0.8,1,1.4,1
	c0.2,0,0.4,0,0.5-0.1l9.2-3.4l-1,8.2l-9.7,3.7c-0.8,0.3-1.2,1.2-0.9,1.9c0.2,0.6,0.8,1,1.4,1c0.2,0,0.4,0,0.5-0.1l8.3-3.1l-1,8.2
	l-8.9,3.4c-0.8,0.3-1.2,1.2-0.9,1.9c0.2,0.6,0.8,1,1.4,1c0.2,0,0.4,0,0.5-0.1l7.4-2.8l-1,8.2l-8,3.1c-0.8,0.3-1.2,1.2-0.9,1.9
	c0.2,0.6,0.8,1,1.4,1c0.2,0,0.4,0,0.5-0.1l6.5-2.5l-1,8.2l-7.1,2.7c-0.8,0.3-1.2,1.2-0.9,1.9c0.2,0.6,0.8,1,1.4,1
	c0.2,0,0.4,0,0.5-0.1l5.6-2.2l-1,8.2l-6.3,2.4c-0.8,0.3-1.2,1.2-0.9,1.9c0.2,0.6,0.8,1,1.4,1c0.2,0,0.4,0,0.5-0.1l4.8-1.8l-1,8.2
	l-5.4,2.1c-0.8,0.3-1.2,1.2-0.8,1.9c0.2,0.6,0.8,1,1.4,1c0.2,0,0.4,0,0.5-0.1l3.9-1.5l-1,8.2l-4.5,1.8c-0.8,0.3-1.1,1.2-0.8,1.9
	c0.2,0.6,0.8,0.9,1.4,0.9c0.2,0,0.4,0,0.6-0.1l3-1.2l-1,8.2l-3.6,1.4c-0.8,0.3-1.1,1.2-0.8,1.9c0.2,0.6,0.8,0.9,1.4,0.9
	c0.2,0,0.4,0,0.6-0.1l2.1-0.8l-1,8.3l-2.8,1.1c-0.8,0.3-1.1,1.2-0.8,2c0.2,0.6,0.8,0.9,1.4,0.9c0.2,0,0.4,0,0.6-0.1l1.2-0.5l-1,8.3
	l-1.9,0.8c-0.5,0.2-0.8,0.6-0.9,1.1l5.4-245.3L396.5,81.3z M381.4,398.4h0.1h14.6h3.9h56l0.1,3.7v0.4h-1.7v29h-11v14.8h-63.1
	L381.4,398.4z M341.7,193.6h-4.9v-5.7h4.9V193.6z M321,193.6v-5.7h3.9v5.7H321z M327.9,187.9h5.8v5.7h-5.8V187.9z M341.7,181.2v3.7
	h-4.9v-3.7H341.7z M333.8,181.2v3.7H328v-3.7H333.8z M324.9,181.2v3.7H321v-3.7H324.9z M313.2,181.2h4.8v3.7h-4.8V181.2z
	 M313.2,187.9h4.8v5.7h-4.8V187.9z M301.5,184.6v68.2c0,0.8,0.7,1.5,1.5,1.5s1.5-0.7,1.5-1.5v-56.2h46v123.2c0,0.8,0.7,1.5,1.5,1.5
	s1.5-0.7,1.5-1.5V184.6h7.3v177.6c-0.6,0.4-0.9,1.1-0.6,1.8c0.1,0.3,0.4,0.6,0.6,0.7v81.5h-7.3V334.7c0-0.8-0.7-1.5-1.5-1.5
	s-1.5,0.7-1.5,1.5v111.5h-46V266.7c0-0.8-0.7-1.5-1.5-1.5s-1.5,0.7-1.5,1.5v99h-5.3V184.6H301.5z M296.2,443.7v-4.1h4.9v-3h-4.9
	v-4.1h4.9v-3h-4.9v-4.1h5v-3h-5v-4.1h5v-3h-5v-4.1h5.1v-3h-5.1v-4.1h5.1v-3h-5.1V397h5.2v-3h-5.2v-4h5.2v-3h-5.2v-4.1h5.2v-3h-5.2
	v-4.1h5.3v-3h-5.3v-4.1h5.3v77.5H301v-2.5L296.2,443.7L296.2,443.7z M100.5,391.7V384H159c0,2.3,0,4,0,4.2c0,0.6,0.3,1.1,0.8,1.3
	c0.2,0.1,0.5,0.2,0.7,0.2c0.3,0,0.6-0.1,0.8-0.2c0,0,0.2-0.1,0.4-0.3c0.2,0,0,0,0.3,0v2.5H100.5z M196.2,439.2
	c0.2-0.2,0.3-0.5,0.3-0.8v-11.7c0-0.8-0.7-1.5-1.5-1.5s-1.5,0.7-1.5,1.5v11.7c0,0.3,0.1,0.6,0.3,0.8H188c0.2-0.2,0.3-0.5,0.3-0.8
	v-11.7c0-0.8-0.7-1.5-1.5-1.5s-1.5,0.7-1.5,1.5v11.7c0,0.3,0.1,0.6,0.3,0.8h-5.7c0-0.1,0.1-0.3,0.1-0.4v-11.7c0-0.8-0.7-1.5-1.5-1.5
	s-1.5,0.7-1.5,1.5v11.7c0,0.2,0,0.3,0.1,0.4h-5.5c0-0.1,0.1-0.3,0.1-0.4v-11.7c0-0.8-0.7-1.5-1.5-1.5s-1.5,0.7-1.5,1.5v11.7
	c0,0.2,0,0.3,0.1,0.4H163v-15.5h39v15.5H196.2z M204.5,416.7c0,0.3,0,0.7,0,1s0,0.6,0,1c0,1.1-0.9,2-2,2h-41c-1.1,0-2-0.9-2-2
	c0-2,0.6-2,1-2H204.5L204.5,416.7z M164,413.7h-1c0.2,0,0.3,0,0.5-0.1C163.7,413.7,163.8,413.7,164,413.7c0.3,0,0.7-0.1,1-0.4
	l13.5-11.5c0.6-0.5,0.7-1.4,0.2-2c-0.4-0.5-0.8-1-1.1-1.5c-0.7-0.9-1.4-1.9-2.1-2.8c2.1-2,4.4-3.9,6.8-5.7c0.3-0.2,0.6-0.4,0.8-0.7
	c1.4,1.7,5,2.2,7.1,1c2.2-1.3,4-3.9,5.7-6.3c1-1.5,2-2.8,2.9-3.8c0.1-0.1,0.2-0.2,0.3-0.3c0.1,1.9,0.2,3.9,0.4,5.7
	c0.3,3.4,0.5,6.6,0.5,9.8c0,3.3-0.1,6.7-0.3,9.9c-0.1,2.8-0.2,5.7-0.2,8.6L164,413.7L164,413.7z M228.5,391.7h-24.7
	c-0.3,0-0.6,0.1-0.8,0.2c0-0.9-0.1-1.8-0.1-2.7h1.4v-3h-1.6c0-0.3-0.1-0.7-0.1-1c0-0.4-0.1-0.8-0.1-1.1h26.1L228.5,391.7
	L228.5,391.7z M203,394.5c0.2,0.1,0.5,0.2,0.8,0.2h8.7c0.1,0,0.2,0,0.3,0c0.1,0,0.2,0,0.2,0h15.4v2.6c-8.1,4.5-13.9,7.7-16.6,9.2
	c-1.6-2.3-3.4-4.4-5.4-6.5c0.1-0.4,0-0.9-0.3-1.3c-0.5-0.6-1.5-0.7-2.1-0.2c-0.3,0.3-0.5,0.7-0.5,1.1l-0.7,0.7
	c0-1.7,0.1-3.4,0.1-5.1C203,395,203,394.8,203,394.5z M228,426.6l-5.6,1.5c-0.3,0.1-0.5,0.2-0.7,0.4c-1.5-6.9-4.3-13.5-8.1-19.5
	c2.6-1.4,7.8-4.3,14.9-8.2v25.8C228.3,426.6,228.2,426.6,228,426.6z M228.5,381.1h-26.3c-0.1-1.9-0.2-3.9-0.2-5.8c0-0.1,0-0.2,0-0.2
	c0.2-0.4,0.3-0.9,0.5-1.3c0.8-2.8,0.7-4.9,0.5-7.4l-0.5-8.1l-0.3-3.7l0,0c0.2,0.2,0.5,0.2,0.8,0.2s0.6-0.1,0.8-0.3V377
	c0,0.8,0.7,1.5,1.5,1.5s1.5-0.7,1.5-1.5v-24.5c0-0.4-0.2-0.8-0.4-1.1l1.4-1.8c0.6,0.4,1.3,0.8,2.1,0.8c0.5,0,1.1-0.2,1.6-0.5
	c0.8-0.5,1.3-1.2,1.8-1.8v28.3c0,0.8,0.7,1.5,1.5,1.5s1.5-0.7,1.5-1.5v-29.7c2.2,0.8,4.2,1.5,6,2.2v28c0,0.8,0.7,1.5,1.5,1.5
	s1.5-0.7,1.5-1.5V350c1.2,0.4,2.3,0.8,3.2,1.1V381.1z M211,342.9c0.1,0.2,0.3,0.4,0.6,0.6c0.1,0,0.1,0.1,0.2,0.1l0,0
	c-0.1,0.4-0.1,0.8,0.1,1.1c-0.2,0.4-0.5,0.8-0.7,1.1l-0.1,0.2c-0.4,0.5-0.8,1.1-1.2,1.4c-0.2,0-0.5-0.3-0.7-0.5l-0.1-0.1
	c-1.1-0.7-1.1-1.1-1.1-1.1s0-0.2,0.3-0.4c0.4-0.4,0.7-0.8,1-1.2c0.4-0.5,0.7-0.9,1.1-1.2c0.2-0.2,0.3-0.2,0.4-0.2
	C210.6,342.7,210.8,342.8,211,342.9z M208.4,332.3l7.1,4.8c-0.8,0.9-1.9,2.1-2.8,3.1c-0.1,0-0.3,0-0.4,0c-0.5-0.3-1.1-0.5-1.7-0.5
	c-0.8,0-1.6,0.3-2.3,1c-0.6,0.5-1.1,1.1-1.5,1.6c-0.3,0.3-0.5,0.7-0.8,0.9c-1,1.1-1.2,2.1-1.1,2.8c0.1,0.6,0.3,1.1,0.6,1.6l-2.9,3.6
	l-0.9-0.5l-1-10.5L208.4,332.3z M200.4,336.3l-0.2-2.2l1.1,1.2L200.4,336.3z M180.4,293.5l0.1,0.8c-0.3,0.1-0.7,0.2-1,0.3l-0.3-0.8
	C179.5,293.7,179.9,293.6,180.4,293.5z M176.3,300.9c0.8-2,3-3.5,5.6-3.8C180.3,298.5,178.5,299.6,176.3,300.9z M189.4,301.2
	C189.4,301.3,189.4,301.3,189.4,301.2c-1.9-1-3.5-2.1-5.1-4C186.7,297.7,188.7,299.2,189.4,301.2z M188.2,295.5
	c-0.3-0.2-0.5-0.3-0.8-0.4l0.1-0.3c0.3,0.2,0.6,0.4,0.8,0.6L188.2,295.5z M184.7,293.7l-0.2,0.5c-0.4-0.1-0.7-0.1-1.1-0.1v-0.6
	C183.8,293.5,184.3,293.6,184.7,293.7z M176.4,295.1l0.4,0.8c-0.2,0.1-0.4,0.3-0.6,0.4l-0.6-0.5
	C175.8,295.6,176.1,295.4,176.4,295.1z M173.4,299c0.1-0.3,0.2-0.5,0.3-0.7l0.4,0.3c-0.1,0.2-0.3,0.4-0.4,0.7L173.4,299z M174.1,309
	c0.2-0.1,0.3-0.3,0.4-0.4C174.4,308.7,174.3,308.9,174.1,309c0,0.1,0,0.2-0.1,0.3l-0.2-0.2C173.9,309.1,174,309.1,174.1,309z
	 M176.6,310.9c0.3-0.4,0.5-0.8,0.8-1.2c0.1,0.1,0.1,0.2,0.2,0.3v0.1c0,0.6,0,1.4-0.1,2.2l-1.3-1.1
	C176.3,311.1,176.4,311,176.6,310.9z M180.1,308.4c-1.3-1.4-1.3-4.2-1.2-5.5c1.4-0.8,2.8-1.7,4.1-2.7c1.4,1.4,2.7,2.4,4.1,3.2
	c0,1.2-0.3,3.4-1.6,4.8c-0.7,0.8-1.7,1.2-3,1.2l0,0C181.5,309.4,180.7,309,180.1,308.4z M187.7,310.3c0.1-0.1,0.2-0.2,0.2-0.3
	c0.4,1.8,1,5,1.3,7l-1.1-0.5l-0.5-3.9c-0.1-0.6-0.5-1.1-1.1-1.2C187,310.9,187.4,310.6,187.7,310.3z M193.6,297.6
	c-0.1-0.2-0.2-0.4-0.3-0.6l1.4-0.2L193.6,297.6z M190.2,293c-0.3-0.2-0.6-0.4-0.9-0.6l1.9-1.4L190.2,293z M183.4,287.2l0.7,3.3
	c-0.6-0.1-1.3-0.1-1.9-0.1L183.4,287.2z M176,291.8c-0.5,0.2-0.9,0.5-1.3,0.8l-1-2.6L176,291.8z M171.2,296.7
	c-0.1,0.1-0.1,0.2-0.2,0.4l-0.6-0.4H171.2z M172.9,302.4c0,0.1,0,0.2,0,0.3c0,0.5,0.1,1,0.2,1.5c-0.1,0.2-0.2,0.5-0.1,0.8
	c0.1,0.7-0.6,1.5-0.9,1.7c-0.1,0.1-0.3,0.3-0.3,0.5l-0.3-0.2l-0.3-0.6c0-0.3-0.1-0.6-0.1-0.9c-0.1-0.6-0.5-1-1.1-1.2l-0.9-1.6
	l-1.2-4.4L172.9,302.4z M165.7,302.2c-0.3,2.3-1.7,5-2.9,5.6c-0.9,0.4-1.6,0.6-2.1,0.5l-0.2-6.5c0-0.2,0-0.4-0.1-0.6l-1.6-3.7
	l1-13.6h0.9L165.7,302.2z M159.4,281l-0.1-1.4c0.3,0,0.6,0,0.9-0.1l-0.1,1.4L159.4,281z M163.2,263.4c-0.6,0.7-1.7,1.3-3.7,1.3h-0.1
	c-2,0-3.1-0.6-3.7-1.3H163.2z M156.6,269.9c0,0,0.3-0.3,1.9-0.4h0.2h0.2c0.8,0,1.6,0,2.2,0.2h0.1c0,0.1,0.1,0.5,0.1,0.7
	s0,0.4,0.1,0.6c0.1,0.8,0.1,4.2-0.1,5c0,0.1,0,0.2-0.1,0.3c-0.6,0.1-1.7,0.2-2.7,0.2c-1.2,0-1.6-0.2-1.8-0.2c-0.2-0.4-0.2-1.5-0.2-2
	c0-0.4,0-0.7,0-1C156,270.7,156.5,270,156.6,269.9z M161.2,320.5c0.2-0.8,0.6-2.1,0.9-3.3c0.1-0.5,0-1-0.3-1.3
	c-0.3-0.4-0.8-0.5-1.3-0.5c-0.9,0.1-1.1-0.2-1.2-0.3c-0.5-0.6-0.5-2.1-0.3-3.1l0.6-1c0.4,0.2,0.9,0.3,1.5,0.3c0.8,0,1.9-0.2,3.1-0.8
	c1.5-0.7,2.6-2.4,3.4-4.1l0.6,1c0,1.3-0.4,2.2-1.4,3.8c-0.4,0.7-0.2,1.6,0.6,2c0.2,0.1,0.5,0.2,0.7,0.2c0.5,0,1-0.3,1.3-0.8
	c0.5-0.8,0.9-1.6,1.2-2.4l7,6.2c0.3,0.3,0.6,0.4,1,0.4s0.8-0.2,1.1-0.5c0,0,0,0,0-0.1c0.3-0.3,0.6-0.7,0.6-1.2c0-0.7,0-1.6,0.1-2.5
	c0-0.2,0-0.4,0-0.6c0.6,0.2,1.3,0.3,2.1,0.3l0,0c0.8,0,1.6-0.1,2.3-0.3c-0.1,0.2-0.2,0.5-0.1,0.8l0.4,3.2c-0.8-0.2-1.6,0.3-1.8,1.1
	c-0.2,0.9-2.3,2.2-3.8,3.2c-0.7,0.5-1.5,1-2.2,1.5s-0.8,1.4-0.3,2.1c0.3,0.4,0.7,0.6,1.2,0.6c0.3,0,0.6-0.1,0.9-0.3
	c0.6-0.4,1.3-0.9,2-1.4c2-1.3,4-2.6,4.8-4.2c0.1,0.1,0.2,0.1,0.2,0.2l8.8,4.3l1.5,2.9l0.3,3.6c-0.1,0.3,0,0.6,0.1,0.9l2.5,28
	l0.5,8.1c0.2,2.3,0.3,4.1-0.4,6.3c-0.7,2.2-1.5,3.7-2.9,5.1c-1.1,1.1-2.1,2.6-3.2,4.2c-1.5,2.2-3.1,4.5-4.7,5.4
	c-0.9,0.5-2.7,0.2-3.2-0.2c0.1-0.1,0.2-0.2,0.4-0.4l0,0c0.6-0.5,0.7-1.5,0.2-2.1s-1.5-0.7-2.1-0.2l0,0c-1.1,0.9-2.4,1.9-3.6,2.8
	c-2.7,2.1-5.6,4.3-7.9,6.8c-0.5,0.5-0.5,1.2-0.2,1.8c0.9,1.4,1.9,2.8,2.8,4c0.1,0.1,0.2,0.3,0.3,0.4l-10.9,9.3l0.5-22.5
	c0-0.2,0-0.3-0.1-0.4c2.4-2,5.6-4.8,7.6-8c0.5-0.7,0.3-1.6-0.4-2.1c-0.7-0.5-1.6-0.3-2.1,0.4c-2.1,3.2-5.7,6.3-8,8.1
	c0-5.2,0.2-15.7,1-19.3c0.1-0.4,0-0.8-0.2-1.1c2.7-2.2,5.5-5.4,6.1-6.4c0.4-0.7,0.2-1.6-0.5-2s-1.6-0.2-2.1,0.5
	c-0.7,1.3-4,4.5-6.1,6.2c0.1-1.2,0.4-2.6,0.8-4c1-3.5,4.8-8,6.6-10.1c3.8-4.4,7.1-8.3,10.3-11.9c0.6-0.6,0.5-1.6-0.1-2.1
	c-0.6-0.6-1.6-0.5-2.1,0.1c-3.2,3.5-6.6,7.4-10.3,11.8c0.2-1.5,0.3-2.8,0-3.8c-0.4-1.5-1.5-1.9-2.2-2.2c-0.6-0.2-0.8-0.3-1.1-1.4
	c-0.2-0.9,0-1.6,0.5-2.4c2.5-3.4,6.3-5.6,10.6-8c0.8-0.4,1.5-0.9,2.3-1.3c0.7-0.4,1-1.3,0.5-2.1c-0.4-0.7-1.3-1-2.1-0.5
	c-0.8,0.4-1.5,0.9-2.3,1.3c-2.4,1.4-4.7,2.7-6.8,4.2c-0.2-0.3-0.4-0.5-0.7-0.8l-0.9-1.5l1.6-3c0.3-0.6,0.2-1.4-0.3-1.8L161.2,320.5z
	 M100.7,357.4c0.1,0,2.2-0.7,5.5-1.9V376c0,0.8,0.7,1.5,1.5,1.5s1.5-0.7,1.5-1.5v-21.5c2.1-0.7,4.4-1.6,7-2.6v23.6
	c0,0.8,0.7,1.5,1.5,1.5s1.5-0.7,1.5-1.5v-24.7c2.5-1,5.2-2,8-3.2v27.9c0,0.8,0.7,1.5,1.5,1.5s1.5-0.7,1.5-1.5v-29.1c2.3-1,4.6-2,7-3
	V376c0,0.8,0.7,1.5,1.5,1.5s1.5-0.7,1.5-1.5v-34c2.5-1.2,5-2.4,7.5-3.6v38.1c0,0.8,0.7,1.5,1.5,1.5s1.5-0.7,1.5-1.5v-39.7
	c3.7-2,7.3-4,10.4-6.1l1.1,1.8c-0.2,0.3-0.6,0.8-0.9,1.2c-0.4,0.5-0.9,1.1-1.3,1.8c-0.1,0.2-0.3,0.4-0.4,0.6
	c-0.2,0.3-0.2,0.5-0.2,0.8c-0.4,1-0.5,2-0.3,3.3c0.5,2.5,1.7,3.1,2.9,3.6c0.1,0.1,0.3,0.1,0.4,0.3c0.3,0.9-0.2,3.4-0.6,5
	c-0.2,0.9-0.4,1.7-0.4,2.3c0,0.1,0,0.3,0,0.4c-1.5,2.1-2.9,4.4-3.5,6.5c-0.4,1.4-1.3,4.9-1,7.5c0.1,0.8,0.7,1.3,1.5,1.3
	c0,0,0,0,0.1,0c0.3,0,0.7-0.1,1.1-0.3c-0.4,3.5-0.6,9.5-0.7,14.2h-58.6v-23.6C100.6,357.4,100.6,357.4,100.7,357.4z M32.5,445.7
	V288.2h65v158H32.4C32.5,446.1,32.5,445.9,32.5,445.7z M24.5,446.2h-4 M17.5,446.2h10 M72.9,291.6h3.8v5.4h-3.8V291.6z M58.4,291.6
	h3.8v5.4h-3.8V291.6z M51.2,291.6H55v5.4h-3.8V291.6z M43.9,291.6h3.8v5.4h-3.8V291.6z M36.7,297v-5.4h3.8v5.4H36.7z M65.6,300.2
	h3.8v5.4h-3.8V300.2z M62.2,305.6h-3.8v-5.4h3.8V305.6z M47.8,305.6H44v-5.4h3.8V305.6z M40.5,305.6h-3.8v-5.4h3.8V305.6z
	 M76.7,313.6h-3.8v-5.4h3.8V313.6z M62.2,313.6h-3.8v-5.4h3.8V313.6z M55,313.6h-3.8v-5.4H55V313.6z M47.8,313.6H44v-5.4h3.8V313.6z
	 M36.7,308.2h3.8v5.4h-3.8V308.2z M62.2,322.2h-3.8v-5.4h3.8V322.2z M55,322.2h-3.8v-5.4H55V322.2z M47.8,322.2H44v-5.4h3.8V322.2z
	 M40.5,322.2h-3.8v-5.4h3.8V322.2z M76.8,325.4v5.4H73v-5.4H76.8z M69.3,322.4h-3.8V317h3.8V322.4z M62.3,330.8h-3.8v-5.4h3.8V330.8
	z M55.1,330.8h-3.8v-5.4h3.8V330.8z M47.8,330.8H44v-5.4h3.8V330.8z M36.8,325.4h3.8v5.4h-3.8V325.4z M69.5,339.4h-3.8V334h3.8
	V339.4z M55.1,339.4h-3.8V334h3.8V339.4z M47.8,339.4H44V334h3.8V339.4z M36.8,334h3.8v5.4h-3.8V334z M73,342h3.8v5.4H73V342z
	 M62.3,347.4h-3.8V342h3.8V347.4z M55.1,347.4h-3.8V342h3.8V347.4z M44,342h3.8v5.4H44V342z M36.8,342h3.8v5.4h-3.8V342z M73,350.6
	h3.8v5.4H73V350.6z M69.5,356h-3.8v-5.4h3.8V356z M44.7,350.8h3.8v5.4h-3.8V350.8z M62.3,356h-3.8v-5.4h3.8V356z M55.1,356h-3.8
	v-5.4h3.8V356z M36.8,350.6h3.8v5.4h-3.8V350.6z M69.5,365.2h-3.8v-5.4h3.8V365.2z M62.3,365.2h-3.8v-5.4h3.8V365.2z M47.8,365.2H44
	v-5.4h3.8V365.2z M36.8,359.8h3.8v5.4h-3.8V359.8z M73,368.4h3.8v5.4H73V368.4z M62.3,373.8h-3.8v-5.4h3.8V373.8z M55.1,373.8h-3.8
	v-5.4h3.8V373.8z M47.8,373.8H44v-5.4h3.8V373.8z M36.8,368.4h3.8v5.4h-3.8V368.4z M69.5,381.8h-3.8v-5.4h3.8V381.8z M62.3,381.8
	h-3.8v-5.4h3.8V381.8z M47.8,381.8H44v-5.4h3.8V381.8z M36.8,376.4h3.8v5.4h-3.8V376.4z M73,384.9h3.8v5.4H73V384.9z M62.3,390.4
	h-3.8V385h3.8V390.4z M55.1,390.4h-3.8V385h3.8V390.4z M47.8,390.4H44V385h3.8V390.4z M36.8,384.9h3.8v5.4h-3.8V384.9z M69.5,398.3
	h-3.8v-5.4h3.8V398.3z M55.1,398.3h-3.8v-5.4h3.8V398.3z M47.8,398.3H44v-5.4h3.8V398.3z M36.8,392.9h3.8v5.4h-3.8V392.9z
	 M69.5,406.9h-3.8v-5.4h3.8V406.9z M58.5,401.5h3.8v5.4h-3.8V401.5z M55.1,406.9h-3.8v-5.4h3.8V406.9z M47.8,406.9H44v-5.4h3.8
	V406.9z M65.7,409.5h3.8v5.4h-3.8V409.5z M51.3,409.5h3.8v5.4h-3.8V409.5z M44,409.5h3.8v5.4H44V409.5z M36.8,409.5h3.8v5.4h-3.8
	V409.5z M73,418h3.8v5.4H73V418z M69.5,423.5h-3.8V418h3.8V423.5z M62.3,423.5h-3.8V418h3.8V423.5z M55.1,423.5h-3.8V418h3.8V423.5z
	 M47.8,423.5H44V418h3.8V423.5z M36.8,418h3.8v5.4h-3.8V418z M66.4,427h3.8v5.4h-3.8V427z M59.1,427h3.8v5.4h-3.8V427z M51.9,427
	h3.8v5.4h-3.8V427z M44.7,427h3.8v5.4h-3.8V427z M422.4,134.7l-4.3-0.1v-3l4.3,0.1V134.7z M422.2,146.1h-4.7v-3h4.7V146.1z
	 M422.1,157.6H417v-3h5.1V157.6z M421.9,169h-5.5v-3h5.5V169z M421.7,180.4h-5.9v-3h5.9V180.4z M421.6,191.8h-6.3v-3h6.3V191.8z
	 M411.2,191.8h-5.1v-3h5.1V191.8z M414.7,203.2v-3h6.7v3H414.7z M405.7,203.3v-3h5.3v3H405.7z M414.1,214.7v-3h7.2v3H414.1z
	 M405.2,214.7v-3h5.6v3H405.2z M421,223.1v2.2c0,0.3-0.1,0.5-0.1,0.8h-7.5v-3H421z M404.8,226.2v-3h5.9v3H404.8z M412.9,234.6
	l7.1-0.1c-0.1,1-0.2,2-0.4,3l-6.7,0.1L412.9,234.6z M404.4,237.6v-3h6.1v3H404.4z M416.1,246v3l-9.8,0.1v-3L416.1,246z M415.7,257.4
	v3l-10.3,0.1v-3L415.7,257.4z M415.4,268.8v2.6c0,0.1,0,0.3,0,0.4l-10.7,0.2v-3L415.4,268.8z M403.8,280.4l10.6-0.2
	c-0.1,1-0.2,2-0.4,3l-10.2,0.2L403.8,280.4z M402.9,291.9l10.1-0.2c-0.1,1-0.2,2-0.4,3l-9.6,0.2L402.9,291.9z M402.1,303.4l9.5-0.2
	c-0.1,1-0.2,2-0.4,3l-9.1,0.2V303.4z M401.4,314.8l8.8-0.2c-0.1,1-0.2,2-0.4,3l-8.4,0.2L401.4,314.8z M400.9,326.3l7.9-0.2
	c-0.1,1-0.2,2-0.4,3l-7.4,0.2L400.9,326.3z M400.5,337.7l6.9-0.2c-0.1,1-0.2,2-0.4,3l-6.4,0.2L400.5,337.7z M400.1,349.2l5.9-0.2
	c-0.1,1-0.2,2-0.4,3l-5.5,0.2V349.2z M399.6,360.6l5-0.2c-0.1,1-0.2,2-0.4,3l-4.5,0.1L399.6,360.6z M399.2,372.1l4-0.1
	c-0.1,1-0.2,2-0.4,3l-3.5,0.1L399.2,372.1z M398.8,383.6l3.1-0.1c-0.1,1-0.2,2-0.4,3l-2.6,0.1L398.8,383.6z M513.4,404h-3v-3.5V400
	v-11.5c0-0.8,0.7-1.5,1.5-1.5s1.5,0.7,1.5,1.5V400v0.5V404z M513.4,410h-3v-4h3V410z M510.4,424h3v4h-3V424z M513.4,416h-3v-4h3V416
	z M513.4,422h-3v-4h3V422z M522.4,425h-3v-4h3V425z M519.4,427h3v4h-3V427z M522.4,419h-3v-4h3V419z M522.4,396.5
	c0,0.2,0,0.3-0.1,0.5h0.1v12v2v2h-3v-2v-2v-12h0.1c-0.1-0.2-0.1-0.3-0.1-0.5v-8c0-0.8,0.7-1.5,1.5-1.5s1.5,0.7,1.5,1.5V396.5z
	 M505.4,419h-3v-4h3V419z M505.4,425h-3v-4h3V425z M502.4,427h3v4h-3V427z M505.4,396.5c0,0.2,0,0.3-0.1,0.5h0.1v12v2v2h-3v-2v-2
	v-12h0.1c-0.1-0.2-0.1-0.3-0.1-0.5v-8c0-0.8,0.7-1.5,1.5-1.5s1.5,0.7,1.5,1.5V396.5z M502.4,199h3v4h-3V199z M502.4,254h3v5h-3V254z
	 M502.4,246h3v5h-3V246z M502.4,214h3v5h-3V214z M502.4,358h3v5h-3V358z M502.4,230h3v5h-3V230z M502.4,222h3v5h-3V222z M502.4,262
	h3v5h-3V262z M502.4,206h3v5h-3V206z M502.4,366h3v5h-3V366z M502.4,286h3v5h-3V286z M502.4,294h3v5h-3V294z M502.4,350h3v5h-3V350z
	 M502.4,270h3v5h-3V270z M502.4,302h3v5h-3V302z M502.4,238h3v5h-3V238z M502.4,278h3v5h-3V278z M502.4,342h3v5h-3V342z M502.4,334
	h3v5h-3V334z M502.4,310h3v5h-3V310z M502.4,326h3v5h-3V326z M502.4,318h3v5h-3V318z M502.4,372h3v4h-3V372z M510.4,199h3v4h-3V199z
	 M510.4,366h3v5h-3V366z M510.4,358h3v5h-3V358z M510.4,222h3v5h-3V222z M510.4,278h3v5h-3V278z M510.4,262h3v5h-3V262z M510.4,286
	h3v5h-3V286z M510.4,294h3v5h-3V294z M510.4,254h3v5h-3V254z M510.4,302h3v5h-3V302z M510.4,206h3v5h-3V206z M510.4,310h3v5h-3V310z
	 M510.4,246h3v5h-3V246z M510.4,214h3v5h-3V214z M510.4,230h3v5h-3V230z M510.4,238h3v5h-3V238z M510.4,270h3v5h-3V270z M510.4,350
	h3v5h-3V350z M510.4,342h3v5h-3V342z M510.4,318h3v5h-3V318z M510.4,334h3v5h-3V334z M510.4,326h3v5h-3V326z M510.4,372h3v4h-3V372z
	 M517.4,199h3v4h-3V199z M517.4,358h3v5h-3V358z M517.4,366h3v5h-3V366z M517.4,270h3v5h-3V270z M517.4,262h3v5h-3V262z M517.4,254
	h3v5h-3V254z M517.4,350h3v5h-3V350z M517.4,278h3v5h-3V278z M517.4,318h3v5h-3V318z M517.4,334h3v5h-3V334z M517.4,326h3v5h-3V326z
	 M517.4,342h3v5h-3V342z M517.4,246h3v5h-3V246z M517.4,222h3v5h-3V222z M517.4,286h3v5h-3V286z M517.4,310h3v5h-3V310z M517.4,206
	h3v5h-3V206z M517.4,230h3v5h-3V230z M517.4,214h3v5h-3V214z M517.4,294h3v5h-3V294z M517.4,302h3v5h-3V302z M517.4,238h3v5h-3V238z
	 M517.4,372h3v4h-3V372z M538.4,291h3v91h-3V291z M541.4,238h-3v-5h3V238z M541.4,254h-3v-5h3V254z M541.4,246h-3v-5h3V246z
	 M541.4,230h-3v-5h3V230z M541.4,286h-3v-5h3V286z M541.4,278h-3v-5h3V278z M541.4,270h-3v-5h3V270z M541.4,262h-3v-5h3V262z
	 M535.4,254h-3v-5h3V254z M535.4,246h-3v-5h3V246z M535.4,238h-3v-5h3V238z M535.4,230h-3v-5h3V230z M535.4,262h-3v-5h3V262z
	 M535.4,270h-3v-5h3V270z M532.4,273h3v3v1v111h-3V277v-1V273z M535.1,211.2h-3v-12.6h3V211.2z M481.4,291h3v91h-3V291z M484.4,270
	h-3v-5h3V270z M484.4,278h-3v-5h3V278z M484.4,262h-3v-5h3V262z M484.4,254h-3v-5h3V254z M484.4,238h-3v-5h3V238z M484.4,246h-3v-5
	h3V246z M484.4,230h-3v-5h3V230z M484.4,286h-3v-5h3V286z M491.4,262h-3v-5h3V262z M491.4,270h-3v-5h3V270z M491.4,254h-3v-5h3V254z
	 M488.4,273h3v3v1v111h-3V277v-1V273z M491.4,230h-3v-5h3V230z M491.4,246h-3v-5h3V246z M491.4,238h-3v-5h3V238z M488.2,198.6h3
	v12.6h-3V198.6z M546.9,411.3h3.2v4.3h-3.2V411.3z M546.9,424.1h3.2v4.3h-3.2V424.1z M546.9,417.7h3.2v4.3h-3.2V417.7z M540.5,417.7
	h3.2v4.3h-3.2V417.7z M540.5,411.3h3.2v4.3h-3.2V411.3z M540.5,424.1h3.2v4.3h-3.2V424.1z M540.5,404.9h3.2v4.3h-3.2V404.9z
	 M534.1,404.9h3.2v4.3h-3.2V404.9z M534.1,398.5h3.2v4.3h-3.2V398.5z M534.1,417.7h3.2v4.3h-3.2V417.7z M534.1,411.3h3.2v4.3h-3.2
	V411.3z M534.1,424.1h3.2v4.3h-3.2V424.1z M476.2,414.8H473v-4.3h3.2V414.8z M476.2,427.6H473v-4.3h3.2V427.6z M476.2,421.2H473V417
	h3.2V421.2z M482.6,408.4h-3.2v-4.3h3.2V408.4z M482.6,421.2h-3.2V417h3.2V421.2z M482.6,427.6h-3.2v-4.3h3.2V427.6z M482.6,414.8
	h-3.2v-4.3h3.2V414.8z M489,414.8h-3.2v-4.3h3.2V414.8z M489,421.2h-3.2V417h3.2V421.2z M489,427.6h-3.2v-4.3h3.2V427.6z M489,408.4
	h-3.2v-4.3h3.2V408.4z M489,402h-3.2v-4.3h3.2V402z M625.6,237v0.2c0,0.8-0.7,1.5-1.5,1.5s-1.5-0.7-1.5-1.5V237
	c0-0.8,0.7-1.5,1.5-1.5C624.9,235.5,625.6,236.2,625.6,237z M586.2,252.6h-3v-6.7h3V252.6z M586.2,243.8h-3v-3.5h3V243.8z
	 M587.4,262.6v1.7c0,0.8-0.7,1.5-1.5,1.5s-1.5-0.7-1.5-1.5v-1.7c0-0.8,0.7-1.5,1.5-1.5S587.4,261.8,587.4,262.6z M626.7,263.9v-1.7
	c0-0.8,0.7-1.5,1.5-1.5s1.5,0.7,1.5,1.5v1.7c0,0.8-0.7,1.5-1.5,1.5S626.7,264.8,626.7,263.9z M582,278.1c0-0.8,0.7-1.5,1.5-1.5h5.8
	c0.8,0,1.5,0.7,1.5,1.5s-0.7,1.5-1.5,1.5h-5.8C582.7,279.6,582,278.9,582,278.1z M582,284c0-0.8,0.7-1.5,1.5-1.5h5.8
	c0.8,0,1.5,0.7,1.5,1.5s-0.7,1.5-1.5,1.5h-5.8C582.7,285.5,582,284.8,582,284z M582,289.8c0-0.8,0.7-1.5,1.5-1.5h5.8
	c0.8,0,1.5,0.7,1.5,1.5s-0.7,1.5-1.5,1.5h-5.8C582.7,291.3,582,290.7,582,289.8z M582,295.7c0-0.8,0.7-1.5,1.5-1.5h5.8
	c0.8,0,1.5,0.7,1.5,1.5s-0.7,1.5-1.5,1.5h-5.8C582.7,297.2,582,296.6,582,295.7z M582,301.6c0-0.8,0.7-1.5,1.5-1.5h5.8
	c0.8,0,1.5,0.7,1.5,1.5s-0.7,1.5-1.5,1.5h-5.8C582.7,303.1,582,302.4,582,301.6z M582,307.5c0-0.8,0.7-1.5,1.5-1.5h5.8
	c0.8,0,1.5,0.7,1.5,1.5s-0.7,1.5-1.5,1.5h-5.8C582.7,309,582,308.3,582,307.5z M582,313.3c0-0.8,0.7-1.5,1.5-1.5h5.8
	c0.8,0,1.5,0.7,1.5,1.5s-0.7,1.5-1.5,1.5h-5.8C582.7,314.8,582,314.2,582,313.3z M582,319.2c0-0.8,0.7-1.5,1.5-1.5h5.8
	c0.8,0,1.5,0.7,1.5,1.5s-0.7,1.5-1.5,1.5h-5.8C582.7,320.7,582,320.1,582,319.2z M582,325.1c0-0.8,0.7-1.5,1.5-1.5h5.8
	c0.8,0,1.5,0.7,1.5,1.5s-0.7,1.5-1.5,1.5h-5.8C582.7,326.6,582,325.9,582,325.1z M582,331c0-0.8,0.7-1.5,1.5-1.5h5.8
	c0.8,0,1.5,0.7,1.5,1.5s-0.7,1.5-1.5,1.5h-5.8C582.7,332.5,582,331.8,582,331z M582,336.8c0-0.8,0.7-1.5,1.5-1.5h5.8
	c0.8,0,1.5,0.7,1.5,1.5s-0.7,1.5-1.5,1.5h-5.8C582.7,338.3,582,337.7,582,336.8z M582,342.7c0-0.8,0.7-1.5,1.5-1.5h5.8
	c0.8,0,1.5,0.7,1.5,1.5s-0.7,1.5-1.5,1.5h-5.8C582.7,344.2,582,343.6,582,342.7z M582,348.6c0-0.8,0.7-1.5,1.5-1.5h5.8
	c0.8,0,1.5,0.7,1.5,1.5s-0.7,1.5-1.5,1.5h-5.8C582.7,350.1,582,349.4,582,348.6z M582,354.5c0-0.8,0.7-1.5,1.5-1.5h5.8
	c0.8,0,1.5,0.7,1.5,1.5s-0.7,1.5-1.5,1.5h-5.8C582.7,356,582,355.3,582,354.5z M582,360.3c0-0.8,0.7-1.5,1.5-1.5h5.8
	c0.8,0,1.5,0.7,1.5,1.5s-0.7,1.5-1.5,1.5h-5.8C582.7,361.8,582,361.2,582,360.3z M582,366.2c0-0.8,0.7-1.5,1.5-1.5h5.8
	c0.8,0,1.5,0.7,1.5,1.5s-0.7,1.5-1.5,1.5h-5.8C582.7,367.7,582,367.1,582,366.2z M582,372.1c0-0.8,0.7-1.5,1.5-1.5h5.8
	c0.8,0,1.5,0.7,1.5,1.5s-0.7,1.5-1.5,1.5h-5.8C582.7,373.6,582,372.9,582,372.1z M582,378c0-0.8,0.7-1.5,1.5-1.5h5.8
	c0.8,0,1.5,0.7,1.5,1.5s-0.7,1.5-1.5,1.5h-5.8C582.7,379.5,582,378.8,582,378z M582,383.8c0-0.8,0.7-1.5,1.5-1.5h5.8
	c0.8,0,1.5,0.7,1.5,1.5s-0.7,1.5-1.5,1.5h-5.8C582.7,385.3,582,384.7,582,383.8z M582,389.7c0-0.8,0.7-1.5,1.5-1.5h5.8
	c0.8,0,1.5,0.7,1.5,1.5s-0.7,1.5-1.5,1.5h-5.8C582.7,391.2,582,390.6,582,389.7z M582,395.6c0-0.8,0.7-1.5,1.5-1.5h5.8
	c0.8,0,1.5,0.7,1.5,1.5s-0.7,1.5-1.5,1.5h-5.8C582.7,397.1,582,396.4,582,395.6z M582,401.5c0-0.8,0.7-1.5,1.5-1.5h5.8
	c0.8,0,1.5,0.7,1.5,1.5s-0.7,1.5-1.5,1.5h-5.8C582.7,403,582,402.3,582,401.5z M582,407.3c0-0.8,0.7-1.5,1.5-1.5h5.8
	c0.8,0,1.5,0.7,1.5,1.5s-0.7,1.5-1.5,1.5h-5.8C582.7,408.8,582,408.2,582,407.3z M582,413.2c0-0.8,0.7-1.5,1.5-1.5h5.8
	c0.8,0,1.5,0.7,1.5,1.5s-0.7,1.5-1.5,1.5h-5.8C582.7,414.7,582,414.1,582,413.2z M582,419.1c0-0.8,0.7-1.5,1.5-1.5h5.8
	c0.8,0,1.5,0.7,1.5,1.5s-0.7,1.5-1.5,1.5h-5.8C582.7,420.6,582,419.9,582,419.1z M582,425c0-0.8,0.7-1.5,1.5-1.5h5.8
	c0.8,0,1.5,0.7,1.5,1.5s-0.7,1.5-1.5,1.5h-5.8C582.7,426.5,582,425.8,582,425z M582,430.8c0-0.8,0.7-1.5,1.5-1.5h5.8
	c0.8,0,1.5,0.7,1.5,1.5s-0.7,1.5-1.5,1.5h-5.8C582.7,432.3,582,431.7,582,430.8z M582,436.7c0-0.8,0.7-1.5,1.5-1.5h5.8
	c0.8,0,1.5,0.7,1.5,1.5s-0.7,1.5-1.5,1.5h-5.8C582.7,438.2,582,437.6,582,436.7z M582,442.6c0-0.8,0.7-1.5,1.5-1.5h5.8
	c0.8,0,1.5,0.7,1.5,1.5s-0.7,1.5-1.5,1.5h-5.8C582.7,444.1,582,443.4,582,442.6z M623,278.1c0-0.8,0.7-1.5,1.5-1.5h5.8
	c0.8,0,1.5,0.7,1.5,1.5s-0.7,1.5-1.5,1.5h-5.8C623.7,279.6,623,278.9,623,278.1z M623,284c0-0.8,0.7-1.5,1.5-1.5h5.8
	c0.8,0,1.5,0.7,1.5,1.5s-0.7,1.5-1.5,1.5h-5.8C623.7,285.5,623,284.8,623,284z M623,289.8c0-0.8,0.7-1.5,1.5-1.5h5.8
	c0.8,0,1.5,0.7,1.5,1.5s-0.7,1.5-1.5,1.5h-5.8C623.7,291.3,623,290.7,623,289.8z M623,295.7c0-0.8,0.7-1.5,1.5-1.5h5.8
	c0.8,0,1.5,0.7,1.5,1.5s-0.7,1.5-1.5,1.5h-5.8C623.7,297.2,623,296.6,623,295.7z M623,301.6c0-0.8,0.7-1.5,1.5-1.5h5.8
	c0.8,0,1.5,0.7,1.5,1.5s-0.7,1.5-1.5,1.5h-5.8C623.7,303.1,623,302.4,623,301.6z M623,307.5c0-0.8,0.7-1.5,1.5-1.5h5.8
	c0.8,0,1.5,0.7,1.5,1.5s-0.7,1.5-1.5,1.5h-5.8C623.7,309,623,308.3,623,307.5z M623,313.3c0-0.8,0.7-1.5,1.5-1.5h5.8
	c0.8,0,1.5,0.7,1.5,1.5s-0.7,1.5-1.5,1.5h-5.8C623.7,314.8,623,314.2,623,313.3z M623,319.2c0-0.8,0.7-1.5,1.5-1.5h5.8
	c0.8,0,1.5,0.7,1.5,1.5s-0.7,1.5-1.5,1.5h-5.8C623.7,320.7,623,320.1,623,319.2z M623,325.1c0-0.8,0.7-1.5,1.5-1.5h5.8
	c0.8,0,1.5,0.7,1.5,1.5s-0.7,1.5-1.5,1.5h-5.8C623.7,326.6,623,325.9,623,325.1z M623,331c0-0.8,0.7-1.5,1.5-1.5h5.8
	c0.8,0,1.5,0.7,1.5,1.5s-0.7,1.5-1.5,1.5h-5.8C623.7,332.5,623,331.8,623,331z M623,336.8c0-0.8,0.7-1.5,1.5-1.5h5.8
	c0.8,0,1.5,0.7,1.5,1.5s-0.7,1.5-1.5,1.5h-5.8C623.7,338.3,623,337.7,623,336.8z M623,342.7c0-0.8,0.7-1.5,1.5-1.5h5.8
	c0.8,0,1.5,0.7,1.5,1.5s-0.7,1.5-1.5,1.5h-5.8C623.7,344.2,623,343.6,623,342.7z M623,348.6c0-0.8,0.7-1.5,1.5-1.5h5.8
	c0.8,0,1.5,0.7,1.5,1.5s-0.7,1.5-1.5,1.5h-5.8C623.7,350.1,623,349.4,623,348.6z M623,354.5c0-0.8,0.7-1.5,1.5-1.5h5.8
	c0.8,0,1.5,0.7,1.5,1.5s-0.7,1.5-1.5,1.5h-5.8C623.7,356,623,355.3,623,354.5z M623,360.3c0-0.8,0.7-1.5,1.5-1.5h5.8
	c0.8,0,1.5,0.7,1.5,1.5s-0.7,1.5-1.5,1.5h-5.8C623.7,361.8,623,361.2,623,360.3z M623,366.2c0-0.8,0.7-1.5,1.5-1.5h5.8
	c0.8,0,1.5,0.7,1.5,1.5s-0.7,1.5-1.5,1.5h-5.8C623.7,367.7,623,367.1,623,366.2z M623,372.1c0-0.8,0.7-1.5,1.5-1.5h5.8
	c0.8,0,1.5,0.7,1.5,1.5s-0.7,1.5-1.5,1.5h-5.8C623.7,373.6,623,372.9,623,372.1z M623,378c0-0.8,0.7-1.5,1.5-1.5h5.8
	c0.8,0,1.5,0.7,1.5,1.5s-0.7,1.5-1.5,1.5h-5.8C623.7,379.5,623,378.8,623,378z M623,383.8c0-0.8,0.7-1.5,1.5-1.5h5.8
	c0.8,0,1.5,0.7,1.5,1.5s-0.7,1.5-1.5,1.5h-5.8C623.7,385.3,623,384.7,623,383.8z M623,389.7c0-0.8,0.7-1.5,1.5-1.5h5.8
	c0.8,0,1.5,0.7,1.5,1.5s-0.7,1.5-1.5,1.5h-5.8C623.7,391.2,623,390.6,623,389.7z M623,395.6c0-0.8,0.7-1.5,1.5-1.5h5.8
	c0.8,0,1.5,0.7,1.5,1.5s-0.7,1.5-1.5,1.5h-5.8C623.7,397.1,623,396.4,623,395.6z M623,401.5c0-0.8,0.7-1.5,1.5-1.5h5.8
	c0.8,0,1.5,0.7,1.5,1.5s-0.7,1.5-1.5,1.5h-5.8C623.7,403,623,402.3,623,401.5z M623,407.3c0-0.8,0.7-1.5,1.5-1.5h5.8
	c0.8,0,1.5,0.7,1.5,1.5s-0.7,1.5-1.5,1.5h-5.8C623.7,408.8,623,408.2,623,407.3z M623,413.2c0-0.8,0.7-1.5,1.5-1.5h5.8
	c0.8,0,1.5,0.7,1.5,1.5s-0.7,1.5-1.5,1.5h-5.8C623.7,414.7,623,414.1,623,413.2z M623,419.1c0-0.8,0.7-1.5,1.5-1.5h5.8
	c0.8,0,1.5,0.7,1.5,1.5s-0.7,1.5-1.5,1.5h-5.8C623.7,420.6,623,419.9,623,419.1z M623,425c0-0.8,0.7-1.5,1.5-1.5h5.8
	c0.8,0,1.5,0.7,1.5,1.5s-0.7,1.5-1.5,1.5h-5.8C623.7,426.5,623,425.8,623,425z M623,430.8c0-0.8,0.7-1.5,1.5-1.5h5.8
	c0.8,0,1.5,0.7,1.5,1.5s-0.7,1.5-1.5,1.5h-5.8C623.7,432.3,623,431.7,623,430.8z M623,436.7c0-0.8,0.7-1.5,1.5-1.5h5.8
	c0.8,0,1.5,0.7,1.5,1.5s-0.7,1.5-1.5,1.5h-5.8C623.7,438.2,623,437.6,623,436.7z M623,442.6c0-0.8,0.7-1.5,1.5-1.5h5.8
	c0.8,0,1.5,0.7,1.5,1.5s-0.7,1.5-1.5,1.5h-5.8C623.7,444.1,623,443.4,623,442.6z M607.2,439.4h-3v-4h3V439.4z M607.2,241.4h-3v-4h3
	V241.4z M604.2,441.4h3v4h-3V441.4z M607.2,235.4h-3v-4h3V235.4z M607.2,403.4h-3v-4h3V403.4z M607.2,247.4h-3v-4h3V247.4z
	 M607.2,409.4h-3v-4h3V409.4z M607.2,415.4h-3v-4h3V415.4z M607.2,427.4h-3v-4h3V427.4z M607.2,421.4h-3v-4h3V421.4z M607.2,433.4
	h-3v-4h3V433.4z M607.2,361.4h-3v-4h3V361.4z M607.2,349.4h-3v-4h3V349.4z M607.2,325.4h-3v-4h3V325.4z M607.2,343.4h-3v-4h3V343.4z
	 M607.2,337.4h-3v-4h3V337.4z M607.2,331.4h-3v-4h3V331.4z M607.2,355.4h-3v-4h3V355.4z M607.2,367.4h-3v-4h3V367.4z M607.2,391.4
	h-3v-4h3V391.4z M607.2,253.4h-3v-4h3V253.4z M607.2,373.4h-3v-4h3V373.4z M607.2,379.4h-3v-4h3V379.4z M607.2,385.4h-3v-4h3V385.4z
	 M607.2,283.4h-3v-4h3V283.4z M607.2,277.4h-3v-4h3V277.4z M607.2,271.4h-3v-4h3V271.4z M607.2,319.4h-3v-4h3V319.4z M607.2,259.4
	h-3v-4h3V259.4z M607.2,265.4h-3v-4h3V265.4z M607.2,313.4h-3v-4h3V313.4z M607.2,307.4h-3v-4h3V307.4z M607.2,289.4h-3v-4h3V289.4z
	 M607.2,301.4h-3v-4h3V301.4z M607.2,295.4h-3v-4h3V295.4z M607.2,397.4h-3v-4h3V397.4z M611.1,313.6h-3v-4h3V313.6z M611.1,301.6
	h-3v-4h3V301.6z M611.1,307.6h-3v-4h3V307.6z M611.1,295.6h-3v-4h3V295.6z M611.1,325.6h-3v-4h3V325.6z M611.1,319.6h-3v-4h3V319.6z
	 M611.1,331.6h-3v-4h3V331.6z M611.1,439.6h-3v-4h3V439.6z M611.1,289.6h-3v-4h3V289.6z M611.1,247.6h-3v-4h3V247.6z M611.1,253.6
	h-3v-4h3V253.6z M611.1,283.6h-3v-4h3V283.6z M611.1,241.6h-3v-4h3V241.6z M611.1,259.6h-3v-4h3V259.6z M611.1,277.6h-3v-4h3V277.6z
	 M611.1,271.6h-3v-4h3V271.6z M611.1,235.6h-3v-4h3V235.6z M611.1,265.6h-3v-4h3V265.6z M611.1,361.6h-3v-4h3V361.6z M611.1,367.6
	h-3v-4h3V367.6z M611.1,373.6h-3v-4h3V373.6z M611.1,355.6h-3v-4h3V355.6z M611.1,349.6h-3v-4h3V349.6z M611.1,337.6h-3v-4h3V337.6z
	 M608.1,441.6h3v4h-3V441.6z M611.1,343.6h-3v-4h3V343.6z M611.1,379.6h-3v-4h3V379.6z M611.1,385.6h-3v-4h3V385.6z M611.1,421.6h-3
	v-4h3V421.6z M611.1,427.6h-3v-4h3V427.6z M611.1,433.6h-3v-4h3V433.6z M611.1,415.6h-3v-4h3V415.6z M611.1,391.6h-3v-4h3V391.6z
	 M611.1,409.6h-3v-4h3V409.6z M611.1,397.6h-3v-4h3V397.6z M611.1,403.6h-3v-4h3V403.6z M607.2,229.7h-3v-3.1v-0.1v-0.2
	c0-0.8,0.7-1.5,1.5-1.5s1.5,0.7,1.5,1.5v0.2v0.1V229.7z M608,226.3c0-0.8,0.7-1.5,1.5-1.5s1.5,0.7,1.5,1.5v0.2v0.1v3.1h-3v-3.1v-0.1
	V226.3z M606.1,220.8c0.4,0.7,0.1,1.6-0.6,2c-0.2,0.1-0.4,0.2-0.7,0.2c-0.5,0-1.1-0.3-1.3-0.8c-0.4-0.7-0.1-1.6,0.6-2
	C604.8,219.8,605.7,220,606.1,220.8z M603.3,225.6c-0.2,0.7-0.8,1.2-1.5,1.2c-0.1,0-0.2,0-0.3,0c-0.8-0.2-1.3-1-1.1-1.8
	s1-1.3,1.8-1.1C603,224,603.5,224.8,603.3,225.6z M608.3,220.7c0.3-0.8,1.2-1.1,2-0.8s1.1,1.2,0.8,2c-0.2,0.6-0.8,0.9-1.4,0.9
	c-0.2,0-0.4-0.1-0.6-0.1C608.3,222.4,607.9,221.5,608.3,220.7z M611.5,245c0-0.8,0.7-1.5,1.5-1.5s1.5,0.7,1.5,1.5s-0.7,1.5-1.5,1.5
	S611.5,245.8,611.5,245z M611.5,255c0-0.8,0.7-1.5,1.5-1.5s1.5,0.7,1.5,1.5s-0.7,1.5-1.5,1.5S611.5,255.8,611.5,255z M611.5,240
	c0-0.8,0.7-1.5,1.5-1.5s1.5,0.7,1.5,1.5s-0.7,1.5-1.5,1.5S611.5,240.8,611.5,240z M611.5,235c0-0.8,0.7-1.5,1.5-1.5s1.5,0.7,1.5,1.5
	s-0.7,1.5-1.5,1.5S611.5,235.8,611.5,235z M611.5,250c0-0.8,0.7-1.5,1.5-1.5s1.5,0.7,1.5,1.5s-0.7,1.5-1.5,1.5
	S611.5,250.8,611.5,250z M614.3,224.6c0.2,0.8-0.2,1.6-1,1.8c-0.1,0.1-0.3,0.1-0.4,0.1c-0.6,0-1.2-0.4-1.4-1.1
	c-0.2-0.8,0.2-1.6,1-1.9C613.2,223.3,614,223.8,614.3,224.6z M600.2,235.3c0-0.8,0.7-1.5,1.5-1.5s1.5,0.7,1.5,1.5l0,0
	c0,0.8-0.7,1.5-1.5,1.5S600.2,236.2,600.2,235.3z M600.2,230.3c0-0.8,0.7-1.5,1.5-1.5s1.5,0.7,1.5,1.5s-0.7,1.5-1.5,1.5
	S600.2,231.1,600.2,230.3z M614.5,230c0,0.8-0.7,1.5-1.5,1.5s-1.5-0.7-1.5-1.5s0.7-1.5,1.5-1.5S614.5,229.1,614.5,230z M600.2,240.3
	c0-0.8,0.7-1.5,1.5-1.5s1.5,0.7,1.5,1.5l0,0c0,0.8-0.7,1.5-1.5,1.5S600.2,241.2,600.2,240.3z M600.2,245.3c0-0.8,0.7-1.5,1.5-1.5
	s1.5,0.7,1.5,1.5l0,0c0,0.8-0.7,1.5-1.5,1.5S600.2,246.2,600.2,245.3z M600.2,255.3c0-0.8,0.7-1.5,1.5-1.5s1.5,0.7,1.5,1.5l0,0
	c0,0.8-0.7,1.5-1.5,1.5S600.2,256.2,600.2,255.3z M600.2,250.3c0-0.8,0.7-1.5,1.5-1.5s1.5,0.7,1.5,1.5l0,0c0,0.8-0.7,1.5-1.5,1.5
	S600.2,251.2,600.2,250.3z M593.9,433.9h3v3c-3,0,0,0-3,0V433.9z M593.9,423.9h3v3c-3,0,0,0-3,0V423.9z M593.9,418.9h3v3
	c-3,0,0,0-3,0V418.9z M593.9,388.9h3v3c-3,0,0,0-3,0V388.9z M593.9,428.9h3v3c-3,0,0,0-3,0V428.9z M593.9,338.9h3v3c-3,0,0,0-3,0
	V338.9z M593.9,438.9h3v3c-3,0,0,0-3,0V438.9z M593.9,393.9h3v3c-3,0,0,0-3,0V393.9z M593.9,413.9h3v3c-3,0,0,0-3,0V413.9z
	 M593.9,408.9h3v3c-3,0,0,0-3,0V408.9z M593.9,403.9h3v3c-3,0,0,0-3,0V403.9z M593.9,378.9h3v3c-3,0,0,0-3,0V378.9z M593.9,283.9h3
	v3c-3,0,0,0-3,0V283.9z M593.9,308.9h3v3c-3,0,0,0-3,0V308.9z M593.9,298.9h3v3c-3,0,0,0-3,0V298.9z M593.9,288.9h3v3c-3,0,0,0-3,0
	V288.9z M593.9,293.9h3v3c-3,0,0,0-3,0V293.9z M593.9,313.9h3v3c-3,0,0,0-3,0V313.9z M593.9,383.9h3v3c-3,0,0,0-3,0V383.9z
	 M593.9,333.9h3v3c-3,0,0,0-3,0V333.9z M593.9,398.9h3v3c-3,0,0,0-3,0V398.9z M593.9,323.9h3v3c-3,0,0,0-3,0V323.9z M593.9,328.9h3
	v3c-3,0,0,0-3,0V328.9z M593.9,318.9h3v3c-3,0,0,0-3,0V318.9z M593.9,303.9h3v3c-3,0,0,0-3,0V303.9z M593.9,358.9h3v3c-3,0,0,0-3,0
	V358.9z M593.9,348.9h3v3c-3,0,0,0-3,0V348.9z M593.9,363.9h3v3c-3,0,0,0-3,0V363.9z M593.9,353.9h3v3c-3,0,0,0-3,0V353.9z
	 M593.9,373.9h3v3c-3,0,0,0-3,0V373.9z M593.9,368.9h3v3c-3,0,0,0-3,0V368.9z M593.9,278.9h3v3c-3,0,0,0-3,0V278.9z M593.9,268.9h3
	v3c-3,0,0,0-3,0V268.9z M593.9,273.9h3v3c-3,0,0,0-3,0V273.9z M593.9,343.9h3v3c-3,0,0,0-3,0V343.9z M596.9,261.9c-3,0,0,0-3,0v-3h3
	V261.9z M593.9,263.9h3v3c-3,0,0,0-3,0V263.9z M597.9,273.9h3v3c-3,0,0,0-3,0V273.9z M597.9,358.9h3v3c-3,0,0,0-3,0V358.9z
	 M597.9,388.9h3v3c-3,0,0,0-3,0V388.9z M597.9,393.9h3v3c-3,0,0,0-3,0V393.9z M597.9,378.9h3v3c-3,0,0,0-3,0V378.9z M597.9,383.9h3
	v3c-3,0,0,0-3,0V383.9z M597.9,363.9h3v3c-3,0,0,0-3,0V363.9z M597.9,368.9h3v3c-3,0,0,0-3,0V368.9z M597.9,373.9h3v3c-3,0,0,0-3,0
	V373.9z M597.9,258.9h3v3c-3,0,0,0-3,0V258.9z M597.9,428.9h3v3c-3,0,0,0-3,0V428.9z M597.9,423.9h3v3c-3,0,0,0-3,0V423.9z
	 M597.9,433.9h3v3c-3,0,0,0-3,0V433.9z M597.9,438.9h3v3c-3,0,0,0-3,0V438.9z M597.9,413.9h3v3c-3,0,0,0-3,0V413.9z M597.9,408.9h3
	v3c-3,0,0,0-3,0V408.9z M597.9,418.9h3v3c-3,0,0,0-3,0V418.9z M597.9,403.9h3v3c-3,0,0,0-3,0V403.9z M597.9,398.9h3v3c-3,0,0,0-3,0
	V398.9z M597.9,353.9h3v3c-3,0,0,0-3,0V353.9z M597.9,283.9h3v3c-3,0,0,0-3,0V283.9z M597.9,293.9h3v3c-3,0,0,0-3,0V293.9z
	 M597.9,303.9h3v3c-3,0,0,0-3,0V303.9z M597.9,298.9h3v3c-3,0,0,0-3,0V298.9z M597.9,278.9h3v3c-3,0,0,0-3,0V278.9z M597.9,263.9h3
	v3c-3,0,0,0-3,0V263.9z M597.9,268.9h3v3c-3,0,0,0-3,0V268.9z M597.9,288.9h3v3c-3,0,0,0-3,0V288.9z M597.9,328.9h3v3c-3,0,0,0-3,0
	V328.9z M597.9,338.9h3v3c-3,0,0,0-3,0V338.9z M597.9,343.9h3v3c-3,0,0,0-3,0V343.9z M597.9,348.9h3v3c-3,0,0,0-3,0V348.9z
	 M597.9,318.9h3v3c-3,0,0,0-3,0V318.9z M597.9,313.9h3v3c-3,0,0,0-3,0V313.9z M597.9,323.9h3v3c-3,0,0,0-3,0V323.9z M597.9,308.9h3
	v3c-3,0,0,0-3,0V308.9z M597.9,333.9h3v3c-3,0,0,0-3,0V333.9z M616.6,351.7c-3,0,0,0-3,0v-3h3V351.7z M616.6,356.7c-3,0,0,0-3,0v-3
	h3V356.7z M616.6,366.7c-3,0,0,0-3,0v-3h3V366.7z M616.6,361.7c-3,0,0,0-3,0v-3h3V361.7z M616.6,346.7c-3,0,0,0-3,0v-3h3V346.7z
	 M616.6,336.7c-3,0,0,0-3,0v-3h3V336.7z M616.6,341.7c-3,0,0,0-3,0v-3h3V341.7z M616.6,371.7c-3,0,0,0-3,0v-3h3V371.7z M616.6,396.7
	c-3,0,0,0-3,0v-3h3V396.7z M616.6,401.7c-3,0,0,0-3,0v-3h3V401.7z M616.6,391.7c-3,0,0,0-3,0v-3h3V391.7z M616.6,381.7c-3,0,0,0-3,0
	v-3h3V381.7z M616.6,376.7c-3,0,0,0-3,0v-3h3V376.7z M616.6,331.7c-3,0,0,0-3,0v-3h3V331.7z M616.6,386.7c-3,0,0,0-3,0v-3h3V386.7z
	 M616.6,261.7c-3,0,0,0-3,0v-3h3V261.7z M616.6,406.7c-3,0,0,0-3,0v-3h3V406.7z M616.6,266.7c-3,0,0,0-3,0v-3h3V266.7z M616.6,286.7
	c-3,0,0,0-3,0v-3h3V286.7z M616.6,276.7c-3,0,0,0-3,0v-3h3V276.7z M616.6,271.7c-3,0,0,0-3,0v-3h3V271.7z M616.6,281.7c-3,0,0,0-3,0
	v-3h3V281.7z M616.6,291.7c-3,0,0,0-3,0v-3h3V291.7z M616.6,301.7c-3,0,0,0-3,0v-3h3V301.7z M616.6,316.7c-3,0,0,0-3,0v-3h3V316.7z
	 M616.6,311.7c-3,0,0,0-3,0v-3h3V311.7z M616.6,321.7c-3,0,0,0-3,0v-3h3V321.7z M616.6,326.7c-3,0,0,0-3,0v-3h3V326.7z M616.6,296.7
	c-3,0,0,0-3,0v-3h3V296.7z M616.6,306.7c-3,0,0,0-3,0v-3h3V306.7z M616.6,426.7c-3,0,0,0-3,0v-3h3V426.7z M616.6,436.7c-3,0,0,0-3,0
	v-3h3V436.7z M616.6,431.7c-3,0,0,0-3,0v-3h3V431.7z M616.6,441.7c-3,0,0,0-3,0v-3h3V441.7z M616.6,411.7c-3,0,0,0-3,0v-3h3V411.7z
	 M616.6,421.7c-3,0,0,0-3,0v-3h3V421.7z M616.6,416.7c-3,0,0,0-3,0v-3h3V416.7z M617.6,413.7h3v3c-3,0,0,0-3,0V413.7z M620.6,261.7
	c-3,0,0,0-3,0v-3h3V261.7z M617.6,283.7h3v3c-3,0,0,0-3,0V283.7z M617.6,408.7h3v3c-3,0,0,0-3,0V408.7z M617.6,288.7h3v3
	c-3,0,0,0-3,0V288.7z M617.6,268.7h3v3c-3,0,0,0-3,0V268.7z M617.6,383.7h3v3c-3,0,0,0-3,0V383.7z M617.6,263.7h3v3c-3,0,0,0-3,0
	V263.7z M617.6,293.7h3v3c-3,0,0,0-3,0V293.7z M617.6,363.7h3v3c-3,0,0,0-3,0V363.7z M617.6,433.7h3v3c-3,0,0,0-3,0V433.7z
	 M617.6,428.7h3v3c-3,0,0,0-3,0V428.7z M617.6,438.7h3v3c-3,0,0,0-3,0V438.7z M617.6,423.7h3v3c-3,0,0,0-3,0V423.7z M617.6,373.7h3
	v3c-3,0,0,0-3,0V373.7z M617.6,368.7h3v3c-3,0,0,0-3,0V368.7z M617.6,378.7h3v3c-3,0,0,0-3,0V378.7z M617.6,418.7h3v3c-3,0,0,0-3,0
	V418.7z M617.6,273.7h3v3c-3,0,0,0-3,0V273.7z M617.6,333.7h3v3c-3,0,0,0-3,0V333.7z M617.6,338.7h3v3c-3,0,0,0-3,0V338.7z
	 M617.6,323.7h3v3c-3,0,0,0-3,0V323.7z M617.6,328.7h3v3c-3,0,0,0-3,0V328.7z M617.6,343.7h3v3c-3,0,0,0-3,0V343.7z M617.6,358.7h3
	v3c-3,0,0,0-3,0V358.7z M617.6,348.7h3v3c-3,0,0,0-3,0V348.7z M617.6,278.7h3v3c-3,0,0,0-3,0V278.7z M617.6,353.7h3v3c-3,0,0,0-3,0
	V353.7z M617.6,308.7h3v3c-3,0,0,0-3,0V308.7z M617.6,303.7h3v3c-3,0,0,0-3,0V303.7z M617.6,298.7h3v3c-3,0,0,0-3,0V298.7z
	 M617.6,318.7h3v3c-3,0,0,0-3,0V318.7z M617.6,403.7h3v3c-3,0,0,0-3,0V403.7z M617.6,313.7h3v3c-3,0,0,0-3,0V313.7z M617.6,393.7h3
	v3c-3,0,0,0-3,0V393.7z M617.6,398.7h3v3c-3,0,0,0-3,0V398.7z M617.6,388.7h3v3c-3,0,0,0-3,0V388.7z M665,278.3V261
	c0-0.8,0.7-1.5,1.5-1.5s1.5,0.7,1.5,1.5v17.3c0,0.8-0.7,1.5-1.5,1.5S665,279.1,665,278.3z M693.2,235.5L693.2,235.5
	C693.2,235.6,693.2,235.6,693.2,235.5L693.2,235.5c0,0.1,0,0.2,0,0.2c0,0.8-0.7,1.5-1.5,1.5s-1.5-0.7-1.5-1.5v-0.1l0,0
	c0-0.1,0-0.1,0-0.2l0,0c0-0.8,0.7-1.5,1.5-1.5C692.6,234,693.2,234.7,693.2,235.5z M694.9,276v-15.3c0-0.8,0.7-1.5,1.5-1.5
	s1.5,0.7,1.5,1.5V276c0,0.8-0.7,1.5-1.5,1.5C695.6,277.5,694.9,276.9,694.9,276z M678.3,234.6c0.4,0.3,0.7,0.9,0.6,1.4
	c-0.1,0.7-0.7,1.3-1.4,1.3l0,0c-0.1,0-0.2,0-0.4,0l0,0l0,0c-0.7-0.2-1.1-0.8-1.1-1.5c0-0.1,0-0.3,0-0.4c0.2-0.8,1-1.3,1.8-1.1l0,0
	l0,0l0,0l0,0l0,0l0,0l0,0l0,0C678,234.4,678.2,234.5,678.3,234.6z M683.2,234.9c0.2,0.3,0.3,0.6,0.3,0.9c0,0.5-0.2,0.9-0.6,1.2
	c-0.3,0.2-0.6,0.3-0.9,0.3c-0.5,0-0.9-0.2-1.2-0.6l0,0c-0.2-0.3-0.3-0.6-0.3-0.9c0-0.5,0.2-0.9,0.6-1.2
	C681.8,234,682.7,234.2,683.2,234.9z M688.6,235.8c0,0.8-0.7,1.5-1.5,1.5H687c-0.8,0-1.5-0.7-1.5-1.5s0.7-1.5,1.5-1.5h0.1
	C688,234.3,688.6,235,688.6,235.8z M679,262.3h-3v-3.5h3V262.3z M679,324.6h-3v-4h3V324.6z M679,331.5h-3v-4h3V331.5z M679,310.7h-3
	v-4h3V310.7z M679,317.6h-3v-4h3V317.6z M679,290h-3v-4h3V290z M679,276.1h-3v-4h3V276.1z M679,303.8h-3v-4h3V303.8z M679,283h-3v-4
	h3V283z M679,269.2h-3v-4h3V269.2z M679,296.9h-3v-4h3V296.9z M679,338.4h-3v-4h3V338.4z M679,366.1h-3v-4h3V366.1z M679,414.5h-3
	v-4h3V414.5z M679,407.6h-3v-4h3V407.6z M679,393.8h-3v-4h3V393.8z M679,400.7h-3v-4h3V400.7z M679,345.3h-3v-4h3V345.3z M679,421.4
	h-3v-4h3V421.4z M679,428.4h-3v-4h3V428.4z M679,373h-3v-4h3V373z M679,359.2h-3v-4h3V359.2z M679,352.2h-3v-4h3V352.2z M679,386.8
	h-3v-4h3V386.8z M679,379.9h-3v-4h3V379.9z M679,434.8h-3v-3.5h3V434.8z M683,262.3h-3v-3.5h3V262.3z M683,317.6h-3v-4h3V317.6z
	 M683,310.7h-3v-4h3V310.7z M683,338.4h-3v-4h3V338.4z M683,345.3h-3v-4h3V345.3z M683,331.5h-3v-4h3V331.5z M683,324.6h-3v-4h3
	V324.6z M683,276.1h-3v-4h3V276.1z M683,283h-3v-4h3V283z M683,269.2h-3v-4h3V269.2z M683,303.8h-3v-4h3V303.8z M683,296.9h-3v-4h3
	V296.9z M683,290h-3v-4h3V290z M683,386.8h-3v-4h3V386.8z M683,352.2h-3v-4h3V352.2z M683,407.6h-3v-4h3V407.6z M683,414.5h-3v-4h3
	V414.5z M683,428.4h-3v-4h3V428.4z M683,421.4h-3v-4h3V421.4z M683,400.7h-3v-4h3V400.7z M683,366.1h-3v-4h3V366.1z M683,393.8h-3
	v-4h3V393.8z M683,359.2h-3v-4h3V359.2z M683,373h-3v-4h3V373z M683,379.9h-3v-4h3V379.9z M683,434.8h-3v-3.5h3V434.8z M687,262.3
	h-3v-3.5h3V262.3z M687,359.2h-3v-4h3V359.2z M687,352.2h-3v-4h3V352.2z M687,366.1h-3v-4h3V366.1z M687,345.3h-3v-4h3V345.3z
	 M687,331.5h-3v-4h3V331.5z M687,338.4h-3v-4h3V338.4z M687,373h-3v-4h3V373z M687,317.6h-3v-4h3V317.6z M687,324.6h-3v-4h3V324.6z
	 M687,414.5h-3v-4h3V414.5z M687,421.4h-3v-4h3V421.4z M687,428.4h-3v-4h3V428.4z M687,407.6h-3v-4h3V407.6z M687,310.7h-3v-4h3
	V310.7z M687,386.8h-3v-4h3V386.8z M687,379.9h-3v-4h3V379.9z M687,393.8h-3v-4h3V393.8z M687,400.7h-3v-4h3V400.7z M687,290h-3v-4
	h3V290z M687,283h-3v-4h3V283z M687,296.9h-3v-4h3V296.9z M687,276.1h-3v-4h3V276.1z M687,269.2h-3v-4h3V269.2z M687,303.8h-3v-4h3
	V303.8z M687,434.8h-3v-3.5h3V434.8z M676.2,437h3v3.5h-3V437z M680.2,437h3v3.5h-3V437z M684.2,437h3v3.5h-3V437z M694,275.6h-3
	v-3.5h3V275.6z M694,400.2h-3v-4h3V400.2z M694,386.3h-3v-4h3V386.3z M694,282.5h-3v-4h3V282.5z M694,407.1h-3v-4h3V407.1z
	 M694,289.5h-3v-4h3V289.5z M694,427.9h-3v-4h3V427.9z M694,420.9h-3v-4h3V420.9z M694,434.8h-3v-4h3V434.8z M694,441.7h-3v-4h3
	V441.7z M694,414h-3v-4h3V414z M694,393.3h-3v-4h3V393.3z M694,331h-3v-4h3V331z M694,317.1h-3v-4h3V317.1z M694,324.1h-3v-4h3
	V324.1z M694,310.2h-3v-4h3V310.2z M694,296.4h-3v-4h3V296.4z M694,379.4h-3v-4h3V379.4z M694,303.3h-3v-4h3V303.3z M694,358.7h-3
	v-4h3V358.7z M694,365.6h-3v-4h3V365.6z M694,337.9h-3v-4h3V337.9z M694,372.5h-3v-4h3V372.5z M694,351.7h-3v-4h3V351.7z M694,344.8
	h-3v-4h3V344.8z M672,275.6h-3v-3.5h3V275.6z M672,282.5h-3v-4h3V282.5z M672,324.1h-3v-4h3V324.1z M672,344.8h-3v-4h3V344.8z
	 M672,372.5h-3v-4h3V372.5z M672,358.7h-3v-4h3V358.7z M672,337.9h-3v-4h3V337.9z M672,365.6h-3v-4h3V365.6z M672,351.7h-3v-4h3
	V351.7z M672,303.3h-3v-4h3V303.3z M672,296.4h-3v-4h3V296.4z M672,331h-3v-4h3V331z M672,317.1h-3v-4h3V317.1z M672,310.2h-3v-4h3
	V310.2z M672,400.2h-3v-4h3V400.2z M672,427.9h-3v-4h3V427.9z M672,434.8h-3v-4h3V434.8z M672,379.4h-3v-4h3V379.4z M672,289.5h-3
	v-4h3V289.5z M672,420.9h-3v-4h3V420.9z M672,414h-3v-4h3V414z M672,386.3h-3v-4h3V386.3z M672,441.7h-3v-4h3V441.7z M672,393.3h-3
	v-4h3V393.3z M672,407.1h-3v-4h3V407.1z M668,289.6h-3v-3.5h3V289.6z M668,393.4h-3v-4h3V393.4z M668,400.3h-3v-4h3V400.3z
	 M668,386.5h-3v-4h3V386.5z M668,407.3h-3v-4h3V407.3z M668,379.6h-3v-4h3V379.6z M668,441.9h-3v-4h3V441.9z M668,434.9h-3v-4h3
	V434.9z M668,428h-3v-4h3V428z M668,414.2h-3v-4h3V414.2z M668,421.1h-3v-4h3V421.1z M668,372.7h-3v-4h3V372.7z M668,317.3h-3v-4h3
	V317.3z M668,310.4h-3v-4h3V310.4z M668,296.5h-3v-4h3V296.5z M668,303.5h-3v-4h3V303.5z M668,324.2h-3v-4h3V324.2z M668,345h-3v-4
	h3V345z M668,358.8h-3v-4h3V358.8z M668,351.9h-3v-4h3V351.9z M668,331.1h-3v-4h3V331.1z M668,338.1h-3v-4h3V338.1z M668,365.7h-3
	v-4h3V365.7z M658,321.1v3.5h-3v-3.5H658z M655,369.1h3v4h-3V369.1z M655,382.9h3v4h-3V382.9z M655,355.2h3v4h-3V355.2z M655,376h3
	v4h-3V376z M655,362.1h3v4h-3V362.1z M655,348.3h3v4h-3V348.3z M655,327.6h3v4h-3V327.6z M655,334.5h3v4h-3V334.5z M655,341.4h3v4
	h-3V341.4z M655,396.7h3v4h-3V396.7z M655,438.3h3v4h-3V438.3z M655,431.3h3v4h-3V431.3z M655,403.7h3v4h-3V403.7z M655,410.6h3v4
	h-3V410.6z M655,389.8h3v4h-3V389.8z M655,417.5h3v4h-3V417.5z M655,424.4h3v4h-3V424.4z M705,320.1h3v3.5h-3V320.1z M705,369.5h3v4
	h-3V369.5z M705,376.6h3v4h-3V376.6z M705,362.4h3v4h-3V362.4z M705,383.7h3v4h-3V383.7z M705,390.9h3v4h-3V390.9z M705,355.2h3v4
	h-3V355.2z M705,326.7h3v4h-3V326.7z M705,333.9h3v4h-3V333.9z M705,341h3v4h-3V341z M705,348.1h3v4h-3V348.1z M705,433.6h3v4h-3
	V433.6z M705,440.7h3v4h-3V440.7z M705,426.5h3v4h-3V426.5z M705,398h3v4h-3V398z M705,412.2h3v4h-3V412.2z M705,405.1h3v4h-3V405.1
	z M705,419.4h3v4h-3V419.4z M695,313.2h3v4h-3V313.2z M695,327.1h3v4h-3V327.1z M695,340.9h3v4h-3V340.9z M695,285.6h3v4h-3V285.6z
	 M695,354.7h3v4h-3V354.7z M695,299.4h3v4h-3V299.4z M695,437.8h3v4h-3V437.8z M695,410.1h3v4h-3V410.1z M695,423.9h3v4h-3V423.9z
	 M695,382.4h3v4h-3V382.4z M695,396.3h3v4h-3V396.3z M695,368.6h3v4h-3V368.6z M350.5,327.7v-1c0-0.8,0.7-1.5,1.5-1.5
	s1.5,0.7,1.5,1.5v1c0,0.8-0.7,1.5-1.5,1.5S350.5,328.6,350.5,327.7z M301.5,260.1v-0.8c0-0.8,0.7-1.5,1.5-1.5s1.5,0.7,1.5,1.5v0.8
	c0,0.8-0.7,1.5-1.5,1.5S301.5,261,301.5,260.1z M345.8,205.7h-36.3v-3h36.3V205.7z M345.8,213.2h-36.3v-3h36.3V213.2z M345.8,220.7
	h-36.3v-3h36.3V220.7z M345.8,228.1h-36.3v-3h36.3V228.1z M345.8,235.6h-36.3v-3h36.3V235.6z M345.8,243.1h-36.3v-3h36.3V243.1z
	 M345.8,250.6h-36.3v-3h36.3V250.6z M345.8,258h-36.3v-3h36.3V258z M345.8,265.5h-36.3v-3h36.3V265.5z M345.8,273h-36.3v-3h36.3V273
	z M345.8,280.4h-36.3v-3h36.3V280.4z M345.8,287.9h-36.3v-3h36.3V287.9z M345.8,295.4h-36.3v-3h36.3V295.4z M345.8,302.8h-36.3v-3
	h36.3V302.8z M345.8,310.3h-36.3v-3h36.3V310.3z M345.8,317.8h-36.3v-3h36.3V317.8z M345.8,325.2h-36.3v-3h36.3V325.2z M345.8,332.7
	h-36.3v-3h36.3V332.7z M345.8,340.2h-36.3v-3h36.3V340.2z M345.8,347.6h-36.3v-3h36.3V347.6z M345.8,355.1h-36.3v-3h36.3V355.1z
	 M345.8,362.6h-36.3v-3h36.3V362.6z M345.8,370.1h-36.3v-3h36.3V370.1z M345.8,377.5h-36.3v-3h36.3V377.5z M345.8,385h-36.3v-3h36.3
	V385z M345.8,392.5h-36.3v-3h36.3V392.5z M345.8,399.9h-36.3v-3h36.3V399.9z M345.8,407.4h-36.3v-3h36.3V407.4z M345.8,414.9h-36.3
	v-3h36.3V414.9z M345.8,422.3h-36.3v-3h36.3V422.3z M345.8,429.8h-36.3v-3h36.3V429.8z M345.8,437.3h-36.3v-3h36.3V437.3z
	 M345.8,444.7h-36.3v-3h36.3V444.7z M775,333.7v-3.9h2.8v3.9H775z M764.6,329.8h2.8v3.9h-2.8V329.8z M759.3,333.7v-3.9h2.8v3.9
	H759.3z M748.8,329.8h2.8v3.9h-2.8V329.8z M743.6,329.8h2.8v3.9h-2.8V329.8z M738.3,329.8h2.8v3.9h-2.8V329.8z M733.1,333.7v-3.9
	h2.8v3.9H733.1z M769.8,336h2.8v3.9h-2.8V336z M767.3,339.9h-2.8V336h2.8V339.9z M751.6,339.9h-2.8V336h2.8V339.9z M741.1,339.9
	h-2.8V336h2.8V339.9z M735.9,339.9h-2.8V336h2.8V339.9z M777.8,345.7H775v-3.9h2.8V345.7z M767.3,345.7h-2.8v-3.9h2.8V345.7z
	 M759.3,341.8h2.8v3.9h-2.8V341.8z M751.6,345.7h-2.8v-3.9h2.8V345.7z M746.3,345.7h-2.8v-3.9h2.8V345.7z M741.1,345.7h-2.8v-3.9
	h2.8V345.7z M733.1,341.8h2.8v3.9h-2.8V341.8z M730.6,345.7h-2.8v-3.9h2.8V345.7z M767.3,351.9h-2.8V348h2.8V351.9z M762.1,351.9
	h-2.8V348h2.8V351.9z M751.6,351.9h-2.8V348h2.8V351.9z M746.3,351.9h-2.8V348h2.8V351.9z M741.1,351.9h-2.8V348h2.8V351.9z
	 M735.9,351.9h-2.8V348h2.8V351.9z M730.6,351.9h-2.8V348h2.8V351.9z M777.9,358.2h-2.8v-3.9h2.8V358.2z M772.5,352.1h-2.8v-3.9h2.8
	V352.1z M767.4,358.2h-2.8v-3.9h2.8V358.2z M759.4,354.3h2.8v3.9h-2.8V354.3z M751.7,358.2h-2.8v-3.9h2.8V358.2z M741.2,358.2h-2.8
	v-3.9h2.8V358.2z M735.9,358.2h-2.8v-3.9h2.8V358.2z M727.9,354.3h2.8v3.9h-2.8V354.3z M772.6,364.4h-2.8v-3.9h2.8V364.4z
	 M759.4,360.5h2.8v3.9h-2.8V360.5z M751.7,364.4h-2.8v-3.9h2.8V364.4z M746.4,364.4h-2.8v-3.9h2.8V364.4z M741.2,364.4h-2.8v-3.9
	h2.8V364.4z M735.9,364.4h-2.8v-3.9h2.8V364.4z M730.7,364.4h-2.8v-3.9h2.8V364.4z M777.9,370.2h-2.8v-3.9h2.8V370.2z M767.4,370.2
	h-2.8v-3.9h2.8V370.2z M759.4,366.3h2.8v3.9h-2.8V366.3z M751.7,370.2h-2.8v-3.9h2.8V370.2z M746.4,370.2h-2.8v-3.9h2.8V370.2z
	 M741.2,370.2h-2.8v-3.9h2.8V370.2z M735.9,370.2h-2.8v-3.9h2.8V370.2z M730.7,370.2h-2.8v-3.9h2.8V370.2z M777.9,376.4h-2.8v-3.9
	h2.8V376.4z M772.6,376.4h-2.8v-3.9h2.8V376.4z M767.4,376.4h-2.8v-3.9h2.8V376.4z M759.4,372.5h2.8v3.9h-2.8V372.5z M751.7,376.4
	h-2.8v-3.9h2.8V376.4z M746.4,376.4h-2.8v-3.9h2.8V376.4z M741.2,376.4h-2.8v-3.9h2.8V376.4z M735.9,376.4h-2.8v-3.9h2.8V376.4z
	 M730.7,376.4h-2.8v-3.9h2.8V376.4z M772.6,383.1h-2.8v-3.9h2.8V383.1z M767.4,383.1h-2.8v-3.9h2.8V383.1z M751.7,383.1h-2.8v-3.9
	h2.8V383.1z M746.4,383.1h-2.8v-3.9h2.8V383.1z M741.2,383.1h-2.8v-3.9h2.8V383.1z M735.9,383.1h-2.8v-3.9h2.8V383.1z M730.7,383.1
	h-2.8v-3.9h2.8V383.1z M777.9,389.4h-2.8v-3.9h2.8V389.4z M767.4,389.4h-2.8v-3.9h2.8V389.4z M759.4,385.4h2.8v3.9h-2.8V385.4z
	 M751.7,389.4h-2.8v-3.9h2.8V389.4z M746.4,389.4h-2.8v-3.9h2.8V389.4z M741.2,389.4h-2.8v-3.9h2.8V389.4z M730.7,389.4h-2.8v-3.9
	h2.8V389.4z M772.6,395.1h-2.8v-3.9h2.8V395.1z M767.4,395.1h-2.8v-3.9h2.8V395.1z M751.7,395.1h-2.8v-3.9h2.8V395.1z M746.4,395.1
	h-2.8v-3.9h2.8V395.1z M741.2,395.1h-2.8v-3.9h2.8V395.1z M735.9,395.1h-2.8v-3.9h2.8V395.1z M730.7,395.1h-2.8v-3.9h2.8V395.1z
	 M775.1,397.4h2.8v3.9h-2.8V397.4z M767.4,401.4h-2.8v-3.9h2.8V401.4z M759.4,397.4h2.8v3.9h-2.8V397.4z M746.4,401.4h-2.8v-3.9h2.8
	V401.4z M741.2,401.4h-2.8v-3.9h2.8V401.4z M735.9,401.4h-2.8v-3.9h2.8V401.4z M730.7,401.4h-2.8v-3.9h2.8V401.4z M772.6,407.1h-2.8
	v-3.9h2.8V407.1z M759.4,403.2h2.8v3.9h-2.8V403.2z M751.7,407.1h-2.8v-3.9h2.8V407.1z M746.4,407.1h-2.8v-3.9h2.8V407.1z
	 M741.2,407.1h-2.8v-3.9h2.8V407.1z M735.9,407.1h-2.8v-3.9h2.8V407.1z M730.7,407.1h-2.8v-3.9h2.8V407.1z M772.6,413.4h-2.8v-3.9
	h2.8V413.4z M764.6,409.4h2.8v3.9h-2.8V409.4z M759.4,409.4h2.8v3.9h-2.8V409.4z M754.9,413.4h-2.8v-3.9h2.8V413.4z M746.4,413.4
	h-2.8v-3.9h2.8V413.4z M741.2,413.4h-2.8v-3.9h2.8V413.4z M730.7,413.4h-2.8v-3.9h2.8V413.4z M769.9,415.2h2.8v3.9h-2.8V415.2z
	 M748.9,415.2h2.8v3.9h-2.8V415.2z M743.6,415.2h2.8v3.9h-2.8V415.2z M738.4,415.2h2.8v3.9h-2.8V415.2z M733.2,415.2h2.8v3.9h-2.8
	V415.2z M727.9,415.2h2.8v3.9h-2.8V415.2z M777.9,425.4h-2.8v-3.9h2.8V425.4z M772.6,425.4h-2.8v-3.9h2.8V425.4z M767.4,425.4h-2.8
	v-3.9h2.8V425.4z M751.7,425.4h-2.8v-3.9h2.8V425.4z M746.4,425.4h-2.8v-3.9h2.8V425.4z M741.2,425.4h-2.8v-3.9h2.8V425.4z
	 M735.9,425.4h-2.8v-3.9h2.8V425.4z M730.7,425.4h-2.8v-3.9h2.8V425.4z M770.3,427.9h2.8v3.9h-2.8V427.9z M765.1,427.9h2.8v3.9h-2.8
	V427.9z M744.1,427.9h2.8v3.9h-2.8V427.9z M738.9,427.9h2.8v3.9h-2.8V427.9z M728.4,427.9h2.8v3.9h-2.8V427.9z M770.3,433.7h2.8v3.9
	h-2.8V433.7z M749.4,433.7h2.8v3.9h-2.8V433.7z M744.1,433.7h2.8v3.9h-2.8V433.7z M738.9,433.7h2.8v3.9h-2.8V433.7z M733.6,433.7
	h2.8v3.9h-2.8V433.7z M728.4,433.7h2.8v3.9h-2.8V433.7z M775.6,439.9h2.8v3.9h-2.8V439.9z M765.1,439.9h2.8v3.9h-2.8V439.9z
	 M744.1,439.9h2.8v3.9h-2.8V439.9z M738.9,439.9h2.8v3.9h-2.8V439.9z M733.6,439.9h2.8v3.9h-2.8V439.9z M728.4,439.9h2.8v3.9h-2.8
	V439.9z M766.4,241.6h-2.8v-3.9h2.8V241.6z M755.9,241.6h-2.8v-3.9h2.8V241.6z M761.2,247.8h-2.8v-3.9h2.8V247.8z M766.4,253.6h-2.8
	v-3.9h2.8V253.6z M755.9,253.6h-2.8v-3.9h2.8V253.6z M766.4,259.8h-2.8v-3.9h2.8V259.8z M761.2,259.8h-2.8v-3.9h2.8V259.8z
	 M745.9,260h-2.8v-4h2.8V260z M755.9,259.8h-2.8v-3.9h2.8V259.8z M761.2,266.5h-2.8v-3.9h2.8V266.5z M755.9,266.5h-2.8v-3.9h2.8
	V266.5z M745.4,266.5h-2.8v-3.9h2.8V266.5z M740.2,266.5h-2.8v-3.9h2.8V266.5z M766.4,272.7h-2.8v-3.9h2.8V272.7z M755.9,272.7h-2.8
	v-3.9h2.8V272.7z M745.4,272.7h-2.8v-3.9h2.8V272.7z M740.2,272.7h-2.8v-3.9h2.8V272.7z M761.2,278.5h-2.8v-3.9h2.8V278.5z
	 M755.9,278.5h-2.8v-3.9h2.8V278.5z M745.4,278.5h-2.8v-3.9h2.8V278.5z M740.2,278.5h-2.8v-3.9h2.8V278.5z M766.4,284.7h-2.8v-3.9
	h2.8V284.7z M755.9,284.7h-2.8v-3.9h2.8V284.7z M745.4,284.7h-2.8v-3.9h2.8V284.7z M740.2,284.7h-2.8v-3.9h2.8V284.7z M761.2,290.5
	h-2.8v-3.9h2.8V290.5z M740.2,290.5h-2.8v-3.9h2.8V290.5z M735,290.5h-2.8v-3.9h2.8V290.5z M765.5,296.9h-2.8V293h2.8V296.9z
	 M756.6,296.7h-2.8v-3.9h2.8V296.7z M761.2,302.5h-2.8v-3.9h2.8V302.5z M745.4,302.5h-2.8v-3.9h2.8V302.5z M745.4,296.8h-2.8v-3.9
	h2.8V296.8z M732.3,298.3h2.8v3.9h-2.8V298.3z M740.1,296.5h-2.8v-3.9h2.8V296.5z M766.4,308.7h-2.8v-3.9h2.8V308.7z M761.2,308.7
	h-2.8v-3.9h2.8V308.7z M745.4,308.7h-2.8v-3.9h2.8V308.7z M740.2,308.7h-2.8v-3.9h2.8V308.7z M735,308.7h-2.8v-3.9h2.8V308.7z
	 M761.6,315.2h-2.8v-3.9h2.8V315.2z M751.2,315.2h-2.8v-3.9h2.8V315.2z M745.9,315.2h-2.8v-3.9h2.8V315.2z M735.4,315.2h-2.8v-3.9
	h2.8V315.2z M761.6,321h-2.8v-4h2.8V321z M751.2,321h-2.8v-4h2.8V321z M743.1,317h2.8v3.9h-2.8V317z M737.9,317h2.8v3.9h-2.8V317z
	 M735.4,321h-2.8v-4h2.8V321z M764.1,323.3h2.8v3.9h-2.8V323.3z M758.9,323.3h2.8v3.9h-2.8V323.3z M743.1,323.3h2.8v3.9h-2.8V323.3z
	 M740.7,327.2h-2.8v-3.9h2.8V327.2z M732.6,323.3h2.8v3.9h-2.8V323.3z M268.4,10.7h3.7V16h-3.7V10.7z M254.4,10.7h3.7V16h-3.7V10.7z
	 M247.3,10.7h3.7V16h-3.7V10.7z M240.3,10.7h3.7V16h-3.7V10.7z M233.3,10.7h3.7V16h-3.7V10.7z M261.4,19.1h3.7v5.3h-3.7V19.1z
	 M254.4,19.1h3.7v5.3h-3.7V19.1z M240.3,19.1h3.7v5.3h-3.7V19.1z M233.3,19.1h3.7v5.3h-3.7V19.1z M268.4,26.8h3.7v5.3h-3.7V26.8z
	 M254.4,26.8h3.7v5.3h-3.7V26.8z M247.3,26.8h3.7v5.3h-3.7V26.8z M240.3,26.8h3.7v5.3h-3.7V26.8z M233.3,26.8h3.7v5.3h-3.7V26.8z
	 M254.4,35.1h3.7v5.3h-3.7V35.1z M247.3,35.1h3.7v5.3h-3.7V35.1z M240.3,35.1h3.7v5.3h-3.7V35.1z M233.3,35.1h3.7v5.3h-3.7V35.1z
	 M268.5,43.6h3.7v5.3h-3.7V43.6z M261.3,35.3h3.7v5.3h-3.7V35.3z M254.4,43.6h3.7v5.3h-3.7V43.6z M247.4,43.6h3.7v5.3h-3.7V43.6z
	 M240.4,43.6h3.7v5.3h-3.7V43.6z M233.4,43.6h3.7v5.3h-3.7V43.6z M261.5,51.9h3.7v5.3h-3.7V51.9z M251.1,57.2h-3.7v-5.3h3.7V57.2z
	 M244.1,57.2h-3.7v-5.3h3.7V57.2z M237.1,57.2h-3.7v-5.3h3.7V57.2z M272.2,64.9h-3.7v-5.3h3.7V64.9z M258.1,64.9h-3.7v-5.3h3.7V64.9
	z M247.4,59.6h3.7v5.3h-3.7V59.6z M240.4,59.6h3.7v5.3h-3.7V59.6z M233.4,59.6h3.7v5.3h-3.7V59.6z M268.5,68h3.7v5.3h-3.7V68z
	 M265.2,73.2h-3.7V68h3.7V73.2z M241.1,68.2h3.7v5.3h-3.7V68.2z M254.4,68h3.7v5.3h-3.7V68z M247.4,68h3.7v5.3h-3.7V68z M233.4,68
	h3.7v5.3h-3.7V68z M261.5,76.9h3.7v5.3h-3.7V76.9z M254.4,76.9h3.7v5.3h-3.7V76.9z M240.4,76.9h3.7v5.3h-3.7V76.9z M233.4,76.9h3.7
	v5.3h-3.7V76.9z M268.5,85.3h3.7v5.3h-3.7V85.3z M254.4,85.3h3.7v5.3h-3.7V85.3z M247.4,85.3h3.7v5.3h-3.7V85.3z M240.4,85.3h3.7
	v5.3h-3.7V85.3z M233.4,85.3h3.7v5.3h-3.7V85.3z M261.5,93h3.7v5.3h-3.7V93z M254.4,93h3.7v5.3h-3.7V93z M240.4,93h3.7v5.3h-3.7V93z
	 M233.4,93h3.7v5.3h-3.7V93z M268.5,101.3h3.7v5.3h-3.7V101.3z M254.4,101.3h3.7v5.3h-3.7V101.3z M247.4,101.3h3.7v5.3h-3.7V101.3z
	 M240.4,101.3h3.7v5.3h-3.7V101.3z M233.4,101.3h3.7v5.3h-3.7V101.3z M261.5,109.1h3.7v5.3h-3.7V109.1z M247.4,109.1h3.7v5.3h-3.7
	V109.1z M240.4,109.1h3.7v5.3h-3.7V109.1z M233.4,109.1h3.7v5.3h-3.7V109.1z M261.5,117.4h3.7v5.3h-3.7V117.4z M254.4,117.4h3.7v5.3
	h-3.7V117.4z M247.4,117.4h3.7v5.3h-3.7V117.4z M240.4,117.4h3.7v5.3h-3.7V117.4z M261.5,125.1h3.7v5.3h-3.7V125.1z M247.4,125.1
	h3.7v5.3h-3.7V125.1z M240.4,125.1h3.7v5.3h-3.7V125.1z M233.4,125.1h3.7v5.3h-3.7V125.1z M268.5,133.5h3.7v5.3h-3.7V133.5z
	 M261.5,133.5h3.7v5.3h-3.7V133.5z M254.4,133.5h3.7v5.3h-3.7V133.5z M247.4,133.5h3.7v5.3h-3.7V133.5z M240.4,133.5h3.7v5.3h-3.7
	V133.5z M233.4,133.5h3.7v5.3h-3.7V133.5z M262.1,142.1h3.7v5.3h-3.7V142.1z M255.1,142.1h3.7v5.3h-3.7V142.1z M248,142.1h3.7v5.3
	H248V142.1z M244.7,147.4H241v-5.3h3.7V147.4z M265.8,155.1h-3.7v-5.3h3.7V155.1z M251.7,155.1H248v-5.3h3.7V155.1z M244.7,155.1
	H241v-5.3h3.7V155.1z M234,149.9h3.7v5.3H234V149.9z M272.8,163.5h-3.7v-5.3h3.7V163.5z M262.1,158.2h3.7v5.3h-3.7V158.2z
	 M258.8,163.5h-3.7v-5.3h3.7V163.5z M248,158.2h3.7v5.3H248V158.2z M241,158.2h3.7v5.3H241V158.2z M237.7,163.5H234v-5.3h3.7V163.5z
	 M254.4,167.6h3.7v5.3h-3.7V167.6z M247.4,167.6h3.7v5.3h-3.7V167.6z M240.3,167.6h3.7v5.3h-3.7V167.6z M233.3,167.6h3.7v5.3h-3.7
	V167.6z M261.4,176h3.7v5.3h-3.7V176z M254.4,176h3.7v5.3h-3.7V176z M240.3,176h3.7v5.3h-3.7V176z M233.3,176h3.7v5.3h-3.7V176z
	 M272.1,189h-3.7v-5.3h3.7V189z M254.4,183.7h3.7v5.3h-3.7V183.7z M247.4,183.7h3.7v5.3h-3.7V183.7z M240.3,183.7h3.7v5.3h-3.7
	V183.7z M233.3,183.7h3.7v5.3h-3.7V183.7z M258.1,197.3h-3.7V192h3.7V197.3z M251.1,197.3h-3.7V192h3.7V197.3z M244.1,197.3h-3.7
	V192h3.7V197.3z M237,197.3h-3.7V192h3.7V197.3z M272.2,205.7h-3.7v-5.3h3.7V205.7z M265,197.5h-3.7v-5.3h3.7V197.5z M254.5,200.5
	h3.7v5.3h-3.7V200.5z M247.5,200.5h3.7v5.3h-3.7V200.5z M240.4,200.5h3.7v5.3h-3.7V200.5z M233.4,200.5h3.7v5.3h-3.7V200.5z
	 M261.5,208.8h3.7v5.3h-3.7V208.8z M247.5,208.8h3.7v5.3h-3.7V208.8z M240.4,208.8h3.7v5.3h-3.7V208.8z M233.4,208.8h3.7v5.3h-3.7
	V208.8z M272.2,221.8h-3.7v-5.3h3.7V221.8z M254.5,216.5h3.7v5.3h-3.7V216.5z M247.5,216.5h3.7v5.3h-3.7V216.5z M240.4,216.5h3.7
	v5.3h-3.7V216.5z M233.4,216.5h3.7v5.3h-3.7V216.5z M272.2,230.1h-3.7v-5.3h3.7V230.1z M261.5,224.9h3.7v5.3h-3.7V224.9z
	 M241.1,225.1h3.7v5.3h-3.7V225.1z M254.5,224.9h3.7v5.3h-3.7V224.9z M247.5,224.9h3.7v5.3h-3.7V224.9z M233.4,224.9h3.7v5.3h-3.7
	V224.9z M261.5,233.8h3.7v5.3h-3.7V233.8z M254.5,233.8h3.7v5.3h-3.7V233.8z M244.1,239.1h-3.7v-5.3h3.7V239.1z M233.4,233.8h3.7
	v5.3h-3.7V233.8z M272.2,247.4h-3.7v-5.3h3.7V247.4z M254.5,242.2h3.7v5.3h-3.7V242.2z M247.5,242.2h3.7v5.3h-3.7V242.2z
	 M240.4,242.2h3.7v5.3h-3.7V242.2z M233.4,242.2h3.7v5.3h-3.7V242.2z M261.5,249.9h3.7v5.3h-3.7V249.9z M254.5,249.9h3.7v5.3h-3.7
	V249.9z M240.4,249.9h3.7v5.3h-3.7V249.9z M233.4,249.9h3.7v5.3h-3.7V249.9z M268.5,258.3h3.7v5.3h-3.7V258.3z M254.5,258.3h3.7v5.3
	h-3.7V258.3z M247.5,258.3h3.7v5.3h-3.7V258.3z M240.4,258.3h3.7v5.3h-3.7V258.3z M233.4,258.3h3.7v5.3h-3.7V258.3z M261.5,266h3.7
	v5.3h-3.7V266z M247.5,266h3.7v5.3h-3.7V266z M240.4,266h3.7v5.3h-3.7V266z M233.4,266h3.7v5.3h-3.7V266z M261.5,274.3h3.7v5.3h-3.7
	V274.3z M254.5,274.3h3.7v5.3h-3.7V274.3z M247.5,274.3h3.7v5.3h-3.7V274.3z M240.4,274.3h3.7v5.3h-3.7V274.3z M261.5,282h3.7v5.3
	h-3.7V282z M247.5,282h3.7v5.3h-3.7V282z M240.4,282h3.7v5.3h-3.7V282z M233.4,282h3.7v5.3h-3.7V282z M272.2,295.6h-3.7v-5.3h3.7
	V295.6z M265.2,295.6h-3.7v-5.3h3.7V295.6z M258.2,295.6h-3.7v-5.3h3.7V295.6z M251.2,295.6h-3.7v-5.3h3.7V295.6z M244.1,295.6h-3.7
	v-5.3h3.7V295.6z M237.1,295.6h-3.7v-5.3h3.7V295.6z M262.1,299h3.7v5.3h-3.7V299z M255.1,299h3.7v5.3h-3.7V299z M248.1,299h3.7v5.3
	h-3.7V299z M241.1,299h3.7v5.3h-3.7V299z M262.1,306.8h3.7v5.3h-3.7V306.8z M248.1,306.8h3.7v5.3h-3.7V306.8z M241.1,306.8h3.7v5.3
	h-3.7V306.8z M234,306.8h3.7v5.3H234V306.8z M272.9,320.4h-3.7v-5.3h3.7V320.4z M265.8,320.4h-3.7v-5.3h3.7V320.4z M258.8,320.4
	h-3.7v-5.3h3.7V320.4z M251.8,320.4h-3.7v-5.3h3.7V320.4z M244.8,320.4h-3.7v-5.3h3.7V320.4z M237.7,320.4H234v-5.3h3.7V320.4z
	 M259.3,329.3h-3.7V324h3.7V329.3z M252.2,329.3h-3.7V324h3.7V329.3z M241.5,324h3.7v5.3h-3.7V324z M238.2,329.3h-3.7V324h3.7V329.3
	z M262.6,332.4h3.7v5.3h-3.7V332.4z M259.3,337.6h-3.7v-5.3h3.7V337.6z M245.2,337.6h-3.7v-5.3h3.7V337.6z M238.2,337.6h-3.7v-5.3
	h3.7V337.6z M273.3,345.3h-3.7V340h3.7V345.3z M255.6,340.1h3.7v5.3h-3.7V340.1z M248.5,340.1h3.7v5.3h-3.7V340.1z M241.5,340.1h3.7
	v5.3h-3.7V340.1z M234.5,340.1h3.7v5.3h-3.7V340.1z M259.3,353.7h-3.7v-5.3h3.7V353.7z M252.2,353.7h-3.7v-5.3h3.7V353.7z
	 M245.2,353.7h-3.7v-5.3h3.7V353.7z M238.2,353.7h-3.7v-5.3h3.7V353.7z M273.4,362.1h-3.7v-5.3h3.7V362.1z M266.2,353.8h-3.7v-5.3
	h3.7V353.8z M259.4,362.1h-3.7v-5.3h3.7V362.1z M252.3,362.1h-3.7v-5.3h3.7V362.1z M245.3,362.1h-3.7v-5.3h3.7V362.1z M238.3,362.1
	h-3.7v-5.3h3.7V362.1z M266.4,370.4h-3.7v-5.3h3.7V370.4z M252.3,370.4h-3.7v-5.3h3.7V370.4z M245.3,370.4h-3.7v-5.3h3.7V370.4z
	 M238.3,370.4h-3.7v-5.3h3.7V370.4z M273.4,378.2h-3.7v-5.3h3.7V378.2z M259.4,378.2h-3.7v-5.3h3.7V378.2z M252.3,378.2h-3.7v-5.3
	h3.7V378.2z M241.6,372.9h3.7v5.3h-3.7V372.9z M238.3,378.2h-3.7v-5.3h3.7V378.2z M273.4,386.5h-3.7v-5.3h3.7V386.5z M266.4,386.5
	h-3.7v-5.3h3.7V386.5z M246,386.7h-3.7v-5.3h3.7V386.7z M259.4,386.5h-3.7v-5.3h3.7V386.5z M252.3,386.5h-3.7v-5.3h3.7V386.5z
	 M238.3,386.5h-3.7v-5.3h3.7V386.5z M266.4,395.5h-3.7v-5.3h3.7V395.5z M259.4,395.5h-3.7v-5.3h3.7V395.5z M245.3,395.5h-3.7v-5.3
	h3.7V395.5z M238.3,395.5h-3.7v-5.3h3.7V395.5z M273.4,403.8h-3.7v-5.3h3.7V403.8z M259.4,403.8h-3.7v-5.3h3.7V403.8z M252.3,403.8
	h-3.7v-5.3h3.7V403.8z M245.3,403.8h-3.7v-5.3h3.7V403.8z M238.3,403.8h-3.7v-5.3h3.7V403.8z M266.4,411.5h-3.7v-5.3h3.7V411.5z
	 M259.4,411.5h-3.7v-5.3h3.7V411.5z M245.3,411.5h-3.7v-5.3h3.7V411.5z M238.3,411.5h-3.7v-5.3h3.7V411.5z M273.4,419.9h-3.7v-5.3
	h3.7V419.9z M259.4,419.9h-3.7v-5.3h3.7V419.9z M252.3,419.9h-3.7v-5.3h3.7V419.9z M245.3,419.9h-3.7v-5.3h3.7V419.9z M238.3,419.9
	h-3.7v-5.3h3.7V419.9z M266.4,427.6h-3.7v-5.3h3.7V427.6z M252.3,427.6h-3.7v-5.3h3.7V427.6z M245.3,427.6h-3.7v-5.3h3.7V427.6z
	 M238.3,427.6h-3.7v-5.3h3.7V427.6z M266.4,435.9h-3.7v-5.3h3.7V435.9z M259.4,435.9h-3.7v-5.3h3.7V435.9z M252.3,435.9h-3.7v-5.3
	h3.7V435.9z M245.3,435.9h-3.7v-5.3h3.7V435.9z M266.4,443.7h-3.7v-5.3h3.7V443.7z M252.3,443.7h-3.7v-5.3h3.7V443.7z M245.3,443.7
	h-3.7v-5.3h3.7V443.7z M238.3,443.7h-3.7v-5.3h3.7V443.7z M281.5,233.5v0.4c0,0.8-0.7,1.5-1.5,1.5s-1.5-0.7-1.5-1.5v-0.4
	c0-0.8,0.7-1.5,1.5-1.5S281.5,232.7,281.5,233.5z M231.5,314.2c0,0.8-0.7,1.5-1.5,1.5s-1.5-0.7-1.5-1.5l1.5-0.2L231.5,314.2z
	 M231.5,313.7l-1.5,0.2l-1.5-0.2c0-0.8,0.7-1.5,1.5-1.5S231.5,312.9,231.5,313.7z M231.5,314.1l-0.6-0.1l0.6-0.1V314.1z
	 M231.5,319.2v9c0,0.8-0.7,1.5-1.5,1.5s-1.5-0.7-1.5-1.5v-9c0-0.8,0.7-1.5,1.5-1.5S231.5,318.4,231.5,319.2z M172.8,370.7
	c5.8-11,8.7-28.9,10.7-40.7c0.4-2.3,0.7-4.4,1-6.2l0,0c-0.1-0.3-0.1-0.7-0.2-1c-0.2-0.8,0.4-1.6,1.2-1.8c0.8-0.2,1.6,0.4,1.8,1.2
	c3.3,16.4-5.2,47.9-5.5,49.2c-0.2,0.7-0.8,1.1-1.4,1.1c-0.1,0-0.3,0-0.4-0.1c-0.8-0.2-1.3-1-1.1-1.8c0.1-0.2,3.6-13.3,5.3-26.8
	c-1.9,9.9-4.6,20.7-8.7,28.4c-0.3,0.5-0.8,0.8-1.3,0.8c-0.2,0-0.5-0.1-0.7-0.2C172.6,372.4,172.4,371.4,172.8,370.7z M226.7,389.2
	c-1.5,0,0,0-1.5,0v-3h3v3H226.7z M214.7,389.2c-1.5,0,0,0-1.5,0v-3h3v3H214.7z M208.7,389.2c-1.5,0,0,0-1.5,0v-3h3v3H208.7z
	 M220.7,389.2c-1.5,0,0,0-1.5,0v-3h3v3H220.7z M155.1,386.2h3v3h-1.5c-1.5,0,0,0-1.5,0V386.2z M143.1,386.2h3v3c-1.5,0,0,0-1.5,0
	h-1.5V386.2z M137.1,386.2h3v3h-1.5c-1.5,0,0,0-1.5,0V386.2z M131,386.2h3v3h-1.5c-1.5,0,0,0-1.5,0V386.2z M149.1,386.2h3v3h-1.5
	c-1.5,0,0,0-1.5,0V386.2z M125,386.2h3v3h-1.5c-1.5,0,0,0-1.5,0V386.2z M102.5,386.2h1.5v3c-1.5,0,0,0-1.5,0H101v-3H102.5z
	 M107,386.2h3v3h-1.5c-1.5,0,0,0-1.5,0V386.2z M113,386.2h3v3h-1.5c-1.5,0,0,0-1.5,0V386.2z M119,386.2h3v3h-1.5c-1.5,0,0,0-1.5,0
	V386.2z M227.5,417.8c-0.2,0.1-0.4,0.1-0.5,0.1c-0.6,0-1.2-0.4-1.4-1c-0.3-0.8,0.1-1.6,0.9-2c0.8-0.3,1.6,0.1,1.9,0.8
	C228.6,416.7,228.3,417.5,227.5,417.8z M221.8,418.5c0.3,0.8-0.1,1.6-0.9,1.9c-0.2,0.1-0.4,0.1-0.5,0.1c-0.6,0-1.2-0.4-1.4-1
	c-0.3-0.8,0.1-1.6,0.9-1.9C220.6,417.3,221.5,417.7,221.8,418.5z M207.8,397.4c-0.5-0.6-0.4-1.6,0.2-2.1s1.6-0.4,2.1,0.2
	s0.4,1.6-0.2,2.1l0,0c-0.3,0.2-0.6,0.3-1,0.3C208.6,398,208.1,397.8,207.8,397.4z"/>
</svg>
