<svg version="1.1" id="Layer_9" xmlns="http://www.w3.org/2000/svg" xmlns:xlink="http://www.w3.org/1999/xlink" x="0px" y="0px"
	 width="286.7px" height="20.4px" viewBox="0 0 286.7 20.4" style="enable-background:new 0 0 286.7 20.4;" xml:space="preserve">
<style type="text/css">
	.st0{fill:#FCB526;}
	.st1{fill:#1372f3;}
	.st2{fill:#FFFFFF;}
	.st3{fill:url(#Path_16_1_);}
	.st4{fill:#182D26;}
	.st5{fill-rule:evenodd;clip-rule:evenodd;fill:#153329;}
	.st6{fill:#1B312A;}
</style>
<g>
	<g>
		<path class="st1" d="M60.9,0h1v1.1c0,0.8-0.4,1.2-1.3,1.2h-1V1.2C59.6,0.4,60,0,60.9,0z M59.6,5.5c0-0.8,0.4-1.2,1.3-1.2h1v11.8
			h-1c-0.9,0-1.3-0.4-1.3-1.2V5.5z"/>
		<path class="st1" d="M67.9,13.6c0.3,0.3,0.7,0.4,1.1,0.4v1.1c0,0.5-0.2,0.9-0.7,1c-0.4,0.1-0.8,0.1-1.2-0.2
			c-0.6-0.3-1.1-0.7-1.5-1.3C65.2,14,65,13.2,65,12.2v-11C65,0.4,65.4,0,66.3,0h1v12.3C67.4,12.9,67.5,13.3,67.9,13.6z"/>
		<path class="st1" d="M80,5.2c1.2,1,1.7,2.1,1.7,3.5v7.3H81c-0.6,0-1-0.3-1.3-1c-1,0.9-2.3,1.3-3.6,1.3c-1.5,0-2.8-0.5-3.9-1.4
			c-1.2-1-1.7-2.1-1.7-3.5V8.8c0-1.4,0.6-2.6,1.7-3.5c1.1-0.9,2.4-1.4,3.9-1.4C77.6,3.9,78.9,4.3,80,5.2z M76.1,6.2
			c-1,0-1.7,0.3-2.4,0.9c-0.6,0.5-0.9,1-0.9,1.7v2.8c0,0.7,0.3,1.2,0.9,1.7c0.7,0.5,1.5,0.8,2.4,0.8c0.9,0,1.7-0.3,2.4-0.8
			c0.6-0.5,0.9-1,0.9-1.7V8.8c0-0.7-0.3-1.2-0.9-1.7C77.8,6.5,77,6.2,76.1,6.2z"/>
		<path class="st1" d="M98.6,5.5c0-0.8,0.4-1.2,1.3-1.2h1v7.3c0,1.5-0.4,2.7-1.2,3.6c-0.9,0.9-2,1.3-3.5,1.3s-2.7-0.5-3.6-1.5
			c-0.9,1-2.1,1.5-3.6,1.5c-1.5,0-2.6-0.4-3.5-1.3c-0.9-0.9-1.2-2.1-1.2-3.6v-6c0-0.8,0.4-1.2,1.3-1.2h1v7.3c0,0.9,0.2,1.6,0.6,1.9
			c0.4,0.4,1,0.6,1.8,0.6c0.7,0,1.3-0.2,1.7-0.6c0.4-0.5,0.7-1.1,0.7-1.9V5.5c0-0.8,0.4-1.2,1.3-1.2h1v7.3c0,0.8,0.2,1.4,0.7,1.9
			c0.4,0.4,1,0.6,1.7,0.6c0.8,0,1.4-0.2,1.8-0.6c0.4-0.4,0.6-1,0.6-1.9L98.6,5.5L98.6,5.5z"/>
		<path class="st1" d="M114.1,4.2l-4.6,13c-0.1,0.3-0.2,0.6-0.3,0.9c-0.1,0.3-0.2,0.5-0.4,0.8c-0.3,0.5-0.8,0.9-1.3,1.2
			c-0.4,0.2-0.9,0.2-1.2,0.2c-0.5-0.1-0.7-0.4-0.7-1v-1.1c0.3,0,0.5-0.1,0.8-0.2c0.3-0.2,0.5-0.3,0.6-0.6l0.5-1.2
			c-0.7-0.2-1.2-0.5-1.4-1.1l-3.5-9.7c-0.1-0.3-0.1-0.5,0-0.7s0.3-0.3,0.7-0.3h1.5l3.5,9.8h0l3.2-8.9c0.2-0.6,0.6-0.9,1.2-0.9
			L114.1,4.2L114.1,4.2z"/>
		<path class="st1" d="M123.7,4.5c0.6,0.3,1.1,0.7,1.5,1.2c0.4,0.6,0.7,1.3,0.7,2.1c0,0.6-0.1,1.2-0.4,1.7c-0.3,0.4-0.6,0.8-1,1.1
			c-0.4,0.3-0.9,0.5-1.4,0.7c-0.5,0.2-1,0.2-1.6,0.2h-2.8c-0.2,0-0.3,0-0.4,0c-0.2,0-0.3-0.1-0.4-0.2v1c0,0.5,0.3,1,0.9,1.3
			c0.5,0.3,1,0.4,1.6,0.5c0.5,0.1,1.1,0,1.7-0.1c0.4-0.1,0.8-0.3,1.1-0.5c0.1-0.1,0.2-0.2,0.3-0.3c0.3-0.4,0.8-0.5,1.4-0.2l1.1,0.5
			c-0.2,0.5-0.5,0.9-0.9,1.3c-0.5,0.5-1.2,1-2,1.2c-0.7,0.3-1.5,0.4-2.3,0.4c-0.7,0-1.3-0.1-1.8-0.2c-0.7-0.2-1.2-0.4-1.7-0.7
			c-0.6-0.4-1-0.9-1.3-1.6c-0.3-0.6-0.4-1.3-0.4-2V8c0-0.6,0.2-1.2,0.4-1.7c0.4-0.9,1.1-1.5,2-1.9c0.8-0.4,1.7-0.6,2.8-0.6
			C121.6,3.9,122.7,4,123.7,4.5z M122.8,8.9c0.4-0.2,0.6-0.5,0.7-1c0-0.4-0.1-0.8-0.4-1.1c-0.5-0.4-1.1-0.5-1.7-0.6
			c-0.7,0-1.3,0-1.8,0.2c-0.5,0.1-0.9,0.3-1.2,0.5c-0.3,0.3-0.5,0.7-0.5,1.1v1.1h3.9C122.1,9.2,122.5,9,122.8,8.9z"/>
		<path class="st1" d="M128,8.4c0-1.4,0.4-2.5,1.4-3.2c0.7-0.6,1.6-0.9,2.7-0.9h1.6v1c0,0.9-0.4,1.3-1.2,1.3H132
			c-0.4,0-0.8,0.2-1.1,0.4c-0.4,0.3-0.5,0.8-0.5,1.4v7.7h-1c-0.9,0-1.3-0.4-1.3-1.2L128,8.4L128,8.4z"/>
		<path class="st1" d="M148.9,6.8c-0.4-0.4-1-0.6-1.8-0.6c-0.7,0-1.3,0.2-1.7,0.7c-0.4,0.5-0.7,1.1-0.7,1.9v7.3h-1
			c-0.9,0-1.3-0.4-1.3-1.2v-6c0-0.8-0.2-1.4-0.7-1.9c-0.4-0.4-1-0.7-1.7-0.7c-0.8,0-1.4,0.2-1.8,0.6c-0.4,0.4-0.6,1.1-0.6,1.9v7.3
			h-1c-0.9,0-1.3-0.4-1.3-1.2v-6c0-1.5,0.4-2.7,1.2-3.6c0.9-0.9,2-1.4,3.5-1.4c1.2,0,2.2,0.4,3.1,1.1c0.1,0.1,0.3,0.2,0.5,0.4
			c0.2-0.2,0.3-0.3,0.4-0.4c0.8-0.7,1.9-1.1,3.1-1.1c1.5,0,2.6,0.4,3.5,1.4c0.9,0.9,1.2,2.1,1.2,3.6v7.3h-1c-0.9,0-1.3-0.4-1.3-1.2
			v-6C149.4,7.9,149.2,7.3,148.9,6.8z"/>
		<path class="st1" d="M163.6,5.2c1.2,1,1.7,2.1,1.7,3.5v7.3h-0.7c-0.6,0-1-0.3-1.3-1c-1,0.9-2.3,1.3-3.6,1.3
			c-1.5,0-2.8-0.5-3.9-1.4c-1.2-1-1.7-2.1-1.7-3.5V8.8c0-1.4,0.6-2.6,1.7-3.5c1.1-0.9,2.4-1.4,3.9-1.4
			C161.2,3.9,162.5,4.3,163.6,5.2z M159.8,6.2c-1,0-1.7,0.3-2.4,0.9c-0.6,0.5-0.9,1-0.9,1.7v2.8c0,0.7,0.3,1.2,0.9,1.7
			c0.7,0.5,1.5,0.8,2.4,0.8s1.7-0.3,2.4-0.8c0.6-0.5,0.9-1,0.9-1.7V8.8c0-0.7-0.3-1.2-0.9-1.7C161.5,6.5,160.7,6.2,159.8,6.2z"/>
		<path class="st1" d="M168.1,8.4c0-1.4,0.4-2.5,1.4-3.2c0.7-0.6,1.6-0.9,2.7-0.9h1.6v1c0,0.9-0.4,1.3-1.2,1.3h-0.3
			c-0.4,0-0.8,0.2-1.1,0.4c-0.4,0.3-0.5,0.8-0.5,1.4v7.7h-1c-0.9,0-1.3-0.4-1.3-1.2L168.1,8.4L168.1,8.4z"/>
		<path class="st1" d="M175.5,1.2c0-0.8,0.4-1.2,1.3-1.2h1v9.2h0.9c0.5,0,0.9,0,1.2-0.4l2.2-3.6c0.3-0.5,0.9-0.9,1.4-0.9h1.8
			l-2.8,4.6c-0.2,0.3-0.3,0.5-0.5,0.7c0.8,0.3,1.4,1,1.8,1.9l2,4.6h-1.5c-0.7,0-1.2-0.3-1.4-0.7l-1.3-2.9c-0.3-0.6-0.7-0.9-1.3-0.9
			h-2.5v4.6h-1c-0.9,0-1.3-0.4-1.3-1.2L175.5,1.2L175.5,1.2z"/>
		<path class="st1" d="M195.5,4.5c0.6,0.3,1.1,0.7,1.5,1.2c0.4,0.6,0.7,1.3,0.7,2.1c0,0.6-0.1,1.2-0.4,1.7c-0.3,0.4-0.6,0.8-1,1.1
			c-0.4,0.3-0.9,0.5-1.4,0.7c-0.5,0.2-1,0.2-1.6,0.2h-2.8c-0.2,0-0.3,0-0.4,0c-0.2,0-0.3-0.1-0.4-0.2v1c0,0.5,0.3,1,0.9,1.3
			c0.5,0.3,1,0.4,1.6,0.5c0.5,0.1,1.1,0,1.7-0.1c0.4-0.1,0.8-0.3,1.1-0.5c0.1-0.1,0.2-0.2,0.3-0.3c0.3-0.4,0.8-0.5,1.4-0.2l1.1,0.5
			c-0.2,0.5-0.5,0.9-0.9,1.3c-0.5,0.5-1.2,1-2,1.2c-0.7,0.3-1.5,0.4-2.3,0.4c-0.7,0-1.3-0.1-1.8-0.2c-0.7-0.2-1.2-0.4-1.7-0.7
			c-0.6-0.4-1-0.9-1.3-1.6c-0.3-0.6-0.4-1.3-0.4-2V8c0-0.6,0.2-1.2,0.4-1.7c0.4-0.9,1.1-1.5,2-1.9c0.8-0.4,1.7-0.6,2.8-0.6
			C193.4,3.9,194.5,4,195.5,4.5z M194.7,8.9c0.4-0.2,0.6-0.5,0.7-1c0-0.4-0.1-0.8-0.4-1.1c-0.5-0.4-1.1-0.5-1.7-0.6
			c-0.7,0-1.3,0-1.8,0.2c-0.5,0.1-0.9,0.3-1.2,0.5c-0.3,0.3-0.5,0.7-0.5,1.1v1.1h3.9C194,9.2,194.3,9,194.7,8.9z"/>
		<path class="st1" d="M205,4.2v1c0,0.9-0.4,1.3-1.2,1.3h-1.6v5.7c0,0.6,0.2,1.1,0.5,1.4c0.3,0.3,0.7,0.4,1.1,0.4v1.1
			c0,0.5-0.2,0.9-0.7,1c-0.4,0.1-0.8,0.1-1.2-0.2c-0.6-0.3-1.1-0.7-1.5-1.3c-0.4-0.7-0.6-1.4-0.6-2.4v-11c0-0.8,0.4-1.2,1.3-1.2h1.1
			v4.2H205z"/>
		<path class="st1" d="M208.3,0h1v1.1c0,0.8-0.4,1.2-1.3,1.2h-1V1.2C207,0.4,207.4,0,208.3,0z M207,5.5c0-0.8,0.4-1.2,1.3-1.2h1
			v11.8h-1.1c-0.9,0-1.3-0.4-1.3-1.2L207,5.5L207,5.5z"/>
		<path class="st1" d="M213.8,5.2c1-0.9,2.3-1.3,3.7-1.3c1.4,0,2.7,0.4,3.8,1.3c1.1,1,1.7,2.1,1.7,3.4v7.5h-1
			c-0.9,0-1.3-0.4-1.3-1.2V8.6c0-0.6-0.3-1.1-0.8-1.6c-0.6-0.5-1.4-0.8-2.2-0.8s-1.6,0.3-2.2,0.8c-0.5,0.4-0.8,1-0.8,1.6v7.5h-1
			c-0.9,0-1.3-0.4-1.3-1.2V8.6C212.2,7.3,212.7,6.1,213.8,5.2z"/>
		<path class="st1" d="M234.8,5.2c1.2,1,1.7,2.1,1.7,3.5v7.2c0,0.7-0.2,1.4-0.4,1.9c-0.6,1.2-1.7,1.9-2.9,2.3
			c-0.6,0.2-1.3,0.3-2.1,0.3c-0.6,0-1.2-0.1-1.8-0.2c-0.5-0.1-0.9-0.3-1.1-0.6c-0.2-0.2-0.2-0.5,0-1l0.2-0.9
			c0.5,0.2,1.2,0.4,2.1,0.4c0.8,0,1.5-0.1,2.1-0.2c1.1-0.3,1.7-1,1.7-2v-0.5c-1,0.6-2.1,0.9-3.3,0.9c-1.5,0-2.8-0.5-3.9-1.4
			c-1.2-1-1.7-2.1-1.7-3.5V8.7c0-1.4,0.6-2.6,1.7-3.5c1.1-0.9,2.4-1.4,3.9-1.4C232.4,3.9,233.7,4.3,234.8,5.2z M231,6.2
			c-1,0-1.7,0.3-2.4,0.9c-0.6,0.5-0.9,1-0.9,1.7v2.8c0,0.7,0.3,1.2,0.9,1.7c0.7,0.5,1.5,0.8,2.4,0.8s1.7-0.3,2.4-0.8
			c0.6-0.5,0.9-1,0.9-1.7V8.8c0-0.7-0.3-1.2-0.9-1.7C232.7,6.5,231.9,6.2,231,6.2z"/>
		<path class="st1" d="M240.8,13.4h1v1.4c0,0.8-0.4,1.2-1.3,1.2h-1v-1.4C239.4,13.8,239.9,13.4,240.8,13.4z"/>
		<path class="st1" d="M244.3,8.6c0-1.3,0.5-2.4,1.7-3.4c1-0.9,2.3-1.3,3.7-1.3s2.7,0.4,3.8,1.3c0.6,0.5,1.1,1.1,1.4,1.9l-1,0.5
			c-0.6,0.3-1.1,0.2-1.6-0.3C252.1,7.2,252,7.1,252,7c-0.6-0.5-1.4-0.8-2.2-0.8s-1.6,0.3-2.2,0.8c-0.5,0.5-0.8,1-0.8,1.6v3.2
			c0,0.6,0.3,1.1,0.8,1.6c0.6,0.5,1.4,0.7,2.2,0.7s1.6-0.3,2.2-0.7c0.1-0.1,0.2-0.2,0.3-0.3c0.4-0.5,0.9-0.6,1.6-0.3l1,0.5
			c-0.3,0.7-0.7,1.3-1.4,1.9c-1,0.9-2.3,1.3-3.8,1.3c-1.5,0-2.7-0.4-3.7-1.3c-1.1-0.9-1.7-2.1-1.7-3.4V8.6z"/>
		<path class="st1" d="M266.1,5.2c1.2,1,1.7,2.1,1.7,3.5v2.8c0,1.4-0.6,2.6-1.7,3.5c-1.1,0.9-2.4,1.4-3.9,1.4
			c-1.5,0-2.8-0.5-3.9-1.4c-1.2-1-1.7-2.1-1.7-3.5V8.8c0-1.4,0.6-2.6,1.7-3.5c1.1-0.9,2.4-1.4,3.9-1.4C263.7,3.9,265,4.3,266.1,5.2z
			 M262.2,6.2c-1,0-1.7,0.3-2.4,0.9c-0.6,0.5-0.9,1-0.9,1.7v2.8c0,0.7,0.3,1.2,0.9,1.7c0.7,0.5,1.5,0.8,2.4,0.8c1,0,1.7-0.3,2.4-0.8
			c0.6-0.5,0.9-1,0.9-1.7V8.8c0-0.7-0.3-1.2-0.9-1.7C264,6.5,263.2,6.2,262.2,6.2z"/>
		<path class="st1" d="M283.8,6.8c-0.4-0.4-1-0.6-1.8-0.6c-0.7,0-1.3,0.2-1.7,0.7c-0.4,0.5-0.7,1.1-0.7,1.9v7.3h-1
			c-0.9,0-1.3-0.4-1.3-1.2v-6c0-0.8-0.2-1.4-0.7-1.9c-0.4-0.4-1-0.7-1.7-0.7c-0.8,0-1.4,0.2-1.8,0.6c-0.4,0.4-0.6,1.1-0.6,1.9v7.3
			h-1.1c-0.9,0-1.3-0.4-1.3-1.2v-6c0-1.5,0.4-2.7,1.2-3.6c0.9-0.9,2-1.4,3.5-1.4c1.2,0,2.2,0.4,3.1,1.1c0.1,0.1,0.3,0.2,0.5,0.4
			c0.2-0.2,0.3-0.3,0.4-0.4c0.8-0.7,1.9-1.1,3.1-1.1c1.5,0,2.6,0.4,3.5,1.4c0.9,0.9,1.2,2.1,1.2,3.6v7.3h-1c-0.9,0-1.3-0.4-1.3-1.2
			v-6C284.5,7.9,284.2,7.3,283.8,6.8z"/>
	</g>
	<g>
		<path class="st1" d="M4.6,8.7c0-1-0.1-2-1.2-2c-0.7,0-1.2,0.3-1.2,1c0,0.9,0.5,1.2,1.2,1.6c0.7,0.4,2,1.3,2.6,1.9
			c0.7,0.7,1,1.4,1,2.4c0,2.1-1.4,3.3-3.5,3.3c-2.6,0-3.5-1.4-3.5-3.5v-0.8h2.1v0.7c0,1.1,0.3,1.9,1.3,1.9c0.9,0,1.3-0.5,1.3-1.3
			c0-0.7-0.3-1.1-0.9-1.5c-1.1-0.9-2.5-1.5-3.3-2.6C0.2,9.2,0,8.6,0,7.9C0,6,1.1,5,3.4,5c3.4,0,3.3,2.6,3.3,3.7H4.6z"/>
		<path class="st1" d="M9.3,16.6V5.2h2.1v11.4L9.3,16.6L9.3,16.6z"/>
		<path class="st1" d="M13.3,5.2h7.1v1.7h-2.5v9.7h-2.1V6.9h-2.5L13.3,5.2L13.3,5.2z"/>
		<path class="st1" d="M22.2,16.6V5.2h6v1.7h-3.8v2.9h3.5v1.7h-3.5v3.5h3.8v1.7L22.2,16.6L22.2,16.6z"/>
		<path class="st1" d="M34.8,16.6V5.2h3.4c0.9,0,1.8,0.1,2.4,0.8c0.5,0.6,0.5,1.3,0.5,2.1c0,1-0.2,1.9-1.4,2.4v0
			c1.2,0.2,1.7,1.2,1.7,2.6c0,0.5,0,0.9-0.2,1.4c-0.5,1.4-1.3,2.1-2.8,2.1L34.8,16.6L34.8,16.6z M37.3,9.8c0.5,0,1.2,0,1.5-0.4
			C39,9.2,39,8.7,39,8.2c0-0.9-0.2-1.3-1.2-1.3h-1v2.9L37.3,9.8L37.3,9.8z M37.3,14.9c0.4,0,0.9,0,1.3-0.1c0.6-0.3,0.7-1,0.7-1.6
			c0-1.2-0.2-1.7-1.6-1.7h-0.8v3.5H37.3L37.3,14.9z"/>
		<path class="st1" d="M46.5,8.2c0.2,0.5,0.4,1.1,0.5,1.7h0c0.2-0.9,0.4-1.5,0.7-2.1l1-2.6h2.3l-3,6.5v4.8h-2.1v-4.8L43,5.2h2.3
			L46.5,8.2z"/>
	</g>
</g>
</svg>
