<?xml version="1.0" encoding="utf-8"?>
<!-- Generator: Adobe Illustrator 23.0.1, SVG Export Plug-In . SVG Version: 6.00 Build 0)  -->
<svg version="1.1" id="Layer_1" xmlns="http://www.w3.org/2000/svg" xmlns:xlink="http://www.w3.org/1999/xlink" x="0px" y="0px"
	 width="535.6px" height="38px" viewBox="0 0 535.6 38" style="enable-background:new 0 0 535.6 38;" xml:space="preserve">
<style type="text/css">
	.st0{fill:#E5C18F;}
	.st1{enable-background:new    ;}
	.st2{fill:#FFFFFF;}
</style>
<g>
	<path class="st0" d="M242.1,12.2c0-0.4-0.1-0.7-0.4-0.9c-0.3-0.2-0.8-0.5-1.5-0.7s-1.3-0.5-1.8-0.7c-1.5-0.7-2.2-1.7-2.2-3
		c0-0.6,0.2-1.2,0.6-1.7c0.4-0.5,0.9-0.9,1.6-1.1c0.7-0.3,1.4-0.4,2.3-0.4c0.8,0,1.6,0.1,2.2,0.4c0.6,0.3,1.2,0.7,1.5,1.2
		s0.5,1.2,0.5,1.8h-2.7c0-0.5-0.1-0.8-0.4-1.1c-0.3-0.3-0.7-0.4-1.2-0.4s-0.9,0.1-1.2,0.3c-0.3,0.2-0.4,0.5-0.4,0.8s0.2,0.6,0.5,0.8
		c0.3,0.2,0.9,0.5,1.6,0.7c0.8,0.3,1.4,0.5,1.9,0.8c1.2,0.7,1.8,1.7,1.8,2.9c0,1-0.4,1.8-1.1,2.3c-0.8,0.6-1.8,0.9-3.1,0.9
		c-0.9,0-1.8-0.2-2.5-0.5s-1.3-0.8-1.7-1.4c-0.4-0.6-0.6-1.2-0.6-2h2.8c0,0.6,0.2,1.1,0.5,1.3c0.3,0.3,0.8,0.4,1.5,0.4
		c0.5,0,0.8-0.1,1.1-0.3C241.9,12.8,242.1,12.5,242.1,12.2z"/>
	<path class="st0" d="M258.4,3.8v7.4c0,0.8-0.2,1.6-0.5,2.2s-0.9,1.1-1.5,1.4c-0.7,0.3-1.5,0.5-2.4,0.5c-1.4,0-2.5-0.4-3.3-1.1
		s-1.2-1.7-1.2-3V3.8h2.8v7.6c0,1.2,0.6,1.9,1.7,1.9c0.6,0,1-0.2,1.3-0.5s0.4-0.8,0.4-1.5V3.8H258.4z"/>
	<path class="st0" d="M266,13.1h4.8v2.1h-7.5V3.8h2.7V13.1z"/>
	<path class="st0" d="M277.9,13.1h4.8v2.1h-7.5V3.8h2.7V13.1z"/>
	<path class="st0" d="M289.9,15.2h-2.7V3.8h2.7V15.2z"/>
	<path class="st0" d="M299.4,12.1l2.3-8.3h3.1L301,15.2h-3l-3.8-11.4h3L299.4,12.1z"/>
	<path class="st0" d="M314.7,13.1h-3.8l-0.7,2.1h-2.9l4.2-11.4h2.6l4.2,11.4h-2.9L314.7,13.1z M311.6,10.9h2.4L312.8,7L311.6,10.9z"
		/>
	<path class="st0" d="M331.8,15.2h-2.7l-4-7.1v7.1h-2.7V3.8h2.7l4,7.1V3.8h2.7V15.2z"/>
	<path class="st0" d="M353.9,11.3v3.9h-2.7V3.8h4.5c0.9,0,1.6,0.2,2.3,0.5s1.2,0.8,1.6,1.4s0.6,1.3,0.6,2c0,1.1-0.4,2-1.2,2.7
		s-1.9,1-3.3,1h-1.8V11.3z M353.9,9.2h1.8c0.5,0,0.9-0.1,1.2-0.4s0.4-0.6,0.4-1.1s-0.1-1-0.4-1.3c-0.3-0.3-0.7-0.5-1.2-0.5h-1.8V9.2
		z"/>
	<path class="st0" d="M369.8,13.1H366l-0.7,2.1h-2.9l4.2-11.4h2.6l4.2,11.4h-2.9L369.8,13.1z M366.7,10.9h2.4L367.9,7L366.7,10.9z"
		/>
	<path class="st0" d="M380.2,11.3v3.9h-2.7V3.8h4.5c0.9,0,1.6,0.2,2.3,0.5s1.2,0.8,1.6,1.4s0.6,1.3,0.6,2c0,1.1-0.4,2-1.2,2.7
		s-1.9,1-3.3,1h-1.8V11.3z M380.2,9.2h1.8c0.5,0,0.9-0.1,1.2-0.4s0.4-0.6,0.4-1.1s-0.1-1-0.4-1.3c-0.3-0.3-0.7-0.5-1.2-0.5h-1.8V9.2
		z"/>
	<path class="st0" d="M396.1,13.1h-3.8l-0.7,2.1h-2.9L393,3.8h2.6l4.2,11.4h-2.9L396.1,13.1z M393,10.9h2.4L394.2,7L393,10.9z"/>
	<path class="st0" d="M406.7,15.2H404V3.8h2.7V15.2z"/>
	<path class="st0" d="M421.3,15.2h-2.7l-4-7.1v7.1h-2.7V3.8h2.7l4,7.1V3.8h2.7V15.2z"/>
	<path class="st0" d="M440.6,15.2V3.8h4.1c1.5,0,2.6,0.3,3.3,0.8c0.8,0.5,1.1,1.3,1.1,2.3c0,0.6-0.1,1.1-0.4,1.5
		c-0.3,0.4-0.7,0.7-1.2,0.9c0.6,0.2,1,0.4,1.4,0.9c0.3,0.4,0.5,0.9,0.5,1.6c0,1.1-0.4,2-1.1,2.5c-0.7,0.6-1.8,0.8-3.1,0.9
		C445.2,15.2,440.6,15.2,440.6,15.2z M443.3,8.6h1.4c0.6,0,1-0.1,1.3-0.3s0.4-0.5,0.4-0.9c0-0.5-0.1-0.8-0.4-1s-0.7-0.3-1.3-0.3
		h-1.3v2.5H443.3z M443.3,10.4v2.7h1.8c0.5,0,0.9-0.1,1.1-0.3s0.4-0.5,0.4-1c0-0.9-0.5-1.4-1.4-1.4H443.3z"/>
	<path class="st0" d="M456.9,13.1h4.8v2.1h-7.5V3.8h2.7V13.1z"/>
	<path class="st0" d="M475.1,9.7c0,1.1-0.2,2.1-0.6,2.9c-0.4,0.9-1,1.5-1.8,2s-1.6,0.7-2.6,0.7s-1.8-0.2-2.6-0.7s-1.3-1.1-1.8-1.9
		s-0.6-1.8-0.7-2.9V9.3c0-1.1,0.2-2.1,0.6-2.9s1-1.5,1.8-2s1.6-0.7,2.6-0.7s1.8,0.2,2.6,0.7c0.8,0.5,1.3,1.1,1.8,2
		c0.4,0.8,0.6,1.8,0.6,2.9v0.4H475.1z M472.3,9.3c0-1.1-0.2-2-0.6-2.6s-0.9-0.9-1.6-0.9c-1.4,0-2.1,1-2.2,3.1v0.8
		c0,1.1,0.2,2,0.6,2.6c0.4,0.6,0.9,0.9,1.6,0.9s1.2-0.3,1.6-0.9c0.4-0.6,0.6-1.4,0.6-2.5V9.3z"/>
	<path class="st0" d="M488.9,11.3c0,0.8-0.2,1.5-0.6,2.1c-0.4,0.6-0.9,1.1-1.6,1.4c-0.7,0.3-1.5,0.5-2.4,0.5c-1.5,0-2.7-0.5-3.5-1.5
		c-0.9-1-1.3-2.3-1.3-4.1V9.2c0-1.1,0.2-2.1,0.6-2.9s0.9-1.5,1.7-1.9c0.7-0.5,1.6-0.7,2.5-0.7c1.4,0,2.5,0.4,3.3,1.1s1.3,1.7,1.4,3
		h-2.7c0-0.7-0.2-1.2-0.5-1.5c-0.3-0.3-0.8-0.5-1.5-0.5s-1.2,0.3-1.5,0.8s-0.5,1.3-0.5,2.4v0.8c0,1.2,0.2,2.1,0.5,2.6
		s0.8,0.8,1.6,0.8c0.6,0,1.1-0.1,1.4-0.4s0.5-0.8,0.5-1.4h2.6V11.3z"/>
	<path class="st0" d="M497.3,11l-1.1,1.2v3h-2.7V3.8h2.7v5l1-1.4l2.5-3.6h3.4l-3.8,5l3.8,6.3h-3.2L497.3,11z"/>
	<path class="st0" d="M239.8,22.8l2.5,7.9l2.5-7.9h3.6v11.4h-2.8v-2.7l0.3-5.4l-2.8,8.1h-1.8l-2.8-8.1l0.3,5.4v2.7h-2.7V22.8H239.8z
		"/>
	<path class="st0" d="M262.6,30.3c0,0.8-0.2,1.5-0.6,2.1s-0.9,1.1-1.6,1.4c-0.7,0.3-1.5,0.5-2.4,0.5c-1.5,0-2.7-0.5-3.5-1.5
		s-1.3-2.3-1.3-4.1v-0.6c0-1.1,0.2-2.1,0.6-2.9c0.4-0.8,0.9-1.5,1.7-1.9c0.7-0.5,1.6-0.7,2.5-0.7c1.4,0,2.5,0.4,3.3,1.1
		s1.3,1.7,1.4,3H260c0-0.7-0.2-1.2-0.5-1.5s-0.8-0.5-1.5-0.5s-1.2,0.3-1.5,0.8s-0.5,1.3-0.5,2.4v0.8c0,1.2,0.2,2.1,0.5,2.6
		s0.8,0.8,1.6,0.8c0.6,0,1.1-0.1,1.4-0.4s0.5-0.8,0.5-1.4H262.6z"/>
	<path class="st0" d="M276.5,32.8c-0.4,0.5-1,0.8-1.9,1.1s-1.7,0.4-2.7,0.4c-1.5,0-2.7-0.5-3.6-1.4s-1.4-2.2-1.4-3.8v-1
		c0-1.1,0.2-2.1,0.6-2.9s1-1.5,1.7-1.9c0.7-0.5,1.6-0.7,2.6-0.7c1.4,0,2.5,0.3,3.3,1c0.8,0.6,1.2,1.6,1.4,2.9h-2.6
		c-0.1-0.6-0.3-1.1-0.6-1.4c-0.3-0.3-0.8-0.4-1.3-0.4c-0.7,0-1.2,0.3-1.6,0.9s-0.6,1.4-0.6,2.5v0.7c0,1.1,0.2,2,0.6,2.6
		s1,0.9,1.8,0.9c0.7,0,1.2-0.2,1.6-0.5V30h-1.9v-1.9h4.6V32.8z"/>
	<path class="st0" d="M285.5,30.2H284v4h-2.7V22.8h4.5c1.3,0,2.4,0.3,3.2,0.9c0.8,0.6,1.1,1.4,1.1,2.5c0,0.8-0.2,1.4-0.5,2
		s-0.8,0.9-1.5,1.3l2.4,4.6v0.1h-2.9L285.5,30.2z M284,28.1h1.7c0.5,0,0.9-0.1,1.2-0.4c0.3-0.3,0.4-0.7,0.4-1.1s-0.1-0.9-0.4-1.2
		s-0.7-0.4-1.2-0.4H284V28.1z"/>
	<path class="st0" d="M301.3,32.1h-3.8l-0.7,2.1H294l4.2-11.4h2.6l4.2,11.4h-3L301.3,32.1z M298.2,29.9h2.4l-1.2-3.9L298.2,29.9z"/>
	<path class="st0" d="M317,24.9h-3.4v9.3h-2.7v-9.3h-3.4v-2.1h9.5V24.9z"/>
	<path class="st0" d="M330.3,30.3c0,0.8-0.2,1.5-0.6,2.1s-0.9,1.1-1.6,1.4s-1.5,0.5-2.4,0.5c-1.5,0-2.7-0.5-3.5-1.5
		s-1.3-2.3-1.3-4.1v-0.6c0-1.1,0.2-2.1,0.6-2.9s0.9-1.5,1.7-1.9c0.7-0.5,1.6-0.7,2.5-0.7c1.4,0,2.5,0.4,3.3,1.1s1.3,1.7,1.4,3h-2.7
		c0-0.7-0.2-1.2-0.5-1.5s-0.8-0.5-1.5-0.5s-1.2,0.3-1.5,0.8s-0.5,1.3-0.5,2.4v0.8c0,1.2,0.2,2.1,0.5,2.6s0.8,0.8,1.6,0.8
		c0.6,0,1.1-0.1,1.4-0.4s0.5-0.8,0.5-1.4H330.3z"/>
	<path class="st0" d="M344.3,34.2h-2.7v-4.8h-4v4.8h-2.7V22.8h2.7v4.5h4v-4.5h2.7V34.2z"/>
	<path class="st0" d="M365.4,27.7h2.7V30h-2.7v3.1h-2.5V30h-2.7v-2.3h2.7v-3h2.5V27.7z"/>
	<path class="st0" d="M389.3,30.3c0,0.8-0.2,1.5-0.6,2.1s-0.9,1.1-1.6,1.4s-1.5,0.5-2.4,0.5c-1.5,0-2.7-0.5-3.5-1.5
		s-1.3-2.3-1.3-4.1v-0.6c0-1.1,0.2-2.1,0.6-2.9s0.9-1.5,1.7-1.9c0.7-0.5,1.6-0.7,2.5-0.7c1.4,0,2.5,0.4,3.3,1.1s1.3,1.7,1.4,3h-2.7
		c0-0.7-0.2-1.2-0.5-1.5s-0.8-0.5-1.5-0.5s-1.2,0.3-1.5,0.8s-0.5,1.3-0.5,2.4v0.8c0,1.2,0.2,2.1,0.5,2.6s0.8,0.8,1.6,0.8
		c0.6,0,1.1-0.1,1.4-0.4s0.5-0.8,0.5-1.4H389.3z"/>
	<path class="st0" d="M400.3,32.1h-3.8l-0.7,2.1H393l4.2-11.4h2.6l4.2,11.4h-3L400.3,32.1z M397.2,29.9h2.4l-1.2-3.9L397.2,29.9z"/>
	<path class="st0" d="M417.4,34.2h-2.7l-4-7.1v7.1H408V22.8h2.7l4,7.1v-7.1h2.7V34.2z"/>
	<path class="st0" d="M431.9,34.2h-2.7l-4-7.1v7.1h-2.7V22.8h2.7l4,7.1v-7.1h2.7V34.2z"/>
	<path class="st0" d="M443.4,32.1h-3.8l-0.7,2.1H436l4.2-11.4h2.6l4.2,11.4h-2.9L443.4,32.1z M440.3,29.9h2.4l-1.2-3.9L440.3,29.9z"
		/>
	<path class="st0" d="M454.9,31.1l2.3-8.3h3.1l-3.8,11.4h-3l-3.8-11.4h3L454.9,31.1z"/>
	<path class="st0" d="M473.7,28.7c0,1.1-0.2,2.1-0.6,2.9c-0.4,0.8-1,1.5-1.8,2s-1.6,0.7-2.6,0.7s-1.8-0.2-2.6-0.7s-1.3-1.1-1.8-1.9
		s-0.6-1.8-0.7-2.9v-0.6c0-1.1,0.2-2.1,0.6-2.9s1-1.5,1.8-2s1.6-0.7,2.6-0.7s1.8,0.2,2.6,0.7c0.8,0.5,1.3,1.1,1.8,2
		c0.4,0.8,0.6,1.8,0.6,2.9v0.5H473.7z M471,28.3c0-1.1-0.2-2-0.6-2.6s-0.9-0.9-1.6-0.9c-1.4,0-2.1,1-2.2,3.1v0.8
		c0,1.1,0.2,2,0.6,2.6s0.9,0.9,1.6,0.9s1.2-0.3,1.6-0.9s0.6-1.4,0.6-2.5V28.3z"/>
	<path class="st0" d="M484.7,32.1h-3.8l-0.7,2.1h-2.9l4.2-11.4h2.6l4.2,11.4h-2.9L484.7,32.1z M481.6,29.9h2.4l-1.2-3.9L481.6,29.9z
		"/>
	<path class="st0" d="M502.2,30.3v3.9h-2.7V22.8h4.5c0.9,0,1.6,0.2,2.3,0.5s1.2,0.8,1.6,1.4s0.6,1.3,0.6,2c0,1.1-0.4,2-1.2,2.7
		s-1.9,1-3.3,1h-1.8V30.3z M502.2,28.2h1.8c0.5,0,0.9-0.1,1.2-0.4s0.4-0.6,0.4-1.1s-0.1-1-0.4-1.3s-0.7-0.5-1.2-0.5h-1.8V28.2z"/>
	<path class="st0" d="M511.4,31.6c0.4,0,0.8,0.1,1,0.4s0.4,0.6,0.4,0.9s-0.1,0.7-0.4,0.9s-0.6,0.4-1,0.4s-0.8-0.1-1-0.4
		S510,33.3,510,33s0.1-0.7,0.4-0.9S511,31.6,511.4,31.6z"/>
	<path class="st0" d="M527.2,30.3c0,0.8-0.2,1.5-0.6,2.1s-0.9,1.1-1.6,1.4s-1.5,0.5-2.4,0.5c-1.5,0-2.7-0.5-3.5-1.5
		s-1.3-2.3-1.3-4.1v-0.6c0-1.1,0.2-2.1,0.6-2.9s0.9-1.5,1.7-1.9c0.7-0.5,1.6-0.7,2.5-0.7c1.4,0,2.5,0.4,3.3,1.1s1.3,1.7,1.4,3h-2.7
		c0-0.7-0.2-1.2-0.5-1.5s-0.8-0.5-1.5-0.5s-1.2,0.3-1.5,0.8s-0.5,1.3-0.5,2.4v0.8c0,1.2,0.2,2.1,0.5,2.6s0.8,0.8,1.6,0.8
		c0.6,0,1.1-0.1,1.4-0.4s0.5-0.8,0.5-1.4H527.2z"/>
	<path class="st0" d="M533.2,31.6c0.4,0,0.8,0.1,1,0.4s0.4,0.6,0.4,0.9s-0.1,0.7-0.4,0.9s-0.6,0.4-1,0.4s-0.8-0.1-1-0.4
		s-0.4-0.6-0.4-0.9s0.1-0.7,0.4-0.9S532.8,31.6,533.2,31.6z"/>
</g>
<g class="st1">
	<path class="st2" d="M4.7,34.4c-1.9-2.1-2.8-5.1-2.8-8.9h6.2c0,1.8,0.4,3.2,1.2,4.2c0.8,1,1.9,1.5,3.4,1.5h5.1c1.3,0,2.4-0.3,3.3-1
		c0.8-0.6,1.3-1.5,1.3-2.6V26c0-1.7-1.1-2.8-3.3-3.2l-8.4-1.6c-2.7-0.5-4.8-1.5-6.2-3s-2.1-3.4-2.1-5.6v-3c0-1.8,0.4-3.5,1.3-4.9
		s2.1-2.5,3.7-3.2C9,0.7,10.8,0.4,13,0.4h5.2c2,0,3.7,0.5,5.3,1.4S26.2,4,27,5.7s1.3,3.6,1.3,5.8h-6.2c0-1.5-0.4-2.6-1.1-3.5
		s-1.6-1.3-2.8-1.3H13c-1.3,0-2.3,0.3-3.1,0.9c-0.8,0.6-1.2,1.5-1.2,2.5v1.4c0,1.7,1.1,2.8,3.2,3.2l8.4,1.7c2.8,0.6,4.9,1.5,6.4,2.9
		s2.2,3.2,2.2,5.4v3.4c0,1.8-0.4,3.5-1.3,4.9s-2.2,2.5-3.8,3.3c-1.6,0.8-3.5,1.2-5.6,1.2h-5.3C9.2,37.6,6.6,36.6,4.7,34.4z"/>
	<path class="st2" d="M44.4,0.8h16.9c1.9,0,3.5,0.4,4.9,1.2s2.5,2,3.3,3.5s1.2,3.2,1.2,5.2v4.8c0,2-0.4,3.8-1.2,5.3
		c-0.8,1.5-2,2.7-3.4,3.6c-1.5,0.9-3.2,1.3-5.1,1.3H50.7v11.5h-6.3V0.8z M60.8,19.5c1.1,0,1.9-0.4,2.6-1.2c0.7-0.8,1-1.8,1-3.1V11
		c0-1.2-0.3-2.2-0.9-2.9C62.9,7.4,62.1,7,61.1,7H50.7v12.4h10.1V19.5z"/>
	<path class="st2" d="M86.8,35.8c-0.8-0.9-1.2-2.1-1.2-3.5V0.8h15.9c2.9,0,5.2,0.8,7,2.3c1.8,1.6,2.6,3.7,2.6,6.3V12
		c0,1.1-0.3,2.2-0.8,3.3s-1.2,1.9-2.1,2.5v0.1c1.5,0.6,2.6,1.5,3.5,2.9c0.9,1.3,1.3,2.8,1.3,4.4v2.7c0,2.8-0.9,5.1-2.7,6.8
		c-1.8,1.7-4.3,2.5-7.3,2.5H90C88.7,37.2,87.6,36.7,86.8,35.8z M101.5,15.9c1,0,1.8-0.4,2.4-1.1c0.6-0.7,0.9-1.7,0.9-2.8v-1.8
		c0-1-0.3-1.7-1-2.3c-0.6-0.6-1.5-0.9-2.6-0.9h-9.4v8.8h9.7V15.9z M102.6,31c1.3,0,2.4-0.3,3.1-0.9s1.1-1.5,1.1-2.6v-2.3
		c0-1-0.3-1.8-1-2.4s-1.5-0.9-2.6-0.9H91.9V31H102.6z"/>
	<path class="st2" d="M128.5,0.8h5.6l10.5,21.6l10.2-21.6h5.6v36.4h-6.2v-23L147.6,28c-0.5,0.9-0.9,1.6-1.4,2s-1,0.6-1.6,0.6h-1.7
		l-8.1-16.4v23h-6.2V0.8H128.5z"/>
	<path class="st2" d="M182.2,35.9c-1.8-1.1-3.2-2.8-4.1-4.9c-1-2.1-1.5-4.5-1.5-7.3v-9.6c0-2.7,0.5-5.2,1.5-7.3s2.4-3.7,4.2-4.9
		c1.8-1.1,3.9-1.7,6.3-1.7h4.8c2.3,0,4.3,0.6,6,1.7s3.1,2.7,4,4.7c1,2,1.4,4.3,1.4,6.9h-6.2c0-2.1-0.5-3.8-1.5-5
		c-1-1.3-2.3-1.9-3.8-1.9h-4.8c-1.7,0-3.1,0.7-4.1,2.2c-1,1.4-1.6,3.3-1.6,5.6v8.9c0,2.3,0.5,4.2,1.5,5.6s2.3,2.2,4,2.2h4.9
		c1.6,0,2.9-0.7,4-2.1c1-1.4,1.5-3.3,1.5-5.6h6.2c0,2.8-0.5,5.3-1.5,7.4s-2.3,3.8-4.1,4.9c-1.8,1.2-3.8,1.7-6.1,1.7h-4.9
		C186.1,37.6,184,37,182.2,35.9z"/>
</g>
</svg>
