<?xml version="1.0" encoding="utf-8"?>
<!-- Generator: Adobe Illustrator 23.0.1, SVG Export Plug-In . SVG Version: 6.00 Build 0)  -->
<svg version="1.1" id="Layer_1" xmlns="http://www.w3.org/2000/svg" xmlns:xlink="http://www.w3.org/1999/xlink" x="0px" y="0px"
	 width="298px" height="94.8px" viewBox="0 0 298 94.8" style="enable-background:new 0 0 298 94.8;" xml:space="preserve">
<style type="text/css">
	.st0{fill:#E5C18F;}
	.st1{enable-background:new    ;}
	.st2{fill:#FFFFFF;}
</style>
<g>
	<path class="st0" d="M16.2,69c0-0.4-0.1-0.7-0.4-0.9c-0.3-0.2-0.8-0.5-1.5-0.7c-0.7-0.2-1.3-0.5-1.8-0.7c-1.5-0.7-2.2-1.7-2.2-3
		c0-0.6,0.2-1.2,0.6-1.7c0.4-0.5,0.9-0.9,1.6-1.1c0.7-0.3,1.4-0.4,2.3-0.4c0.8,0,1.6,0.1,2.2,0.4c0.6,0.3,1.2,0.7,1.5,1.2
		c0.3,0.5,0.5,1.2,0.5,1.8h-2.7c0-0.5-0.1-0.8-0.4-1.1c-0.3-0.3-0.7-0.4-1.2-0.4s-0.9,0.1-1.2,0.3s-0.4,0.5-0.4,0.8s0.2,0.6,0.5,0.8
		c0.3,0.2,0.9,0.5,1.6,0.7c0.8,0.3,1.4,0.5,1.9,0.8c1.2,0.7,1.8,1.7,1.8,2.9c0,1-0.4,1.8-1.1,2.3c-0.8,0.6-1.8,0.9-3.1,0.9
		c-0.9,0-1.8-0.2-2.5-0.5c-0.7-0.3-1.3-0.8-1.7-1.4s-0.6-1.2-0.6-2h2.8c0,0.6,0.2,1.1,0.5,1.3c0.3,0.3,0.8,0.4,1.5,0.4
		c0.5,0,0.8-0.1,1.1-0.3C16,69.6,16.2,69.3,16.2,69z"/>
	<path class="st0" d="M32.5,60.6V68c0,0.8-0.2,1.6-0.5,2.2c-0.3,0.6-0.9,1.1-1.5,1.4c-0.7,0.3-1.5,0.5-2.4,0.5
		c-1.4,0-2.5-0.4-3.3-1.1c-0.8-0.7-1.2-1.7-1.2-3v-7.4h2.8v7.6c0,1.2,0.6,1.9,1.7,1.9c0.6,0,1-0.2,1.3-0.5s0.4-0.8,0.4-1.5v-7.5
		H32.5z"/>
	<path class="st0" d="M40.1,69.9h4.8V72h-7.5V60.6h2.7V69.9z"/>
	<path class="st0" d="M52,69.9h4.8V72h-7.5V60.6H52V69.9z"/>
	<path class="st0" d="M64,72h-2.7V60.6H64V72z"/>
	<path class="st0" d="M73.5,68.9l2.3-8.3h3.1L75.1,72h-3l-3.8-11.4h3L73.5,68.9z"/>
	<path class="st0" d="M88.8,69.9H85L84.3,72h-2.9l4.2-11.4h2.6L92.4,72h-2.9L88.8,69.9z M85.7,67.7h2.4l-1.2-3.9L85.7,67.7z"/>
	<path class="st0" d="M105.9,72h-2.7l-4-7.1V72h-2.7V60.6h2.7l4,7.1v-7.1h2.7V72z"/>
	<path class="st0" d="M128,68.1V72h-2.7V60.6h4.5c0.9,0,1.6,0.2,2.3,0.5s1.2,0.8,1.6,1.4c0.4,0.6,0.6,1.3,0.6,2c0,1.1-0.4,2-1.2,2.7
		c-0.8,0.7-1.9,1-3.3,1L128,68.1L128,68.1z M128,66h1.8c0.5,0,0.9-0.1,1.2-0.4c0.3-0.3,0.4-0.6,0.4-1.1s-0.1-1-0.4-1.3
		c-0.3-0.3-0.7-0.5-1.2-0.5H128V66z"/>
	<path class="st0" d="M143.9,69.9h-3.8l-0.7,2.1h-2.9l4.2-11.4h2.6l4.2,11.4h-2.9L143.9,69.9z M140.8,67.7h2.4l-1.2-3.9L140.8,67.7z
		"/>
	<path class="st0" d="M154.3,68.1V72h-2.7V60.6h4.5c0.9,0,1.6,0.2,2.3,0.5s1.2,0.8,1.6,1.4c0.4,0.6,0.6,1.3,0.6,2
		c0,1.1-0.4,2-1.2,2.7c-0.8,0.7-1.9,1-3.3,1L154.3,68.1L154.3,68.1z M154.3,66h1.8c0.5,0,0.9-0.1,1.2-0.4c0.3-0.3,0.4-0.6,0.4-1.1
		s-0.1-1-0.4-1.3c-0.3-0.3-0.7-0.5-1.2-0.5h-1.8V66z"/>
	<path class="st0" d="M170.2,69.9h-3.8l-0.7,2.1h-2.9l4.3-11.4h2.6l4.2,11.4H171L170.2,69.9z M167.1,67.7h2.4l-1.2-3.9L167.1,67.7z"
		/>
	<path class="st0" d="M180.8,72h-2.7V60.6h2.7V72z"/>
	<path class="st0" d="M195.4,72h-2.7l-4-7.1V72H186V60.6h2.7l4,7.1v-7.1h2.7V72z"/>
	<path class="st0" d="M214.7,72V60.6h4.1c1.5,0,2.6,0.3,3.3,0.8c0.8,0.5,1.1,1.3,1.1,2.3c0,0.6-0.1,1.1-0.4,1.5s-0.7,0.7-1.2,0.9
		c0.6,0.2,1,0.4,1.4,0.9c0.3,0.4,0.5,0.9,0.5,1.6c0,1.1-0.4,2-1.1,2.5c-0.7,0.6-1.8,0.8-3.1,0.9C219.3,72,214.7,72,214.7,72z
		 M217.4,65.4h1.4c0.6,0,1-0.1,1.3-0.3s0.4-0.5,0.4-0.9c0-0.5-0.1-0.8-0.4-1c-0.3-0.2-0.7-0.3-1.3-0.3h-1.3v2.5H217.4z M217.4,67.2
		v2.7h1.8c0.5,0,0.9-0.1,1.1-0.3s0.4-0.5,0.4-1c0-0.9-0.5-1.4-1.4-1.4H217.4z"/>
	<path class="st0" d="M231,69.9h4.8V72h-7.5V60.6h2.7V69.9z"/>
	<path class="st0" d="M249.2,66.5c0,1.1-0.2,2.1-0.6,2.9c-0.4,0.9-1,1.5-1.8,2s-1.6,0.7-2.6,0.7s-1.8-0.2-2.6-0.7s-1.3-1.1-1.8-1.9
		c-0.5-0.8-0.6-1.8-0.7-2.9v-0.5c0-1.1,0.2-2.1,0.6-2.9c0.4-0.8,1-1.5,1.8-2s1.6-0.7,2.6-0.7s1.8,0.2,2.6,0.7c0.8,0.5,1.3,1.1,1.8,2
		c0.4,0.8,0.6,1.8,0.6,2.9v0.4H249.2z M246.4,66.1c0-1.1-0.2-2-0.6-2.6c-0.4-0.6-0.9-0.9-1.6-0.9c-1.4,0-2.1,1-2.2,3.1v0.8
		c0,1.1,0.2,2,0.6,2.6s0.9,0.9,1.6,0.9s1.2-0.3,1.6-0.9s0.6-1.4,0.6-2.5V66.1z"/>
	<path class="st0" d="M263,68.1c0,0.8-0.2,1.5-0.6,2.1s-0.9,1.1-1.6,1.4s-1.5,0.5-2.4,0.5c-1.5,0-2.7-0.5-3.5-1.5
		c-0.9-1-1.3-2.3-1.3-4.1V66c0-1.1,0.2-2.1,0.6-2.9s0.9-1.5,1.7-1.9c0.7-0.5,1.6-0.7,2.5-0.7c1.4,0,2.5,0.4,3.3,1.1s1.3,1.7,1.4,3
		h-2.7c0-0.7-0.2-1.2-0.5-1.5s-0.8-0.5-1.5-0.5s-1.2,0.3-1.5,0.8s-0.5,1.3-0.5,2.4v0.8c0,1.2,0.2,2.1,0.5,2.6s0.8,0.8,1.6,0.8
		c0.6,0,1.1-0.1,1.4-0.4c0.3-0.3,0.5-0.8,0.5-1.4L263,68.1L263,68.1z"/>
	<path class="st0" d="M271.4,67.8l-1.1,1.2v3h-2.7V60.6h2.7v5l1-1.4l2.5-3.6h3.4l-3.8,5l3.8,6.3H274L271.4,67.8z"/>
	<path class="st0" d="M4.9,79.6l2.5,7.9l2.5-7.9h3.6V91h-2.8v-2.7l0.3-5.4L8.2,91H6.4l-2.8-8.1l0.3,5.4V91H1.2V79.6H4.9z"/>
	<path class="st0" d="M27.7,87.1c0,0.8-0.2,1.5-0.6,2.1s-0.9,1.1-1.6,1.4c-0.7,0.3-1.5,0.5-2.4,0.5c-1.5,0-2.7-0.5-3.5-1.5
		s-1.3-2.3-1.3-4.1v-0.6c0-1.1,0.2-2.1,0.6-2.9c0.4-0.8,0.9-1.5,1.7-1.9c0.7-0.5,1.6-0.7,2.5-0.7c1.4,0,2.5,0.4,3.3,1.1
		c0.8,0.7,1.3,1.7,1.4,3h-2.7c0-0.7-0.2-1.2-0.5-1.5c-0.3-0.3-0.8-0.5-1.5-0.5s-1.2,0.3-1.5,0.8s-0.5,1.3-0.5,2.4v0.8
		c0,1.2,0.2,2.1,0.5,2.6s0.8,0.8,1.6,0.8c0.6,0,1.1-0.1,1.4-0.4c0.3-0.3,0.5-0.8,0.5-1.4H27.7z"/>
	<path class="st0" d="M41.6,89.6c-0.4,0.5-1,0.8-1.9,1.1C38.8,91,38,91.1,37,91.1c-1.5,0-2.7-0.5-3.6-1.4S32,87.5,32,85.9v-1
		c0-1.1,0.2-2.1,0.6-2.9c0.4-0.8,1-1.5,1.7-1.9c0.7-0.5,1.6-0.7,2.6-0.7c1.4,0,2.5,0.3,3.3,1c0.8,0.6,1.2,1.6,1.4,2.9H39
		c-0.1-0.6-0.3-1.1-0.6-1.4c-0.3-0.3-0.8-0.4-1.3-0.4c-0.7,0-1.2,0.3-1.6,0.9c-0.4,0.6-0.6,1.4-0.6,2.5v0.7c0,1.1,0.2,2,0.6,2.6
		s1,0.9,1.8,0.9c0.7,0,1.2-0.2,1.6-0.5v-1.8H37v-1.9h4.6V89.6z"/>
	<path class="st0" d="M50.6,87h-1.5v4h-2.7V79.6h4.5c1.3,0,2.4,0.3,3.2,0.9c0.8,0.6,1.1,1.4,1.1,2.5c0,0.8-0.2,1.4-0.5,2
		c-0.3,0.6-0.8,0.9-1.5,1.3l2.4,4.6V91h-2.9L50.6,87z M49.1,84.9h1.7c0.5,0,0.9-0.1,1.2-0.4c0.3-0.3,0.4-0.7,0.4-1.1
		c0-0.4-0.1-0.9-0.4-1.2s-0.7-0.4-1.2-0.4h-1.7V84.9z"/>
	<path class="st0" d="M66.4,88.9h-3.8L61.9,91h-2.8l4.2-11.4h2.6L70.1,91h-3L66.4,88.9z M63.3,86.7h2.4l-1.2-3.9L63.3,86.7z"/>
	<path class="st0" d="M82.1,81.7h-3.4V91H76v-9.3h-3.4v-2.1h9.5V81.7z"/>
	<path class="st0" d="M95.4,87.1c0,0.8-0.2,1.5-0.6,2.1s-0.9,1.1-1.6,1.4s-1.5,0.5-2.4,0.5c-1.5,0-2.7-0.5-3.5-1.5S86,87.3,86,85.5
		v-0.6c0-1.1,0.2-2.1,0.6-2.9c0.4-0.8,0.9-1.5,1.7-1.9c0.7-0.5,1.6-0.7,2.5-0.7c1.4,0,2.5,0.4,3.3,1.1c0.8,0.7,1.3,1.7,1.4,3h-2.7
		c0-0.7-0.2-1.2-0.5-1.5c-0.3-0.3-0.8-0.5-1.5-0.5s-1.2,0.3-1.5,0.8s-0.5,1.3-0.5,2.4v0.8c0,1.2,0.2,2.1,0.5,2.6s0.8,0.8,1.6,0.8
		c0.6,0,1.1-0.1,1.4-0.4c0.3-0.3,0.5-0.8,0.5-1.4H95.4z"/>
	<path class="st0" d="M109.4,91h-2.7v-4.8h-4V91H100V79.6h2.7v4.5h4v-4.5h2.7V91z"/>
	<path class="st0" d="M127.5,84.5h2.7v2.3h-2.7v3.1H125v-3.1h-2.7v-2.3h2.7v-3h2.5V84.5z"/>
	<path class="st0" d="M151.4,87.1c0,0.8-0.2,1.5-0.6,2.1s-0.9,1.1-1.6,1.4s-1.5,0.5-2.4,0.5c-1.5,0-2.7-0.5-3.5-1.5
		s-1.3-2.3-1.3-4.1v-0.6c0-1.1,0.2-2.1,0.6-2.9c0.4-0.8,0.9-1.5,1.7-1.9c0.7-0.5,1.6-0.7,2.5-0.7c1.4,0,2.5,0.4,3.3,1.1
		c0.8,0.7,1.3,1.7,1.4,3h-2.7c0-0.7-0.2-1.2-0.5-1.5c-0.3-0.3-0.8-0.5-1.5-0.5s-1.2,0.3-1.5,0.8s-0.5,1.3-0.5,2.4v0.8
		c0,1.2,0.2,2.1,0.5,2.6s0.8,0.8,1.6,0.8c0.6,0,1.1-0.1,1.4-0.4c0.3-0.3,0.5-0.8,0.5-1.4H151.4z"/>
	<path class="st0" d="M162.4,88.9h-3.8l-0.7,2.1h-2.8l4.2-11.4h2.6l4.2,11.4h-3L162.4,88.9z M159.3,86.7h2.4l-1.2-3.9L159.3,86.7z"
		/>
	<path class="st0" d="M179.5,91h-2.7l-4-7.1V91h-2.7V79.6h2.7l4,7.1v-7.1h2.7L179.5,91L179.5,91z"/>
	<path class="st0" d="M194,91h-2.7l-4-7.1V91h-2.7V79.6h2.7l4,7.1v-7.1h2.7V91z"/>
	<path class="st0" d="M205.5,88.9h-3.8L201,91h-2.9l4.2-11.4h2.6l4.2,11.4h-2.9L205.5,88.9z M202.4,86.7h2.4l-1.2-3.9L202.4,86.7z"
		/>
	<path class="st0" d="M217,87.9l2.3-8.3h3.1L218.6,91h-3l-3.8-11.4h3L217,87.9z"/>
	<path class="st0" d="M235.8,85.5c0,1.1-0.2,2.1-0.6,2.9c-0.4,0.8-1,1.5-1.8,2s-1.6,0.7-2.6,0.7s-1.8-0.2-2.6-0.7s-1.3-1.1-1.8-1.9
		c-0.5-0.8-0.6-1.8-0.7-2.9V85c0-1.1,0.2-2.1,0.6-2.9c0.4-0.8,1-1.5,1.8-2s1.6-0.7,2.6-0.7s1.8,0.2,2.6,0.7c0.8,0.5,1.3,1.1,1.8,2
		c0.4,0.8,0.6,1.8,0.6,2.9v0.5C235.7,85.5,235.8,85.5,235.8,85.5z M233.1,85.1c0-1.1-0.2-2-0.6-2.6c-0.4-0.6-0.9-0.9-1.6-0.9
		c-1.4,0-2.1,1-2.2,3.1v0.8c0,1.1,0.2,2,0.6,2.6s0.9,0.9,1.6,0.9s1.2-0.3,1.6-0.9s0.6-1.4,0.6-2.5V85.1z"/>
	<path class="st0" d="M246.8,88.9H243l-0.7,2.1h-2.9l4.2-11.4h2.6l4.2,11.4h-2.9L246.8,88.9z M243.7,86.7h2.4l-1.2-3.9L243.7,86.7z"
		/>
	<path class="st0" d="M264.3,87.1V91h-2.7V79.6h4.5c0.9,0,1.6,0.2,2.3,0.5c0.7,0.3,1.2,0.8,1.6,1.4c0.4,0.6,0.6,1.3,0.6,2
		c0,1.1-0.4,2-1.2,2.7c-0.8,0.7-1.9,1-3.3,1L264.3,87.1L264.3,87.1z M264.3,85h1.8c0.5,0,0.9-0.1,1.2-0.4c0.3-0.3,0.4-0.6,0.4-1.1
		s-0.1-1-0.4-1.3c-0.3-0.3-0.7-0.5-1.2-0.5h-1.8V85z"/>
	<path class="st0" d="M273.5,88.4c0.4,0,0.8,0.1,1,0.4c0.2,0.3,0.4,0.6,0.4,0.9s-0.1,0.7-0.4,0.9c-0.3,0.2-0.6,0.4-1,0.4
		s-0.8-0.1-1-0.4s-0.4-0.5-0.4-0.8c0-0.3,0.1-0.7,0.4-0.9C272.8,88.7,273.1,88.4,273.5,88.4z"/>
	<path class="st0" d="M289.3,87.1c0,0.8-0.2,1.5-0.6,2.1s-0.9,1.1-1.6,1.4s-1.5,0.5-2.4,0.5c-1.5,0-2.7-0.5-3.5-1.5
		s-1.3-2.3-1.3-4.1v-0.6c0-1.1,0.2-2.1,0.6-2.9c0.4-0.8,0.9-1.5,1.7-1.9c0.7-0.5,1.6-0.7,2.5-0.7c1.4,0,2.5,0.4,3.3,1.1
		c0.8,0.7,1.3,1.7,1.4,3h-2.7c0-0.7-0.2-1.2-0.5-1.5c-0.3-0.3-0.8-0.5-1.5-0.5s-1.2,0.3-1.5,0.8s-0.5,1.3-0.5,2.4v0.8
		c0,1.2,0.2,2.1,0.5,2.6s0.8,0.8,1.6,0.8c0.6,0,1.1-0.1,1.4-0.4c0.3-0.3,0.5-0.8,0.5-1.4H289.3z"/>
	<path class="st0" d="M295.3,88.4c0.4,0,0.8,0.1,1,0.4c0.2,0.3,0.4,0.6,0.4,0.9s-0.1,0.7-0.4,0.9c-0.3,0.2-0.6,0.4-1,0.4
		s-0.8-0.1-1-0.4s-0.4-0.6-0.4-0.9s0.1-0.7,0.4-0.9C294.6,88.6,294.9,88.4,295.3,88.4z"/>
</g>
<g class="st1">
	<path class="st2" d="M45.3,36.8c-1.9-2.1-2.8-5.1-2.8-8.9h6.2c0,1.8,0.4,3.2,1.2,4.2c0.8,1,1.9,1.5,3.4,1.5h5.1
		c1.3,0,2.4-0.3,3.3-1C62.5,32,63,31.1,63,30v-1.6c0-1.7-1.1-2.8-3.3-3.2l-8.4-1.6c-2.7-0.5-4.8-1.5-6.2-3C43.7,19.1,43,17.2,43,15
		v-3c0-1.8,0.4-3.5,1.3-4.9c0.9-1.4,2.1-2.5,3.7-3.2c1.6-0.8,3.4-1.1,5.6-1.1h5.2c2,0,3.7,0.5,5.3,1.4c1.6,0.9,2.7,2.2,3.5,3.9
		c0.8,1.7,1.3,3.6,1.3,5.8h-6.2c0-1.5-0.4-2.6-1.1-3.5S60,9.1,58.8,9.1h-5.2c-1.3,0-2.3,0.3-3.1,0.9c-0.8,0.6-1.2,1.5-1.2,2.5v1.4
		c0,1.7,1.1,2.8,3.2,3.2l8.4,1.7c2.8,0.6,4.9,1.5,6.4,2.9s2.2,3.2,2.2,5.4v3.4c0,1.8-0.4,3.5-1.3,4.9c-0.9,1.4-2.2,2.5-3.8,3.3
		s-3.5,1.2-5.6,1.2h-5.3C49.8,40,47.2,39,45.3,36.8z"/>
	<path class="st2" d="M85,3.2h16.9c1.9,0,3.5,0.4,4.9,1.2s2.5,2,3.3,3.5s1.2,3.2,1.2,5.2v4.8c0,2-0.4,3.8-1.2,5.3
		c-0.8,1.5-2,2.7-3.4,3.6c-1.5,0.9-3.2,1.3-5.1,1.3H91.3v11.5H85V3.2z M101.4,21.9c1.1,0,1.9-0.4,2.6-1.2c0.7-0.8,1-1.8,1-3.1v-4.2
		c0-1.2-0.3-2.2-0.9-2.9c-0.6-0.7-1.4-1.1-2.4-1.1H91.3v12.4h10.1C101.4,21.8,101.4,21.9,101.4,21.9z"/>
	<path class="st2" d="M127.4,38.2c-0.8-0.9-1.2-2.1-1.2-3.5V3.2h15.9c2.9,0,5.2,0.8,7,2.3c1.8,1.6,2.6,3.7,2.6,6.3v2.6
		c0,1.1-0.3,2.2-0.8,3.3c-0.5,1.1-1.2,1.9-2.1,2.5v0.1c1.5,0.6,2.6,1.5,3.5,2.9c0.9,1.3,1.3,2.8,1.3,4.4v2.7c0,2.8-0.9,5.1-2.7,6.8
		c-1.8,1.7-4.3,2.5-7.3,2.5h-13C129.3,39.6,128.2,39.1,127.4,38.2z M142.1,18.3c1,0,1.8-0.4,2.4-1.1c0.6-0.7,0.9-1.7,0.9-2.8v-1.8
		c0-1-0.3-1.7-1-2.3c-0.6-0.6-1.5-0.9-2.6-0.9h-9.4v8.8h9.7V18.3z M143.2,33.4c1.3,0,2.4-0.3,3.1-0.9c0.7-0.6,1.1-1.5,1.1-2.6v-2.3
		c0-1-0.3-1.8-1-2.4s-1.5-0.9-2.6-0.9h-11.3v9.1H143.2z"/>
	<path class="st2" d="M169.1,3.2h5.6l10.5,21.6l10.2-21.6h5.6v36.4h-6.2v-23l-6.6,13.8c-0.5,0.9-0.9,1.6-1.4,2
		c-0.5,0.4-1,0.6-1.6,0.6h-1.7l-8.1-16.4v23h-6.2V3.2H169.1z"/>
	<path class="st2" d="M222.8,38.3c-1.8-1.1-3.2-2.8-4.1-4.9c-1-2.1-1.5-4.5-1.5-7.3v-9.6c0-2.7,0.5-5.2,1.5-7.3s2.4-3.7,4.2-4.9
		c1.8-1.1,3.9-1.7,6.3-1.7h4.8c2.3,0,4.3,0.6,6,1.7s3.1,2.7,4,4.7c1,2,1.4,4.3,1.4,6.9h-6.2c0-2.1-0.5-3.8-1.5-5
		c-1-1.3-2.3-1.9-3.8-1.9h-4.8c-1.7,0-3.1,0.7-4.1,2.2c-1,1.4-1.6,3.3-1.6,5.6v8.9c0,2.3,0.5,4.2,1.5,5.6s2.3,2.2,4,2.2h4.9
		c1.6,0,2.9-0.7,4-2.1c1-1.4,1.5-3.3,1.5-5.6h6.2c0,2.8-0.5,5.3-1.5,7.4s-2.3,3.8-4.1,4.9c-1.8,1.2-3.8,1.7-6.1,1.7h-4.9
		C226.7,40,224.6,39.4,222.8,38.3z"/>
</g>
</svg>
