<?xml version="1.0" encoding="utf-8"?>
<!-- Generator: Adobe Illustrator 23.0.1, SVG Export Plug-In . SVG Version: 6.00 Build 0)  -->
<svg version="1.1" id="Layer_1" xmlns="http://www.w3.org/2000/svg" xmlns:xlink="http://www.w3.org/1999/xlink" x="0px" y="0px"
	 width="399.8px" height="51px" viewBox="0 0 399.8 51" style="enable-background:new 0 0 399.8 51;" xml:space="preserve">
<style type="text/css">
	.st0{fill:#1372F3;}
	.st1{enable-background:new    ;}
</style>
<g>
	<path class="st0" d="M231.9,7.7c0-0.3-0.1-0.6-0.3-0.8c-0.2-0.2-0.6-0.4-1.2-0.6c-0.6-0.2-1.1-0.4-1.4-0.6
		c-1.2-0.6-1.8-1.4-1.8-2.4c0-0.5,0.1-1,0.4-1.4c0.3-0.4,0.7-0.7,1.3-0.9s1.2-0.3,1.8-0.3c0.7,0,1.3,0.1,1.8,0.4
		c0.5,0.2,0.9,0.6,1.2,1c0.3,0.4,0.4,0.9,0.4,1.5h-2.2c0-0.4-0.1-0.7-0.3-0.9c-0.2-0.2-0.5-0.3-0.9-0.3c-0.4,0-0.7,0.1-0.9,0.3
		c-0.2,0.2-0.3,0.4-0.3,0.7c0,0.2,0.1,0.5,0.4,0.6s0.7,0.4,1.3,0.6s1.2,0.4,1.6,0.7c1,0.6,1.5,1.4,1.5,2.4c0,0.8-0.3,1.4-0.9,1.9
		c-0.6,0.5-1.4,0.7-2.5,0.7c-0.7,0-1.4-0.1-2-0.4c-0.6-0.3-1.1-0.6-1.4-1.1c-0.3-0.5-0.5-1-0.5-1.6h2.2c0,0.5,0.1,0.9,0.4,1.1
		c0.3,0.2,0.7,0.4,1.2,0.4c0.4,0,0.7-0.1,0.9-0.2C231.8,8.2,231.9,8,231.9,7.7z"/>
	<path class="st0" d="M245.1,0.9v6c0,0.7-0.1,1.3-0.4,1.8c-0.3,0.5-0.7,0.9-1.3,1.1c-0.5,0.3-1.2,0.4-1.9,0.4c-1.1,0-2-0.3-2.7-0.9
		s-1-1.4-1-2.4V0.9h2.2V7c0,1,0.5,1.5,1.4,1.5c0.5,0,0.8-0.1,1-0.4c0.2-0.3,0.4-0.7,0.4-1.2v-6H245.1z"/>
	<path class="st0" d="M251.3,8.4h3.9v1.7h-6.1V0.9h2.2V8.4z"/>
	<path class="st0" d="M261,8.4h3.9v1.7h-6.1V0.9h2.2V8.4z"/>
	<path class="st0" d="M270.8,10.1h-2.2V0.9h2.2V10.1z"/>
	<path class="st0" d="M278.5,7.6l1.8-6.7h2.5l-3.1,9.2h-2.4l-3.1-9.2h2.5L278.5,7.6z"/>
	<path class="st0" d="M290.9,8.4h-3.1l-0.5,1.7h-2.4l3.4-9.2h2.1l3.4,9.2h-2.4L290.9,8.4z M288.4,6.7h2l-1-3.2L288.4,6.7z"/>
	<path class="st0" d="M304.8,10.1h-2.2l-3.3-5.8v5.8h-2.2V0.9h2.2l3.3,5.8V0.9h2.2V10.1z"/>
	<path class="st0" d="M322.7,7v3.1h-2.2V0.9h3.7c0.7,0,1.3,0.1,1.9,0.4c0.5,0.3,1,0.6,1.3,1.1c0.3,0.5,0.4,1,0.4,1.6
		c0,0.9-0.3,1.6-1,2.2c-0.6,0.5-1.5,0.8-2.7,0.8H322.7z M322.7,5.3h1.5c0.4,0,0.8-0.1,1-0.3s0.3-0.5,0.3-0.9c0-0.4-0.1-0.8-0.3-1
		c-0.2-0.3-0.5-0.4-1-0.4h-1.5V5.3z"/>
	<path class="st0" d="M335.7,8.4h-3.1l-0.5,1.7h-2.4l3.4-9.2h2.1l3.4,9.2h-2.4L335.7,8.4z M333.2,6.7h2l-1-3.2L333.2,6.7z"/>
	<path class="st0" d="M344.1,7v3.1h-2.2V0.9h3.7c0.7,0,1.3,0.1,1.9,0.4c0.5,0.3,1,0.6,1.3,1.1c0.3,0.5,0.4,1,0.4,1.6
		c0,0.9-0.3,1.6-1,2.2c-0.6,0.5-1.5,0.8-2.7,0.8H344.1z M344.1,5.3h1.5c0.4,0,0.8-0.1,1-0.3s0.3-0.5,0.3-0.9c0-0.4-0.1-0.8-0.3-1
		c-0.2-0.3-0.5-0.4-1-0.4h-1.5V5.3z"/>
	<path class="st0" d="M357.1,8.4H354l-0.5,1.7h-2.4l3.4-9.2h2.1l3.4,9.2h-2.4L357.1,8.4z M354.5,6.7h2l-1-3.2L354.5,6.7z"/>
	<path class="st0" d="M365.6,10.1h-2.2V0.9h2.2V10.1z"/>
	<path class="st0" d="M377.5,10.1h-2.2L372,4.4v5.8h-2.2V0.9h2.2l3.3,5.8V0.9h2.2V10.1z"/>
	<path class="st0" d="M227.1,30.1v-9.2h3.3c1.2,0,2.1,0.2,2.7,0.7c0.6,0.4,0.9,1.1,0.9,1.9c0,0.5-0.1,0.9-0.3,1.2
		c-0.2,0.3-0.5,0.6-1,0.7c0.5,0.1,0.9,0.4,1.1,0.7c0.3,0.3,0.4,0.8,0.4,1.3c0,0.9-0.3,1.6-0.9,2c-0.6,0.5-1.4,0.7-2.5,0.7H227.1z
		 M229.4,24.7h1.2c0.5,0,0.8-0.1,1-0.3s0.3-0.4,0.3-0.8c0-0.4-0.1-0.7-0.3-0.8s-0.6-0.3-1.1-0.3h-1.1V24.7z M229.4,26.2v2.2h1.5
		c0.4,0,0.7-0.1,0.9-0.3c0.2-0.2,0.3-0.4,0.3-0.8c0-0.8-0.4-1.2-1.1-1.2H229.4z"/>
	<path class="st0" d="M240.3,28.4h3.9v1.7h-6.1v-9.2h2.2V28.4z"/>
	<path class="st0" d="M255.2,25.7c0,0.9-0.2,1.7-0.5,2.4c-0.3,0.7-0.8,1.2-1.4,1.6c-0.6,0.4-1.3,0.6-2.1,0.6s-1.5-0.2-2.1-0.5
		c-0.6-0.4-1.1-0.9-1.4-1.6c-0.3-0.7-0.5-1.4-0.5-2.3v-0.5c0-0.9,0.2-1.7,0.5-2.4c0.3-0.7,0.8-1.2,1.4-1.6c0.6-0.4,1.3-0.6,2.1-0.6
		c0.8,0,1.5,0.2,2.1,0.6c0.6,0.4,1.1,0.9,1.4,1.6c0.3,0.7,0.5,1.5,0.5,2.4V25.7z M252.9,25.3c0-0.9-0.2-1.6-0.5-2.1
		c-0.3-0.5-0.7-0.7-1.3-0.7c-1.1,0-1.7,0.8-1.8,2.5l0,0.7c0,0.9,0.2,1.6,0.5,2.1c0.3,0.5,0.7,0.7,1.3,0.7c0.6,0,1-0.2,1.3-0.7
		c0.3-0.5,0.5-1.2,0.5-2.1V25.3z"/>
	<path class="st0" d="M266.4,27c0,0.6-0.2,1.2-0.5,1.7s-0.8,0.9-1.3,1.1c-0.6,0.3-1.2,0.4-2,0.4c-1.2,0-2.2-0.4-2.9-1.2
		c-0.7-0.8-1-1.9-1-3.4v-0.5c0-0.9,0.2-1.7,0.5-2.4c0.3-0.7,0.8-1.2,1.4-1.6c0.6-0.4,1.3-0.6,2.1-0.6c1.1,0,2,0.3,2.7,0.9
		c0.7,0.6,1.1,1.4,1.2,2.4h-2.2c0-0.6-0.2-1-0.4-1.2s-0.7-0.4-1.2-0.4c-0.6,0-1,0.2-1.2,0.6c-0.3,0.4-0.4,1.1-0.4,2v0.7
		c0,1,0.1,1.7,0.4,2.1c0.2,0.4,0.7,0.6,1.3,0.6c0.5,0,0.9-0.1,1.2-0.4c0.3-0.2,0.4-0.6,0.4-1.1H266.4z"/>
	<path class="st0" d="M273.2,26.7l-0.9,1v2.4h-2.2v-9.2h2.2V25l0.8-1.2l2-2.9h2.8l-3.1,4.1l3.1,5.2h-2.6L273.2,26.7z"/>
	<path class="st0" d="M295.6,20.9l2.1,6.4l2.1-6.4h2.9v9.2h-2.2V28l0.2-4.4l-2.2,6.6h-1.5l-2.2-6.6l0.2,4.4v2.2h-2.2v-9.2H295.6z"/>
	<path class="st0" d="M314.1,27c0,0.6-0.2,1.2-0.5,1.7s-0.8,0.9-1.3,1.1s-1.2,0.4-2,0.4c-1.2,0-2.2-0.4-2.9-1.2
		c-0.7-0.8-1-1.9-1-3.4v-0.5c0-0.9,0.2-1.7,0.5-2.4c0.3-0.7,0.8-1.2,1.4-1.6s1.3-0.6,2.1-0.6c1.1,0,2,0.3,2.7,0.9
		c0.7,0.6,1.1,1.4,1.2,2.4h-2.2c0-0.6-0.2-1-0.4-1.2s-0.7-0.4-1.2-0.4c-0.6,0-1,0.2-1.2,0.6s-0.4,1.1-0.4,2v0.7c0,1,0.1,1.7,0.4,2.1
		c0.2,0.4,0.7,0.6,1.3,0.6c0.5,0,0.9-0.1,1.2-0.4c0.3-0.2,0.4-0.6,0.4-1.1H314.1z"/>
	<path class="st0" d="M325.3,29c-0.3,0.4-0.8,0.7-1.5,0.9c-0.7,0.2-1.4,0.3-2.2,0.3c-1.2,0-2.2-0.4-2.9-1.1
		c-0.7-0.7-1.1-1.8-1.2-3.1l0-0.8c0-0.9,0.2-1.7,0.5-2.4c0.3-0.7,0.8-1.2,1.4-1.6c0.6-0.4,1.3-0.5,2.1-0.5c1.2,0,2,0.3,2.7,0.8
		c0.6,0.5,1,1.3,1.1,2.4h-2.1c-0.1-0.5-0.2-0.9-0.5-1.1c-0.3-0.2-0.6-0.3-1.1-0.3c-0.6,0-1,0.2-1.3,0.7c-0.3,0.5-0.5,1.2-0.5,2v0.6
		c0,0.9,0.2,1.6,0.5,2.1c0.3,0.5,0.8,0.7,1.5,0.7c0.6,0,1-0.1,1.3-0.4v-1.4h-1.5v-1.5h3.8V29z"/>
	<path class="st0" d="M332.7,26.9h-1.2v3.3h-2.2v-9.2h3.6c1.1,0,2,0.2,2.6,0.7c0.6,0.5,0.9,1.2,0.9,2.1c0,0.6-0.1,1.2-0.4,1.6
		c-0.3,0.4-0.7,0.8-1.2,1l1.9,3.7v0.1h-2.4L332.7,26.9z M331.5,25.1h1.4c0.4,0,0.7-0.1,1-0.3c0.2-0.2,0.3-0.5,0.3-0.9
		c0-0.4-0.1-0.7-0.3-0.9c-0.2-0.2-0.5-0.3-1-0.3h-1.4V25.1z"/>
	<path class="st0" d="M345.6,28.4h-3.1l-0.5,1.7h-2.4l3.4-9.2h2.1l3.4,9.2h-2.4L345.6,28.4z M343.1,26.7h2l-1-3.2L343.1,26.7z"/>
	<path class="st0" d="M358.3,22.6h-2.8v7.5h-2.2v-7.5h-2.7v-1.7h7.7V22.6z"/>
	<path class="st0" d="M369.1,27c0,0.6-0.2,1.2-0.5,1.7s-0.8,0.9-1.3,1.1s-1.2,0.4-2,0.4c-1.2,0-2.2-0.4-2.9-1.2
		c-0.7-0.8-1-1.9-1-3.4v-0.5c0-0.9,0.2-1.7,0.5-2.4c0.3-0.7,0.8-1.2,1.4-1.6s1.3-0.6,2.1-0.6c1.1,0,2,0.3,2.7,0.9
		c0.7,0.6,1.1,1.4,1.2,2.4h-2.2c0-0.6-0.2-1-0.4-1.2s-0.7-0.4-1.2-0.4c-0.6,0-1,0.2-1.2,0.6s-0.4,1.1-0.4,2v0.7c0,1,0.1,1.7,0.4,2.1
		c0.2,0.4,0.7,0.6,1.3,0.6c0.5,0,0.9-0.1,1.2-0.4c0.3-0.2,0.4-0.6,0.4-1.1H369.1z"/>
	<path class="st0" d="M380.5,30.1h-2.2v-3.9H375v3.9h-2.2v-9.2h2.2v3.7h3.3v-3.7h2.2V30.1z"/>
	<path class="st0" d="M397.6,24.9h2.2v1.8h-2.2v2.5h-2v-2.5h-2.2v-1.8h2.2v-2.4h2V24.9z"/>
	<path class="st0" d="M234.6,47c0,0.6-0.2,1.2-0.5,1.7s-0.8,0.9-1.3,1.1c-0.6,0.3-1.2,0.4-2,0.4c-1.2,0-2.2-0.4-2.9-1.2
		c-0.7-0.8-1-1.9-1-3.4v-0.5c0-0.9,0.2-1.7,0.5-2.4c0.3-0.7,0.8-1.2,1.4-1.6s1.3-0.6,2.1-0.6c1.1,0,2,0.3,2.7,0.9
		c0.7,0.6,1.1,1.4,1.2,2.4h-2.2c0-0.6-0.2-1-0.4-1.2s-0.7-0.4-1.2-0.4c-0.6,0-1,0.2-1.2,0.6s-0.4,1.1-0.4,2v0.7c0,1,0.1,1.7,0.4,2.1
		c0.2,0.4,0.7,0.6,1.3,0.6c0.5,0,0.9-0.1,1.2-0.4s0.4-0.6,0.4-1.1H234.6z"/>
	<path class="st0" d="M243.5,48.4h-3.1l-0.5,1.7h-2.4l3.4-9.2h2.1l3.4,9.2h-2.4L243.5,48.4z M241,46.7h2l-1-3.2L241,46.7z"/>
	<path class="st0" d="M257.4,50.1h-2.2l-3.3-5.8v5.8h-2.2v-9.2h2.2l3.3,5.8v-5.8h2.2V50.1z"/>
	<path class="st0" d="M269.2,50.1H267l-3.3-5.8v5.8h-2.2v-9.2h2.2l3.3,5.8v-5.8h2.2V50.1z"/>
	<path class="st0" d="M278.5,48.4h-3.1l-0.5,1.7h-2.4l3.4-9.2h2.1l3.4,9.2h-2.4L278.5,48.4z M276,46.7h2l-1-3.2L276,46.7z"/>
	<path class="st0" d="M287.8,47.6l1.8-6.7h2.5l-3.1,9.2h-2.4l-3.1-9.2h2.5L287.8,47.6z"/>
	<path class="st0" d="M303.2,45.7c0,0.9-0.2,1.7-0.5,2.4c-0.3,0.7-0.8,1.2-1.4,1.6c-0.6,0.4-1.3,0.6-2.1,0.6s-1.5-0.2-2.1-0.5
		c-0.6-0.4-1.1-0.9-1.4-1.6s-0.5-1.4-0.5-2.3v-0.5c0-0.9,0.2-1.7,0.5-2.4c0.3-0.7,0.8-1.2,1.4-1.6c0.6-0.4,1.3-0.6,2.1-0.6
		c0.8,0,1.5,0.2,2.1,0.6c0.6,0.4,1.1,0.9,1.4,1.6s0.5,1.5,0.5,2.4V45.7z M300.9,45.3c0-0.9-0.2-1.6-0.5-2.1
		c-0.3-0.5-0.7-0.7-1.3-0.7c-1.1,0-1.7,0.8-1.8,2.5l0,0.7c0,0.9,0.2,1.6,0.5,2.1c0.3,0.5,0.7,0.7,1.3,0.7c0.6,0,1-0.2,1.3-0.7
		c0.3-0.5,0.5-1.2,0.5-2.1V45.3z"/>
	<path class="st0" d="M312.1,48.4H309l-0.5,1.7h-2.4l3.4-9.2h2.1l3.4,9.2h-2.4L312.1,48.4z M309.5,46.7h2l-1-3.2L309.5,46.7z"/>
	<path class="st0" d="M326.3,47v3.1h-2.2v-9.2h3.7c0.7,0,1.3,0.1,1.9,0.4c0.5,0.3,1,0.6,1.3,1.1c0.3,0.5,0.4,1,0.4,1.6
		c0,0.9-0.3,1.6-1,2.2c-0.6,0.5-1.5,0.8-2.7,0.8H326.3z M326.3,45.3h1.5c0.4,0,0.8-0.1,1-0.3s0.3-0.5,0.3-0.9c0-0.4-0.1-0.8-0.3-1
		c-0.2-0.3-0.5-0.4-1-0.4h-1.5V45.3z"/>
	<path class="st0" d="M333.8,48c0.3,0,0.6,0.1,0.8,0.3s0.3,0.5,0.3,0.8s-0.1,0.6-0.3,0.8s-0.5,0.3-0.8,0.3c-0.3,0-0.6-0.1-0.8-0.3
		c-0.2-0.2-0.3-0.5-0.3-0.8s0.1-0.6,0.3-0.8C333.2,48.1,333.5,48,333.8,48z"/>
	<path class="st0" d="M346.6,47c0,0.6-0.2,1.2-0.5,1.7s-0.8,0.9-1.3,1.1s-1.2,0.4-2,0.4c-1.2,0-2.2-0.4-2.9-1.2
		c-0.7-0.8-1-1.9-1-3.4v-0.5c0-0.9,0.2-1.7,0.5-2.4c0.3-0.7,0.8-1.2,1.4-1.6s1.3-0.6,2.1-0.6c1.1,0,2,0.3,2.7,0.9
		c0.7,0.6,1.1,1.4,1.2,2.4h-2.2c0-0.6-0.2-1-0.4-1.2s-0.7-0.4-1.2-0.4c-0.6,0-1,0.2-1.2,0.6s-0.4,1.1-0.4,2v0.7c0,1,0.1,1.7,0.4,2.1
		c0.2,0.4,0.7,0.6,1.3,0.6c0.5,0,0.9-0.1,1.2-0.4c0.3-0.2,0.4-0.6,0.4-1.1H346.6z"/>
	<path class="st0" d="M351.5,48c0.3,0,0.6,0.1,0.8,0.3s0.3,0.5,0.3,0.8s-0.1,0.6-0.3,0.8s-0.5,0.3-0.8,0.3c-0.3,0-0.6-0.1-0.8-0.3
		c-0.2-0.2-0.3-0.5-0.3-0.8s0.1-0.6,0.3-0.8C350.9,48.1,351.1,48,351.5,48z"/>
</g>
<g class="st1">
	<path class="st0" d="M2.8,40.9C0.9,38.8,0,35.8,0,32h6.2c0,1.8,0.4,3.2,1.2,4.2c0.8,1,1.9,1.5,3.4,1.5h5.1c1.3,0,2.4-0.3,3.3-1
		c0.8-0.6,1.3-1.5,1.3-2.6v-1.8c0-1.7-1.1-2.8-3.3-3.2l-8.4-1.6c-2.7-0.5-4.8-1.5-6.2-3c-1.4-1.5-2.1-3.4-2.1-5.6v-2.9
		c0-1.8,0.4-3.5,1.3-4.9C2.5,9.9,3.7,8.8,5.3,8c1.6-0.8,3.4-1.1,5.6-1.1H16c2,0,3.7,0.5,5.3,1.4s2.7,2.2,3.5,3.9
		c0.8,1.7,1.3,3.6,1.3,5.8h-6.2c0-1.5-0.4-2.6-1.1-3.5c-0.7-0.9-1.6-1.3-2.8-1.3h-5.2c-1.3,0-2.3,0.3-3.1,0.9
		c-0.8,0.6-1.2,1.5-1.2,2.5v1.4c0,1.7,1.1,2.8,3.2,3.2l8.4,1.7c2.8,0.6,4.9,1.5,6.4,2.9c1.5,1.4,2.2,3.2,2.2,5.4v3.4
		c0,1.8-0.4,3.5-1.3,4.9c-0.9,1.4-2.2,2.5-3.8,3.3c-1.6,0.8-3.5,1.2-5.6,1.2h-5.3C7.3,44.1,4.7,43.1,2.8,40.9z"/>
	<path class="st0" d="M42.5,7.3h16.9c1.9,0,3.5,0.4,4.9,1.2c1.4,0.8,2.5,2,3.3,3.5c0.8,1.5,1.2,3.2,1.2,5.2V22c0,2-0.4,3.8-1.2,5.3
		c-0.8,1.5-2,2.7-3.4,3.6c-1.5,0.9-3.2,1.3-5.1,1.3H48.8v11.5h-6.3V7.3z M58.9,26c1.1,0,1.9-0.4,2.6-1.2c0.7-0.8,1-1.8,1-3.1v-4.2
		c0-1.2-0.3-2.2-0.9-2.9c-0.6-0.7-1.4-1.1-2.4-1.1H48.8V26H58.9z"/>
	<path class="st0" d="M84.9,42.3c-0.8-0.9-1.2-2.1-1.2-3.5V7.3h15.9c2.9,0,5.2,0.8,7,2.3c1.8,1.6,2.6,3.7,2.6,6.3v2.6
		c0,1.1-0.3,2.2-0.8,3.3s-1.2,1.9-2.1,2.5v0.1c1.5,0.6,2.6,1.5,3.5,2.9c0.9,1.3,1.3,2.8,1.3,4.4v2.7c0,2.8-0.9,5.1-2.7,6.8
		c-1.8,1.7-4.3,2.5-7.3,2.5h-13C86.8,43.7,85.7,43.3,84.9,42.3z M99.6,22.4c1,0,1.8-0.4,2.4-1.1c0.6-0.7,0.9-1.7,0.9-2.8v-1.8
		c0-1-0.3-1.7-1-2.3c-0.6-0.6-1.5-0.9-2.6-0.9H90v8.8H99.6z M100.7,37.5c1.3,0,2.4-0.3,3.1-0.9c0.7-0.6,1.1-1.5,1.1-2.6v-2.3
		c0-1-0.3-1.8-1-2.4s-1.5-0.9-2.6-0.9H90v9.2H100.7z"/>
	<path class="st0" d="M126.6,7.3h5.6l10.5,21.6L153,7.3h5.6v36.4h-6.2v-23l-6.7,13.8c-0.5,0.9-0.9,1.6-1.4,2c-0.5,0.4-1,0.6-1.6,0.6
		h-1.7l-8.1-16.4v23h-6.2V7.3z"/>
	<path class="st0" d="M180.3,42.4c-1.8-1.1-3.2-2.8-4.1-4.9c-1-2.1-1.5-4.5-1.5-7.3v-9.6c0-2.7,0.5-5.2,1.5-7.3
		c1-2.1,2.4-3.7,4.2-4.9c1.8-1.1,3.9-1.7,6.3-1.7h4.8c2.3,0,4.3,0.6,6,1.7c1.7,1.1,3.1,2.7,4,4.7c1,2,1.4,4.3,1.4,6.9h-6.2
		c0-2.1-0.5-3.8-1.5-5c-1-1.3-2.3-1.9-3.8-1.9h-4.8c-1.7,0-3.1,0.7-4.1,2.2c-1,1.4-1.6,3.3-1.6,5.6V30c0,2.3,0.5,4.2,1.5,5.6
		c1,1.4,2.3,2.2,4,2.2h4.9c1.6,0,2.9-0.7,4-2.1c1-1.4,1.5-3.3,1.5-5.6h6.2c0,2.8-0.5,5.3-1.5,7.4c-1,2.1-2.3,3.8-4.1,4.9
		c-1.8,1.2-3.8,1.7-6.1,1.7h-4.9C184.2,44.1,182.1,43.5,180.3,42.4z"/>
</g>
</svg>
