<?xml version="1.0" encoding="utf-8"?>
<!-- Generator: Adobe Illustrator 23.0.1, SVG Export Plug-In . SVG Version: 6.00 Build 0)  -->
<svg version="1.1" id="Layer_1" xmlns="http://www.w3.org/2000/svg" xmlns:xlink="http://www.w3.org/1999/xlink" x="0px" y="0px"
	 width="204.9px" height="38px" viewBox="0 0 204.9 38" style="enable-background:new 0 0 204.9 38;" xml:space="preserve">
<style type="text/css">
	.st0{enable-background:new    ;}
	.st1{fill:#1372F3;}
</style>
<g class="st0">
	<path class="st1" d="M3.7,34.4c-1.9-2.1-2.8-5.1-2.8-8.9h6.2c0,1.8,0.4,3.2,1.2,4.2c0.8,1,1.9,1.5,3.4,1.5h5.1c1.3,0,2.4-0.3,3.3-1
		c0.8-0.6,1.3-1.5,1.3-2.6V26c0-1.7-1.1-2.8-3.3-3.2l-8.4-1.6c-2.7-0.5-4.8-1.5-6.2-3s-2.1-3.4-2.1-5.6v-3c0-1.8,0.4-3.5,1.3-4.9
		s2.1-2.5,3.7-3.2C8,0.7,9.8,0.4,12,0.4h5.2c2,0,3.7,0.5,5.3,1.4S25.2,4,26,5.7s1.3,3.6,1.3,5.8h-6.2c0-1.5-0.4-2.6-1.1-3.5
		s-1.6-1.3-2.8-1.3H12c-1.3,0-2.3,0.3-3.1,0.9c-0.8,0.6-1.2,1.5-1.2,2.5v1.4c0,1.7,1.1,2.8,3.2,3.2l8.4,1.7c2.8,0.6,4.9,1.5,6.4,2.9
		s2.2,3.2,2.2,5.4v3.4c0,1.8-0.4,3.5-1.3,4.9s-2.2,2.5-3.8,3.3c-1.6,0.8-3.5,1.2-5.6,1.2h-5.3C8.2,37.6,5.6,36.6,3.7,34.4z"/>
	<path class="st1" d="M43.4,0.8h16.9c1.9,0,3.5,0.4,4.9,1.2s2.5,2,3.3,3.5s1.2,3.2,1.2,5.2v4.8c0,2-0.4,3.8-1.2,5.3
		c-0.8,1.5-2,2.7-3.4,3.6c-1.5,0.9-3.2,1.3-5.1,1.3H49.7v11.5h-6.3V0.8z M59.8,19.5c1.1,0,1.9-0.4,2.6-1.2c0.7-0.8,1-1.8,1-3.1V11
		c0-1.2-0.3-2.2-0.9-2.9C61.9,7.4,61.1,7,60.1,7H49.7v12.4h10.1V19.5z"/>
	<path class="st1" d="M85.8,35.8c-0.8-0.9-1.2-2.1-1.2-3.5V0.8h15.9c2.9,0,5.2,0.8,7,2.3c1.8,1.6,2.6,3.7,2.6,6.3V12
		c0,1.1-0.3,2.2-0.8,3.3s-1.2,1.9-2.1,2.5v0.1c1.5,0.6,2.6,1.5,3.5,2.9c0.9,1.3,1.3,2.8,1.3,4.4v2.7c0,2.8-0.9,5.1-2.7,6.8
		c-1.8,1.7-4.3,2.5-7.3,2.5H89C87.7,37.2,86.6,36.7,85.8,35.8z M100.5,15.9c1,0,1.8-0.4,2.4-1.1c0.6-0.7,0.9-1.7,0.9-2.8v-1.8
		c0-1-0.3-1.7-1-2.3c-0.6-0.6-1.5-0.9-2.6-0.9h-9.4v8.8h9.7V15.9z M101.6,31c1.3,0,2.4-0.3,3.1-0.9s1.1-1.5,1.1-2.6v-2.3
		c0-1-0.3-1.8-1-2.4s-1.5-0.9-2.6-0.9H90.9V31H101.6z"/>
	<path class="st1" d="M127.5,0.8h5.6l10.5,21.6l10.2-21.6h5.6v36.4h-6.2v-23L146.6,28c-0.5,0.9-0.9,1.6-1.4,2s-1,0.6-1.6,0.6h-1.7
		l-8.1-16.4v23h-6.2V0.8H127.5z"/>
	<path class="st1" d="M181.2,35.9c-1.8-1.1-3.2-2.8-4.1-4.9c-1-2.1-1.5-4.5-1.5-7.3v-9.6c0-2.7,0.5-5.2,1.5-7.3s2.4-3.7,4.2-4.9
		c1.8-1.1,3.9-1.7,6.3-1.7h4.8c2.3,0,4.3,0.6,6,1.7s3.1,2.7,4,4.7c1,2,1.4,4.3,1.4,6.9h-6.2c0-2.1-0.5-3.8-1.5-5
		c-1-1.3-2.3-1.9-3.8-1.9h-4.8c-1.7,0-3.1,0.7-4.1,2.2c-1,1.4-1.6,3.3-1.6,5.6v8.9c0,2.3,0.5,4.2,1.5,5.6s2.3,2.2,4,2.2h4.9
		c1.6,0,2.9-0.7,4-2.1c1-1.4,1.5-3.3,1.5-5.6h6.2c0,2.8-0.5,5.3-1.5,7.4s-2.3,3.8-4.1,4.9c-1.8,1.2-3.8,1.7-6.1,1.7h-4.9
		C185.1,37.6,183,37,181.2,35.9z"/>
</g>
</svg>
