<?xml version="1.0" encoding="utf-8"?>
<!-- Generator: Adobe Illustrator 23.0.1, SVG Export Plug-In . SVG Version: 6.00 Build 0)  -->
<svg version="1.1" id="Layer_1" xmlns="http://www.w3.org/2000/svg" xmlns:xlink="http://www.w3.org/1999/xlink" x="0px" y="0px"
	 width="196.2px" height="14px" viewBox="0 0 196.2 14" style="enable-background:new 0 0 196.2 14;" xml:space="preserve">
<style type="text/css">
	.st0{fill:#1372F3;}
</style>
<g>
	<path class="st0" d="M41.7,0h0.7v0.8c0,0.6-0.3,0.8-0.9,0.8h-0.7V0.8C40.8,0.3,41.1,0,41.7,0z M40.8,3.7c0-0.6,0.3-0.8,0.9-0.8h0.7
		V11h-0.7c-0.6,0-0.9-0.3-0.9-0.8V3.7z"/>
	<path class="st0" d="M46.5,9.3c0.2,0.2,0.5,0.3,0.8,0.3v0.7c0,0.3-0.2,0.6-0.5,0.7c-0.3,0.1-0.6,0-0.8-0.1c-0.4-0.2-0.8-0.5-1-0.9
		c-0.3-0.5-0.4-1.1-0.4-1.6V0.8c0-0.6,0.3-0.8,0.9-0.8h0.7v8.4C46.1,8.7,46.2,9.1,46.5,9.3z"/>
	<path class="st0" d="M54.7,3.6c0.8,0.6,1.2,1.5,1.2,2.4v5h-0.5c-0.4,0-0.8-0.3-0.9-0.7c-0.7,0.6-1.6,0.9-2.5,0.9
		c-1,0-1.9-0.3-2.7-0.9c-0.8-0.6-1.2-1.5-1.2-2.4V6c0-1,0.4-1.8,1.2-2.4c0.7-0.6,1.7-1,2.7-0.9C53,2.6,54,3,54.7,3.6z M52.1,4.3
		c-0.6,0-1.2,0.2-1.7,0.6C50,5.1,49.8,5.5,49.8,6v1.9c0,0.5,0.2,0.9,0.6,1.2c1,0.7,2.3,0.7,3.3,0c0.4-0.3,0.6-0.7,0.6-1.2V6
		c0-0.5-0.2-0.9-0.6-1.2C53.2,4.4,52.7,4.2,52.1,4.3z"/>
	<path class="st0" d="M67.5,3.7c0-0.6,0.3-0.8,0.9-0.8h0.7v5c0,1-0.3,1.8-0.9,2.4c-0.6,0.6-1.5,1-2.4,0.9c-0.9,0-1.8-0.3-2.4-1
		c-0.6,0.7-1.5,1.1-2.4,1c-1,0-1.8-0.3-2.4-0.9c-0.6-0.6-0.9-1.4-0.9-2.4V3.7c0-0.6,0.3-0.8,0.9-0.8h0.7v5c0,0.6,0.1,1.1,0.4,1.3
		c0.3,0.3,0.8,0.5,1.2,0.4c0.4,0,0.9-0.1,1.2-0.4c0.3-0.4,0.5-0.8,0.4-1.3V3.7c0-0.6,0.3-0.8,0.9-0.8h0.7v5c0,0.5,0.1,0.9,0.5,1.3
		c0.3,0.3,0.7,0.5,1.2,0.4c0.4,0,0.9-0.1,1.2-0.4c0.3-0.3,0.4-0.7,0.4-1.3V3.7L67.5,3.7z"/>
	<path class="st0" d="M78.1,2.9l-3.2,8.9c-0.1,0.2-0.2,0.4-0.2,0.6c-0.1,0.2-0.2,0.4-0.3,0.5c-0.2,0.3-0.5,0.6-0.9,0.8
		c-0.3,0.1-0.5,0.2-0.8,0.1c-0.3-0.1-0.5-0.4-0.5-0.7v-0.7c0.2,0,0.4,0,0.5-0.1c0.2-0.1,0.3-0.2,0.4-0.4l0.3-0.8
		c-0.4-0.1-0.8-0.4-1-0.8l-2.4-6.7c-0.1-0.2-0.1-0.3,0-0.5c0.1-0.2,0.3-0.2,0.5-0.2h1L74,9.6h0l2.2-6.1c0.1-0.4,0.5-0.6,0.8-0.6
		H78.1L78.1,2.9z"/>
	<path class="st0" d="M84.6,3c0.4,0.2,0.7,0.5,1,0.8c0.3,0.4,0.4,0.9,0.4,1.4c0,0.4-0.1,0.8-0.3,1.2c-0.2,0.3-0.4,0.6-0.7,0.8
		c-0.3,0.2-0.6,0.4-1,0.5c-0.3,0.1-0.7,0.1-1.1,0.1h-1.9c-0.1,0-0.2,0-0.3,0c-0.1,0-0.2-0.1-0.3-0.1v0.7c0,0.4,0.2,0.7,0.6,0.9
		c0.3,0.2,0.7,0.3,1.1,0.3c0.4,0,0.8,0,1.2-0.1c0.4-0.1,0.7-0.2,1-0.5c0.2-0.3,0.6-0.3,1-0.1l0.8,0.4c-0.1,0.3-0.3,0.6-0.6,0.9
		c-0.4,0.4-0.9,0.7-1.4,0.8c-0.5,0.2-1,0.3-1.6,0.3c-0.4,0-0.8,0-1.2-0.1c-0.4-0.1-0.8-0.3-1.2-0.5c-0.4-0.3-0.7-0.6-0.9-1.1
		C79.1,9.1,79,8.6,79,8.2V5.5c0-0.4,0.1-0.8,0.3-1.2c0.3-0.6,0.8-1,1.4-1.3c0.6-0.3,1.2-0.4,1.9-0.4C83.2,2.6,83.9,2.8,84.6,3z
		 M84,6.1c0.4-0.2,0.6-0.8,0.3-1.2c-0.1-0.1-0.1-0.2-0.2-0.2c-0.4-0.2-0.8-0.4-1.2-0.4c-0.4,0-0.8,0-1.2,0.1
		c-0.3,0.1-0.6,0.2-0.8,0.4c-0.2,0.2-0.4,0.5-0.4,0.8v0.8h2.7C83.5,6.3,83.8,6.2,84,6.1L84,6.1z"/>
	<path class="st0" d="M87.6,5.7c0-1,0.3-1.7,0.9-2.2c0.5-0.4,1.2-0.7,1.8-0.6h1.1v0.7c0,0.6-0.3,0.9-0.8,0.9h-0.2
		c-0.6,0-1.1,0.5-1.2,1.1c0,0,0,0.1,0,0.1V11h-0.7c-0.6,0-0.9-0.3-0.9-0.8L87.6,5.7L87.6,5.7L87.6,5.7z"/>
	<path class="st0" d="M101.9,4.7c-0.3-0.3-0.8-0.4-1.2-0.4c-0.4,0-0.9,0.1-1.2,0.4C99.1,5.1,99,5.5,99,6v5h-0.7
		c-0.6,0-0.9-0.3-0.9-0.8V6c0-0.5-0.1-0.9-0.4-1.3c-0.3-0.3-0.7-0.5-1.2-0.4c-0.4,0-0.9,0.1-1.2,0.4C94.2,5,94.1,5.5,94.1,6v5h-0.7
		c-0.6,0-0.9-0.3-0.9-0.8V6c0-1,0.3-1.8,0.9-2.4c0.6-0.6,1.4-0.9,2.4-0.9c0.8,0,1.5,0.2,2.1,0.7c0.1,0.1,0.2,0.2,0.3,0.3
		c0.1-0.1,0.2-0.2,0.3-0.3c1.3-1.1,3.3-1,4.5,0.2c0.6,0.6,0.9,1.4,0.9,2.4v5h-0.7c-0.6,0-0.9-0.3-0.9-0.8V6
		C102.3,5.5,102.2,5,101.9,4.7z"/>
	<path class="st0" d="M112,3.6c0.8,0.6,1.2,1.5,1.2,2.4v5h-0.5c-0.4,0-0.8-0.3-0.9-0.7c-0.7,0.6-1.6,0.9-2.5,0.9
		c-1,0-1.9-0.3-2.7-0.9c-0.8-0.6-1.2-1.5-1.2-2.4V6c0-0.9,0.4-1.8,1.2-2.4c0.7-0.6,1.7-1,2.7-0.9C110.3,2.6,111.2,3,112,3.6z
		 M109.3,4.2c-0.6,0-1.2,0.2-1.7,0.6c-0.4,0.3-0.6,0.7-0.6,1.2v1.9c0,0.5,0.2,0.9,0.6,1.2c1,0.7,2.3,0.7,3.3,0
		c0.4-0.3,0.6-0.7,0.6-1.2V6c0-0.5-0.2-0.9-0.6-1.2C110.5,4.4,109.9,4.2,109.3,4.2L109.3,4.2z"/>
	<path class="st0" d="M115,5.7c0-1,0.3-1.7,0.9-2.2c0.5-0.4,1.2-0.7,1.8-0.6h1.1v0.7c0,0.6-0.3,0.9-0.8,0.9h-0.2
		c-0.6,0-1.1,0.5-1.2,1.1c0,0,0,0.1,0,0.1V11h-0.7c-0.6,0-0.9-0.3-0.9-0.8L115,5.7L115,5.7z"/>
	<path class="st0" d="M120.1,0.8c0-0.6,0.3-0.8,0.9-0.8h0.7v6.3h0.6c0.3,0,0.6,0,0.8-0.3l1.5-2.5c0.2-0.4,0.6-0.6,1-0.6h1.3L124.9,6
		c-0.1,0.2-0.2,0.3-0.3,0.4c0.6,0.3,1,0.7,1.2,1.3l1.4,3.2h-1c-0.5,0-0.8-0.2-0.9-0.5l-0.9-2c-0.1-0.4-0.5-0.6-0.9-0.6h-1.7V11H121
		c-0.6,0-0.9-0.3-0.9-0.8L120.1,0.8L120.1,0.8L120.1,0.8z"/>
	<path class="st0" d="M133.8,3c0.4,0.2,0.7,0.5,1,0.8c0.3,0.4,0.4,0.9,0.4,1.4c0,0.4-0.1,0.8-0.3,1.2c-0.2,0.3-0.4,0.6-0.7,0.8
		c-0.3,0.2-0.6,0.4-1,0.5c-0.3,0.1-0.7,0.1-1.1,0.1h-1.9c-0.1,0-0.2,0-0.3,0c-0.1,0-0.2-0.1-0.3-0.1v0.7c0,0.4,0.2,0.7,0.6,0.9
		c0.3,0.2,0.7,0.3,1.1,0.3c0.4,0,0.8,0,1.2-0.1c0.4-0.1,0.7-0.2,1-0.5c0.2-0.3,0.6-0.3,1-0.1l0.8,0.4c-0.1,0.3-0.3,0.6-0.6,0.9
		c-0.4,0.4-0.9,0.7-1.4,0.8c-0.5,0.2-1,0.3-1.6,0.3c-0.4,0-0.8,0-1.2-0.1c-0.4-0.1-0.8-0.3-1.2-0.5c-0.4-0.3-0.7-0.6-0.9-1.1
		c-0.2-0.4-0.3-0.9-0.3-1.4V5.5c0-0.4,0.1-0.8,0.3-1.2c0.3-0.6,0.8-1,1.4-1.3c0.6-0.3,1.2-0.4,1.9-0.4C132.4,2.6,133.1,2.8,133.8,3z
		 M133.2,6.1c0.4-0.2,0.6-0.8,0.3-1.2c-0.1-0.1-0.1-0.2-0.2-0.2c-0.4-0.2-0.8-0.4-1.2-0.4c-0.4,0-0.8,0-1.2,0.1
		c-0.3,0.1-0.6,0.2-0.8,0.4c-0.2,0.2-0.4,0.5-0.4,0.8v0.8h2.7C132.7,6.3,132.9,6.2,133.2,6.1L133.2,6.1z"/>
	<path class="st0" d="M140.3,2.9v0.7c0,0.6-0.3,0.9-0.8,0.9h-1.1v3.9c0,0.4,0.1,0.7,0.4,1c0.2,0.2,0.5,0.3,0.7,0.3v0.7
		c0,0.3-0.2,0.6-0.5,0.7c-0.3,0.1-0.6,0-0.8-0.1c-0.4-0.2-0.8-0.5-1-0.9c-0.3-0.5-0.4-1.1-0.4-1.6V0.8c0-0.6,0.3-0.8,0.9-0.8h0.7
		v2.9H140.3L140.3,2.9z"/>
	<path class="st0" d="M142.5,0h0.7v0.8c0,0.6-0.3,0.8-0.9,0.8h-0.7V0.8C141.6,0.3,141.9,0,142.5,0z M141.6,3.7
		c0-0.6,0.3-0.8,0.9-0.8h0.7V11h-0.7c-0.6,0-0.9-0.3-0.9-0.8V3.7z"/>
	<path class="st0" d="M146.3,3.6c0.7-0.6,1.6-0.9,2.5-0.9c0.9,0,1.8,0.3,2.6,0.9c0.7,0.6,1.1,1.4,1.1,2.3V11h-0.7
		c-0.6,0-0.9-0.3-0.9-0.8V5.9c0-0.4-0.2-0.8-0.6-1.1c-0.9-0.7-2.2-0.7-3.1,0c-0.3,0.3-0.5,0.7-0.6,1.1V11h-0.7
		c-0.6,0-0.9-0.3-0.9-0.8V5.9C145.2,5,145.6,4.1,146.3,3.6z"/>
	<path class="st0" d="M160.7,3.6c0.8,0.6,1.2,1.5,1.2,2.4v4.9c0,0.5-0.1,0.9-0.3,1.3c-0.4,0.8-1.2,1.4-2,1.6
		c-0.5,0.1-0.9,0.2-1.4,0.2c-0.4,0-0.8,0-1.2-0.1c-0.3,0-0.6-0.2-0.7-0.4c-0.1-0.2-0.1-0.5,0-0.7l0.1-0.6c0.5,0.2,0.9,0.3,1.4,0.3
		c0.5,0,1,0,1.4-0.2c0.8-0.2,1.2-0.7,1.2-1.4v-0.3c-1.5,0.9-3.5,0.8-4.9-0.3c-0.8-0.6-1.2-1.5-1.2-2.4V6c0-0.9,0.4-1.8,1.2-2.4
		c0.7-0.6,1.7-1,2.7-0.9C159,2.6,159.9,3,160.7,3.6z M158,4.2c-0.6,0-1.2,0.2-1.7,0.6c-0.4,0.3-0.6,0.7-0.6,1.2v1.9
		c0,0.5,0.2,0.9,0.6,1.2c1,0.7,2.3,0.7,3.3,0c0.4-0.3,0.6-0.7,0.6-1.2V6c0-0.5-0.2-0.9-0.6-1.2C159.2,4.4,158.6,4.2,158,4.2L158,4.2
		z"/>
	<path class="st0" d="M164.7,9.2h0.7v1c0,0.6-0.3,0.8-0.9,0.8h-0.7v-1C163.9,9.5,164.2,9.2,164.7,9.2z"/>
	<path class="st0" d="M167.2,5.9c0-0.9,0.4-1.8,1.1-2.3c0.7-0.6,1.6-0.9,2.5-0.9c0.9,0,1.8,0.3,2.6,0.9c0.4,0.3,0.7,0.8,0.9,1.3
		l-0.7,0.4c-0.3,0.2-0.8,0.1-1.1-0.2c-0.1-0.1-0.2-0.2-0.2-0.2c-0.4-0.4-1-0.5-1.5-0.5c-0.6,0-1.1,0.2-1.5,0.5
		c-0.3,0.3-0.5,0.7-0.6,1.1V8c0,0.4,0.2,0.8,0.6,1.1c0.4,0.3,1,0.5,1.5,0.5c0.6,0,1.1-0.2,1.5-0.5c0,0,0.1-0.1,0.2-0.2
		c0.3-0.3,0.7-0.4,1.1-0.2l0.7,0.4c-0.2,0.5-0.5,0.9-0.9,1.3c-0.7,0.6-1.6,0.9-2.6,0.9c-0.9,0-1.8-0.3-2.5-0.9
		c-0.7-0.5-1.1-1.4-1.1-2.3V5.9z"/>
	<path class="st0" d="M182.1,3.6c0.8,0.6,1.2,1.5,1.2,2.4v1.9c0,0.9-0.4,1.8-1.2,2.4c-1.6,1.3-3.8,1.3-5.3,0
		c-0.8-0.6-1.2-1.5-1.2-2.4V6c0-0.9,0.4-1.8,1.2-2.4c0.7-0.6,1.7-1,2.7-0.9C180.4,2.6,181.4,3,182.1,3.6z M179.4,4.2
		c-0.6,0-1.2,0.2-1.7,0.6c-0.4,0.3-0.6,0.7-0.6,1.2v1.9c0,0.5,0.2,0.9,0.6,1.2c1,0.7,2.3,0.7,3.3,0c0.4-0.3,0.6-0.7,0.6-1.2V6
		c0-0.5-0.2-0.9-0.6-1.2C180.6,4.4,180,4.2,179.4,4.2L179.4,4.2z"/>
	<path class="st0" d="M194.2,4.7c-0.3-0.3-0.8-0.4-1.2-0.4c-0.4,0-0.9,0.1-1.2,0.4c-0.3,0.4-0.5,0.8-0.5,1.3v5h-0.7
		c-0.6,0-0.9-0.3-0.9-0.8V6c0-0.5-0.1-0.9-0.4-1.3c-0.3-0.3-0.7-0.5-1.2-0.4c-0.4,0-0.9,0.1-1.2,0.4c-0.3,0.4-0.4,0.8-0.4,1.3v5
		h-0.7c-0.6,0-0.9-0.3-0.9-0.8V6c0-1,0.3-1.8,0.9-2.4c0.6-0.6,1.4-0.9,2.4-0.9c0.8,0,1.5,0.2,2.1,0.7c0.1,0.1,0.2,0.2,0.3,0.3
		c0.1-0.1,0.2-0.2,0.3-0.3c1.3-1.1,3.3-1,4.5,0.2c0.6,0.6,0.9,1.4,0.9,2.4v5h-0.7c-0.6,0-0.9-0.3-0.9-0.8V6
		C194.7,5.5,194.5,5,194.2,4.7z"/>
	<path class="st0" d="M3.2,5.9c0-0.7-0.1-1.4-0.8-1.4c-0.5,0-0.8,0.2-0.8,0.7c0,0.6,0.4,0.8,0.8,1.1C3,6.8,3.5,7.2,4.1,7.7
		c0.5,0.4,0.7,1,0.7,1.6c0,1.5-1,2.2-2.4,2.2c-1.7,0-2.4-1-2.4-2.4V8.6h1.4v0.5c0,0.8,0.2,1.3,0.9,1.3c0.6,0,0.9-0.3,0.9-0.9
		c0-0.4-0.2-0.8-0.6-1C1.9,7.8,1,7.4,0.4,6.6C0.1,6.3,0,5.9,0,5.4c0-1.3,0.7-2,2.3-2c2.3,0,2.2,1.8,2.3,2.5L3.2,5.9L3.2,5.9z"/>
	<path class="st0" d="M6.4,11.3V3.6h1.4v7.8H6.4z"/>
	<path class="st0" d="M9.1,3.6H14v1.1h-1.7v6.6h-1.4V4.7H9.1L9.1,3.6L9.1,3.6z"/>
	<path class="st0" d="M15.2,11.3V3.6h4.1v1.1h-2.6v2h2.4v1.2h-2.4v2.4h2.6v1.1L15.2,11.3L15.2,11.3z"/>
	<path class="st0" d="M23.8,11.3V3.6h2.3c0.6,0,1.2,0,1.6,0.6c0.3,0.4,0.4,0.9,0.4,1.4c0,0.7-0.1,1.3-0.9,1.6v0
		C28,7.3,28.4,8,28.4,9c0,0.3,0,0.6-0.1,1c-0.3,1-0.9,1.4-1.9,1.4L23.8,11.3L23.8,11.3z M25.5,6.7c0.4,0,0.8,0,1-0.3
		c0.1-0.3,0.2-0.5,0.2-0.8c0-0.6-0.1-0.9-0.8-0.9h-0.7v2L25.5,6.7L25.5,6.7z M25.6,10.2c0.3,0,0.6,0,0.9-0.1
		c0.4-0.2,0.4-0.7,0.4-1.1c0-0.8-0.2-1.2-1.1-1.2h-0.6v2.4H25.6L25.6,10.2z"/>
	<path class="st0" d="M31.8,5.6C32,6,32.1,6.4,32.2,6.8h0c0.1-0.5,0.3-1,0.5-1.5l0.7-1.8h1.6l-2,4.5v3.3h-1.4V8l-2-4.5H31L31.8,5.6z
		"/>
</g>
</svg>
