<?xml version="1.0" encoding="utf-8"?>
<!-- Generator: Adobe Illustrator 23.0.1, SVG Export Plug-In . SVG Version: 6.00 Build 0)  -->
<svg version="1.1" id="Layer_1" xmlns="http://www.w3.org/2000/svg" xmlns:xlink="http://www.w3.org/1999/xlink" x="0px" y="0px"
	 width="213.7px" height="196.7px" viewBox="0 0 213.7 196.7" style="enable-background:new 0 0 213.7 196.7;" xml:space="preserve"
	>
<style type="text/css">
	.st0{fill:#E0E3EA;}
	.st1{fill:#0F0B2B;}
	.st2{fill:#E5C28F;}
	.st3{fill:url(#SVGID_1_);}
	.st4{fill:url(#SVGID_2_);}
	.st5{fill:url(#SVGID_3_);}
	.st6{clip-path:url(#SVGID_5_);fill:none;}
	.st7{clip-path:url(#SVGID_5_);fill:#E5C28F;}
	.st8{fill:url(#SVGID_6_);}
	.st9{fill:url(#SVGID_7_);}
	.st10{fill:url(#SVGID_8_);}
	.st11{fill:#DBAE79;}
	.st12{fill:url(#SVGID_9_);}
	.st13{fill:url(#SVGID_10_);}
	.st14{fill:url(#SVGID_11_);}
</style>
<polygon class="st0" points="125.2,106.2 189.1,151.4 121.7,111.6 170.5,173.1 117,115.8 146.5,188.6 111.2,118.4 119.2,196.7 
	104.9,119.4 90.7,196.7 98.6,118.5 63.4,188.7 92.8,115.8 39.4,173.1 88,111.6 20.7,151.5 84.6,106.2 "/>
<path class="st1" d="M42.4,29L105,0.3l0.6-0.3l0.6,0.3L168.8,29l0.6,0.3l0.1,0.6c0.1,1.3,0.3,2.8,0.4,4.4c0.1,1.7,0.2,3.5,0.3,5.4
	c0.1,2.7,0.3,5.4,0.4,8c0.1,3,0.2,5.7,0.2,7.8c0.3,11.8-0.6,23.2-2.8,33.7c-2.2,10.6-5.8,20.5-11,29.4c-5.1,8.7-11.7,16.5-20.1,23.2
	c-8.4,6.7-18.6,12.3-30.9,16.6l-0.5,0.2l-0.5-0.2c-12.3-4.3-22.5-9.9-30.9-16.6c-8.4-6.7-15-14.5-20.1-23.2
	c-5.2-8.9-8.7-18.8-10.9-29.4c-2.2-10.6-3-21.9-2.8-33.7c0-2.2,0.1-5.1,0.2-8.3c0.1-2.5,0.2-5.2,0.3-7.9c0.1-1.8,0.2-3.6,0.3-5.2
	c0.1-1.6,0.2-3,0.4-4.3l0.1-0.6L42.4,29L42.4,29z"/>
<path class="st2" d="M105.9,25.8c0.1,0,0.2,0.1,0.3,0.1c0.4,0,0.7-0.2,0.9-0.5l0,0c0.1-0.2,0.1-0.5,0-0.7c-0.1-0.2-0.3-0.4-0.5-0.5
	c-0.2-0.1-0.5-0.1-0.7,0c-0.2,0.1-0.4,0.3-0.5,0.5c-0.1,0.2-0.1,0.5,0,0.7C105.5,25.5,105.6,25.7,105.9,25.8z"/>
<path class="st2" d="M105.6,19.5c0.1,0.4,0.5,0.7,0.9,0.7c0.1,0,0.2,0,0.3,0c0.3-0.1,0.4-0.2,0.6-0.5c0.1-0.2,0.1-0.5,0.1-0.7
	c-0.1-0.2-0.2-0.4-0.5-0.6c-0.2-0.1-0.5-0.1-0.7-0.1c-0.2,0.1-0.4,0.2-0.6,0.5C105.6,19,105.5,19.3,105.6,19.5L105.6,19.5z"/>
<path class="st2" d="M102.3,30.3c0.2,0.2,0.4,0.3,0.7,0.3c0.2,0,0.5-0.1,0.6-0.2l0,0c0.2-0.2,0.3-0.4,0.3-0.7c0-0.2-0.1-0.5-0.3-0.7
	c-0.2-0.2-0.4-0.3-0.7-0.3c0,0,0,0,0,0c-0.2,0-0.5,0.1-0.7,0.3c-0.2,0.2-0.3,0.4-0.3,0.7C102,29.8,102.1,30.1,102.3,30.3L102.3,30.3
	z"/>
<path class="st2" d="M84.5,54.7L84.5,54.7c0.5,0,1-0.4,1-0.9c0-0.5-0.4-1-0.9-1c-0.3,0-0.5,0.1-0.7,0.2c-0.2,0.2-0.3,0.4-0.3,0.6
	c0,0.3,0.1,0.5,0.2,0.7C84,54.5,84.3,54.6,84.5,54.7z"/>
<path class="st2" d="M84.9,58.5c-0.5,0.1-0.8,0.6-0.7,1.1c0.1,0.4,0.5,0.7,0.9,0.7c0.1,0,0.1,0,0.2,0c0.2-0.1,0.4-0.2,0.6-0.4
	c0.1-0.2,0.2-0.5,0.1-0.7C85.9,58.7,85.4,58.4,84.9,58.5z"/>
<path class="st2" d="M86.2,65.2c0.2,0.3,0.5,0.5,0.8,0.5c0.1,0,0.3,0,0.4-0.1c0.2-0.1,0.4-0.3,0.5-0.5c0.1-0.2,0.1-0.5,0-0.7
	c-0.2-0.3-0.5-0.5-0.8-0.5c-0.1,0-0.3,0-0.4,0.1C86.1,64.2,85.9,64.8,86.2,65.2z"/>
<path class="st2" d="M91.5,39.4c0.2,0.2,0.4,0.3,0.7,0.3c0.2,0,0.5-0.1,0.7-0.3c0.4-0.4,0.4-1,0-1.3c-0.4-0.4-1-0.4-1.3,0
	C91.2,38.4,91.2,39,91.5,39.4L91.5,39.4z"/>
<path class="st2" d="M87.9,43.9L87.9,43.9c0.2,0.1,0.3,0.2,0.5,0.2c0.3,0,0.6-0.1,0.8-0.4c0.3-0.4,0.2-1-0.2-1.3
	c-0.4-0.3-1-0.2-1.3,0.2c-0.1,0.2-0.2,0.5-0.2,0.7C87.6,43.5,87.7,43.7,87.9,43.9z"/>
<path class="st2" d="M85.4,49c0.1,0,0.2,0.1,0.3,0.1c0.4,0,0.7-0.2,0.9-0.6c0.2-0.5-0.1-1-0.5-1.2c-0.2-0.1-0.5-0.1-0.7,0
	c-0.2,0.1-0.4,0.3-0.5,0.5c-0.1,0.2-0.1,0.5,0,0.7C85,48.8,85.2,48.9,85.4,49z"/>
<path class="st2" d="M70.1,59C70.2,59,70.2,59,70.1,59c0.6,0,1-0.4,1-0.9c0-0.2-0.1-0.5-0.2-0.7c-0.2-0.2-0.4-0.3-0.6-0.3
	c-0.5,0-1,0.4-1,0.9c0,0.2,0.1,0.5,0.2,0.7C69.7,58.9,69.9,59,70.1,59L70.1,59z"/>
<path class="st2" d="M75.1,73.5c0.1-0.2,0-0.5-0.1-0.7c-0.3-0.4-0.9-0.6-1.3-0.3c-0.4,0.3-0.6,0.8-0.3,1.3l0,0
	c0.2,0.3,0.5,0.4,0.8,0.4c0.2,0,0.3,0,0.5-0.1C74.9,74,75.1,73.8,75.1,73.5z"/>
<path class="st2" d="M70.7,67.9c-0.1,0.2-0.1,0.5,0,0.7c0.1,0.2,0.3,0.4,0.5,0.5c0.1,0.1,0.2,0.1,0.4,0.1c0.1,0,0.2,0,0.3-0.1
	c0.2-0.1,0.4-0.3,0.5-0.5c0.1-0.2,0.1-0.5,0-0.7c-0.1-0.2-0.3-0.4-0.5-0.5c-0.2-0.1-0.5-0.1-0.7,0C71,67.5,70.8,67.6,70.7,67.9z"/>
<path class="st2" d="M78.5,77.1c-0.2-0.2-0.4-0.3-0.7-0.2c-0.2,0-0.5,0.1-0.6,0.3c-0.2,0.2-0.3,0.4-0.2,0.7c0,0.2,0.1,0.5,0.3,0.6
	c0.2,0.2,0.5,0.2,0.6,0.2c0.3,0,0.5-0.1,0.7-0.3C78.9,78,78.8,77.4,78.5,77.1z"/>
<path class="st2" d="M71.7,99.9c-0.1-0.5-0.6-0.8-1.1-0.8c-0.2,0-0.5,0.2-0.6,0.4c-0.1,0.2-0.2,0.5-0.2,0.7c0.1,0.5,0.5,0.8,0.9,0.8
	c0,0,0.1,0,0.2,0C71.5,100.9,71.8,100.4,71.7,99.9z"/>
<path class="st11" d="M75.8,109.6L75.8,109.6c-0.5-0.3-1-0.1-1.3,0.3c-0.3,0.4-0.1,1,0.3,1.3l0,0c0.2,0.1,0.3,0.1,0.5,0.1
	c0.3,0,0.6-0.2,0.8-0.4c0.1-0.2,0.2-0.5,0.1-0.7C76.1,110,76,109.7,75.8,109.6z"/>
<path class="st11" d="M72.2,104.7c-0.1,0-0.2,0-0.3,0.1c-0.5,0.2-0.7,0.7-0.6,1.2c0.1,0.4,0.5,0.6,0.9,0.6c0.1,0,0.2,0,0.3-0.1
	c0.2-0.1,0.4-0.3,0.5-0.5c0.1-0.2,0.1-0.5,0-0.7C73,104.9,72.6,104.7,72.2,104.7z"/>
<path class="st2" d="M143.5,83.5c-0.2,0-0.5,0.1-0.7,0.3c-0.2,0.2-0.3,0.4-0.3,0.7c0,0.2,0.1,0.5,0.3,0.7c0.2,0.2,0.4,0.3,0.7,0.3
	c0.2,0,0.5-0.1,0.7-0.3c0.2-0.2,0.3-0.4,0.3-0.7c0-0.2-0.1-0.5-0.3-0.7C143.9,83.6,143.7,83.5,143.5,83.5z"/>
<path class="st2" d="M111,50c0.2,0.1,0.3,0.2,0.5,0.2c0.3,0,0.6-0.1,0.8-0.4c0.1-0.2,0.2-0.5,0.2-0.7c0-0.2-0.2-0.5-0.4-0.6
	c-0.2-0.1-0.5-0.2-0.7-0.2c-0.2,0-0.5,0.2-0.6,0.4l0,0.1c-0.1,0.2-0.2,0.4-0.1,0.6C110.6,49.6,110.7,49.8,111,50z"/>
<path class="st2" d="M141.5,73.9c-0.2-0.1-0.5,0-0.7,0.1c-0.2,0.1-0.4,0.3-0.4,0.6c-0.1,0.2,0,0.5,0.1,0.7v0
	c0.2,0.3,0.5,0.5,0.8,0.5c0.2,0,0.3,0,0.4-0.1c0.2-0.1,0.4-0.3,0.4-0.6c0.1-0.2,0-0.5-0.1-0.7C142,74.1,141.8,74,141.5,73.9z"/>
<path class="st2" d="M137.3,70.8c0.2,0.2,0.4,0.3,0.7,0.3c0,0,0,0,0,0c0.2,0,0.4-0.1,0.6-0.2c0.4-0.3,0.4-0.9,0.1-1.3
	c-0.2-0.2-0.4-0.3-0.6-0.3c-0.2,0-0.5,0.1-0.7,0.2c-0.2,0.2-0.3,0.4-0.3,0.6C137,70.4,137.1,70.6,137.3,70.8L137.3,70.8z"/>
<path class="st2" d="M133.2,66.8c0.2,0.2,0.5,0.2,0.6,0.2c0.3,0,0.5-0.1,0.7-0.3c0.2-0.2,0.3-0.4,0.2-0.7c0-0.2-0.1-0.5-0.3-0.6
	c-0.2-0.2-0.4-0.3-0.7-0.2c-0.2,0-0.5,0.1-0.6,0.3C132.8,65.9,132.8,66.5,133.2,66.8L133.2,66.8z"/>
<path class="st2" d="M129.7,63.2c0.2,0,0.5-0.1,0.6-0.2c0.4-0.3,0.4-0.9,0.1-1.3l0,0c-0.2-0.2-0.4-0.3-0.6-0.3
	c-0.3,0-0.5,0.1-0.7,0.2c-0.4,0.3-0.4,0.9-0.1,1.3C129.2,63,129.4,63.2,129.7,63.2z"/>
<path class="st2" d="M127.2,58.1c0.1,0,0.1,0,0.2,0c0.5-0.1,0.9-0.6,0.8-1.1c0-0.2-0.2-0.5-0.4-0.6c-0.2-0.1-0.5-0.2-0.7-0.2
	c-0.2,0-0.5,0.2-0.6,0.4c-0.1,0.2-0.2,0.4-0.2,0.7C126.3,57.8,126.7,58.1,127.2,58.1z"/>
<rect x="74.8" y="41.8" transform="matrix(0.3722 -0.9282 0.9282 0.3722 7.8765 97.1856)" class="st2" width="2" height="1.9"/>
<rect x="118.7" y="38.7" transform="matrix(0.3723 -0.9281 0.9281 0.3723 38.3649 135.9512)" class="st2" width="2" height="1.9"/>
<path class="st2" d="M129.1,77.8c-0.3-0.2-0.7-0.2-1,0c-0.3,0.2-0.5,0.6-0.4,0.9c0.5,3.5-0.3,8.2-2,11c-0.5,0.8-1.6,1.6-2.8,2.2
	c-1.4,0.6-2.5,0.7-3.2,0.3c-2.4-1.5-0.2-6.2,1.2-9c0.2-0.5,0.4-0.9,0.6-1.3c2-4.7,3.2-12.1,1.6-17.4c-1.2-4-4.9-8.2-8.9-10.2
	c-0.4-0.2-0.8-0.1-1.1,0.2c-0.3,0.3-0.4,0.7-0.2,1.1c0.6,1.2,0.8,2.8,0.6,4.3c-0.2,1.7-0.8,3.1-1.8,3.8c-0.8,0.5-1.6,0.7-2.5,0.3
	c-1.8-0.6-3.4-2.8-3.8-4.4c-1.8-6.4-0.8-14.1,2.5-19.2c0.2-0.4,0.2-0.8-0.1-1.2c-0.3-0.3-0.8-0.4-1.2-0.1c-4.1,2.6-8,6.6-10.1,10.6
	c-1.9,3.6-1.4,8.2-0.8,11.8c0.1,0.5,0.6,0.8,1.1,0.8c0.2,0,0.5-0.2,0.6-0.4c0.1-0.2,0.2-0.5,0.2-0.7c-0.6-3.3-1.1-7.6,0.6-10.6
	c1-1.8,2.4-3.7,4.1-5.5l2.1-2.2l-0.8,2.9c-1.3,4.7-1.2,9.8,0,14.3c0.6,2.1,2.5,4.8,5,5.7c1.5,0.5,3,0.3,4.2-0.6
	c1.6-1.2,2.6-3.5,2.7-6.1l0-1.8l1.3,1.2c2.2,2,3.8,4.4,4.5,6.7c1.5,4.8,0.3,11.9-1.5,16.1c-0.1,0.3-0.3,0.7-0.6,1.2
	c-2.1,4.4-4.1,9.3-0.5,11.4c2.6,1.6,7.3-1.1,8.6-3.1c1.3-2.1,2.2-5.3,2.4-8.5l0.1-1.7l1.2,1.2c4.7,4.7,7.7,12.3,6.9,17.4
	c-0.3,1.7-0.8,3.6-1.4,5.3c-0.1,0.2-0.1,0.5,0,0.7c0.1,0.2,0.3,0.4,0.5,0.5c0.1,0,0.2,0.1,0.3,0.1c0.1,0,0.3,0,0.4-0.1
	c0.2-0.1,0.4-0.3,0.5-0.5c0.7-1.9,1.3-3.9,1.6-5.7C141,91.5,135.2,81.5,129.1,77.8z"/>
<path class="st2" d="M99.9,74.2c-0.1-0.5-0.5-0.9-1-0.8c-0.2,0-0.5,0.1-0.6,0.3c-0.2,0.2-0.2,0.4-0.2,0.7c0.6,5.7-0.1,9.6-2.2,11.8
	c-1.7,1.8-3.4,2-5,0.7c-3.2-2.7-4.6-10-2.5-12.7c0.3-0.4,0.3-0.9-0.1-1.2c-0.2-0.2-0.4-0.3-0.6-0.3c-0.2,0-0.4,0.1-0.6,0.2
	c-4,3.6-6.4,9-7.6,12.9c-1.8,5.6-1.6,12.5,0.5,17.7c1,2.3,2.3,5.4,4.1,8c0.1,0.2,0.4,0.3,0.6,0.4c0.1,0,0.1,0,0.2,0
	c0.2,0,0.4-0.1,0.5-0.2c0.2-0.1,0.3-0.4,0.4-0.6s0-0.5-0.1-0.7c-1.7-2.5-3-5.4-3.9-7.7c-1.9-4.7-2.1-11.3-0.5-16.4
	c0.8-2.6,1.8-4.9,3-6.9l1.2-2l0.3,2.3c0.4,3.4,2.1,6.9,4,8.6c2.4,2,5.1,1.8,7.6-0.8C99.7,84.9,100.6,80.5,99.9,74.2z"/>
<path class="st2" d="M98,68.8c0.1,0,0.2,0,0.4-0.1c0.3-0.1,0.6-0.5,0.6-0.9c0-0.1,0-0.1,0-0.2c0-0.2-0.3-0.8-1-0.8
	c-0.5,0-0.9,0.4-0.9,0.9c0,0.2,0.1,0.4,0.2,0.5l0.1,0.1C97.4,68.6,97.7,68.8,98,68.8z"/>
<path class="st2" d="M121.2,98.4c-0.3,0-0.7,0.1-0.9,0.4c-0.7,1.1-1.9,1.9-3.4,2.1c-1.9,0.4-4-0.2-5.6-1.4C108,97,108.5,93,109.6,89
	c0.1-0.3,0-0.7-0.3-0.9c-0.3-0.2-0.7-0.3-1-0.1c-3.8,1.7-9,4.5-10.7,8.6c-1.5,3.6-0.7,9.7,2.6,13.3c0.2,0.2,0.4,0.3,0.7,0.3
	c0.2,0,0.5-0.1,0.6-0.2c0.2-0.2,0.3-0.4,0.3-0.7c0-0.2-0.1-0.5-0.3-0.7c-2.8-2.9-3.5-8.4-2.3-11.3c0.9-2.1,3-4.1,6.6-6.1l1.4-0.7
	l-0.2,1.5c-0.5,4.1,0.5,7.1,3.1,9.1c2,1.5,4.6,2.2,7.1,1.7c0.9-0.2,1.7-0.5,2.5-0.9l1.2-0.7l0,1.4c0,0.9-0.2,1.7-0.6,2.5
	c-0.1,0.2-0.1,0.5-0.1,0.7c0.1,0.2,0.2,0.4,0.4,0.6c0.5,0.2,1,0.1,1.3-0.4c1.1-2.1,1.2-4.4,0-7C121.8,98.6,121.5,98.4,121.2,98.4z"
	/>
<path class="st2" d="M70.7,91.5L70.7,91.5C70.7,91.5,70.7,91.5,70.7,91.5c0.5,0,1-0.4,1-0.9c0-0.5-0.3-1-0.9-1c-0.5,0-1,0.4-1,0.9
	C69.8,91,70.2,91.5,70.7,91.5z"/>
<path class="st11" d="M148.3,103.3c-0.2-0.2-0.4-0.3-0.7-0.3c-0.2,0-0.5,0.1-0.7,0.3c-0.2,0.2-0.3,0.4-0.3,0.7
	c0,0.2,0.1,0.5,0.3,0.7c0.2,0.2,0.4,0.3,0.7,0.3c0.2,0,0.5-0.1,0.7-0.3c0.2-0.2,0.3-0.4,0.3-0.7
	C148.5,103.7,148.4,103.5,148.3,103.3z"/>
<path class="st2" d="M90.6,70.3c0.2,0.1,0.3,0.2,0.5,0.2c0.3,0,0.6-0.1,0.8-0.4c0.1-0.2,0.2-0.5,0.2-0.7c0-0.2-0.2-0.5-0.4-0.6
	c-0.4-0.3-1-0.2-1.3,0.2l0,0C90.1,69.5,90.2,70.1,90.6,70.3z"/>
<path class="st2" d="M127.4,48.3L127.4,48.3c0.1,0,0.1,0,0.2,0c0.4,0,0.8-0.3,0.9-0.7c0.1-0.5-0.2-1-0.7-1.1c-0.5-0.1-1,0.2-1.1,0.7
	C126.6,47.7,126.9,48.2,127.4,48.3z"/>
<rect x="116.7" y="24.3" transform="matrix(0.3721 -0.9282 0.9282 0.3721 50.4349 125.0885)" class="st2" width="2" height="1.9"/>
<g>
	<linearGradient id="SVGID_1_" gradientUnits="userSpaceOnUse" x1="166.1814" y1="120.8202" x2="213.7131" y2="120.8202">
		<stop  offset="0" style="stop-color:#E5C28F"/>
		<stop  offset="1" style="stop-color:#C79B5D"/>
	</linearGradient>
	<path class="st3" d="M193.8,117.8c0,0,2.3-9.2,11.1-19.7c-6.7,2.1-14.1,6.1-19.8,9.8l4.7,10.4c2.7,8.4-24.9,13.1-23.5,21.6
		c1.4,8.8,16.2-1.2,26.8-7.4c11.8-6.9,20.7-10.6,20.7-10.6S207.3,119.4,193.8,117.8z"/>
	<linearGradient id="SVGID_2_" gradientUnits="userSpaceOnUse" x1="-1.984194e-02" y1="120.8202" x2="47.5118" y2="120.8202">
		<stop  offset="0" style="stop-color:#E5C28F"/>
		<stop  offset="1" style="stop-color:#C79B5D"/>
	</linearGradient>
	<path class="st4" d="M24,118.4l4.7-10.4c-5.7-3.7-13.2-7.7-19.8-9.8c8.8,10.4,11.1,19.7,11.1,19.7C6.4,119.4,0,122,0,122
		s8.9,3.7,20.7,10.6c10.6,6.2,25.4,16.2,26.8,7.4C48.8,131.5,21.2,126.8,24,118.4z"/>
	<linearGradient id="SVGID_3_" gradientUnits="userSpaceOnUse" x1="27.8688" y1="111.4801" x2="185.9794" y2="111.4801">
		<stop  offset="0" style="stop-color:#E5C28F"/>
		<stop  offset="1" style="stop-color:#C79B5D"/>
	</linearGradient>
	<path class="st5" d="M174.8,90.2c-21.7,8.7-44.5,13.2-67.9,13.2S60.8,99,39.1,90.2l-11.3,27.1c25.2,10.2,51.8,15.4,79.1,15.4
		s53.8-5.2,79.1-15.4L174.8,90.2z"/>
</g>
<g>
	<path class="st1" d="M67.5,109l1,7.4l3.4-6.7l2.9,0.5l-5,9.2l-3.5-0.6l-1.6-10.3L67.5,109z"/>
	<path class="st1" d="M81.6,113.4l-0.2,1.6l3.2,0.4l-0.2,2.1l-3.2-0.4l-0.2,1.8l3.6,0.4l-0.3,2.2l-6.3-0.8l1.2-9.8l6.3,0.8l-0.3,2.2
		L81.6,113.4z"/>
	<path class="st1" d="M95,122.3l-1.8-3.8l-0.3,0l-0.2,3.6l-2.8-0.2l0.6-9.9l4.3,0.3c0.8,0.1,1.5,0.2,2,0.5c0.5,0.3,0.9,0.7,1.2,1.2
		c0.2,0.5,0.4,1.1,0.3,1.7c0,0.7-0.3,1.3-0.7,1.8c-0.4,0.5-1,0.8-1.7,1l2,4L95,122.3z M93,116.7l1.4,0.1c0.8,0,1.2-0.3,1.2-1
		c0-0.3-0.1-0.6-0.2-0.8c-0.2-0.2-0.5-0.3-0.8-0.3l-1.4-0.1L93,116.7z"/>
	<path class="st1" d="M112.1,120.3c-0.4,0.8-1,1.3-1.8,1.8c-0.8,0.4-1.7,0.6-2.7,0.6l-3.9,0v-9.9l3.9,0c1,0,2,0.2,2.7,0.6
		s1.4,1,1.8,1.7c0.4,0.7,0.6,1.6,0.6,2.6C112.7,118.7,112.5,119.5,112.1,120.3z M109.3,119.6c0.5-0.4,0.7-1.1,0.7-1.9
		c0-0.8-0.2-1.4-0.7-1.9c-0.5-0.4-1.1-0.7-1.9-0.7l-0.9,0l0,5h0.9C108.2,120.2,108.8,120,109.3,119.6z"/>
	<path class="st1" d="M120.7,112.4l0.6,9.9l-2.8,0.2l-0.6-9.9L120.7,112.4z"/>
	<path class="st1" d="M133,111.5c0.7,0.2,1.3,0.6,1.8,1.1c0.5,0.5,0.9,1.1,1.1,1.9l-2.9,0.4c-0.2-0.4-0.5-0.6-0.8-0.8
		c-0.4-0.2-0.8-0.2-1.2-0.2c-0.6,0.1-1.1,0.4-1.4,0.9c-0.3,0.5-0.4,1.1-0.3,1.9c0.1,0.8,0.4,1.3,0.8,1.7s0.9,0.6,1.5,0.5
		c0.4-0.1,0.8-0.2,1.1-0.5c0.3-0.3,0.5-0.6,0.6-1l2.9-0.4c-0.1,1.2-0.5,2.2-1.2,2.9s-1.8,1.3-3,1.4c-1,0.1-1.8,0-2.6-0.3
		c-0.8-0.3-1.4-0.9-1.9-1.6c-0.5-0.7-0.8-1.6-0.9-2.5c-0.1-1,0-1.9,0.3-2.7c0.3-0.8,0.8-1.5,1.5-2c0.7-0.5,1.5-0.8,2.5-0.9
		C131.5,111.2,132.3,111.3,133,111.5z"/>
	<path class="st1" d="M147.8,108.4l0.5,2.2l-2.6,0.5l1.6,7.5l-2.7,0.6l-1.6-7.5l-2.6,0.5l-0.5-2.2L147.8,108.4z"/>
</g>
</svg>
