<?xml version="1.0" encoding="utf-8"?>
<!-- Generator: Adobe Illustrator 23.0.1, SVG Export Plug-In . SVG Version: 6.00 Build 0)  -->
<svg version="1.1" id="Layer_1" xmlns="http://www.w3.org/2000/svg" xmlns:xlink="http://www.w3.org/1999/xlink" x="0px" y="0px"
	 width="213.7px" height="196.7px" viewBox="0 0 213.7 196.7" style="enable-background:new 0 0 213.7 196.7;" xml:space="preserve"
	>
<style type="text/css">
	.st0{fill:#E0E3EA;}
	.st1{fill:#0F0B2B;}
	.st2{fill:#E5C28F;}
	.st3{fill:url(#SVGID_1_);}
	.st4{fill:url(#SVGID_2_);}
	.st5{fill:url(#SVGID_3_);}
	.st6{clip-path:url(#SVGID_5_);fill:none;}
	.st7{clip-path:url(#SVGID_5_);fill:#E5C28F;}
	.st8{fill:url(#SVGID_6_);}
	.st9{fill:url(#SVGID_7_);}
	.st10{fill:url(#SVGID_8_);}
	.st11{fill:#DBAE79;}
	.st12{fill:url(#SVGID_9_);}
	.st13{fill:url(#SVGID_10_);}
	.st14{fill:url(#SVGID_11_);}
</style>
<polygon class="st0" points="125.2,106.2 189.1,151.4 121.8,111.6 170.5,173.1 117,115.8 146.5,188.6 111.2,118.4 119.2,196.7 
	104.9,119.4 90.7,196.7 98.6,118.5 63.4,188.7 92.9,115.8 39.4,173.1 88.1,111.6 20.7,151.5 84.6,106.2 "/>
<path class="st1" d="M42.4,29L105,0.3l0.6-0.3l0.6,0.3L168.8,29l0.6,0.3l0.1,0.6c0.1,1.3,0.3,2.8,0.4,4.4c0.1,1.7,0.2,3.5,0.3,5.4
	c0.1,2.7,0.3,5.4,0.4,8c0.1,3,0.2,5.7,0.2,7.8c0.3,11.8-0.6,23.2-2.8,33.7c-2.2,10.6-5.8,20.5-11,29.4c-5.1,8.7-11.7,16.5-20.1,23.2
	c-8.4,6.7-18.6,12.3-30.9,16.6l-0.5,0.2l-0.5-0.2c-12.3-4.3-22.5-9.9-30.9-16.6c-8.4-6.7-15-14.5-20.1-23.2
	c-5.2-8.9-8.7-18.8-10.9-29.4c-2.2-10.6-3-21.9-2.8-33.7c0-2.2,0.1-5.1,0.2-8.3c0.1-2.5,0.2-5.2,0.3-7.9c0.1-1.8,0.2-3.6,0.3-5.2
	c0.1-1.6,0.2-3,0.4-4.3l0.1-0.6L42.4,29L42.4,29z"/>
<g>
	<path class="st2" d="M108.7,49c2.7,0,4.8-2.2,4.8-4.8s-2.2-4.8-4.8-4.8s-4.8,2.2-4.8,4.8S106,49,108.7,49z M108.7,41.5
		c1.5,0,2.8,1.2,2.8,2.8c0,1.5-1.2,2.8-2.8,2.8s-2.8-1.2-2.8-2.8C105.9,42.7,107.2,41.5,108.7,41.5z"/>
	<path class="st2" d="M148.5,43.2H120c-0.6,0-1,0.5-1,1c0,5.7-4.6,10.3-10.3,10.3c-5.7,0-10.3-4.6-10.3-10.3c0-0.6-0.5-1-1-1H68.9
		c-0.6,0-1,0.5-1,1c0,2,0.9,5.6,7,7.6l0.5,0.2l0.1,0.6c0.2,1.9,1.4,3.6,3.4,4.8c1.5,0.9,3.4,1.6,5.4,1.8l0.8,0.1v0.6
		c0.7,2.1,2.4,3.5,4.9,4.1c0.8,0.2,1.7,0.3,2.7,0.3H93l0.3,0.3c1.6,1.9,4.1,3.1,7.1,3.4c2.1,0.2,4.3,0,6.2-0.6l1.1-0.3v19.8
		c-4.7,2.2-9.5,5.2-9.5,10.5c0,4.3,4.2,6.5,4.4,6.6c0.1,0.1,0.3,0.1,0.5,0.1c0.4,0,0.7-0.2,0.9-0.6c0.3-0.5,0.1-1.1-0.5-1.4
		c0,0-3.2-1.7-3.2-4.8c0-3.9,3.5-6.4,7.4-8.2v16.3c-4.8,2.9-9.4,6.5-7.5,13c0.1,0.4,0.5,0.7,1,0.7c0.1,0,0.2,0,0.3,0
		c0.3-0.1,0.5-0.3,0.6-0.5c0.1-0.2,0.2-0.5,0.1-0.8c-1.3-4.5,1.2-7.2,5.6-10v10.8c0,0.6,0.5,1,1,1c0.6,0,1-0.5,1-1v-12.1
		c0.3-0.2,0.5-0.3,0.8-0.5c3.7-2.2,7.2-4.3,8-7.5c0.4-1.7-0.1-3.6-1.4-5.6c-0.2-0.2-0.4-0.4-0.7-0.4c-0.1,0-0.1,0-0.2,0
		c-0.2,0-0.4,0.1-0.6,0.2c-0.2,0.2-0.4,0.4-0.4,0.7c-0.1,0.3,0,0.5,0.2,0.8c1,1.5,1.4,2.8,1.1,4c-0.5,2.3-3.7,4.2-6.8,6.1v-16
		c0.8-0.3,1.5-0.6,2.3-0.9c1.8-0.8,3.6-1.5,4.8-2.3c2.9-1.8,4.8-4.8,5.2-8.1c0.2-2.1-0.2-3.9-1.2-4.9c-0.2-0.2-0.5-0.3-0.7-0.3
		c-0.3,0-0.5,0.1-0.7,0.3c-0.4,0.4-0.4,1.1,0,1.5c0.6,0.6,0.8,1.8,0.6,3.2c-0.1,1-0.8,4.4-4.2,6.5c-1.1,0.7-2.8,1.4-4.5,2.1
		c-0.5,0.2-1,0.4-1.5,0.6V66.9l1.1,0.3c1.9,0.6,4.2,0.8,6.2,0.6c3-0.3,5.4-1.5,7.1-3.4l0.3-0.3h0.4c1,0,1.9-0.1,2.7-0.3
		c2.5-0.6,4.1-2,4.9-4.1v-0.6l0.8-0.1c2-0.2,3.9-0.9,5.4-1.8c2-1.2,3.1-2.9,3.4-4.8l0.1-0.6l0.5-0.2c6.1-1.9,7-5.6,7-7.6
		C149.5,43.7,149,43.2,148.5,43.2z M107.2,64.8c-0.9,0.4-2.9,1.1-5.3,1.1c-0.4,0-0.9,0-1.3-0.1c-1.2-0.1-2.3-0.4-3.3-0.9l-1.9-0.9
		l2-0.7c1.2-0.4,2.1-0.9,2.6-1.4c0.2-0.2,0.3-0.5,0.3-0.7s-0.1-0.5-0.3-0.7c-0.4-0.4-1.1-0.4-1.5,0c-0.9,0.9-4.9,2.1-8.1,1.4
		c-1.1-0.3-2-0.7-2.6-1.4l-1-1.1l1.5-0.3c0.8-0.1,1.4-0.4,2-0.6c0.2-0.1,0.4-0.3,0.5-0.6c0.1-0.3,0.1-0.5-0.1-0.8
		c-0.1-0.2-0.3-0.4-0.6-0.5c-0.3-0.1-0.5-0.1-0.8,0.1c-2,1-6.4,0.8-9.3-1c-0.7-0.5-1.3-1-1.7-1.5l-1.1-1.6l1.9,0.2
		c1,0.1,2.1,0.2,3.1,0.2c0.6,0,1-0.5,1-1c0-0.6-0.5-1-1-1c-0.9,0-9.2-0.1-11.6-4.2l-0.8-1.3h26.5l0.1,0.7c0.8,5.4,5.1,9.7,10.5,10.5
		l0.9,0.1l-0.2,0.9c0,0.1,0,0.2,0,0.2v6.8L107.2,64.8z M146.8,46.6c-2.4,4.1-10.7,4.2-11.6,4.2c-0.6,0-1,0.5-1,1c0,0.6,0.5,1,1,1
		c1,0,2.1-0.1,3.1-0.2l1.9-0.2l-1.1,1.6c-0.4,0.6-1,1.1-1.7,1.5c-2.9,1.8-7.3,2-9.3,1c-0.5-0.3-1.1,0-1.4,0.5
		c-0.3,0.5,0,1.1,0.5,1.4c0.5,0.3,1.2,0.5,2,0.6l1.5,0.3l-1,1.1c-0.6,0.7-1.5,1.2-2.6,1.4c-3.2,0.8-7.2-0.4-8.1-1.4
		c-0.2-0.2-0.5-0.3-0.7-0.3c0,0,0,0,0,0c-0.3,0-0.5,0.1-0.7,0.3c-0.2,0.2-0.3,0.5-0.3,0.7s0.1,0.5,0.3,0.7c0.5,0.5,1.4,1,2.6,1.4
		l2,0.7l-1.9,0.9c-1,0.5-2.1,0.7-3.3,0.9c-0.5,0-0.9,0.1-1.3,0.1c-2.4,0-4.4-0.6-5.3-1.1l-0.5-0.2v-6.8c0-0.1,0-0.1,0-0.2l-0.2-0.9
		l0.9-0.1c5.4-0.8,9.8-5.1,10.5-10.5l0.1-0.7h26.5L146.8,46.6z"/>
	<path class="st2" d="M101.1,85c0.4,0,0.8-0.3,1-0.7c0.2-0.5-0.1-1.1-0.7-1.3c-2.6-0.9-3.6-3-4-4.6c-0.5-2.1-0.1-4.3,0.6-5
		c0.2-0.2,0.3-0.5,0.3-0.7s-0.1-0.5-0.3-0.7c-0.2-0.2-0.5-0.3-0.7-0.3c-0.3,0-0.5,0.1-0.7,0.3c-1.3,1.3-1.8,4.2-1.2,7
		c0.7,3,2.7,5.2,5.3,6.1C100.9,85,101,85,101.1,85z"/>
</g>
<g>
	<linearGradient id="SVGID_1_" gradientUnits="userSpaceOnUse" x1="166.2012" y1="120.8202" x2="213.733" y2="120.8202">
		<stop  offset="0" style="stop-color:#E5C28F"/>
		<stop  offset="1" style="stop-color:#C79B5D"/>
	</linearGradient>
	<path class="st3" d="M193.8,117.8c0,0,2.3-9.2,11.1-19.7c-6.7,2.1-14.1,6.1-19.8,9.8l4.7,10.4c2.7,8.4-24.9,13.1-23.5,21.6
		c1.4,8.8,16.2-1.2,26.8-7.4c11.8-6.9,20.7-10.6,20.7-10.6S207.3,119.4,193.8,117.8z"/>
	<linearGradient id="SVGID_2_" gradientUnits="userSpaceOnUse" x1="0" y1="120.8202" x2="47.5317" y2="120.8202">
		<stop  offset="0" style="stop-color:#E5C28F"/>
		<stop  offset="1" style="stop-color:#C79B5D"/>
	</linearGradient>
	<path class="st4" d="M24,118.4l4.7-10.4c-5.7-3.7-13.2-7.7-19.8-9.8c8.8,10.4,11.1,19.7,11.1,19.7C6.4,119.4,0,122,0,122
		s8.9,3.7,20.7,10.6c10.6,6.2,25.4,16.2,26.8,7.4C48.8,131.5,21.3,126.8,24,118.4z"/>
	<linearGradient id="SVGID_3_" gradientUnits="userSpaceOnUse" x1="27.8887" y1="111.4801" x2="185.9993" y2="111.4801">
		<stop  offset="0" style="stop-color:#E5C28F"/>
		<stop  offset="1" style="stop-color:#C79B5D"/>
	</linearGradient>
	<path class="st5" d="M174.8,90.2c-21.7,8.7-44.5,13.2-67.9,13.2S60.8,99,39.1,90.2l-11.3,27.1c25.2,10.2,51.8,15.4,79.1,15.4
		s53.8-5.2,79.1-15.4L174.8,90.2z"/>
</g>
<g>
	<path class="st1" d="M67.5,109l1,7.4l3.4-6.7l2.9,0.5l-5,9.2l-3.5-0.6l-1.6-10.3L67.5,109z"/>
	<path class="st1" d="M81.6,113.4l-0.2,1.6l3.2,0.4l-0.2,2.1l-3.2-0.4l-0.2,1.8l3.6,0.4l-0.3,2.2l-6.3-0.8l1.2-9.8l6.3,0.8l-0.3,2.2
		L81.6,113.4z"/>
	<path class="st1" d="M95,122.3l-1.8-3.8l-0.3,0l-0.2,3.6l-2.8-0.2l0.6-9.9l4.3,0.3c0.8,0.1,1.5,0.2,2,0.5c0.5,0.3,0.9,0.7,1.2,1.2
		c0.2,0.5,0.4,1.1,0.3,1.7c0,0.7-0.3,1.3-0.7,1.8c-0.4,0.5-1,0.8-1.7,1l2,4L95,122.3z M93.1,116.7l1.4,0.1c0.8,0,1.2-0.3,1.2-1
		c0-0.3-0.1-0.6-0.2-0.8c-0.2-0.2-0.5-0.3-0.8-0.3l-1.4-0.1L93.1,116.7z"/>
	<path class="st1" d="M112.1,120.3c-0.4,0.8-1,1.3-1.8,1.8c-0.8,0.4-1.7,0.6-2.7,0.6l-3.9,0v-9.9l3.9,0c1,0,2,0.2,2.7,0.6
		s1.4,1,1.8,1.7c0.4,0.7,0.6,1.6,0.6,2.6C112.8,118.7,112.6,119.5,112.1,120.3z M109.3,119.6c0.5-0.4,0.7-1.1,0.7-1.9
		c0-0.8-0.2-1.4-0.7-1.9c-0.5-0.4-1.1-0.7-1.9-0.7l-0.9,0l0,5h0.9C108.2,120.2,108.8,120,109.3,119.6z"/>
	<path class="st1" d="M120.7,112.4l0.6,9.9l-2.8,0.2l-0.6-9.9L120.7,112.4z"/>
	<path class="st1" d="M133,111.5c0.7,0.2,1.3,0.6,1.8,1.1c0.5,0.5,0.9,1.1,1.1,1.9l-2.9,0.4c-0.2-0.4-0.5-0.6-0.8-0.8
		c-0.4-0.2-0.8-0.2-1.2-0.2c-0.6,0.1-1.1,0.4-1.4,0.9c-0.3,0.5-0.4,1.1-0.3,1.9c0.1,0.8,0.4,1.3,0.8,1.7s0.9,0.6,1.5,0.5
		c0.4-0.1,0.8-0.2,1.1-0.5c0.3-0.3,0.5-0.6,0.6-1l2.9-0.4c-0.1,1.2-0.5,2.2-1.2,2.9s-1.8,1.3-3,1.4c-1,0.1-1.8,0-2.6-0.3
		c-0.8-0.3-1.4-0.9-1.9-1.6c-0.5-0.7-0.8-1.6-0.9-2.5c-0.1-1,0-1.9,0.3-2.7c0.3-0.8,0.8-1.5,1.5-2c0.7-0.5,1.5-0.8,2.5-0.9
		C131.6,111.2,132.3,111.3,133,111.5z"/>
	<path class="st1" d="M147.8,108.4l0.5,2.2l-2.6,0.5l1.6,7.5l-2.7,0.6l-1.6-7.5l-2.6,0.5l-0.5-2.2L147.8,108.4z"/>
</g>
</svg>
