<?xml version="1.0" encoding="utf-8"?>
<!-- Generator: Adobe Illustrator 23.0.1, SVG Export Plug-In . SVG Version: 6.00 Build 0)  -->
<svg version="1.1" id="Layer_1" xmlns="http://www.w3.org/2000/svg" xmlns:xlink="http://www.w3.org/1999/xlink" x="0px" y="0px"
	 width="213.7px" height="196.7px" viewBox="0 0 213.7 196.7" style="enable-background:new 0 0 213.7 196.7;" xml:space="preserve"
	>
<style type="text/css">
	.st0{fill:#E0E3EA;}
	.st1{fill:#0F0B2B;}
	.st2{fill:#E5C28F;}
	.st3{fill:none;}
	.st4{font-family:'ArialMT';}
	.st5{font-size:12px;}
	.st6{fill:url(#SVGID_1_);}
	.st7{fill:url(#SVGID_2_);}
	.st8{fill:url(#SVGID_3_);}
	.st9{fill:#100A2D;}
</style>
<polygon class="st0" points="-108.5,106.2 -44.6,151.4 -112,111.6 -63.3,173.1 -116.8,115.8 -87.2,188.6 -122.5,118.4 -114.5,196.7 
	-128.8,119.4 -143,196.7 -135.1,118.5 -170.4,188.7 -140.9,115.8 -194.3,173.1 -145.7,111.6 -213,151.5 -149.1,106.2 "/>
<path class="st1" d="M-190.1,29l62.6-28.7l0.6-0.3l0.6,0.3L-63.6,29l0.6,0.3l0.1,0.6c0.1,1.3,0.3,2.8,0.4,4.4
	c0.1,1.7,0.2,3.5,0.3,5.4c0.1,2.7,0.3,5.4,0.4,8c0.1,3,0.2,5.7,0.2,7.8c0.3,11.8-0.6,23.2-2.8,33.7c-2.2,10.6-5.8,20.5-11,29.4
	c-5.1,8.7-11.7,16.5-20.1,23.2s-18.6,12.3-30.9,16.6l-0.5,0.2l-0.5-0.2c-12.3-4.3-22.5-9.9-30.9-16.6c-8.4-6.7-15-14.5-20.1-23.2
	c-5.2-8.9-8.7-18.8-10.9-29.4s-3-21.9-2.8-33.7c0-2.2,0.1-5.1,0.2-8.3c0.1-2.5,0.2-5.2,0.3-7.9c0.1-1.8,0.2-3.6,0.3-5.2
	c0.1-1.6,0.2-3,0.4-4.3l0.1-0.6L-190.1,29L-190.1,29z"/>
<path class="st2" d="M-91.5,116.7"/>
<path id="SVGID_x5F_4_x5F_" class="st3" d="M-194.4,112.3c0,0,71.3,24.5,133.3-1.6"/>
<text transform="matrix(1 0 0 1 0 -1.464844e-05)" class="st4 st5"> </text>
<g>
	<path class="st2" d="M-91.4,57.8h-16.2l-4.2-29.7l-2.1,0.3l4.2,29.4h-12.5V28.3h-2.1v29.5h-5.8V28.3h-2.1v29.5h-12.5l4.2-29.4
		l-2.1-0.3l-4.2,29.7h-15.3c-1.1,0-1.9,0.9-1.9,2v4.8c0,1.1,0.9,2,1.9,2h3.5v6c0,1.1,0.9,2,1.9,2h4.5c0.9,0,1.6-0.6,1.9-1.5l0.7-3
		l1,0.2l-4.7,32.9l2.1,0.3l5.3-37h13.7v37.3h2.1V66.6h5.8v37.3h2.1V66.6h13.8l5.3,37l2.1-0.3l-5.2-36.6h1.6l1.6,6.5
		c0.2,0.9,1,1.5,1.9,1.5h4.5c1.1,0,1.9-0.9,1.9-2v-6h3.5c1.1,0,1.9-0.9,1.9-2v-4.8C-89.5,58.7-90.4,57.8-91.4,57.8z M-91.6,64.4H-96
		c-0.6,0-1.1,0.5-1.1,1.1v6.9h-4.1l-1.7-7.2c-0.1-0.5-0.5-0.8-1-0.8h-45.8c-0.5,0-0.9,0.3-1,0.8l-1.7,7.2h-4.1v-6.9
		c0-0.6-0.5-1.1-1.1-1.1h-4.3v-4.3h70.4V64.4z"/>
	<polygon class="st2" points="-141.7,102.7 -140.9,91.8 -143,91.6 -143.9,102.5 	"/>
	<polygon class="st2" points="-139.9,83.6 -139.1,72.7 -141.2,72.5 -142,83.4 	"/>
	<polygon class="st2" points="-137.8,54 -137,43 -139.1,42.9 -139.9,53.8 	"/>
	<polygon class="st2" points="-136.4,37.4 -135.6,28.5 -137.8,28.3 -138.6,37.2 	"/>
	<polygon class="st2" points="-114.2,91.8 -113.4,102.7 -111.3,102.5 -112.1,91.6 	"/>
	<polygon class="st2" points="-113.9,72.5 -116,72.7 -115.2,83.6 -113.1,83.4 	"/>
	<polygon class="st2" points="-115.2,53.8 -116,42.9 -118.1,43 -117.3,54 	"/>
	<polygon class="st2" points="-116.5,37.2 -117.3,28.3 -119.5,28.5 -118.7,37.4 	"/>
</g>
<g>
	
		<linearGradient id="SVGID_1_" gradientUnits="userSpaceOnUse" x1="-67.5317" y1="75.1568" x2="-20" y2="75.1568" gradientTransform="matrix(1 0 0 -1 0 195.89)">
		<stop  offset="0" style="stop-color:#E5C28F"/>
		<stop  offset="1" style="stop-color:#C79B5D"/>
	</linearGradient>
	<path class="st6" d="M-39.9,117.8c0,0,2.3-9.2,11.1-19.7c-6.7,2.1-14.1,6.1-19.8,9.8l4.7,10.4c2.7,8.4-24.9,13.1-23.5,21.6
		c1.4,8.8,16.2-1.2,26.8-7.4C-28.9,125.7-20,122-20,122S-26.4,119.4-39.9,117.8z"/>
	
		<linearGradient id="SVGID_2_" gradientUnits="userSpaceOnUse" x1="-233.7" y1="75.0068" x2="-186.1554" y2="75.0068" gradientTransform="matrix(1 0 0 -1 0 195.89)">
		<stop  offset="0" style="stop-color:#E5C28F"/>
		<stop  offset="1" style="stop-color:#C79B5D"/>
	</linearGradient>
	<path class="st7" d="M-209.8,118.4l4.7-10.4c-5.7-3.7-13.2-7.7-19.8-9.8c8.8,10.4,11.1,19.7,11.1,19.7c-13.5,1.5-19.9,4.2-19.9,4.2
		s8.9,3.7,20.7,10.6c10.6,6.2,25.4,16.2,26.8,7.4C-184.9,131.5-212.5,126.8-209.8,118.4z"/>
	
		<linearGradient id="SVGID_3_" gradientUnits="userSpaceOnUse" x1="-205.9" y1="84.44" x2="-47.7" y2="84.44" gradientTransform="matrix(1 0 0 -1 0 195.89)">
		<stop  offset="0" style="stop-color:#E5C28F"/>
		<stop  offset="1" style="stop-color:#C79B5D"/>
	</linearGradient>
	<path class="st8" d="M-58.9,90.2c-21.7,8.7-44.5,13.2-67.9,13.2S-173,99-194.6,90.2l-11.3,27.1c25.2,10.2,51.8,15.4,79.1,15.4
		s53.8-5.2,79.1-15.4L-58.9,90.2z"/>
</g>
<g>
	<path class="st9" d="M-166.1,110.1l1,7.4l3.4-6.7l2.9,0.5l-5,9.2l-3.5-0.6l-1.6-10.3L-166.1,110.1z"/>
	<path class="st9" d="M-152,114.5l-0.2,1.6l3.2,0.4l-0.2,2.1l-3.2-0.4l-0.2,1.8l3.6,0.4l-0.3,2.2l-6.3-0.8l1.2-9.8l6.3,0.8l-0.3,2.2
		L-152,114.5z"/>
	<path class="st9" d="M-138.7,123.4l-1.8-3.8l-0.3,0l-0.2,3.6l-2.8-0.2l0.6-9.9l4.3,0.3c0.8,0.1,1.5,0.2,2,0.5
		c0.5,0.3,0.9,0.7,1.2,1.2c0.2,0.5,0.4,1.1,0.3,1.7c0,0.7-0.3,1.3-0.7,1.8c-0.4,0.5-1,0.8-1.7,1l2,4L-138.7,123.4z M-140.6,117.8
		l1.4,0.1c0.8,0,1.2-0.3,1.2-1c0-0.3-0.1-0.6-0.2-0.8c-0.2-0.2-0.5-0.3-0.8-0.3l-1.4-0.1L-140.6,117.8z"/>
	<path class="st9" d="M-121.5,121.4c-0.4,0.8-1,1.3-1.8,1.8c-0.8,0.4-1.7,0.6-2.7,0.6l-3.9,0v-9.9l3.9,0c1,0,2,0.2,2.7,0.6
		s1.4,1,1.8,1.7c0.4,0.7,0.6,1.6,0.6,2.6C-120.9,119.8-121.1,120.7-121.5,121.4z M-124.4,120.7c0.5-0.4,0.7-1.1,0.7-1.9
		c0-0.8-0.2-1.4-0.7-1.9c-0.5-0.4-1.1-0.7-1.9-0.7l-0.9,0l0,5h0.9C-125.5,121.4-124.9,121.2-124.4,120.7z"/>
	<path class="st9" d="M-113,113.5l0.6,9.9l-2.8,0.2l-0.6-9.9L-113,113.5z"/>
	<path class="st9" d="M-100.6,112.7c0.7,0.2,1.3,0.6,1.8,1.1c0.5,0.5,0.9,1.1,1.1,1.9l-2.9,0.4c-0.2-0.4-0.5-0.6-0.8-0.8
		c-0.4-0.2-0.8-0.2-1.2-0.2c-0.6,0.1-1.1,0.4-1.4,0.9c-0.3,0.5-0.4,1.1-0.3,1.9c0.1,0.8,0.4,1.3,0.8,1.7s0.9,0.6,1.5,0.5
		c0.4-0.1,0.8-0.2,1.1-0.5c0.3-0.3,0.5-0.6,0.6-1l2.9-0.4c-0.1,1.2-0.5,2.2-1.2,2.9s-1.8,1.3-3,1.4c-1,0.1-1.8,0-2.6-0.3
		c-0.8-0.3-1.4-0.9-1.9-1.6c-0.5-0.7-0.8-1.6-0.9-2.5c-0.1-1,0-1.9,0.3-2.7c0.3-0.8,0.8-1.5,1.5-2c0.7-0.5,1.5-0.8,2.5-0.9
		C-102.1,112.4-101.3,112.4-100.6,112.7z"/>
	<path class="st9" d="M-85.9,109.6l0.5,2.2l-2.6,0.5l1.6,7.5l-2.7,0.6l-1.6-7.5l-2.6,0.5l-0.5-2.2L-85.9,109.6z"/>
</g>
</svg>
