<?xml version="1.0" encoding="utf-8"?>
<!-- Generator: Adobe Illustrator 22.0.1, SVG Export Plug-In . SVG Version: 6.00 Build 0)  -->
<svg version="1.1" id="Layer_1" xmlns="http://www.w3.org/2000/svg" xmlns:xlink="http://www.w3.org/1999/xlink" x="0px" y="0px"
	 viewBox="0 0 213.7 196.7" style="enable-background:new 0 0 213.7 196.7;" xml:space="preserve">
<style type="text/css">
	.st0{fill:#E0E3EA;}
	.st1{fill:#0F0B2B;}
	.st2{fill:#E5C28F;}
	.st3{fill:none;}
	.st4{fill:url(#SVGID_1_);}
	.st5{fill:url(#SVGID_2_);}
	.st6{fill:url(#SVGID_3_);}
	.st7{fill:#100A2D;}
</style>
<polygon class="st0" points="125.5,106.2 189.4,151.4 122,111.6 170.7,173.1 117.2,115.8 146.8,188.6 111.5,118.4 119.5,196.7 
	105.2,119.4 91,196.7 98.9,118.5 63.6,188.7 93.1,115.8 39.7,173.1 88.3,111.6 21,151.5 84.9,106.2 "/>
<path class="st1" d="M43,29l62.6-28.7l0.6-0.3l0.6,0.3L169.5,29l0.6,0.3l0.1,0.6c0.1,1.3,0.3,2.8,0.4,4.4c0.1,1.7,0.2,3.5,0.3,5.4
	c0.1,2.7,0.3,5.4,0.4,8c0.1,3,0.2,5.7,0.2,7.8c0.3,11.8-0.6,23.2-2.8,33.7c-2.2,10.6-5.8,20.5-11,29.4c-5.1,8.7-11.7,16.5-20.1,23.2
	c-8.4,6.7-18.6,12.3-30.9,16.6l-0.5,0.2l-0.5-0.2c-12.3-4.3-22.5-9.9-30.9-16.6c-8.4-6.7-15-14.5-20.1-23.2
	c-5.2-8.9-8.7-18.8-10.9-29.4s-3-21.9-2.8-33.7c0-2.2,0.1-5.1,0.2-8.3c0.1-2.5,0.2-5.2,0.3-7.9c0.1-1.8,0.2-3.6,0.3-5.2
	c0.1-1.6,0.2-3,0.4-4.3l0.1-0.6L43,29L43,29z"/>
<path class="st2" d="M142.5,116.7"/>
<path id="SVGID_x5F_4_x5F_" class="st3" d="M39.6,112.3c0,0,71.3,24.5,133.3-1.6"/>
<g>
	<g>
		<path class="st2" d="M88.8,80.3c0-9.6,16.9-54.3,17.6-56.2c0.2-0.6,1.5-0.6,1.7,0c0.7,1.9,17.6,46.6,17.6,56.2
			c0,10-8.3,18.2-18.5,18.2C97.1,98.4,88.8,90.3,88.8,80.3z M90.6,80.3c0,9.2,7.5,16.7,16.7,16.7S124,89.5,124,80.3
			c0-8.2-13.1-44-16.7-53.5C103.7,36.3,90.6,72.1,90.6,80.3z"/>
	</g>
	<g>
		<g>
			<path class="st2" d="M101,108h12.6c0.5,0,0.9-0.3,0.9-0.7c0-0.4-0.4-0.7-0.9-0.7H101c-0.5,0-0.9,0.3-0.9,0.7
				C100.1,107.6,100.5,108,101,108z"/>
		</g>
		<g>
			<path class="st2" d="M107.3,108c0.5,0,0.9-0.3,0.9-0.7V50.4c0-0.4-0.4-0.7-0.9-0.7s-0.9,0.3-0.9,0.7v56.8
				C106.4,107.6,106.8,108,107.3,108z"/>
		</g>
		<g>
			<path class="st2" d="M107.5,66.7c0.3,0,0.5-0.1,0.7-0.3l6-6c0.3-0.3,0.3-0.8-0.1-1s-1-0.2-1.3,0.1l-6,6c-0.3,0.3-0.3,0.8,0.1,1
				C107.1,66.6,107.3,66.7,107.5,66.7z"/>
		</g>
		<g>
			<path class="st2" d="M107.5,72.2c0.3,0,0.5-0.1,0.7-0.3l6-6c0.3-0.3,0.3-0.8-0.1-1s-1-0.2-1.3,0.1l-6,6c-0.3,0.3-0.3,0.8,0.1,1
				C107.1,72.1,107.3,72.2,107.5,72.2z"/>
		</g>
		<g>
			<path class="st2" d="M107,81.3c0.2,0,0.4-0.1,0.6-0.2c0.4-0.2,0.5-0.7,0.1-1l-7.2-7.1c-0.3-0.3-0.9-0.4-1.3-0.1
				c-0.4,0.2-0.5,0.7-0.1,1l7.2,7.1C106.5,81.2,106.8,81.3,107,81.3z"/>
		</g>
		<g>
			<path class="st2" d="M107,86.7c0.2,0,0.4-0.1,0.6-0.2c0.4-0.2,0.5-0.7,0.1-1l-7.2-7.1c-0.3-0.3-0.9-0.4-1.3-0.1
				c-0.4,0.2-0.5,0.7-0.1,1l7.2,7.1C106.5,86.6,106.8,86.7,107,86.7z"/>
		</g>
	</g>
</g>
<g>
	
		<linearGradient id="SVGID_1_" gradientUnits="userSpaceOnUse" x1="166.4683" y1="692.8433" x2="214" y2="692.8433" gradientTransform="matrix(1 0 0 1 0 -572.11)">
		<stop  offset="0" style="stop-color:#E5C28F"/>
		<stop  offset="1" style="stop-color:#C79B5D"/>
	</linearGradient>
	<path class="st4" d="M194.1,117.8c0,0,2.3-9.2,11.1-19.7c-6.7,2.1-14.1,6.1-19.8,9.8l4.7,10.4c2.7,8.4-24.9,13.1-23.5,21.6
		c1.4,8.8,16.2-1.2,26.8-7.4C205.1,125.7,214,122,214,122S207.6,119.4,194.1,117.8z"/>
	
		<linearGradient id="SVGID_2_" gradientUnits="userSpaceOnUse" x1="0.3" y1="692.9932" x2="47.8446" y2="692.9932" gradientTransform="matrix(1 0 0 1 0 -572.11)">
		<stop  offset="0" style="stop-color:#E5C28F"/>
		<stop  offset="1" style="stop-color:#C79B5D"/>
	</linearGradient>
	<path class="st5" d="M24.2,118.4l4.7-10.4c-5.7-3.7-13.2-7.7-19.8-9.8c8.8,10.4,11.1,19.7,11.1,19.7c-13.5,1.5-19.9,4.2-19.9,4.2
		s8.9,3.7,20.7,10.6c10.6,6.2,25.4,16.2,26.8,7.4C49.1,131.5,21.5,126.8,24.2,118.4z"/>
	
		<linearGradient id="SVGID_3_" gradientUnits="userSpaceOnUse" x1="28.1" y1="683.56" x2="186.3" y2="683.56" gradientTransform="matrix(1 0 0 1 0 -572.11)">
		<stop  offset="0" style="stop-color:#E5C28F"/>
		<stop  offset="1" style="stop-color:#C79B5D"/>
	</linearGradient>
	<path class="st6" d="M175.1,90.2c-21.7,8.7-44.5,13.2-67.9,13.2S61,99,39.4,90.2l-11.3,27.1c25.2,10.2,51.8,15.4,79.1,15.4
		s53.8-5.2,79.1-15.4L175.1,90.2z"/>
</g>
<g>
	<path class="st7" d="M67.9,110.1l1,7.4l3.4-6.7l2.9,0.5l-5,9.2l-3.5-0.6l-1.6-10.3L67.9,110.1z"/>
	<path class="st7" d="M82,114.5l-0.2,1.6l3.2,0.4l-0.2,2.1l-3.2-0.4l-0.2,1.8l3.6,0.4l-0.3,2.2l-6.3-0.8l1.2-9.8l6.3,0.8l-0.3,2.2
		L82,114.5z"/>
	<path class="st7" d="M95.3,123.4l-1.8-3.8h-0.3l-0.2,3.6l-2.8-0.2l0.6-9.9l4.3,0.3c0.8,0.1,1.5,0.2,2,0.5s0.9,0.7,1.2,1.2
		c0.2,0.5,0.4,1.1,0.3,1.7c0,0.7-0.3,1.3-0.7,1.8s-1,0.8-1.7,1l2,4L95.3,123.4z M93.4,117.8l1.4,0.1c0.8,0,1.2-0.3,1.2-1
		c0-0.3-0.1-0.6-0.2-0.8c-0.2-0.2-0.5-0.3-0.8-0.3l-1.4-0.1L93.4,117.8z"/>
	<path class="st7" d="M112.5,121.4c-0.4,0.8-1,1.3-1.8,1.8c-0.8,0.4-1.7,0.6-2.7,0.6h-3.9v-9.9h3.9c1,0,2,0.2,2.7,0.6s1.4,1,1.8,1.7
		s0.6,1.6,0.6,2.6C113.1,119.8,112.9,120.7,112.5,121.4z M109.6,120.7c0.5-0.4,0.7-1.1,0.7-1.9s-0.2-1.4-0.7-1.9
		c-0.5-0.4-1.1-0.7-1.9-0.7h-0.9v5h0.9C108.5,121.4,109.1,121.2,109.6,120.7z"/>
	<path class="st7" d="M121,113.5l0.6,9.9l-2.8,0.2l-0.6-9.9L121,113.5z"/>
	<path class="st7" d="M133.4,112.7c0.7,0.2,1.3,0.6,1.8,1.1s0.9,1.1,1.1,1.9l-2.9,0.4c-0.2-0.4-0.5-0.6-0.8-0.8
		c-0.4-0.2-0.8-0.2-1.2-0.2c-0.6,0.1-1.1,0.4-1.4,0.9s-0.4,1.1-0.3,1.9s0.4,1.3,0.8,1.7s0.9,0.6,1.5,0.5c0.4-0.1,0.8-0.2,1.1-0.5
		c0.3-0.3,0.5-0.6,0.6-1l2.9-0.4c-0.1,1.2-0.5,2.2-1.2,2.9c-0.7,0.7-1.8,1.3-3,1.4c-1,0.1-1.8,0-2.6-0.3s-1.4-0.9-1.9-1.6
		c-0.5-0.7-0.8-1.6-0.9-2.5c-0.1-1,0-1.9,0.3-2.7c0.3-0.8,0.8-1.5,1.5-2s1.5-0.8,2.5-0.9C131.9,112.4,132.7,112.4,133.4,112.7z"/>
	<path class="st7" d="M148.1,109.6l0.5,2.2l-2.6,0.5l1.6,7.5l-2.7,0.6l-1.6-7.5l-2.6,0.5l-0.5-2.2L148.1,109.6z"/>
</g>
</svg>
