<?xml version="1.0" encoding="utf-8"?>
<!-- Generator: Adobe Illustrator 23.0.1, SVG Export Plug-In . SVG Version: 6.00 Build 0)  -->
<svg version="1.1" id="Layer_1" xmlns="http://www.w3.org/2000/svg" xmlns:xlink="http://www.w3.org/1999/xlink" x="0px" y="0px"
	 width="213.7px" height="196.7px" viewBox="0 0 213.7 196.7" style="enable-background:new 0 0 213.7 196.7;" xml:space="preserve"
	>
<style type="text/css">
	.st0{fill:#E0E3EA;}
	.st1{fill:#0F0B2B;}
	.st2{fill:#E5C28F;}
	.st3{fill:url(#SVGID_1_);}
	.st4{fill:url(#SVGID_2_);}
	.st5{fill:url(#SVGID_3_);}
	.st6{clip-path:url(#SVGID_5_);fill:none;}
	.st7{clip-path:url(#SVGID_5_);fill:#E5C28F;}
	.st8{fill:url(#SVGID_6_);}
	.st9{fill:url(#SVGID_7_);}
	.st10{fill:url(#SVGID_8_);}
	.st11{fill:#DBAE79;}
	.st12{fill:url(#SVGID_9_);}
	.st13{fill:url(#SVGID_10_);}
	.st14{fill:url(#SVGID_11_);}
</style>
<polygon class="st0" points="125.2,106.2 189.1,151.4 121.8,111.6 170.5,173.1 117,115.8 146.5,188.6 111.2,118.4 119.2,196.7 
	104.9,119.4 90.7,196.7 98.6,118.5 63.4,188.7 92.9,115.8 39.4,173.1 88.1,111.6 20.7,151.5 84.6,106.2 "/>
<path class="st1" d="M42.4,29L105,0.3l0.6-0.3l0.6,0.3L168.8,29l0.6,0.3l0.1,0.6c0.1,1.3,0.3,2.8,0.4,4.4c0.1,1.7,0.2,3.5,0.3,5.4
	c0.1,2.7,0.3,5.4,0.4,8c0.1,3,0.2,5.7,0.2,7.8c0.3,11.8-0.6,23.2-2.8,33.7c-2.2,10.6-5.8,20.5-11,29.4c-5.1,8.7-11.7,16.5-20.1,23.2
	c-8.4,6.7-18.6,12.3-30.9,16.6l-0.5,0.2l-0.5-0.2c-12.3-4.3-22.5-9.9-30.9-16.6c-8.4-6.7-15-14.5-20.1-23.2
	c-5.2-8.9-8.7-18.8-10.9-29.4c-2.2-10.6-3-21.9-2.8-33.7c0-2.2,0.1-5.1,0.2-8.3c0.1-2.5,0.2-5.2,0.3-7.9c0.1-1.8,0.2-3.6,0.3-5.2
	c0.1-1.6,0.2-3,0.4-4.3l0.1-0.6L42.4,29L42.4,29z"/>
<g>
	<defs>
		<polygon id="SVGID_4_" points="74.5,119.6 132.9,119.6 137.5,24 102.2,6.7 71.7,22.7 		"/>
	</defs>
	<clipPath id="SVGID_1_">
		<use xlink:href="#SVGID_4_"  style="overflow:visible;"/>
	</clipPath>
	<polygon style="clip-path:url(#SVGID_1_);fill:none;" points="104.3,57.5 104.3,57.5 104.3,57.5 	"/>
	<polygon style="clip-path:url(#SVGID_1_);fill:none;" points="106.3,57.3 115.7,132.6 106.3,57.3 	"/>
	<polygon style="clip-path:url(#SVGID_1_);fill:none;" points="104.3,51.4 93.6,51.4 93.6,58.4 104.3,55.5 	"/>
	<polygon style="clip-path:url(#SVGID_1_);fill:none;" points="104.3,57.5 95.3,132.6 104.3,57.5 	"/>
	<polygon style="clip-path:url(#SVGID_1_);fill:none;" points="118.6,51.4 106.2,51.4 106.2,55.3 118.6,58.1 	"/>
	<polygon style="clip-path:url(#SVGID_1_);fill:#E5C28F;" points="104.3,57.5 104.3,57.5 104.3,57.5 	"/>
	<path style="clip-path:url(#SVGID_1_);fill:#E5C28F;" d="M90.1,67.4c-0.5,0.2-0.8,0.7-0.6,1.2c0.1,0.4,0.5,0.7,0.9,0.7
		c0.1,0,0.2,0,0.3-0.1l11.3-3.8l0.3-2.1L90.1,67.4z"/>
	<path style="clip-path:url(#SVGID_1_);fill:#E5C28F;" d="M89.2,75.9c0.1,0.4,0.5,0.7,0.9,0.7c0.1,0,0.2,0,0.3-0.1l10.7-3.6l0.3-2.1
		l-11.6,3.9C89.3,74.8,89,75.4,89.2,75.9z"/>
	<path style="clip-path:url(#SVGID_1_);fill:#E5C28F;" d="M88.9,83.2c0.1,0.4,0.5,0.7,0.9,0.7c0.1,0,0.2,0,0.3-0.1l10.1-3.4l0.3-2.1
		l-11,3.7C89,82.1,88.7,82.7,88.9,83.2z"/>
	<path style="clip-path:url(#SVGID_1_);fill:#E5C28F;" d="M88.5,90.5c0.1,0.4,0.5,0.7,0.9,0.7c0.1,0,0.2,0,0.3-0.1l9.5-3.3l0.3-2.1
		l-10.4,3.6C88.6,89.4,88.4,90,88.5,90.5z"/>
	<path style="clip-path:url(#SVGID_1_);fill:#E5C28F;" d="M88.2,97.8c0.1,0.4,0.5,0.7,0.9,0.7c0.1,0,0.2,0,0.3-0.1l8.9-3.1l0.3-2.1
		l-9.8,3.4C88.3,96.7,88,97.3,88.2,97.8z"/>
	<path style="clip-path:url(#SVGID_1_);fill:#E5C28F;" d="M87.9,105.1c0.1,0.4,0.5,0.6,0.9,0.6c0.1,0,0.2,0,0.3-0.1l8.3-2.9l0.3-2.1
		l-9.2,3.2C88,104,87.7,104.5,87.9,105.1z"/>
	<path style="clip-path:url(#SVGID_1_);fill:#E5C28F;" d="M87.6,112.3c0.1,0.4,0.5,0.6,0.9,0.6c0.1,0,0.2,0,0.3-0.1l7.7-2.7l0.3-2.1
		l-8.6,3.1C87.6,111.3,87.4,111.8,87.6,112.3z"/>
	<path style="clip-path:url(#SVGID_1_);fill:#E5C28F;" d="M87.2,119.6c0.1,0.4,0.5,0.6,0.9,0.6c0.1,0,0.2,0,0.3-0.1l7.2-2.6l0.3-2.2
		l-8.1,2.9C87.3,118.6,87,119.1,87.2,119.6z"/>
	<path style="clip-path:url(#SVGID_1_);fill:#E5C28F;" d="M86.9,126.9c0.1,0.4,0.5,0.6,0.9,0.6c0.1,0,0.2,0,0.3-0.1l6.6-2.4L95,123
		l-7.5,2.7C87,125.9,86.7,126.4,86.9,126.9z"/>
	<path style="clip-path:url(#SVGID_1_);fill:#E5C28F;" d="M127.3,60.9l0-0.8l-6.7-1.5v-9.1h-14.3l0-11.1h0.6c0.5,0,1-0.4,1-1
		s-0.4-1-1-1h-0.6l0-12.2h0.1c0.5,0,1-0.4,1-1c0-0.5-0.4-1-1-1h-0.1l0-5.6h-1.9l0,5.6h-0.1c-0.5,0-1,0.4-1,1c0,0.5,0.4,1,1,1h0.1
		l0,12.2h-0.6c-0.5,0-1,0.4-1,1s0.4,1,1,1h0.6l0,11.1H91.7V59l-7.2,2l-1.6,73.6h1h0.9H95h2h17h2h11.1h1h0.9L127.3,60.9z M106.2,51.4
		h12.4v6.7l-12.4-2.9L106.2,51.4z M93.6,51.4h10.7l0,4.1l-10.7,2.9V51.4z M95.3,132.6H84.8l1.5-70.1l18-4.9l0,0v0h0l0,0v0l0,0
		L95.3,132.6z M97.2,132.6l0.9-7.6l3,0l0-1.9l-2.8,0l0.7-5.5l2.2,0l0-1.9l-2,0l0.7-5.5l1.5,0l0-1.9l-1.2,0l0.7-5.5l0.7,0l0-1.9
		l-0.5,0l4.3-35.7l1.7,13.6l-0.7,0l0,1.9l1,0l0.4,3l0.3,2.4l-2,0l0,1.9l2.3,0l5.6,44.5H97.2z M115.7,132.6l-9.4-75.3h0l-0.1,0v-0.3
		c0,0,0,0.1,0,0.1l0,0.2l19.1,4.4l1.7,70.9H115.7z"/>
	<polygon style="clip-path:url(#SVGID_1_);fill:#E5C28F;" points="104.3,57.5 104.3,57.5 104.3,57.5 104.3,57.5 	"/>
	<polygon style="clip-path:url(#SVGID_1_);fill:#E5C28F;" points="104.3,57.5 104.3,57.5 104.3,57.5 	"/>
	<path style="clip-path:url(#SVGID_1_);fill:#E5C28F;" d="M106.2,56.9v0.3l0.1,0l0-0.2C106.3,57,106.3,57,106.2,56.9z"/>
	<path style="clip-path:url(#SVGID_1_);fill:#E5C28F;" d="M121.2,69.2c0.4,0,0.8-0.3,0.9-0.7c0.2-0.5-0.1-1.1-0.6-1.2l-12.9-4.3
		l0.3,2.1l12,4C121,69.2,121.1,69.2,121.2,69.2z"/>
	<path style="clip-path:url(#SVGID_1_);fill:#E5C28F;" d="M121.5,76.5c0.4,0,0.8-0.3,0.9-0.7c0.2-0.5-0.1-1.1-0.6-1.2l-12.2-4.1
		l0.3,2.1l11.3,3.8C121.3,76.5,121.4,76.5,121.5,76.5z"/>
	<path style="clip-path:url(#SVGID_1_);fill:#E5C28F;" d="M121.8,83.8c0.4,0,0.8-0.3,0.9-0.7c0.2-0.5-0.1-1.1-0.6-1.2L110.6,78
		l0.3,2.1l10.6,3.6C121.6,83.8,121.7,83.8,121.8,83.8z"/>
	<path style="clip-path:url(#SVGID_1_);fill:#E5C28F;" d="M122.2,91.1c0.4,0,0.8-0.3,0.9-0.7c0.2-0.5-0.1-1.1-0.6-1.2l-10.9-3.7
		l0.3,2.1l10,3.4C122,91.1,122.1,91.1,122.2,91.1z"/>
	<path style="clip-path:url(#SVGID_1_);fill:#E5C28F;" d="M122.5,98.4c0.4,0,0.8-0.3,0.9-0.7c0.2-0.5-0.1-1.1-0.6-1.2L112.6,93
		l0.3,2.1l9.3,3.2C122.3,98.4,122.4,98.4,122.5,98.4z"/>
	<path style="clip-path:url(#SVGID_1_);fill:#E5C28F;" d="M122.8,105.7c0.4,0,0.8-0.2,0.9-0.6c0.2-0.5-0.1-1.1-0.6-1.2l-9.5-3.4
		l0.3,2.2l8.6,3C122.6,105.7,122.7,105.7,122.8,105.7z"/>
	<path style="clip-path:url(#SVGID_1_);fill:#E5C28F;" d="M123.2,113c0.4,0,0.8-0.2,0.9-0.6c0.2-0.5-0.1-1.1-0.6-1.2l-8.9-3.1
		l0.3,2.2l7.9,2.8C122.9,113,123,113,123.2,113z"/>
	<path style="clip-path:url(#SVGID_1_);fill:#E5C28F;" d="M123.5,120.3c0.4,0,0.8-0.2,0.9-0.6c0.2-0.5-0.1-1.1-0.6-1.2l-8.2-2.9
		l0.3,2.2l7.3,2.6C123.3,120.3,123.4,120.3,123.5,120.3z"/>
	<path style="clip-path:url(#SVGID_1_);fill:#E5C28F;" d="M124.1,125.7l-7.5-2.7l0.3,2.2l6.6,2.4c0.1,0,0.2,0.1,0.3,0.1
		c0.4,0,0.8-0.2,0.9-0.6C124.9,126.4,124.6,125.9,124.1,125.7z"/>
	
		<rect x="106" y="93.1" transform="matrix(1.254545e-02 -0.9999 0.9999 1.254545e-02 11.113 200.2377)" style="clip-path:url(#SVGID_1_);fill:#E5C28F;" width="1.9" height="2.7"/>
	
		<rect x="105.7" y="100.4" transform="matrix(9.948244e-03 -1 1 9.948244e-03 3.7719 207.5464)" style="clip-path:url(#SVGID_1_);fill:#E5C28F;" width="1.9" height="3"/>
	
		<rect x="105.5" y="107.6" transform="matrix(7.794822e-03 -1 1 7.794822e-03 -3.6168 214.8437)" style="clip-path:url(#SVGID_1_);fill:#E5C28F;" width="1.9" height="3.3"/>
	
		<rect x="105.2" y="114.8" transform="matrix(5.244893e-03 -1 1 5.244893e-03 -10.9653 222.2182)" style="clip-path:url(#SVGID_1_);fill:#E5C28F;" width="1.9" height="3.5"/>
	
		<rect x="105" y="122.1" transform="matrix(2.973560e-03 -1 1 2.973560e-03 -18.3431 229.5955)" style="clip-path:url(#SVGID_1_);fill:#E5C28F;" width="1.9" height="3.8"/>
</g>
<g>
	<linearGradient id="SVGID_2_" gradientUnits="userSpaceOnUse" x1="166.2012" y1="120.8202" x2="213.733" y2="120.8202">
		<stop  offset="0" style="stop-color:#E5C28F"/>
		<stop  offset="1" style="stop-color:#C79B5D"/>
	</linearGradient>
	<path class="st4" d="M193.8,117.8c0,0,2.3-9.2,11.1-19.7c-6.7,2.1-14.1,6.1-19.8,9.8l4.7,10.4c2.7,8.4-24.9,13.1-23.5,21.6
		c1.4,8.8,16.2-1.2,26.8-7.4c11.8-6.9,20.7-10.6,20.7-10.6S207.3,119.4,193.8,117.8z"/>
	<linearGradient id="SVGID_3_" gradientUnits="userSpaceOnUse" x1="9.094947e-13" y1="120.8202" x2="47.5317" y2="120.8202">
		<stop  offset="0" style="stop-color:#E5C28F"/>
		<stop  offset="1" style="stop-color:#C79B5D"/>
	</linearGradient>
	<path class="st5" d="M24,118.4l4.7-10.4c-5.7-3.7-13.2-7.7-19.8-9.8c8.8,10.4,11.1,19.7,11.1,19.7C6.4,119.4,0,122,0,122
		s8.9,3.7,20.7,10.6c10.6,6.2,25.4,16.2,26.8,7.4C48.8,131.5,21.3,126.8,24,118.4z"/>
	<linearGradient id="SVGID_5_" gradientUnits="userSpaceOnUse" x1="27.8887" y1="111.4801" x2="185.9993" y2="111.4801">
		<stop  offset="0" style="stop-color:#E5C28F"/>
		<stop  offset="1" style="stop-color:#C79B5D"/>
	</linearGradient>
	<path style="fill:url(#SVGID_5_);" d="M174.8,90.2c-21.7,8.7-44.5,13.2-67.9,13.2S60.8,99,39.1,90.2l-11.3,27.1
		c25.2,10.2,51.8,15.4,79.1,15.4s53.8-5.2,79.1-15.4L174.8,90.2z"/>
</g>
<g>
	<path class="st1" d="M52.4,114.6c-0.4,0.4-0.9,0.6-1.5,0.7c-0.6,0.1-1.2,0.1-2-0.1c-1.1-0.3-2-0.8-2.5-1.5
		c-0.6-0.7-0.8-1.6-0.6-2.6l2.8,0.7c-0.1,0.3,0,0.6,0.1,0.8c0.1,0.2,0.3,0.3,0.6,0.4c0.2,0.1,0.4,0.1,0.6,0c0.2-0.1,0.3-0.2,0.3-0.5
		c0.1-0.3,0-0.5-0.2-0.8c-0.2-0.2-0.6-0.5-1.1-0.8c-0.6-0.4-1-0.7-1.3-1c-0.3-0.3-0.6-0.7-0.8-1.2c-0.2-0.5-0.2-1,0-1.6
		c0.2-0.6,0.4-1.1,0.9-1.4c0.4-0.3,0.9-0.6,1.5-0.6c0.6-0.1,1.2,0,1.9,0.1c1.1,0.3,1.9,0.8,2.4,1.5c0.5,0.7,0.7,1.5,0.5,2.5
		l-2.9-0.7c0-0.3,0-0.6-0.1-0.7c-0.1-0.2-0.3-0.3-0.5-0.4c-0.2-0.1-0.4,0-0.5,0c-0.1,0.1-0.2,0.2-0.3,0.4c-0.1,0.3,0,0.5,0.2,0.7
		c0.2,0.2,0.6,0.5,1.1,0.8c0.5,0.4,1,0.7,1.3,1c0.3,0.3,0.6,0.7,0.8,1.2c0.2,0.5,0.2,1,0,1.7C53,113.7,52.8,114.2,52.4,114.6z"/>
	<path class="st1" d="M62.2,110.2l-0.3,1.6l3.1,0.6l-0.4,2l-3.1-0.6l-0.4,1.8l3.6,0.7l-0.4,2.2l-6.3-1.3l2-9.7l6.3,1.3l-0.4,2.2
		L62.2,110.2z"/>
	<path class="st1" d="M78.3,110.8l-0.3,2.2l-2.6-0.4l-1.2,7.6l-2.7-0.4l1.2-7.6l-2.6-0.4l0.3-2.2L78.3,110.8z"/>
	<path class="st1" d="M90.2,112.1l-0.2,2.2l-2.7-0.3l-0.8,7.7l-2.7-0.3l0.8-7.7l-2.6-0.3l0.2-2.2L90.2,112.1z"/>
	<path class="st1" d="M97.4,120.4l3.1,0.2l-0.1,2.1l-5.8-0.3l0.5-9.9l2.8,0.1L97.4,120.4z"/>
	<path class="st1" d="M108.7,115l0,1.6l3.2,0l0,2.1l-3.2,0l0,1.8l3.6,0l0,2.2l-6.4,0l0-9.9l6.4,0l0,2.2L108.7,115z"/>
	<path class="st1" d="M129,111.8l0.8,9.8l-2.7,0.2l-0.4-5.6l-1.4,5.7l-2.4,0.2l-2.3-5.4l0.4,5.6l-2.8,0.2l-0.8-9.8l3.4-0.3l2.9,6.2
		l1.8-6.6L129,111.8z"/>
	<path class="st1" d="M137.4,112.7l0.3,1.6l3.2-0.5l0.3,2.1l-3.2,0.5l0.3,1.8l3.6-0.6l0.4,2.2l-6.3,1l-1.6-9.8l6.3-1l0.4,2.2
		L137.4,112.7z"/>
	<path class="st1" d="M157,116.3l-2.7,0.7l-4.9-4.5l1.4,5.4l-2.7,0.7l-2.5-9.6l2.7-0.7l4.9,4.5l-1.4-5.4l2.7-0.7L157,116.3z"/>
	<path class="st1" d="M166.7,102.5l0.8,2.1l-2.5,0.9l2.6,7.3l-2.6,0.9l-2.6-7.2l-2.5,0.9l-0.8-2.1L166.7,102.5z"/>
</g>
</svg>
